<svg width="24" height="25" viewBox="0 0 24 25" fill="none" xmlns="http://www.w3.org/2000/svg">
<path d="M17.0001 21.5148C17.2654 21.5148 17.5197 21.4094 17.7073 21.2219C17.8948 21.0343 18.0001 20.78 18.0001 20.5148V15.1648C18.0001 14.7078 18.3161 14.3208 18.7271 14.1238C19.5781 13.7178 20.2583 13.0243 20.6478 12.1657C21.0372 11.307 21.1108 10.3384 20.8556 9.43073C20.6003 8.52309 20.0327 7.73477 19.2528 7.20491C18.473 6.67506 17.531 6.43771 16.5931 6.53477C16.2069 5.63698 15.566 4.87206 14.7497 4.33461C13.9334 3.79715 12.9775 3.51071 12.0001 3.51071C11.0228 3.51071 10.0669 3.79715 9.25057 4.33461C8.43427 4.87206 7.79338 5.63698 7.40714 6.53477C6.46973 6.43839 5.52838 6.67607 4.74908 7.20591C3.96977 7.73574 3.40255 8.5237 3.14743 9.43087C2.8923 10.338 2.96565 11.3061 3.35455 12.1645C3.74344 13.0229 4.42291 13.7164 5.27314 14.1228C5.68414 14.3208 6.00014 14.7078 6.00014 15.1638V20.5148C6.00014 20.78 6.1055 21.0343 6.29304 21.2219C6.48057 21.4094 6.73493 21.5148 7.00014 21.5148H17.0001Z" stroke="#272727" stroke-width="2" stroke-linecap="round" stroke-linejoin="round"/>
<path d="M6 17.5148H18" stroke="#272727" stroke-width="2" stroke-linecap="round" stroke-linejoin="round"/>
</svg>
