<svg width="24" height="25" viewBox="0 0 24 25" fill="none" xmlns="http://www.w3.org/2000/svg">
<path d="M11.5 15.5H7C5.93913 15.5 4.92172 15.9214 4.17157 16.6716C3.42143 17.4217 3 18.4391 3 19.5V21.5" stroke="#272727" stroke-width="2" stroke-linecap="round" stroke-linejoin="round"/>
<path d="M21.379 17.126C21.7773 16.7277 22.0011 16.1874 22.0011 15.624C22.0011 15.0607 21.7773 14.5204 21.379 14.122C20.9806 13.7237 20.4403 13.4999 19.877 13.4999C19.3136 13.4999 18.7733 13.7237 18.375 14.122L14.365 18.134C14.1272 18.3716 13.9532 18.6654 13.859 18.988L13.022 21.858C12.9969 21.9441 12.9954 22.0353 13.0176 22.1221C13.0398 22.2089 13.085 22.2882 13.1484 22.3516C13.2118 22.415 13.291 22.4601 13.3779 22.4824C13.4647 22.5046 13.5559 22.5031 13.642 22.478L16.512 21.641C16.8346 21.5468 17.1283 21.3728 17.366 21.135L21.379 17.126Z" stroke="#272727" stroke-width="2" stroke-linecap="round" stroke-linejoin="round"/>
<path d="M10 11.5C12.2091 11.5 14 9.70914 14 7.5C14 5.29086 12.2091 3.5 10 3.5C7.79086 3.5 6 5.29086 6 7.5C6 9.70914 7.79086 11.5 10 11.5Z" stroke="#272727" stroke-width="2" stroke-linecap="round" stroke-linejoin="round"/>
</svg>
