<svg width="260" height="260" viewBox="0 0 260 260" fill="none" xmlns="http://www.w3.org/2000/svg">
<path d="M35.8575 234.55C52.0043 234.55 65.0938 226.534 65.0938 216.646C65.0938 206.758 52.0043 198.742 35.8575 198.742C19.7107 198.742 6.62109 206.758 6.62109 216.646C6.62109 226.534 19.7107 234.55 35.8575 234.55Z" fill="#E0E0E0"/>
<path d="M0 62.6761C2.50385 61.275 5.90283 61.5472 9.64609 63.8447C11.4374 64.9672 13.0794 66.3383 14.5286 67.9218C19.818 73.5792 23.5738 82.1251 23.5738 89.4426C23.5738 98.8782 29.8334 110.339 37.514 115.06L51.4542 123.593L110.864 87.2181L96.9429 78.6789C89.2498 73.971 83.0027 62.4968 83.0027 53.0677C83.0027 43.6387 76.7431 32.1778 69.0625 27.4633C65.3067 25.1459 61.8389 24.9002 59.3288 26.361L58.9908 26.5602L39.3919 38.5723L36.262 40.4647L0 62.6761Z" fill="#E6E6E6"/>
<path d="M176.109 113.407C176.04 113.359 175.959 113.333 175.877 113.333C175.795 113.333 175.714 113.359 175.645 113.407L173.937 114.463C173.754 114.594 173.602 114.768 173.493 114.972C173.385 115.176 173.322 115.404 173.311 115.638V136.933L245.296 180.26L248.132 157.491L176.109 113.407Z" fill="#263238"/>
<path d="M248.1 157.464C248.029 157.438 247.952 157.43 247.877 157.441C247.801 157.453 247.73 157.484 247.668 157.531L245.922 158.56C245.732 158.679 245.576 158.851 245.471 159.058L173.467 114.961C173.577 114.758 173.731 114.587 173.917 114.463L175.639 113.414C175.708 113.365 175.788 113.34 175.87 113.34C175.953 113.34 176.033 113.365 176.102 113.414L248.1 157.464Z" fill="#455A64"/>
<path d="M247.667 157.524L245.921 158.56C245.737 158.69 245.585 158.865 245.476 159.069C245.368 159.273 245.305 159.501 245.295 159.735V180.24L248.3 182.06V157.896C248.306 157.484 248.018 157.312 247.667 157.524Z" fill="#37474F"/>
<path d="M245.303 180.26V181.661L240.803 183.786L168.779 139.669L173.28 136.933L245.303 180.26Z" fill="black"/>
<path d="M242.303 186.548L247.667 183.228C247.851 183.098 248.004 182.924 248.112 182.72C248.221 182.516 248.283 182.287 248.293 182.053L245.289 180.234C245.279 180.468 245.217 180.697 245.109 180.901C245 181.105 244.847 181.279 244.663 181.409L242.941 182.465C242.591 182.677 242.315 182.504 242.315 182.073L242.303 186.548Z" fill="#37474F"/>
<path d="M258.872 184.331C259.206 184.088 259.482 183.766 259.677 183.39C259.873 183.014 259.983 182.595 259.999 182.166V113.261C259.977 112.818 259.857 112.387 259.648 112.003C259.439 111.618 259.148 111.292 258.797 111.05L175.469 60.0136C175.121 59.7813 174.72 59.6542 174.309 59.6458C173.898 59.6375 173.493 59.7482 173.136 59.9661C172.78 60.184 172.487 60.5008 172.288 60.8824C172.089 61.2641 171.992 61.696 172.007 62.1318V131.037C172.031 131.48 172.152 131.912 172.362 132.296C172.572 132.68 172.864 133.006 173.216 133.248L256.563 184.284C256.918 184.481 257.311 184.588 257.712 184.596C258.113 184.604 258.51 184.513 258.872 184.331Z" fill="#FF441F"/>
<path d="M257.746 114.642V183.547C257.746 184.357 257.208 184.689 256.544 184.284L173.216 133.248C172.865 133.006 172.572 132.68 172.362 132.296C172.152 131.911 172.031 131.48 172.008 131.037V62.1316C172.008 61.3215 172.552 60.9895 173.216 61.3946L256.563 112.431C256.91 112.675 257.198 113.003 257.403 113.387C257.609 113.771 257.726 114.201 257.746 114.642Z" fill="#FF441F"/>
<path opacity="0.2" d="M259.999 113.261V182.166C259.984 182.595 259.873 183.014 259.678 183.39C259.482 183.766 259.207 184.088 258.873 184.331C258.551 184.496 258.201 184.588 257.844 184.6C257.487 184.613 257.132 184.546 256.801 184.404C257.339 184.59 257.746 184.258 257.746 183.547V114.635C257.73 114.193 257.609 113.761 257.395 113.38L259.643 111.999C259.862 112.38 259.985 112.815 259.999 113.261Z" fill="black"/>
<path d="M250.973 132.604V143.474C250.973 144.29 250.434 144.616 249.771 144.211L236.382 135.984C236.032 135.742 235.741 135.417 235.532 135.034C235.323 134.651 235.203 134.221 235.18 133.779V122.929C235.18 122.119 235.718 121.787 236.382 122.192L249.771 130.393C250.121 130.635 250.413 130.961 250.622 131.345C250.83 131.73 250.951 132.161 250.973 132.604Z" fill="#455A64"/>
<mask id="mask0_1656_10909" style="mask-type:luminance" maskUnits="userSpaceOnUse" x="235" y="122" width="16" height="23">
<path d="M250.975 132.604V143.474C250.975 144.29 250.436 144.616 249.773 144.211L236.383 135.983C236.034 135.742 235.743 135.417 235.534 135.034C235.325 134.651 235.205 134.221 235.182 133.779V122.929C235.182 122.119 235.72 121.787 236.383 122.192L249.773 130.392C250.123 130.634 250.415 130.961 250.624 131.345C250.832 131.729 250.953 132.161 250.975 132.604Z" fill="white"/>
</mask>
<g mask="url(#mask0_1656_10909)">
<path d="M233.06 123.96L232.787 124.46L253.09 136.904L253.363 136.404L233.06 123.96Z" fill="white"/>
<path d="M246.735 132.511H246.191V138.049H246.735V132.511Z" fill="white"/>
<path d="M239.969 128.387H239.426V133.918H239.969V128.387Z" fill="white"/>
<path d="M233.06 129.512L232.787 130.013L253.09 142.457L253.363 141.957L233.06 129.512Z" fill="white"/>
</g>
<path d="M250.973 153.334V155.904C250.973 156.721 250.434 157.046 249.771 156.641L236.382 148.44C236.032 148.199 235.741 147.874 235.532 147.491C235.323 147.107 235.203 146.678 235.18 146.236V143.653C235.18 142.836 235.718 142.511 236.382 142.916L249.771 151.116C250.122 151.359 250.414 151.687 250.623 152.072C250.832 152.458 250.952 152.89 250.973 153.334Z" fill="#FAFAFA"/>
<path d="M232.15 141.814V144.397C232.15 145.207 231.612 145.539 230.949 145.134L217.559 136.933C217.209 136.691 216.917 136.364 216.709 135.98C216.5 135.596 216.379 135.165 216.357 134.722V132.145C216.357 131.329 216.896 130.997 217.559 131.408L230.949 139.609C231.298 139.85 231.589 140.176 231.798 140.559C232.007 140.942 232.128 141.372 232.15 141.814Z" fill="#FAFAFA"/>
<path d="M213.371 130.299V132.883C213.371 133.693 212.833 134.025 212.169 133.62L198.78 125.419C198.43 125.177 198.138 124.85 197.929 124.466C197.72 124.082 197.6 123.651 197.578 123.208V120.625C197.578 119.815 198.116 119.483 198.78 119.888L212.169 128.088C212.519 128.331 212.81 128.658 213.019 129.042C213.227 129.426 213.348 129.857 213.371 130.299Z" fill="#FAFAFA"/>
<path d="M194.592 118.785V121.375C194.592 122.192 194.054 122.524 193.39 122.112L180.001 113.918C179.651 113.675 179.361 113.348 179.152 112.964C178.943 112.58 178.822 112.15 178.799 111.707V109.124C178.799 108.314 179.337 107.982 180.001 108.387L193.39 116.588C193.739 116.828 194.029 117.153 194.238 117.535C194.447 117.916 194.568 118.345 194.592 118.785Z" fill="#FAFAFA"/>
<path opacity="0.15" d="M186.269 121.9L189.342 123.779C189.551 123.925 189.725 124.122 189.85 124.352C189.975 124.583 190.048 124.841 190.062 125.107V126.103C190.062 126.588 189.737 126.767 189.342 126.541L186.269 124.695C186.059 124.549 185.885 124.353 185.76 124.122C185.635 123.891 185.562 123.633 185.549 123.367V122.371C185.549 121.853 185.874 121.654 186.269 121.9Z" fill="black"/>
<path opacity="0.15" d="M179.501 117.756L182.568 119.635C182.779 119.78 182.955 119.976 183.081 120.207C183.208 120.438 183.281 120.697 183.294 120.963V121.959C183.294 122.451 182.969 122.623 182.568 122.404L179.501 120.525C179.291 120.38 179.116 120.184 178.991 119.953C178.866 119.722 178.794 119.463 178.781 119.197V118.201C178.781 117.71 179.101 117.511 179.501 117.756Z" fill="black"/>
<path opacity="0.15" d="M218.247 148.394L180.063 124.994C179.4 124.589 178.861 124.914 178.861 125.731V126.926C178.883 127.369 179.004 127.8 179.212 128.185C179.421 128.569 179.713 128.895 180.063 129.137L218.247 152.537C218.91 152.942 219.449 152.617 219.449 151.8V150.592C219.425 150.151 219.304 149.723 219.095 149.341C218.886 148.959 218.596 148.635 218.247 148.394Z" fill="black"/>
<path d="M179.825 80.9034C179.284 79.8015 179.013 78.5731 179.037 77.331C179.037 76.0029 179.293 75.1131 179.807 74.7147C180.32 74.3163 181.058 74.4226 182.022 75.0069C182.414 75.2465 182.782 75.5292 183.118 75.8502C183.434 76.1439 183.713 76.4785 183.95 76.8462C184 76.9152 184.028 76.9987 184.032 77.0853C184.034 77.1452 184.016 77.204 183.982 77.2513L183.694 77.7891C183.656 77.8489 183.619 77.8688 183.581 77.8423C183.524 77.8023 183.475 77.7504 183.437 77.6895C183.101 77.2068 182.675 76.8023 182.185 76.5009C181.616 76.1556 181.171 76.1158 180.858 76.3881C180.545 76.6603 180.389 77.2513 180.389 78.1676C180.368 78.9881 180.536 79.8015 180.877 80.5382C181.178 81.1701 181.646 81.696 182.223 82.0521C182.605 82.3343 183.067 82.468 183.531 82.4306C183.578 82.4157 183.628 82.4157 183.675 82.4306C183.713 82.4306 183.75 82.497 183.788 82.6298L184.113 83.6126C184.13 83.664 184.141 83.7176 184.144 83.7719C184.144 83.8184 184.113 83.8582 184.044 83.8848C183.612 84.0574 182.949 83.8848 182.047 83.3204C181.108 82.751 180.338 81.9136 179.825 80.9034Z" fill="white"/>
<path d="M184.903 84.7811C184.839 84.6477 184.809 84.499 184.815 84.3495V77.4039C184.815 77.2379 184.815 77.125 184.903 77.0719C184.991 77.0188 185.053 77.0387 185.185 77.1184L187.282 78.3999C187.94 78.7744 188.486 79.3379 188.857 80.026C189.228 80.7141 189.409 81.4991 189.379 82.2911C189.403 82.7249 189.319 83.158 189.134 83.546C189.06 83.6822 188.952 83.7943 188.821 83.8703C188.691 83.9463 188.544 83.9834 188.396 83.9776L189.266 87.2048C189.274 87.2642 189.274 87.3246 189.266 87.3841C189.266 87.5235 189.21 87.5567 189.091 87.4837L188.17 86.9259C188.107 86.8874 188.05 86.838 188.001 86.7798C187.95 86.7076 187.916 86.6233 187.901 86.5341L187.163 83.5261L186.18 82.9219V85.2194C186.194 85.3349 186.165 85.4518 186.099 85.5447C186.042 85.5978 185.942 85.5447 185.804 85.4916L185.178 85.1131C185.056 85.036 184.959 84.9198 184.903 84.7811ZM187.081 82.052C187.394 82.2446 187.632 82.291 187.789 82.2047C187.945 82.1184 188.027 81.8594 188.027 81.4544C188.037 81.1014 187.962 80.7515 187.807 80.4384C187.661 80.1598 187.444 79.9299 187.181 79.7744L186.199 79.1702V81.5075L187.081 82.052Z" fill="white"/>
<path d="M190.149 87.995C190.085 87.8616 190.055 87.7129 190.061 87.5634V80.6178C190.061 80.4451 190.061 80.3389 190.149 80.2857C190.237 80.2326 190.299 80.2526 190.431 80.3322L193.867 82.4372C193.983 82.4993 194.079 82.5963 194.143 82.7161C194.198 82.8497 194.224 82.9951 194.218 83.141V83.5726C194.232 83.6936 194.206 83.816 194.143 83.9179C194.093 83.9644 193.999 83.9179 193.867 83.8648L191.426 82.3708V84.1902L193.129 85.2393C193.245 85.2979 193.341 85.393 193.404 85.5116C193.459 85.6476 193.485 85.7951 193.479 85.9432V86.3482C193.494 86.4691 193.467 86.5916 193.404 86.6935C193.354 86.74 193.266 86.6935 193.129 86.6404L191.426 85.5979V87.5102L193.861 89.0043C193.976 89.0658 194.07 89.1631 194.13 89.2832C194.185 89.4194 194.211 89.5668 194.205 89.7148V90.1398C194.205 90.319 194.205 90.4319 194.13 90.4718C194.055 90.5116 193.992 90.4718 193.861 90.4186L190.431 88.3203C190.307 88.246 190.208 88.1322 190.149 87.995Z" fill="white"/>
<path d="M194.899 90.9034C194.835 90.77 194.805 90.6213 194.811 90.4718V83.5262C194.811 83.3602 194.811 83.2473 194.899 83.1942C194.987 83.1411 195.049 83.161 195.181 83.2407L196.921 84.3097C197.823 84.8433 198.569 85.6316 199.074 86.5873C199.591 87.6582 199.843 88.8509 199.807 90.0535C199.807 91.3815 199.562 92.2647 199.062 92.6099C198.561 92.9552 197.854 92.8357 196.921 92.2647L195.181 91.2022C195.061 91.1349 194.963 91.0308 194.899 90.9034ZM196.984 90.9034C197.478 91.2022 197.841 91.2354 198.085 90.9964C198.329 90.7573 198.448 90.173 198.448 89.2367C198.482 88.4847 198.358 87.7341 198.085 87.0388C197.848 86.5121 197.463 86.0761 196.984 85.7905L196.176 85.2925V90.4054L196.984 90.9034Z" fill="white"/>
<path d="M200.577 94.3829C200.513 94.2472 200.483 94.0963 200.489 93.9447V87.0057C200.489 86.8331 200.489 86.7268 200.577 86.6737C200.664 86.6206 200.727 86.6405 200.858 86.7202L201.484 87.0987C201.607 87.1676 201.708 87.271 201.779 87.3975C201.835 87.538 201.863 87.6896 201.86 87.8424V94.8145C201.874 94.9322 201.845 95.0509 201.779 95.1465C201.722 95.193 201.622 95.1797 201.484 95.0934L200.858 94.7149C200.735 94.6368 200.637 94.5211 200.577 94.3829Z" fill="white"/>
<path d="M204.156 96.5741C204.095 96.4399 204.064 96.2918 204.069 96.1425V90.1132L202.729 89.2832C202.614 89.2217 202.52 89.1244 202.46 89.0043C202.404 88.8707 202.379 88.7253 202.385 88.5794V88.1743C202.37 88.0534 202.397 87.9309 202.46 87.829C202.51 87.7825 202.598 87.829 202.729 87.8821L206.817 90.3855C206.933 90.4519 207.03 90.5506 207.098 90.671C207.153 90.8096 207.179 90.9591 207.173 91.1093V91.4944C207.173 91.667 207.173 91.7733 207.098 91.8198C207.023 91.8663 206.948 91.8198 206.817 91.7666L205.458 90.9366V96.9659C205.458 97.1385 205.458 97.2448 205.377 97.2913C205.295 97.3377 205.22 97.2913 205.083 97.2315L204.457 96.8597C204.333 96.7965 204.229 96.6975 204.156 96.5741Z" fill="white"/>
<path d="M211.274 100.16C210.734 99.0601 210.463 97.8339 210.486 96.594C210.486 95.266 210.742 94.3696 211.256 93.9778C211.769 93.5861 212.508 93.679 213.472 94.27C213.863 94.5073 214.231 94.7878 214.567 95.1066C214.88 95.4036 215.159 95.7379 215.399 96.1027C215.448 96.1721 215.477 96.2553 215.481 96.3417C215.484 96.4018 215.467 96.461 215.431 96.5077L215.143 97.0456C215.105 97.112 215.068 97.1319 215.024 97.1053C214.971 97.0598 214.924 97.0061 214.886 96.946C214.549 96.4659 214.123 96.0637 213.634 95.764C213.071 95.4121 212.626 95.3789 212.313 95.6511C212.001 95.9234 211.838 96.5144 211.838 97.4241C211.819 98.2472 211.988 99.063 212.332 99.8012C212.637 100.431 213.104 100.956 213.678 101.315C214.062 101.592 214.523 101.725 214.986 101.694C215.031 101.675 215.08 101.675 215.124 101.694C215.181 101.747 215.222 101.816 215.243 101.893L215.562 102.876C215.584 102.926 215.596 102.98 215.6 103.035C215.6 103.081 215.562 103.121 215.5 103.155C215.068 103.327 214.404 103.155 213.503 102.583C212.559 102.015 211.787 101.175 211.274 100.16Z" fill="white"/>
<path d="M215.875 103.686C215.87 103.631 215.87 103.575 215.875 103.52L218.022 97.61C218.06 97.4971 218.104 97.4307 218.147 97.4108C218.183 97.4026 218.22 97.4025 218.255 97.4105C218.291 97.4185 218.325 97.4344 218.354 97.4573L218.98 97.8291C219.062 97.8758 219.131 97.9445 219.18 98.0283C219.236 98.1397 219.278 98.2579 219.306 98.3803L221.446 106.913C221.454 106.981 221.454 107.05 221.446 107.119C221.446 107.252 221.396 107.285 221.296 107.225L220.295 106.607C220.229 106.569 220.172 106.517 220.126 106.455C220.08 106.377 220.049 106.292 220.032 106.202L219.65 104.589L217.64 103.354L217.265 104.509C217.265 104.589 217.209 104.629 217.171 104.642C217.141 104.647 217.111 104.645 217.082 104.637C217.053 104.629 217.026 104.615 217.002 104.595L216 103.978C215.956 103.946 215.921 103.902 215.899 103.851C215.877 103.799 215.869 103.742 215.875 103.686ZM219.362 103.022L218.692 100.127L217.997 102.232L219.362 103.022Z" fill="white"/>
<path d="M222.266 107.663C222.202 107.53 222.172 107.381 222.179 107.232V100.293C222.179 100.12 222.179 100.007 222.266 99.9606C222.354 99.9141 222.417 99.9207 222.548 100.007L224.645 101.289C225.306 101.659 225.854 102.221 226.226 102.908C226.598 103.596 226.779 104.381 226.748 105.173C226.771 105.608 226.685 106.041 226.498 106.428C226.423 106.564 226.315 106.676 226.185 106.752C226.055 106.828 225.908 106.865 225.759 106.86L226.629 110.087C226.638 110.146 226.638 110.207 226.629 110.266C226.629 110.406 226.573 110.439 226.454 110.372L225.534 109.808C225.469 109.772 225.412 109.722 225.365 109.662C225.317 109.59 225.283 109.509 225.265 109.423L224.501 106.382L223.518 105.777V108.095C223.531 108.212 223.502 108.331 223.437 108.427C223.381 108.473 223.28 108.427 223.143 108.367L222.517 107.989C222.405 107.909 222.317 107.796 222.266 107.663ZM224.445 104.934C224.758 105.127 224.996 105.18 225.152 105.087C225.309 104.994 225.39 104.748 225.39 104.343C225.401 103.988 225.326 103.636 225.171 103.321C225.024 103.042 224.808 102.812 224.545 102.656L223.562 102.052V104.396L224.445 104.934Z" fill="white"/>
<path d="M227.513 110.877C227.451 110.743 227.421 110.595 227.425 110.445V103.506C227.418 103.447 227.422 103.386 227.437 103.328C227.452 103.27 227.478 103.215 227.513 103.168C227.569 103.121 227.663 103.135 227.795 103.214L229.535 104.283C230.437 104.817 231.182 105.605 231.688 106.561C232.205 107.632 232.457 108.825 232.42 110.027C232.42 111.388 232.176 112.238 231.676 112.584C231.175 112.929 230.467 112.809 229.535 112.238L227.795 111.176C227.675 111.109 227.576 111.004 227.513 110.877ZM229.604 110.877C230.092 111.176 230.461 111.209 230.699 110.97C230.937 110.731 231.068 110.147 231.068 109.21C231.1 108.458 230.974 107.707 230.699 107.013C230.464 106.486 230.082 106.05 229.604 105.764L228.79 105.266V110.379L229.604 110.877Z" fill="white"/>
<path opacity="0.5" d="M259.642 111.999L257.395 113.407C257.19 113.02 256.897 112.694 256.543 112.457L173.209 61.3945C172.583 61.0293 172.107 61.2684 172.02 61.9257C172.036 61.5078 172.156 61.1018 172.368 60.7486C172.579 60.3954 172.874 60.1074 173.224 59.9136C173.573 59.7198 173.965 59.627 174.359 59.6445C174.753 59.6621 175.136 59.7892 175.469 60.0134L258.797 111.05C259.152 111.282 259.443 111.61 259.642 111.999Z" fill="#FAFAFA"/>
<path d="M242.117 161.17L234.994 165.28C234.875 165.567 234.811 165.876 234.806 166.19V190.353C234.802 190.426 234.811 190.498 234.834 190.566C234.857 190.635 234.892 190.698 234.938 190.752L162.952 146.681C162.887 146.633 162.835 146.568 162.802 146.492C162.769 146.416 162.756 146.332 162.764 146.249V122.079C162.776 121.845 162.838 121.617 162.947 121.413C163.055 121.209 163.207 121.035 163.39 120.904L169.618 117.079C169.684 117.025 169.763 116.993 169.845 116.987C169.928 116.981 170.01 117.001 170.082 117.046L242.117 161.17Z" fill="#263238"/>
<path opacity="0.5" d="M242.123 161.163L176.291 120.831L173.286 118.991L170.113 117.046C170.041 117.001 169.959 116.981 169.876 116.987C169.794 116.993 169.715 117.025 169.649 117.079L163.421 120.904C163.234 121.027 163.08 121.202 162.977 121.408L235 165.273L242.123 161.163Z" fill="#37474F"/>
<path d="M234.993 165.28C234.872 165.571 234.806 165.885 234.799 166.203V190.366C234.799 190.798 235.087 190.971 235.425 190.758L242.31 186.548V161.608C242.32 161.524 242.307 161.438 242.274 161.361C242.241 161.284 242.189 161.217 242.123 161.17L234.993 165.28Z" fill="#37474F"/>
<path d="M235.506 190.692L235.75 190.566L236.808 189.902C237.832 188.552 238.39 186.873 238.392 185.141V164.722C238.386 164.275 238.334 163.829 238.235 163.394L237.665 163.726C237.729 164.049 237.762 164.379 237.766 164.709V185.141C237.651 187.215 236.85 189.18 235.506 190.692Z" fill="#263238"/>
<path d="M154.744 93.8052C152.315 91.7202 147.896 89.0176 145.179 87.3576C140.61 84.5488 123.527 74.0772 116.385 69.7014C115.394 69.1677 114.298 68.8895 113.186 68.8895C112.075 68.8895 110.979 69.1677 109.987 69.7014L51.7729 105.372C50.843 106.018 50.0691 106.886 49.5135 107.906C48.9579 108.927 48.6362 110.072 48.5742 111.249V148.6C48.6367 149.777 48.9586 150.923 49.5141 151.945C50.0696 152.967 50.8432 153.836 51.7729 154.483L169.986 226.954C170.978 227.484 172.074 227.761 173.185 227.761C174.296 227.761 175.391 227.484 176.383 226.954L234.598 191.296C235.529 190.645 236.302 189.771 236.855 188.744C237.409 187.718 237.727 186.567 237.784 185.386V164.337C237.788 163.309 237.568 162.295 237.14 161.373C236.712 160.451 236.088 159.648 235.318 159.025C221.96 148.261 158.625 97.1319 154.744 93.8052Z" fill="#455A64"/>
<path d="M237.784 185.386V164.954C237.784 164.543 237.737 164.133 237.646 163.733L173.022 203.248C173.119 203.673 173.171 204.107 173.178 204.543V224.962C173.178 226.954 171.989 227.824 170.449 227.159H170.493C170.637 227.226 170.781 227.286 170.931 227.339L171.219 227.432C171.376 227.478 171.532 227.518 171.695 227.551C171.858 227.584 171.908 227.591 172.014 227.611L172.496 227.677H172.859H173.316H173.723L174.136 227.644C174.286 227.644 174.437 227.591 174.587 227.558L174.937 227.492C175.1 227.445 175.263 227.385 175.419 227.332C175.576 227.279 175.607 227.279 175.695 227.239C175.899 227.154 176.098 227.055 176.289 226.94C176.32 226.929 176.35 226.913 176.377 226.894L234.592 191.236L235.43 190.732C236.812 189.32 237.651 187.416 237.784 185.386Z" fill="#37474F"/>
<path d="M90.132 133.387C101.049 142.736 158.061 188.5 170.693 198.633C171.471 199.252 172.102 200.054 172.536 200.976C172.971 201.898 173.197 202.915 173.197 203.946V224.962C173.197 227.12 171.758 228.003 169.999 226.954L51.7416 154.509C50.812 153.862 50.0383 152.993 49.4828 151.971C48.9273 150.95 48.6054 149.804 48.543 148.626V111.249C48.543 109.091 49.9827 108.208 51.7416 109.29L80.5359 126.926C83.2714 128.593 87.6907 131.295 90.132 133.387Z" fill="#263238"/>
<path d="M89.7828 121.282C92.4995 122.942 96.9188 125.645 99.3663 127.743C101.729 129.809 103.97 132.026 106.077 134.383C106.537 134.858 107.126 135.167 107.762 135.264C108.397 135.362 109.045 135.244 109.613 134.928L151.853 109.031C152.102 108.902 152.318 108.71 152.481 108.472C152.645 108.234 152.751 107.957 152.79 107.666C152.829 107.375 152.801 107.078 152.708 106.8C152.614 106.523 152.459 106.275 152.254 106.076C150.14 103.72 147.893 101.502 145.525 99.4359C143.09 97.3509 138.671 94.655 135.954 92.9883C130.783 89.8143 124.981 86.2618 119.754 83.0679C119.143 82.7421 118.469 82.5724 117.785 82.5724C117.102 82.5724 116.427 82.7421 115.817 83.0679L73.5954 108.951C72.5125 109.615 72.5125 110.698 73.5954 111.362L89.7828 121.282Z" fill="#E0E0E0"/>
<path d="M115.816 85.2061C116.426 84.8803 117.101 84.7106 117.784 84.7106C118.468 84.7106 119.142 84.8803 119.753 85.2061C124.98 88.4 130.782 91.9525 135.953 95.1265C138.67 96.7932 143.089 99.4957 145.524 101.581C147.892 103.647 150.14 105.864 152.253 108.221C152.329 108.305 152.398 108.396 152.46 108.493C152.29 108.725 152.077 108.917 151.834 109.058L109.594 134.954C109.025 135.271 108.377 135.389 107.742 135.291C107.107 135.193 106.517 134.885 106.057 134.41C103.95 132.053 101.709 129.835 99.3466 127.77C96.899 125.671 92.461 122.969 89.7631 121.309L73.5944 111.362C73.5193 111.315 73.463 111.262 73.4004 111.216C73.4614 111.162 73.5263 111.113 73.5944 111.07L115.816 85.2061Z" fill="white"/>
<path d="M116.511 119.35L103.873 119.144V113.792L112.924 115.532L112.806 94.2633L120.674 94.1305L116.511 119.35Z" fill="#FF441F"/>
<path d="M153.11 119.927L153.529 118.082L155.282 117.929L161.01 114.423C163.726 112.763 167.326 113.095 169.078 115.16C169.45 115.59 169.722 116.106 169.873 116.667L170.368 116.621L169.923 118.58C169.727 119.274 169.401 119.919 168.966 120.478C168.531 121.037 167.994 121.498 167.388 121.833L160.415 126.096C159.848 126.418 159.2 126.539 158.564 126.442C157.927 126.346 157.337 126.036 156.878 125.558C155.777 124.31 154.675 123.015 153.573 121.7C153.364 121.469 153.212 121.185 153.131 120.876C153.05 120.566 153.043 120.241 153.11 119.927Z" fill="#FF441F"/>
<path opacity="0.1" d="M153.11 119.927L153.529 118.082L155.282 117.929L161.01 114.423C163.726 112.763 167.326 113.095 169.078 115.16C169.45 115.59 169.722 116.106 169.873 116.667L170.368 116.621L169.923 118.58C169.727 119.274 169.401 119.919 168.966 120.478C168.531 121.037 167.994 121.498 167.388 121.833L160.415 126.096C159.848 126.418 159.2 126.539 158.564 126.442C157.927 126.346 157.337 126.036 156.878 125.558C155.777 124.31 154.675 123.015 153.573 121.7C153.364 121.469 153.212 121.185 153.131 120.876C153.05 120.566 153.043 120.241 153.11 119.927Z" fill="black"/>
<path d="M160.792 124.257L167.765 119.987C170.488 118.321 171.214 115.339 169.461 113.307C167.709 111.276 164.109 110.91 161.393 112.57L154.419 116.84C154.169 116.974 153.952 117.169 153.786 117.409C153.619 117.649 153.509 117.927 153.463 118.221C153.418 118.515 153.438 118.816 153.522 119.099C153.607 119.383 153.753 119.642 153.95 119.855C155.052 121.183 156.155 122.469 157.261 123.713C157.718 124.191 158.307 124.501 158.942 124.599C159.577 124.697 160.225 124.577 160.792 124.257Z" fill="#FF441F"/>
<path d="M117.45 142.942L117.876 141.07L118.37 141.023C118.843 140.421 119.416 139.915 120.06 139.529L127.033 135.26C127.595 134.942 128.24 134.828 128.869 134.936C129.497 135.044 130.075 135.368 130.514 135.857C131.597 137.152 132.68 138.427 133.763 139.662L134.745 139.576L134.301 141.521C134.16 142.009 133.846 142.419 133.424 142.663L126.451 146.933C123.728 148.6 120.054 148.334 118.314 146.269C117.921 145.834 117.637 145.302 117.486 144.721C117.336 144.141 117.323 143.529 117.45 142.942Z" fill="#FF441F"/>
<path opacity="0.1" d="M117.45 142.942L117.876 141.07L118.37 141.023C118.843 140.421 119.416 139.915 120.06 139.529L127.033 135.26C127.595 134.942 128.24 134.828 128.869 134.936C129.497 135.044 130.075 135.368 130.514 135.857C131.597 137.152 132.68 138.427 133.763 139.662L134.745 139.576L134.301 141.521C134.16 142.009 133.846 142.419 133.424 142.663L126.451 146.933C123.728 148.6 120.054 148.334 118.314 146.269C117.921 145.834 117.637 145.302 117.486 144.721C117.336 144.141 117.323 143.529 117.45 142.942Z" fill="black"/>
<path d="M126.845 145.074L133.818 140.804C134.066 140.674 134.281 140.481 134.443 140.243C134.605 140.005 134.711 139.729 134.75 139.438C134.789 139.148 134.762 138.851 134.669 138.574C134.577 138.298 134.422 138.049 134.219 137.849C133.117 136.594 132.022 135.306 130.92 133.991C130.482 133.501 129.905 133.176 129.276 133.067C128.647 132.957 128.002 133.07 127.44 133.387L120.466 137.657C117.75 139.324 116.93 142.365 118.689 144.417C120.448 146.468 124.128 146.734 126.845 145.074Z" fill="#FF441F"/>
<path d="M134.9 131.256L135.313 129.43L136.653 129.337L144.997 124.224C145.7 123.827 146.506 123.686 147.291 123.822C148.077 123.957 148.799 124.362 149.348 124.974C150.182 125.983 151.027 126.973 151.883 127.942C151.965 128.04 152.04 128.144 152.108 128.254L152.941 128.201L152.509 130.107C152.433 130.428 152.294 130.73 152.102 130.991C151.91 131.253 151.669 131.47 151.394 131.628L142.449 137.099C141.743 137.503 140.934 137.656 140.14 137.536C139.346 137.417 138.609 137.031 138.036 136.435C137.191 135.466 136.34 134.476 135.495 133.467C135.232 133.179 135.039 132.826 134.936 132.441C134.832 132.055 134.82 131.648 134.9 131.256Z" fill="#FF441F"/>
<path opacity="0.1" d="M134.9 131.256L135.313 129.43L136.653 129.337L144.997 124.224C145.7 123.827 146.506 123.686 147.291 123.822C148.077 123.957 148.799 124.362 149.348 124.974C150.182 125.983 151.027 126.973 151.883 127.942C151.965 128.04 152.04 128.144 152.108 128.254L152.941 128.201L152.509 130.107C152.433 130.428 152.294 130.73 152.102 130.991C151.91 131.253 151.669 131.47 151.394 131.628L142.449 137.099C141.743 137.503 140.934 137.656 140.14 137.536C139.346 137.417 138.609 137.031 138.036 136.435C137.191 135.466 136.34 134.476 135.495 133.467C135.232 133.179 135.039 132.826 134.936 132.441C134.832 132.055 134.82 131.648 134.9 131.256Z" fill="black"/>
<path d="M135.889 131.614C136.734 132.624 137.585 133.606 138.431 134.582C139.003 135.178 139.74 135.564 140.534 135.684C141.328 135.803 142.138 135.65 142.844 135.246L151.789 129.775C152.098 129.611 152.365 129.371 152.568 129.074C152.771 128.777 152.903 128.432 152.952 128.07C153.002 127.707 152.969 127.337 152.854 126.991C152.74 126.645 152.548 126.333 152.296 126.083C151.451 125.114 150.606 124.091 149.76 123.108C149.212 122.496 148.489 122.092 147.704 121.958C146.918 121.823 146.112 121.966 145.41 122.365L136.471 127.836C136.157 128.004 135.884 128.248 135.675 128.549C135.467 128.85 135.328 129.199 135.271 129.568C135.215 129.936 135.241 130.314 135.348 130.67C135.456 131.025 135.641 131.349 135.889 131.614Z" fill="#FF441F"/>
<g opacity="0.75">
<path d="M160.792 124.257L167.765 119.987C170.488 118.321 171.214 115.339 169.461 113.307C167.709 111.276 164.109 110.91 161.393 112.57L154.419 116.84C154.169 116.974 153.952 117.169 153.786 117.409C153.619 117.649 153.509 117.927 153.463 118.221C153.418 118.515 153.438 118.816 153.522 119.099C153.607 119.383 153.753 119.642 153.95 119.855C155.052 121.183 156.155 122.469 157.261 123.713C157.718 124.191 158.307 124.501 158.942 124.599C159.577 124.697 160.225 124.577 160.792 124.257Z" fill="white"/>
<path d="M126.845 145.074L133.818 140.804C134.066 140.674 134.281 140.481 134.443 140.243C134.605 140.005 134.711 139.729 134.75 139.438C134.789 139.148 134.762 138.851 134.669 138.574C134.577 138.298 134.422 138.049 134.219 137.849C133.117 136.594 132.022 135.306 130.92 133.991C130.482 133.501 129.905 133.176 129.276 133.067C128.647 132.957 128.002 133.07 127.44 133.387L120.466 137.657C117.75 139.324 116.93 142.365 118.689 144.417C120.448 146.468 124.128 146.734 126.845 145.074Z" fill="white"/>
<path d="M135.889 131.614C136.734 132.624 137.585 133.606 138.431 134.583C139.003 135.179 139.74 135.565 140.534 135.684C141.328 135.804 142.138 135.65 142.844 135.247L151.789 129.775C152.098 129.612 152.365 129.371 152.568 129.074C152.771 128.777 152.903 128.433 152.952 128.07C153.002 127.707 152.969 127.337 152.854 126.991C152.74 126.645 152.548 126.333 152.296 126.083C151.451 125.114 150.606 124.091 149.76 123.108C149.212 122.496 148.489 122.092 147.704 121.958C146.918 121.824 146.112 121.966 145.41 122.365L136.471 127.836C136.157 128.004 135.884 128.248 135.675 128.549C135.467 128.85 135.328 129.199 135.271 129.568C135.215 129.936 135.241 130.314 135.348 130.67C135.456 131.026 135.641 131.349 135.889 131.614Z" fill="white"/>
</g>
<path d="M149.455 152.106L147.615 152.152L142.463 147.982C142.009 147.649 141.477 147.454 140.926 147.416C140.375 147.379 139.824 147.501 139.333 147.77L131.459 152.584L128.986 152.65V154.788C128.997 155.003 129.055 155.211 129.155 155.398C129.255 155.585 129.394 155.744 129.562 155.864L135.972 161.057C136.427 161.388 136.958 161.583 137.509 161.62C138.06 161.658 138.611 161.536 139.102 161.269L148.735 155.373C148.939 155.27 149.113 155.111 149.239 154.912C149.364 154.714 149.437 154.483 149.449 154.244L149.455 152.106Z" fill="#FF441F"/>
<path opacity="0.1" d="M149.455 152.106L147.615 152.152L142.463 147.982C142.009 147.649 141.477 147.454 140.926 147.416C140.375 147.379 139.824 147.501 139.333 147.77L131.459 152.584L128.986 152.65V154.788C128.997 155.003 129.055 155.211 129.155 155.398C129.255 155.585 129.394 155.744 129.562 155.864L135.972 161.057C136.427 161.388 136.958 161.583 137.509 161.62C138.06 161.658 138.611 161.536 139.102 161.269L148.735 155.373C148.939 155.27 149.113 155.111 149.239 154.912C149.364 154.714 149.437 154.483 149.449 154.244L149.455 152.106Z" fill="black"/>
<path d="M129.699 151.521L139.339 145.632C139.83 145.363 140.38 145.241 140.932 145.278C141.483 145.316 142.014 145.511 142.469 145.844L148.897 151.037C149.086 151.15 149.241 151.317 149.345 151.52C149.448 151.722 149.495 151.952 149.48 152.182C149.466 152.411 149.391 152.632 149.263 152.818C149.136 153.005 148.961 153.149 148.76 153.235L139.126 159.131C138.635 159.398 138.085 159.52 137.534 159.482C136.983 159.445 136.452 159.25 135.996 158.919L129.587 153.726C129.399 153.612 129.245 153.445 129.142 153.244C129.039 153.043 128.99 152.815 129.002 152.587C129.013 152.358 129.085 152.137 129.208 151.949C129.331 151.761 129.501 151.613 129.699 151.521Z" fill="#FF441F"/>
<path opacity="0.75" d="M129.699 151.521L139.339 145.632C139.83 145.363 140.38 145.241 140.932 145.278C141.483 145.316 142.014 145.511 142.469 145.844L148.897 151.037C149.086 151.15 149.241 151.317 149.345 151.52C149.448 151.722 149.495 151.952 149.48 152.182C149.466 152.411 149.391 152.632 149.263 152.818C149.136 153.005 148.961 153.149 148.76 153.235L139.126 159.131C138.635 159.398 138.085 159.52 137.534 159.482C136.983 159.445 136.452 159.25 135.996 158.919L129.587 153.726C129.399 153.612 129.245 153.445 129.142 153.244C129.039 153.043 128.99 152.815 129.002 152.587C129.013 152.358 129.085 152.137 129.208 151.949C129.331 151.761 129.501 151.613 129.699 151.521Z" fill="white"/>
<path d="M187.081 182.538L185.24 182.591L180.089 178.414C179.634 178.083 179.102 177.888 178.551 177.85C178 177.813 177.45 177.934 176.959 178.202L169.078 183.022L166.605 183.082V185.22C166.615 185.435 166.672 185.644 166.772 185.831C166.872 186.018 167.012 186.177 167.181 186.296L173.591 191.489C174.046 191.821 174.577 192.017 175.128 192.054C175.68 192.092 176.23 191.97 176.721 191.701L186.33 185.785C186.533 185.681 186.706 185.52 186.831 185.32C186.955 185.12 187.027 184.889 187.037 184.649L187.081 182.538Z" fill="#FF441F"/>
<path opacity="0.1" d="M187.081 182.538L185.24 182.591L180.089 178.414C179.634 178.083 179.102 177.888 178.551 177.85C178 177.813 177.45 177.934 176.959 178.202L169.078 183.022L166.605 183.082V185.22C166.615 185.435 166.672 185.644 166.772 185.831C166.872 186.018 167.012 186.177 167.181 186.296L173.591 191.489C174.046 191.821 174.577 192.017 175.128 192.054C175.68 192.092 176.23 191.97 176.721 191.701L186.33 185.785C186.533 185.681 186.706 185.52 186.831 185.32C186.955 185.12 187.027 184.889 187.037 184.649L187.081 182.538Z" fill="black"/>
<path d="M167.295 181.953L176.935 176.063C177.426 175.796 177.976 175.675 178.527 175.712C179.078 175.75 179.609 175.944 180.065 176.276L186.456 181.468C186.644 181.583 186.799 181.751 186.902 181.954C187.004 182.157 187.051 182.387 187.037 182.616C187.023 182.846 186.948 183.067 186.82 183.254C186.693 183.441 186.519 183.586 186.318 183.673L176.678 189.563C176.187 189.832 175.637 189.954 175.086 189.916C174.534 189.879 174.003 189.683 173.548 189.35L167.138 184.158C166.953 184.04 166.801 183.87 166.701 183.666C166.602 183.462 166.557 183.233 166.574 183.004C166.59 182.775 166.666 182.555 166.793 182.37C166.921 182.184 167.095 182.04 167.295 181.953Z" fill="#FF441F"/>
<path opacity="0.75" d="M167.295 181.953L176.935 176.063C177.426 175.796 177.976 175.675 178.527 175.712C179.078 175.75 179.609 175.944 180.065 176.276L186.456 181.468C186.644 181.583 186.799 181.751 186.902 181.954C187.004 182.157 187.051 182.387 187.037 182.616C187.023 182.846 186.948 183.067 186.82 183.254C186.693 183.441 186.519 183.586 186.318 183.673L176.678 189.563C176.187 189.832 175.637 189.954 175.086 189.916C174.534 189.879 174.003 189.683 173.548 189.35L167.138 184.158C166.953 184.04 166.801 183.87 166.701 183.666C166.602 183.462 166.557 183.233 166.574 183.004C166.59 182.775 166.666 182.555 166.793 182.37C166.921 182.184 167.095 182.04 167.295 181.953Z" fill="white"/>
<path d="M161.987 162.252L160.147 162.298L154.995 158.128C154.54 157.796 154.01 157.6 153.459 157.561C152.908 157.523 152.357 157.643 151.865 157.909L143.984 162.73L141.48 162.796V164.935C141.492 165.149 141.551 165.357 141.65 165.543C141.75 165.73 141.889 165.89 142.056 166.01L148.51 171.176C148.965 171.509 149.495 171.705 150.046 171.743C150.597 171.782 151.148 171.662 151.64 171.395L161.273 165.499C161.477 165.396 161.651 165.237 161.777 165.039C161.902 164.84 161.975 164.609 161.987 164.37V162.252Z" fill="#FF441F"/>
<path opacity="0.1" d="M161.987 162.252L160.147 162.298L154.995 158.128C154.54 157.796 154.01 157.6 153.459 157.561C152.908 157.523 152.357 157.643 151.865 157.909L143.984 162.73L141.48 162.796V164.935C141.492 165.149 141.551 165.357 141.65 165.543C141.75 165.73 141.889 165.89 142.056 166.01L148.51 171.176C148.965 171.509 149.495 171.705 150.046 171.743C150.597 171.782 151.148 171.662 151.64 171.395L161.273 165.499C161.477 165.396 161.651 165.237 161.777 165.039C161.902 164.84 161.975 164.609 161.987 164.37V162.252Z" fill="black"/>
<path d="M142.231 161.668L151.871 155.771C152.363 155.505 152.914 155.385 153.465 155.423C154.016 155.462 154.547 155.658 155.001 155.99L161.417 161.176C161.606 161.291 161.76 161.459 161.863 161.662C161.966 161.865 162.013 162.094 161.998 162.324C161.984 162.554 161.909 162.775 161.782 162.962C161.655 163.149 161.481 163.294 161.28 163.381L151.646 169.277C151.154 169.544 150.604 169.664 150.053 169.625C149.502 169.587 148.971 169.391 148.516 169.058L142.1 163.872C141.913 163.757 141.76 163.589 141.659 163.386C141.557 163.184 141.51 162.956 141.524 162.727C141.537 162.498 141.611 162.278 141.736 162.091C141.861 161.904 142.032 161.757 142.231 161.668Z" fill="#FF441F"/>
<path opacity="0.75" d="M142.231 161.668L151.871 155.771C152.363 155.505 152.914 155.385 153.465 155.423C154.016 155.462 154.547 155.658 155.001 155.99L161.417 161.176C161.606 161.291 161.76 161.459 161.863 161.662C161.966 161.865 162.013 162.094 161.998 162.324C161.984 162.554 161.909 162.775 161.782 162.962C161.655 163.149 161.481 163.294 161.28 163.381L151.646 169.277C151.154 169.544 150.604 169.664 150.053 169.625C149.502 169.587 148.971 169.391 148.516 169.058L142.1 163.872C141.913 163.757 141.76 163.589 141.659 163.386C141.557 163.184 141.51 162.956 141.524 162.727C141.537 162.498 141.611 162.278 141.736 162.091C141.861 161.904 142.032 161.757 142.231 161.668Z" fill="white"/>
<path d="M174.52 172.391L172.68 172.445L167.528 168.268C167.073 167.936 166.542 167.742 165.991 167.704C165.44 167.667 164.89 167.788 164.398 168.055L156.517 172.876L154.045 172.943V175.081C154.055 175.294 154.113 175.502 154.213 175.688C154.313 175.874 154.453 176.032 154.621 176.15L161.031 181.342C161.485 181.675 162.017 181.871 162.568 181.908C163.119 181.946 163.67 181.824 164.16 181.555L173.794 175.665C173.998 175.561 174.171 175.401 174.295 175.201C174.42 175.001 174.491 174.769 174.501 174.53L174.52 172.391Z" fill="#FF441F"/>
<path opacity="0.1" d="M174.52 172.391L172.68 172.445L167.528 168.268C167.073 167.936 166.542 167.742 165.991 167.704C165.44 167.667 164.89 167.788 164.398 168.055L156.517 172.876L154.045 172.943V175.081C154.055 175.294 154.113 175.502 154.213 175.688C154.313 175.874 154.453 176.032 154.621 176.15L161.031 181.342C161.485 181.675 162.017 181.871 162.568 181.908C163.119 181.946 163.67 181.824 164.16 181.555L173.794 175.665C173.998 175.561 174.171 175.401 174.295 175.201C174.42 175.001 174.491 174.769 174.501 174.53L174.52 172.391Z" fill="black"/>
<path d="M154.765 171.84L164.405 165.944C164.896 165.677 165.446 165.555 165.997 165.593C166.548 165.63 167.079 165.825 167.535 166.156L173.938 171.322C174.127 171.437 174.281 171.605 174.384 171.808C174.487 172.011 174.534 172.24 174.519 172.47C174.505 172.7 174.43 172.921 174.303 173.108C174.176 173.295 174.002 173.44 173.8 173.527L164.167 179.417C163.676 179.685 163.125 179.808 162.574 179.77C162.023 179.733 161.492 179.537 161.037 179.204L154.627 174.012C154.447 173.894 154.3 173.727 154.203 173.528C154.106 173.329 154.063 173.105 154.077 172.882C154.091 172.658 154.163 172.443 154.284 172.259C154.405 172.076 154.572 171.931 154.765 171.84Z" fill="#FF441F"/>
<path opacity="0.75" d="M154.765 171.84L164.405 165.944C164.896 165.677 165.446 165.555 165.997 165.593C166.548 165.63 167.079 165.825 167.535 166.156L173.938 171.322C174.127 171.437 174.281 171.605 174.384 171.808C174.487 172.011 174.534 172.24 174.519 172.47C174.505 172.7 174.43 172.921 174.303 173.108C174.176 173.295 174.002 173.44 173.8 173.527L164.167 179.417C163.676 179.685 163.125 179.808 162.574 179.77C162.023 179.733 161.492 179.537 161.037 179.204L154.627 174.012C154.447 173.894 154.3 173.727 154.203 173.528C154.106 173.329 154.063 173.105 154.077 172.882C154.091 172.658 154.163 172.443 154.284 172.259C154.405 172.076 154.572 171.931 154.765 171.84Z" fill="white"/>
<path d="M168.799 140.28L166.958 140.333L161.807 136.156C161.352 135.825 160.82 135.63 160.269 135.592C159.718 135.555 159.168 135.676 158.677 135.944L150.777 140.764L148.273 140.831V142.969C148.285 143.182 148.344 143.389 148.443 143.575C148.543 143.76 148.682 143.919 148.849 144.038L155.322 149.264C155.776 149.597 156.308 149.792 156.859 149.83C157.41 149.867 157.961 149.745 158.452 149.476L168.091 143.586C168.295 143.482 168.468 143.322 168.593 143.122C168.717 142.922 168.788 142.69 168.799 142.451V140.28Z" fill="#FF441F"/>
<path opacity="0.1" d="M168.799 140.28L166.958 140.333L161.807 136.156C161.352 135.825 160.82 135.63 160.269 135.592C159.718 135.555 159.168 135.676 158.677 135.944L150.777 140.764L148.273 140.831V142.969C148.285 143.182 148.344 143.389 148.443 143.575C148.543 143.76 148.682 143.919 148.849 144.038L155.322 149.264C155.776 149.597 156.308 149.792 156.859 149.83C157.41 149.867 157.961 149.745 158.452 149.476L168.091 143.586C168.295 143.482 168.468 143.322 168.593 143.122C168.717 142.922 168.788 142.69 168.799 142.451V140.28Z" fill="black"/>
<path d="M149.043 139.702L158.683 133.805C159.174 133.538 159.724 133.417 160.275 133.454C160.826 133.492 161.358 133.686 161.813 134.018L168.222 139.211C168.409 139.326 168.562 139.494 168.664 139.696C168.766 139.899 168.812 140.127 168.799 140.356C168.785 140.585 168.712 140.805 168.587 140.992C168.462 141.179 168.29 141.326 168.091 141.415L158.451 147.305C157.96 147.574 157.41 147.696 156.859 147.658C156.307 147.621 155.776 147.425 155.321 147.092L148.899 141.9C148.712 141.784 148.56 141.616 148.459 141.413C148.358 141.211 148.312 140.982 148.327 140.753C148.342 140.525 148.417 140.305 148.543 140.119C148.67 139.933 148.843 139.789 149.043 139.702Z" fill="#FF441F"/>
<path opacity="0.75" d="M149.043 139.702L158.683 133.805C159.174 133.538 159.724 133.417 160.275 133.454C160.826 133.492 161.358 133.686 161.813 134.018L168.222 139.211C168.409 139.326 168.562 139.494 168.664 139.696C168.766 139.899 168.812 140.127 168.799 140.356C168.785 140.585 168.712 140.805 168.587 140.992C168.462 141.179 168.29 141.326 168.091 141.415L158.451 147.305C157.96 147.574 157.41 147.696 156.859 147.658C156.307 147.621 155.776 147.425 155.321 147.092L148.899 141.9C148.712 141.784 148.56 141.616 148.459 141.413C148.358 141.211 148.312 140.982 148.327 140.753C148.342 140.525 148.417 140.305 148.543 140.119C148.67 139.933 148.843 139.789 149.043 139.702Z" fill="white"/>
<path d="M206.393 170.718L204.553 170.765L199.401 166.588C198.945 166.258 198.414 166.064 197.863 166.026C197.313 165.989 196.763 166.109 196.271 166.375L188.396 171.176L185.893 171.243V173.381C185.904 173.595 185.961 173.804 186.061 173.99C186.161 174.177 186.301 174.337 186.468 174.456L192.878 179.642C193.333 179.975 193.864 180.171 194.415 180.21C194.966 180.248 195.516 180.128 196.008 179.862L205.642 173.965C205.845 173.861 206.018 173.701 206.143 173.501C206.267 173.301 206.339 173.069 206.349 172.83L206.393 170.718Z" fill="#FF441F"/>
<path opacity="0.1" d="M206.393 170.718L204.553 170.765L199.401 166.588C198.945 166.258 198.414 166.064 197.863 166.026C197.313 165.989 196.763 166.109 196.271 166.375L188.396 171.176L185.893 171.243V173.381C185.904 173.595 185.961 173.804 186.061 173.99C186.161 174.177 186.301 174.337 186.468 174.456L192.878 179.642C193.333 179.975 193.864 180.171 194.415 180.21C194.966 180.248 195.516 180.128 196.008 179.862L205.642 173.965C205.845 173.861 206.018 173.701 206.143 173.501C206.267 173.301 206.339 173.069 206.349 172.83L206.393 170.718Z" fill="black"/>
<path d="M186.638 170.134L196.278 164.237C196.769 163.971 197.32 163.851 197.871 163.889C198.422 163.928 198.953 164.124 199.407 164.456L205.817 169.642C206.006 169.757 206.16 169.925 206.263 170.128C206.366 170.331 206.413 170.56 206.398 170.79C206.384 171.02 206.309 171.241 206.182 171.428C206.055 171.615 205.881 171.76 205.679 171.847L196.046 177.743C195.554 178.01 195.004 178.13 194.453 178.091C193.902 178.053 193.371 177.857 192.916 177.524L186.506 172.338C186.319 172.223 186.167 172.055 186.065 171.852C185.963 171.65 185.916 171.422 185.93 171.193C185.944 170.964 186.017 170.744 186.142 170.557C186.267 170.37 186.439 170.223 186.638 170.134Z" fill="#FF441F"/>
<path opacity="0.75" d="M186.638 170.134L196.278 164.237C196.769 163.971 197.32 163.851 197.871 163.889C198.422 163.928 198.953 164.124 199.407 164.456L205.817 169.642C206.006 169.757 206.16 169.925 206.263 170.128C206.366 170.331 206.413 170.56 206.398 170.79C206.384 171.02 206.309 171.241 206.182 171.428C206.055 171.615 205.881 171.76 205.679 171.847L196.046 177.743C195.554 178.01 195.004 178.13 194.453 178.091C193.902 178.053 193.371 177.857 192.916 177.524L186.506 172.338C186.319 172.223 186.167 172.055 186.065 171.852C185.963 171.65 185.916 171.422 185.93 171.193C185.944 170.964 186.017 170.744 186.142 170.557C186.267 170.37 186.439 170.223 186.638 170.134Z" fill="white"/>
<path d="M181.329 150.426L179.488 150.479L174.337 146.302C173.882 145.969 173.351 145.774 172.8 145.736C172.248 145.699 171.698 145.821 171.207 146.09L163.326 150.904L160.854 150.97V153.108C160.865 153.323 160.922 153.531 161.022 153.718C161.122 153.905 161.262 154.064 161.429 154.184L167.839 159.377C168.294 159.708 168.826 159.903 169.377 159.941C169.928 159.978 170.478 159.857 170.969 159.589L180.609 153.699C180.811 153.598 180.984 153.441 181.109 153.245C181.235 153.049 181.308 152.82 181.322 152.584L181.329 150.426Z" fill="#FF441F"/>
<path opacity="0.1" d="M181.329 150.426L179.488 150.479L174.337 146.302C173.882 145.969 173.351 145.774 172.8 145.736C172.248 145.699 171.698 145.821 171.207 146.09L163.326 150.904L160.854 150.97V153.108C160.865 153.323 160.922 153.531 161.022 153.718C161.122 153.905 161.262 154.064 161.429 154.184L167.839 159.377C168.294 159.708 168.826 159.903 169.377 159.941C169.928 159.978 170.478 159.857 170.969 159.589L180.609 153.699C180.811 153.598 180.984 153.441 181.109 153.245C181.235 153.049 181.308 152.82 181.322 152.584L181.329 150.426Z" fill="black"/>
<path d="M161.572 149.841L171.212 143.952C171.703 143.684 172.254 143.563 172.805 143.6C173.356 143.638 173.887 143.833 174.342 144.164L180.752 149.357C180.939 149.472 181.091 149.64 181.193 149.843C181.295 150.045 181.342 150.273 181.328 150.502C181.314 150.731 181.241 150.951 181.116 151.138C180.991 151.325 180.819 151.472 180.62 151.561L170.981 157.451C170.489 157.718 169.939 157.84 169.388 157.802C168.837 157.765 168.306 157.57 167.851 157.239L161.416 152.046C161.23 151.928 161.079 151.758 160.979 151.554C160.879 151.351 160.835 151.121 160.851 150.892C160.867 150.663 160.943 150.444 161.071 150.258C161.198 150.072 161.372 149.928 161.572 149.841Z" fill="#FF441F"/>
<path opacity="0.75" d="M161.572 149.841L171.212 143.952C171.703 143.684 172.254 143.563 172.805 143.6C173.356 143.638 173.887 143.833 174.342 144.164L180.752 149.357C180.939 149.472 181.091 149.64 181.193 149.843C181.295 150.045 181.342 150.273 181.328 150.502C181.314 150.731 181.241 150.951 181.116 151.138C180.991 151.325 180.819 151.472 180.62 151.561L170.981 157.451C170.489 157.718 169.939 157.84 169.388 157.802C168.837 157.765 168.306 157.57 167.851 157.239L161.416 152.046C161.23 151.928 161.079 151.758 160.979 151.554C160.879 151.351 160.835 151.121 160.851 150.892C160.867 150.663 160.943 150.444 161.071 150.258C161.198 150.072 161.372 149.928 161.572 149.841Z" fill="white"/>
<path d="M193.86 160.552L192.02 160.599L186.868 156.429C186.413 156.096 185.882 155.9 185.331 155.863C184.78 155.825 184.229 155.947 183.738 156.216L175.857 161.03L173.385 161.097V163.235C173.396 163.449 173.454 163.658 173.553 163.844C173.653 164.031 173.793 164.191 173.961 164.31L180.371 169.503C180.826 169.833 181.357 170.027 181.908 170.065C182.459 170.102 183.009 169.981 183.5 169.715L193.14 163.872C193.344 163.77 193.518 163.611 193.643 163.412C193.769 163.213 193.842 162.982 193.854 162.743L193.86 160.552Z" fill="#FF441F"/>
<path opacity="0.1" d="M193.86 160.552L192.02 160.599L186.868 156.429C186.413 156.096 185.882 155.9 185.331 155.863C184.78 155.825 184.229 155.947 183.738 156.216L175.857 161.03L173.385 161.097V163.235C173.396 163.449 173.454 163.658 173.553 163.844C173.653 164.031 173.793 164.191 173.961 164.31L180.371 169.503C180.826 169.833 181.357 170.027 181.908 170.065C182.459 170.102 183.009 169.981 183.5 169.715L193.14 163.872C193.344 163.77 193.518 163.611 193.643 163.412C193.769 163.213 193.842 162.982 193.854 162.743L193.86 160.552Z" fill="black"/>
<path d="M174.105 159.988L183.744 154.098C184.235 153.829 184.786 153.707 185.337 153.744C185.888 153.782 186.42 153.977 186.874 154.31L193.284 159.503C193.473 159.616 193.628 159.784 193.731 159.986C193.834 160.189 193.881 160.418 193.867 160.648C193.852 160.878 193.777 161.098 193.65 161.285C193.522 161.471 193.348 161.615 193.146 161.701L183.513 167.597C183.021 167.865 182.471 167.986 181.92 167.949C181.369 167.911 180.838 167.716 180.383 167.385L173.973 162.192C173.786 162.077 173.633 161.909 173.532 161.706C173.43 161.504 173.383 161.276 173.397 161.047C173.41 160.818 173.484 160.598 173.609 160.411C173.734 160.224 173.905 160.077 174.105 159.988Z" fill="#FF441F"/>
<path opacity="0.75" d="M174.105 159.988L183.744 154.098C184.235 153.829 184.786 153.707 185.337 153.744C185.888 153.782 186.42 153.977 186.874 154.31L193.284 159.503C193.473 159.616 193.628 159.784 193.731 159.986C193.834 160.189 193.881 160.418 193.867 160.648C193.852 160.878 193.777 161.098 193.65 161.285C193.522 161.471 193.348 161.615 193.146 161.701L183.513 167.597C183.021 167.865 182.471 167.986 181.92 167.949C181.369 167.911 180.838 167.716 180.383 167.385L173.973 162.192C173.786 162.077 173.633 161.909 173.532 161.706C173.43 161.504 173.383 161.276 173.397 161.047C173.41 160.818 173.484 160.598 173.609 160.411C173.734 160.224 173.905 160.077 174.105 159.988Z" fill="white"/>
<path d="M188.133 128.454L186.293 128.5L181.141 124.33C180.687 123.997 180.156 123.801 179.604 123.764C179.053 123.727 178.503 123.849 178.012 124.118L170.131 128.932L167.658 128.998V131.136C167.669 131.35 167.727 131.559 167.827 131.746C167.927 131.932 168.066 132.092 168.234 132.212L174.644 137.404C175.099 137.736 175.63 137.931 176.181 137.968C176.732 138.006 177.283 137.884 177.774 137.617L187.407 131.72C187.611 131.618 187.785 131.459 187.911 131.26C188.036 131.062 188.109 130.831 188.121 130.592L188.133 128.454Z" fill="#FF441F"/>
<path opacity="0.1" d="M188.133 128.454L186.293 128.5L181.141 124.33C180.687 123.997 180.156 123.801 179.604 123.764C179.053 123.727 178.503 123.849 178.012 124.118L170.131 128.932L167.658 128.998V131.136C167.669 131.35 167.727 131.559 167.827 131.746C167.927 131.932 168.066 132.092 168.234 132.212L174.644 137.404C175.099 137.736 175.63 137.931 176.181 137.968C176.732 138.006 177.283 137.884 177.774 137.617L187.407 131.72C187.611 131.618 187.785 131.459 187.911 131.26C188.036 131.062 188.109 130.831 188.121 130.592L188.133 128.454Z" fill="black"/>
<path d="M168.378 127.869L178.018 121.979C178.509 121.711 179.059 121.588 179.61 121.626C180.162 121.663 180.693 121.859 181.148 122.192L187.557 127.384C187.746 127.498 187.901 127.665 188.005 127.868C188.108 128.07 188.155 128.3 188.14 128.529C188.126 128.759 188.051 128.98 187.923 129.166C187.796 129.352 187.621 129.497 187.42 129.582L177.786 135.479C177.295 135.746 176.745 135.867 176.194 135.83C175.643 135.793 175.111 135.598 174.656 135.266L168.246 130.074C168.06 129.958 167.907 129.79 167.805 129.588C167.703 129.386 167.657 129.157 167.67 128.928C167.684 128.7 167.757 128.479 167.882 128.292C168.007 128.105 168.179 127.959 168.378 127.869Z" fill="#FF441F"/>
<path opacity="0.75" d="M168.378 127.869L178.018 121.979C178.509 121.711 179.059 121.588 179.61 121.626C180.162 121.663 180.693 121.859 181.148 122.192L187.557 127.384C187.746 127.498 187.901 127.665 188.005 127.868C188.108 128.07 188.155 128.3 188.14 128.529C188.126 128.759 188.051 128.98 187.923 129.166C187.796 129.352 187.621 129.497 187.42 129.582L177.786 135.479C177.295 135.746 176.745 135.867 176.194 135.83C175.643 135.793 175.111 135.598 174.656 135.266L168.246 130.074C168.06 129.958 167.907 129.79 167.805 129.588C167.703 129.386 167.657 129.157 167.67 128.928C167.684 128.7 167.757 128.479 167.882 128.292C168.007 128.105 168.179 127.959 168.378 127.869Z" fill="white"/>
<path d="M225.728 158.885L223.888 158.939L218.736 154.762C218.282 154.429 217.75 154.233 217.199 154.196C216.648 154.159 216.097 154.281 215.607 154.549L207.738 159.364L205.266 159.43V161.568C205.275 161.783 205.332 161.992 205.432 162.179C205.532 162.366 205.673 162.525 205.842 162.644L212.251 167.856C212.706 168.189 213.237 168.385 213.789 168.422C214.34 168.46 214.89 168.337 215.381 168.069L225.021 162.179C225.225 162.075 225.398 161.915 225.522 161.715C225.647 161.515 225.718 161.283 225.728 161.043V158.885Z" fill="#FF441F"/>
<path opacity="0.1" d="M225.728 158.885L223.888 158.939L218.736 154.762C218.282 154.429 217.75 154.233 217.199 154.196C216.648 154.159 216.097 154.281 215.607 154.549L207.738 159.364L205.266 159.43V161.568C205.275 161.783 205.332 161.992 205.432 162.179C205.532 162.366 205.673 162.525 205.842 162.644L212.251 167.856C212.706 168.189 213.237 168.385 213.789 168.422C214.34 168.46 214.89 168.337 215.381 168.069L225.021 162.179C225.225 162.075 225.398 161.915 225.522 161.715C225.647 161.515 225.718 161.283 225.728 161.043V158.885Z" fill="black"/>
<path d="M205.973 158.301L215.612 152.411C216.104 152.144 216.654 152.023 217.205 152.06C217.756 152.097 218.287 152.292 218.742 152.624L225.152 157.816C225.341 157.931 225.495 158.099 225.598 158.302C225.701 158.505 225.748 158.734 225.733 158.964C225.719 159.194 225.644 159.415 225.517 159.602C225.39 159.789 225.216 159.934 225.014 160.021L215.375 165.911C214.884 166.179 214.333 166.302 213.782 166.264C213.231 166.227 212.699 166.031 212.245 165.698L205.86 160.506C205.673 160.392 205.519 160.225 205.415 160.024C205.312 159.823 205.263 159.595 205.275 159.366C205.287 159.138 205.358 158.917 205.481 158.729C205.605 158.541 205.775 158.393 205.973 158.301Z" fill="#FF441F"/>
<path opacity="0.75" d="M205.973 158.301L215.612 152.411C216.104 152.144 216.654 152.023 217.205 152.06C217.756 152.097 218.287 152.292 218.742 152.624L225.152 157.816C225.341 157.931 225.495 158.099 225.598 158.302C225.701 158.505 225.748 158.734 225.733 158.964C225.719 159.194 225.644 159.415 225.517 159.602C225.39 159.789 225.216 159.934 225.014 160.021L215.375 165.911C214.884 166.179 214.333 166.302 213.782 166.264C213.231 166.227 212.699 166.031 212.245 165.698L205.86 160.506C205.673 160.392 205.519 160.225 205.415 160.024C205.312 159.823 205.263 159.595 205.275 159.366C205.287 159.138 205.358 158.917 205.481 158.729C205.605 158.541 205.775 158.393 205.973 158.301Z" fill="white"/>
<path d="M213.198 148.739L211.358 148.792L206.206 144.616C205.751 144.284 205.22 144.089 204.669 144.052C204.118 144.015 203.568 144.136 203.076 144.403L195.221 149.224L192.717 149.29V151.428C192.727 151.642 192.785 151.85 192.885 152.036C192.985 152.221 193.125 152.38 193.293 152.498L199.703 157.69C200.157 158.024 200.688 158.221 201.24 158.258C201.791 158.296 202.342 158.173 202.832 157.903L212.472 152.013C212.676 151.909 212.849 151.748 212.973 151.549C213.098 151.349 213.169 151.117 213.18 150.877L213.198 148.739Z" fill="#FF441F"/>
<path opacity="0.1" d="M213.198 148.739L211.358 148.792L206.206 144.616C205.751 144.284 205.22 144.089 204.669 144.052C204.118 144.015 203.568 144.136 203.076 144.403L195.221 149.224L192.717 149.29V151.428C192.727 151.642 192.785 151.85 192.885 152.036C192.985 152.221 193.125 152.38 193.293 152.498L199.703 157.69C200.157 158.024 200.688 158.221 201.24 158.258C201.791 158.296 202.342 158.173 202.832 157.903L212.472 152.013C212.676 151.909 212.849 151.748 212.973 151.549C213.098 151.349 213.169 151.117 213.18 150.877L213.198 148.739Z" fill="black"/>
<path d="M193.442 148.161L203.082 142.265C203.573 141.998 204.123 141.876 204.674 141.914C205.225 141.951 205.756 142.146 206.211 142.477L212.621 147.67C212.81 147.784 212.964 147.953 213.067 148.156C213.17 148.359 213.217 148.588 213.202 148.818C213.188 149.048 213.113 149.269 212.986 149.456C212.859 149.643 212.685 149.788 212.483 149.875L202.844 155.764C202.353 156.035 201.802 156.158 201.251 156.12C200.699 156.083 200.168 155.886 199.714 155.552L193.342 150.359C193.153 150.248 192.998 150.083 192.894 149.883C192.789 149.683 192.739 149.456 192.749 149.227C192.76 148.999 192.83 148.778 192.952 148.59C193.075 148.402 193.244 148.253 193.442 148.161Z" fill="#FF441F"/>
<path opacity="0.75" d="M193.442 148.161L203.082 142.265C203.573 141.998 204.123 141.876 204.674 141.914C205.225 141.951 205.756 142.146 206.211 142.477L212.621 147.67C212.81 147.784 212.964 147.953 213.067 148.156C213.17 148.359 213.217 148.588 213.202 148.818C213.188 149.048 213.113 149.269 212.986 149.456C212.859 149.643 212.685 149.788 212.483 149.875L202.844 155.764C202.353 156.035 201.802 156.158 201.251 156.12C200.699 156.083 200.168 155.886 199.714 155.552L193.342 150.359C193.153 150.248 192.998 150.083 192.894 149.883C192.789 149.683 192.739 149.456 192.749 149.227C192.76 148.999 192.83 148.778 192.952 148.59C193.075 148.402 193.244 148.253 193.442 148.161Z" fill="white"/>
<path d="M200.664 138.6L198.824 138.646L193.672 134.476C193.218 134.143 192.687 133.947 192.136 133.909C191.585 133.87 191.034 133.991 190.542 134.257L182.699 139.078L180.227 139.144V141.295C180.237 141.51 180.295 141.719 180.395 141.906C180.495 142.092 180.634 142.252 180.802 142.371L187.212 147.557C187.667 147.89 188.198 148.086 188.749 148.124C189.3 148.163 189.85 148.043 190.342 147.776L199.976 141.88C200.178 141.776 200.351 141.617 200.475 141.418C200.6 141.22 200.672 140.989 200.683 140.751L200.664 138.6Z" fill="#FF441F"/>
<path opacity="0.1" d="M200.664 138.6L198.824 138.646L193.672 134.476C193.218 134.143 192.687 133.947 192.136 133.909C191.585 133.87 191.034 133.991 190.542 134.257L182.699 139.078L180.227 139.144V141.295C180.237 141.51 180.295 141.719 180.395 141.906C180.495 142.092 180.634 142.252 180.802 142.371L187.212 147.557C187.667 147.89 188.198 148.086 188.749 148.124C189.3 148.163 189.85 148.043 190.342 147.776L199.976 141.88C200.178 141.776 200.351 141.617 200.475 141.418C200.6 141.22 200.672 140.989 200.683 140.751L200.664 138.6Z" fill="black"/>
<path d="M180.909 138.015L190.549 132.119C191.041 131.853 191.591 131.732 192.142 131.771C192.693 131.809 193.224 132.005 193.679 132.338L200.089 137.524C200.277 137.638 200.432 137.806 200.535 138.009C200.637 138.212 200.684 138.442 200.67 138.672C200.656 138.902 200.581 139.123 200.453 139.31C200.326 139.496 200.152 139.642 199.951 139.728L190.317 145.625C189.826 145.891 189.275 146.012 188.724 145.973C188.173 145.934 187.642 145.738 187.188 145.406L180.778 140.22C180.591 140.105 180.438 139.936 180.336 139.734C180.235 139.532 180.188 139.303 180.202 139.075C180.215 138.846 180.289 138.625 180.414 138.438C180.539 138.251 180.71 138.105 180.909 138.015Z" fill="#FF441F"/>
<path opacity="0.75" d="M180.909 138.015L190.549 132.119C191.041 131.853 191.591 131.732 192.142 131.771C192.693 131.809 193.224 132.005 193.679 132.338L200.089 137.524C200.277 137.638 200.432 137.806 200.535 138.009C200.637 138.212 200.684 138.442 200.67 138.672C200.656 138.902 200.581 139.123 200.453 139.31C200.326 139.496 200.152 139.642 199.951 139.728L190.317 145.625C189.826 145.891 189.275 146.012 188.724 145.973C188.173 145.934 187.642 145.738 187.188 145.406L180.778 140.22C180.591 140.105 180.438 139.936 180.336 139.734C180.235 139.532 180.188 139.303 180.202 139.075C180.215 138.846 180.289 138.625 180.414 138.438C180.539 138.251 180.71 138.105 180.909 138.015Z" fill="white"/>
<path d="M45.3386 75.7814V68.4275C45.332 66.6049 44.6448 64.8592 43.4275 63.5729C42.2102 62.2866 40.562 61.5643 38.8438 61.5643V68.9182C38.8504 70.7409 39.5376 72.4865 40.7549 73.7729C41.9722 75.0592 43.6204 75.7814 45.3386 75.7814Z" fill="#263238"/>
<path d="M66.4669 136.151L45.707 124.964L47.5824 161.966L68.3422 173.153L66.4669 136.151Z" fill="#FF441F"/>
<path opacity="0.5" d="M66.4669 136.151L45.707 124.964L47.5824 161.966L68.3422 173.153L66.4669 136.151Z" fill="white"/>
<path d="M68.3441 173.153L78.102 166.415L70.3757 133.459L66.4688 136.151L68.3441 173.153Z" fill="#FF441F"/>
<path d="M78.1017 166.415L71.4755 165.885L68.3438 173.153L78.1017 166.415Z" fill="#FF441F"/>
<path opacity="0.3" d="M78.1017 166.415L71.4755 165.885L68.3438 173.153L78.1017 166.415Z" fill="black"/>
<path d="M71.4759 165.885L66.3438 133.684L66.4688 136.151L68.3441 173.153L71.4759 165.885Z" fill="#FF441F"/>
<path opacity="0.1" d="M71.4759 165.885L66.3438 133.684L66.4688 136.151L68.3441 173.153L71.4759 165.885Z" fill="black"/>
<path d="M45.707 124.964L49.7327 124.739L49.6077 122.272L70.3739 133.459L66.3419 133.684L66.4669 136.151L45.707 124.964Z" fill="#FF441F"/>
<path d="M59.8849 134.865C59.8849 135.176 59.6974 135.322 59.4286 135.176C59.2875 135.089 59.1677 134.968 59.0787 134.823C58.9896 134.678 58.9339 134.513 58.916 134.341C58.916 134.023 59.1035 133.883 59.3723 134.023C59.5135 134.111 59.6334 134.233 59.7224 134.379C59.8113 134.526 59.867 134.692 59.8849 134.865Z" fill="#455A64"/>
<path d="M53.6779 131.576C53.6779 131.894 53.4904 132.04 53.2216 131.894C53.0815 131.806 52.9624 131.684 52.8735 131.539C52.7846 131.395 52.7283 131.23 52.709 131.058C52.709 130.74 52.8965 130.601 53.1653 130.74C53.3067 130.827 53.4268 130.948 53.5159 131.093C53.605 131.238 53.6605 131.403 53.6779 131.576Z" fill="#455A64"/>
<path d="M63.6799 132.245C63.6799 132.564 63.4923 132.703 63.2235 132.557C63.0818 132.471 62.9614 132.35 62.8723 132.205C62.7832 132.06 62.7279 131.894 62.7109 131.721C62.7109 131.403 62.8985 131.264 63.1673 131.41C63.309 131.496 63.4294 131.617 63.5185 131.762C63.6076 131.907 63.6629 132.073 63.6799 132.245Z" fill="#455A64"/>
<path d="M57.5099 128.923C57.5099 129.241 57.3224 129.381 57.0536 129.241C56.9114 129.154 56.7908 129.032 56.7017 128.886C56.6126 128.739 56.5575 128.573 56.541 128.399C56.541 128.081 56.7285 127.942 56.9973 128.088C57.1384 128.175 57.2583 128.296 57.3473 128.441C57.4363 128.586 57.492 128.751 57.5099 128.923Z" fill="#455A64"/>
<path d="M70.3757 133.459L66.3438 133.684L71.4759 165.885L78.1021 166.415L70.3757 133.459Z" fill="#FF441F"/>
<path opacity="0.2" d="M70.3757 133.459L66.3438 133.684L71.4759 165.885L78.1021 166.415L70.3757 133.459Z" fill="black"/>
<path d="M49.6094 122.272L49.7344 124.739L49.8594 127.206L50.9159 127.769L49.6094 122.272Z" fill="#FF441F"/>
<path opacity="0.2" d="M49.6094 122.272L49.7344 124.739L49.8594 127.206L50.9159 127.769L49.6094 122.272Z" fill="black"/>
<path d="M40.2754 67.5986C43.0759 67.4394 48.7456 67.6914 50.821 76.219C52.5713 83.3806 57.3034 99.0566 58.5348 106.019C59.4725 111.324 60.7602 115.038 60.9478 118.738C60.5977 120.641 59.1662 122.716 55.228 123.379C51.4774 122.325 52.1337 121.669 51.8712 118.141C51.6086 114.613 53.3214 113.605 52.7776 109.421C51.6399 100.635 44.2261 82.3263 44.2261 82.3263L40.2754 67.5986Z" fill="#B16668"/>
<path d="M63.1919 132.298C63.125 132.297 63.0604 132.273 63.0083 132.228C62.9562 132.184 62.9196 132.122 62.9043 132.053C62.9043 132.007 61.9791 127.703 60.9477 124.44C60.1351 121.874 58.3473 121.297 56.7782 120.787C56.4282 120.674 56.0969 120.568 55.7968 120.449C55.7243 120.416 55.6663 120.355 55.6349 120.279C55.6034 120.202 55.601 120.116 55.628 120.037C55.6419 119.998 55.663 119.962 55.69 119.932C55.717 119.901 55.7494 119.876 55.7855 119.859C55.8215 119.842 55.8603 119.832 55.8998 119.831C55.9393 119.83 55.9787 119.837 56.0156 119.852C56.3032 119.971 56.6407 120.071 56.9533 120.183C58.5786 120.707 60.6039 121.364 61.5166 124.242C62.5542 127.557 63.4794 131.867 63.4857 131.914C63.4949 131.954 63.4963 131.996 63.4899 132.037C63.4835 132.079 63.4694 132.118 63.4484 132.153C63.4275 132.188 63.4 132.219 63.3678 132.243C63.3355 132.266 63.2991 132.283 63.2606 132.292L63.1919 132.298Z" fill="#263238"/>
<path d="M58.3298 115.038C57.7135 116.27 57.2532 117.583 56.9608 118.943C56.8608 119.679 55.7106 119.102 55.4793 118.148C55.2946 116.624 55.2152 115.088 55.2418 113.552C55.2418 113.552 54.7042 116.49 54.998 117.889C55.2918 119.288 55.6231 119.567 56.5857 119.878C57.5484 120.19 57.3984 119.288 57.6234 118.121C57.8485 116.954 58.3298 115.038 58.3298 115.038Z" fill="#9A4A4D"/>
<path d="M59.0487 134.434L58.6174 125.886C58.5299 124.003 58.4236 121.861 55.4293 120.23C54.3792 119.66 53.604 119.494 53.2352 119.772C52.8664 120.051 52.9602 120.74 52.9602 120.747L53.4915 131.237C53.4811 131.313 53.4454 131.382 53.3909 131.432C53.3363 131.482 53.2667 131.51 53.1946 131.51C53.1225 131.51 53.0528 131.482 52.9983 131.432C52.9437 131.382 52.908 131.313 52.8976 131.237L52.3663 120.78C52.3256 120.496 52.3517 120.206 52.4422 119.935C52.5328 119.665 52.6849 119.422 52.8851 119.229C53.4665 118.784 54.3917 118.917 55.7044 119.633C59.005 121.437 59.1237 123.864 59.2113 125.82L59.6488 134.354C59.6523 134.439 59.624 134.522 59.5702 134.586C59.5165 134.649 59.4414 134.687 59.3613 134.692C59.2884 134.697 59.2165 134.673 59.159 134.626C59.1015 134.578 59.0623 134.51 59.0487 134.434Z" fill="#263238"/>
<path d="M57.0222 128.883C56.9553 128.882 56.8907 128.857 56.8386 128.813C56.7865 128.769 56.7499 128.707 56.7346 128.638L55.4031 122.246C55.3949 122.205 55.3943 122.162 55.4015 122.121C55.4086 122.08 55.4234 122.041 55.4449 122.006C55.4663 121.971 55.4941 121.94 55.5267 121.917C55.5592 121.893 55.5958 121.876 55.6344 121.868C55.7122 121.852 55.7927 121.868 55.8592 121.914C55.9256 121.96 55.9728 122.031 55.9907 122.113L57.316 128.499C57.3252 128.539 57.3266 128.581 57.3202 128.622C57.3138 128.664 57.2997 128.703 57.2787 128.738C57.2578 128.773 57.2303 128.804 57.1981 128.828C57.1658 128.851 57.1294 128.868 57.0909 128.877L57.0222 128.883Z" fill="#263238"/>
<path d="M55.0028 120.018C53.8713 119.288 51.6709 118.221 51.1584 118.87C50.6458 119.52 49.9894 122.186 52.5398 123.128C54.2394 123.63 56.0527 123.465 57.647 122.663L55.0028 120.018Z" fill="#9A4A4D"/>
<path d="M36.1749 63.2221H33.7307C30.4149 63.2221 27.2349 61.8249 24.8903 59.3377C22.5457 56.8506 21.2285 53.4773 21.2285 49.9599C21.2285 46.2051 22.6346 42.6041 25.1375 39.9491C27.6404 37.2941 31.035 35.8025 34.5746 35.8025H35.356C38.8891 35.8095 42.2754 37.3024 44.7725 39.9538C47.2696 42.6052 48.6738 46.1988 48.6771 49.9466C48.6787 51.6894 48.3566 53.4154 47.729 55.0259C47.1014 56.6365 46.1808 58.1001 45.0197 59.333C43.8586 60.5659 42.4798 61.544 40.9622 62.2113C39.4445 62.8786 37.8177 63.2221 36.1749 63.2221Z" fill="#263238"/>
<path d="M22.9605 39.5292C23.4276 39.6284 23.8386 39.9201 24.1034 40.3402C24.3682 40.7603 24.4653 41.2746 24.3733 41.7705L20.8477 41.0079C20.9455 40.516 21.2222 40.085 21.6177 39.8081C22.0133 39.5313 22.4958 39.4311 22.9605 39.5292Z" fill="#263238"/>
<path d="M25.2609 38.7202C25.3341 38.9579 25.3624 39.2086 25.3442 39.4579C25.326 39.7072 25.2617 39.9503 25.1548 40.1733C25.048 40.3962 24.9008 40.5946 24.7217 40.7572C24.5425 40.9197 24.3349 41.0432 24.1107 41.1206L22.998 37.4934C23.2225 37.4159 23.4593 37.3862 23.6946 37.406C23.93 37.4257 24.1593 37.4945 24.3696 37.6085C24.5798 37.7225 24.7667 37.8793 24.9197 38.0701C25.0727 38.2609 25.1886 38.4818 25.2609 38.7202Z" fill="#263238"/>
<path d="M42.895 213.417C42.0761 212.754 41.1509 212.13 40.432 211.427C38.838 209.882 38.3504 205.97 38.2316 204.65C38.1097 203.527 38.0992 202.394 38.2004 201.269C38.5192 198.616 40.357 192.787 40.357 192.787C40.357 192.787 34.4372 188.656 34.3497 188.709C34.2622 188.762 33.2808 196.302 32.3119 197.535C31.1367 198.629 30.1302 198.934 29.4676 200.38C28.8863 202.164 29.1238 203.125 30.0177 204.982C30.6785 206.59 31.1691 208.272 31.4805 209.995C31.9868 212.17 31.7743 215.731 36.8689 216.818C39.5694 217.395 41.4385 217.011 42.7262 216.401C44.1764 215.718 44.1639 214.431 42.895 213.417Z" fill="#B16668"/>
<path d="M29.4676 200.387C28.8863 202.17 29.1238 203.132 30.0177 204.989C30.6785 206.597 31.1691 208.278 31.4805 210.002C31.9868 212.177 31.7743 215.738 36.8689 216.825C39.5694 217.402 41.4385 217.017 42.7262 216.407C44.1764 215.744 44.1639 214.418 42.895 213.417C42.2699 212.9 41.5447 212.402 40.9259 211.872C41.601 213.158 38.3567 213.463 36.4876 212.276C34.6185 211.089 32.2869 202.727 32.0556 200.857C31.9154 199.746 32.0028 198.615 32.3119 197.542C32.3806 197.442 32.4681 197.297 32.4681 197.297C32.4681 197.297 32.2681 197.21 32.0556 197.383C30.9759 198.146 30.0877 199.177 29.4676 200.387Z" fill="#263238"/>
<path d="M49.1408 104.786C50.0534 115.396 52.8164 151.787 52.0725 158.644C51.7412 161.754 39.314 196.368 39.314 196.368C39.314 196.368 36.2823 197.356 33.4255 193.921C34.9008 179.041 36.3135 163.1 39.3765 158.16C38.7952 153.04 32.7754 127.537 32.7754 127.537L49.1408 104.786Z" fill="#37474F"/>
<path d="M26.7171 208.218V207.283C27.0672 208.377 28.6862 213.112 31.1367 215.479C33.0808 217.369 35.7375 219.544 36.4126 221.646C37.0877 223.748 32.7182 224.564 30.8991 224.219C28.78 223.828 26.0483 222.554 24.5605 220.611C23.5103 219.245 22.8415 217.628 22.0976 216.553C21.3537 215.479 19.5971 214.285 19.2221 213.045C18.997 212.382 19.2658 210.864 19.5721 209.604C19.8784 208.344 20.1972 207.17 20.5473 207.283V207.992C20.9911 208.523 22.2351 209.047 23.6291 209.1C24.5355 209.14 26.7296 208.947 26.7171 208.218Z" fill="#263238"/>
<path d="M32.899 217.137C32.2739 216.566 31.6863 216.009 31.1362 215.472C29.4234 213.821 28.117 211.01 27.3856 209.093C26.9667 207.998 26.7543 206.827 26.7605 205.645V201.912H20.5469V207.986V208.145C20.8407 209.504 23.6724 213.125 25.2852 215.486C26.3666 217.07 28.4108 219.08 30.8674 219.431C33.2178 219.783 34.4056 219.007 32.899 217.137Z" fill="#B16668"/>
<path d="M21.7969 106.411C17.0085 117.504 21.9719 156.575 21.9719 156.575C21.8281 158.379 19.884 161.92 19.1651 169.837C18.3087 179.194 20.5029 202.701 20.5029 202.701C21.4455 203.283 22.5083 203.611 23.5981 203.656C24.6879 203.701 25.7715 203.462 26.754 202.959C26.754 202.959 32.6425 167.563 33.7489 158.259C34.7116 150.136 37.3621 125.15 37.3621 125.15L49.1766 104.779L21.7969 106.411Z" fill="#37474F"/>
<path d="M31.9812 67.7312L25.5488 68.0562C24.6674 68.3479 22.2982 70.7086 21.3668 74.3226C20.6998 77.2977 20.8495 80.4133 21.7981 83.3011L26.0739 96.4241C26.0739 96.4241 24.0735 101.563 21.7481 106.411C32.4813 112.77 45.8836 109.428 49.1154 104.786C49.2467 103.804 49.0654 99.3683 49.3217 94.3286C49.603 88.9442 50.2969 82.8701 49.503 79.5479C48.0215 73.3743 45.246 67.5787 39.7263 67.5787L31.9812 67.7312Z" fill="#FF441F"/>
<path d="M44.1516 41.671C45.6018 42.5795 47.3959 46.452 47.2208 54.5685C47.0708 61.445 44.9642 63.1425 43.914 63.6332C42.8638 64.124 40.8197 63.8256 38.8444 63.4741V67.6053C38.8444 67.6053 41.5761 70.9739 41.4073 72.8638C41.2385 74.7536 37.4566 75.2045 34.8999 73.3545C33.2401 72.0973 31.8156 70.5232 30.6992 68.7127V59.575C30.1185 59.7946 29.4972 59.8659 28.8857 59.7829C28.2742 59.7 27.6897 59.4652 27.1798 59.0976C24.9794 57.5857 24.9232 53.733 26.1734 52.367C27.4236 51.001 30.1804 51.432 30.6929 53.3219C30.6929 53.3219 33.8497 53.4412 38.0505 50.9944C39.6872 50.0591 41.0928 48.7273 42.1529 47.1073C43.2131 45.4872 43.8978 43.6247 44.1516 41.671Z" fill="#B16668"/>
<path d="M40.2568 52.944C40.2591 53.1146 40.214 53.2821 40.1271 53.4257C40.0402 53.5693 39.9153 53.6825 39.7681 53.7513C39.6209 53.8201 39.4578 53.8413 39.2993 53.8124C39.1408 53.7835 38.9938 53.7057 38.8767 53.5887C38.7595 53.4718 38.6775 53.3208 38.6408 53.1547C38.604 52.9885 38.6143 52.8146 38.6701 52.6546C38.726 52.4946 38.825 52.3556 38.9549 52.2549C39.0848 52.1542 39.2398 52.0964 39.4004 52.0885C39.5096 52.085 39.6184 52.1043 39.7206 52.1454C39.8227 52.1865 39.9162 52.2485 39.9958 52.328C40.0753 52.4074 40.1393 52.5027 40.1841 52.6084C40.2289 52.7141 40.2536 52.8281 40.2568 52.944Z" fill="#263238"/>
<path d="M40.1937 58.6864L42.0691 59.3495C42.0356 59.4866 41.976 59.6149 41.8938 59.7265C41.8117 59.8382 41.7089 59.9307 41.5917 59.9985C41.4745 60.0662 41.3454 60.1078 41.2125 60.1204C41.0795 60.1331 40.9456 60.1168 40.8188 60.0723C40.5659 59.9719 40.3594 59.7715 40.2429 59.513C40.1263 59.2546 40.1087 58.9583 40.1937 58.6864Z" fill="#9A4A4D"/>
<path d="M46.664 50.1987L45.0137 48.9653C45.0827 48.8474 45.1736 48.7457 45.2809 48.6664C45.3882 48.5871 45.5096 48.5317 45.6377 48.5038C45.7658 48.4759 45.8979 48.4759 46.026 48.504C46.1541 48.532 46.2754 48.5875 46.3827 48.6669C46.608 48.8334 46.7635 49.0864 46.816 49.3723C46.8685 49.6583 46.814 49.9547 46.664 50.1987Z" fill="#263238"/>
<path d="M46.4268 52.798C46.4291 52.9687 46.3839 53.1362 46.297 53.2798C46.2101 53.4234 46.0852 53.5366 45.938 53.6054C45.7908 53.6741 45.6277 53.6954 45.4692 53.6665C45.3107 53.6376 45.1637 53.5598 45.0466 53.4428C44.9295 53.3258 44.8474 53.1749 44.8107 53.0087C44.774 52.8426 44.7842 52.6687 44.84 52.5087C44.8959 52.3487 44.995 52.2096 45.1248 52.109C45.2547 52.0083 45.4097 51.9505 45.5704 51.9426C45.7904 51.9372 46.0037 52.024 46.1639 52.184C46.3242 52.3441 46.4186 52.5647 46.4268 52.798Z" fill="#263238"/>
<path d="M42.4395 51.7305L42.5707 56.9425L45.1524 56.0937L42.4395 51.7305Z" fill="#9A4A4D"/>
<path d="M38.8438 63.4874C36.7559 63.2023 32.4677 61.8893 31.7988 60.0923C32.0668 61.0031 32.5928 61.8043 33.3053 62.3866C34.5556 63.5537 38.8438 64.8667 38.8438 64.8667V63.4874Z" fill="#9A4A4D"/>
<path d="M37.5449 148.604L35.707 140.262L37.3261 125.157C37.3261 125.157 42.4207 123.121 45.1212 118.937C43.9182 121.986 41.9103 124.602 39.3389 126.47L36.5634 140.222L37.5449 148.604Z" fill="#263238"/>
<path d="M32.6434 132.365L10.2957 118.678L5.82617 158.597L28.1738 172.284L32.6434 132.365Z" fill="#FF441F"/>
<path opacity="0.5" d="M32.6434 132.365L10.2957 118.678L5.82617 158.597L28.1738 172.284L32.6434 132.365Z" fill="white"/>
<path d="M39.3445 165.441L32.6434 164.068L28.1738 172.284L39.3445 165.441Z" fill="#FF441F"/>
<path opacity="0.3" d="M39.3445 165.441L32.6434 164.068L28.1738 172.284L39.3445 165.441Z" fill="black"/>
<path d="M32.6434 164.068L34.875 128.26L32.6434 132.365L28.1738 172.284L32.6434 164.068Z" fill="#FF441F"/>
<path opacity="0.1" d="M32.6434 164.068L34.875 128.26L32.6434 132.365L28.1738 172.284L32.6434 164.068Z" fill="black"/>
<path d="M10.2949 118.678L16.9961 117.312V114.573L39.3438 128.26H34.8742L32.6426 132.365L10.2949 118.678Z" fill="#FF441F"/>
<path d="M24.4346 131.973C24.4346 132.325 24.197 132.464 23.9095 132.292C23.7583 132.185 23.6326 132.043 23.5425 131.876C23.4525 131.709 23.4004 131.522 23.3906 131.33C23.3906 130.979 23.6219 130.833 23.9095 131.012C24.0621 131.117 24.1893 131.259 24.2805 131.426C24.3718 131.593 24.4245 131.781 24.4346 131.973Z" fill="#455A64"/>
<path d="M17.8838 127.557C17.8838 127.915 17.6525 128.054 17.3587 127.882C17.2075 127.776 17.0819 127.633 16.9918 127.467C16.9017 127.3 16.8497 127.113 16.8398 126.921C16.8398 126.569 17.0711 126.423 17.3587 126.602C17.5119 126.705 17.6397 126.846 17.731 127.012C17.8224 127.178 17.8748 127.365 17.8838 127.557Z" fill="#455A64"/>
<path d="M31.374 127.212C31.374 127.564 31.1427 127.71 30.8552 127.531C30.703 127.426 30.5761 127.286 30.4848 127.12C30.3936 126.954 30.3406 126.767 30.3301 126.576C30.3301 126.218 30.5676 126.078 30.8552 126.251C31.0063 126.357 31.132 126.499 31.2221 126.666C31.3122 126.833 31.3642 127.02 31.374 127.212Z" fill="#455A64"/>
<path d="M24.749 123.287C24.749 123.638 24.5115 123.784 24.2239 123.605C24.0725 123.501 23.9466 123.36 23.8564 123.194C23.7662 123.028 23.7144 122.841 23.7051 122.65C23.7051 122.299 23.9364 122.153 24.2239 122.332C24.3761 122.436 24.503 122.577 24.5943 122.743C24.6855 122.908 24.7385 123.095 24.749 123.287Z" fill="#455A64"/>
<path d="M39.3438 128.26H34.8742L32.6426 164.068L39.3438 165.441V128.26Z" fill="#FF441F"/>
<path d="M16.9961 117.312V122.783L10.2949 118.678L16.9961 117.312Z" fill="#FF441F"/>
<path opacity="0.2" d="M39.3438 128.26H34.8742L32.6426 164.068L39.3438 165.441V128.26Z" fill="black"/>
<path opacity="0.2" d="M16.9961 117.312V122.783L10.2949 118.678L16.9961 117.312Z" fill="black"/>
<path d="M17.36 127.451C17.3209 127.46 17.2803 127.46 17.2412 127.451C17.1658 127.415 17.1064 127.349 17.075 127.268C17.0436 127.186 17.0427 127.095 17.0725 127.013L22.7609 112.737C22.794 112.656 22.8557 112.591 22.9328 112.558C23.0099 112.524 23.0963 112.524 23.1735 112.558C23.2489 112.594 23.3084 112.66 23.3398 112.741C23.3711 112.822 23.372 112.913 23.3423 112.995L17.6538 127.272C17.6251 127.328 17.5825 127.374 17.5306 127.405C17.4788 127.437 17.4198 127.453 17.36 127.451Z" fill="#263238"/>
<path d="M24.2227 123.234C24.1398 123.234 24.0603 123.199 24.0017 123.137C23.9431 123.074 23.9102 122.99 23.9102 122.902V113.022C23.9102 112.934 23.9431 112.849 24.0017 112.787C24.0603 112.725 24.1398 112.69 24.2227 112.69C24.3056 112.69 24.3851 112.725 24.4437 112.787C24.5023 112.849 24.5353 112.934 24.5353 113.022V122.909C24.5336 122.995 24.5 123.078 24.4415 123.139C24.3831 123.2 24.3045 123.234 24.2227 123.234Z" fill="#263238"/>
<path d="M13.6711 97.6906L22.3414 84.8196C23.7222 83.3383 24.7619 81.5387 25.3794 79.5611C26.8922 74.4751 27.1297 71.4911 25.5419 68.0562C22.0163 68.0562 19.9535 68.4341 15.9465 75.6289C12.6772 81.4974 7.82009 91.5038 6.63238 93.6655C5.15087 96.3179 4.71955 97.054 6.00727 99.6799C7.295 102.306 12.1458 109.05 16.2278 114.122C20.3098 119.195 22.6977 120.906 25.7482 121.655C28.7988 122.405 30.1615 121.775 31.8805 120.097C33.5996 118.419 32.3869 116.927 30.7866 116.536C29.2687 116.188 27.821 115.557 26.5109 114.673C25.5419 113.93 25.2606 113.347 26.142 113.307C27.3047 113.254 28.3924 113.008 28.6925 112.146C29.0676 111.066 28.1049 111.357 26.7734 110.92C25.0532 110.365 23.2827 110.005 21.4912 109.845C19.2971 109.971 13.6711 97.6906 13.6711 97.6906Z" fill="#B16668"/>
<path d="M29.8424 61.4648H30.6988V70.0853C30.6988 71.7543 30.0738 73.3549 28.9613 74.5351C27.8488 75.7152 26.3399 76.3782 24.7666 76.3782H23.9102V67.7578C23.9102 66.0888 24.5352 64.4882 25.6477 63.308C26.7602 62.1279 28.2691 61.4648 29.8424 61.4648Z" fill="#263238"/>
<path d="M30.5484 126.801V119.315C30.5484 118.221 30.2421 116.477 29.3982 116.152C29.3585 116.138 29.3219 116.116 29.2904 116.086C29.2589 116.057 29.2333 116.022 29.215 115.982C29.1968 115.942 29.1862 115.899 29.184 115.854C29.1818 115.81 29.188 115.766 29.2022 115.724C29.2164 115.682 29.2384 115.644 29.2668 115.612C29.2952 115.579 29.3294 115.553 29.3675 115.535C29.4056 115.516 29.4467 115.506 29.4885 115.505C29.5303 115.504 29.5718 115.512 29.6107 115.528C31.1297 116.119 31.1735 118.99 31.1735 119.315V126.801C31.1735 126.889 31.1406 126.973 31.082 127.036C31.0233 127.098 30.9438 127.133 30.8609 127.133C30.7781 127.133 30.6986 127.098 30.6399 127.036C30.5813 126.973 30.5484 126.889 30.5484 126.801Z" fill="#263238"/>
<path d="M23.9926 131.94C23.9532 131.947 23.9132 131.947 23.8738 131.94C23.8354 131.924 23.8005 131.899 23.7712 131.868C23.7419 131.837 23.7187 131.8 23.703 131.759C23.6872 131.718 23.6793 131.675 23.6797 131.631C23.6801 131.587 23.6887 131.543 23.705 131.503C23.705 131.463 25.2366 127.643 27.0431 122.166C28.7997 116.861 28.1808 115.8 27.8308 115.601C27.7946 115.58 27.7626 115.552 27.7367 115.518C27.7108 115.484 27.6915 115.445 27.6799 115.403C27.6683 115.361 27.6646 115.318 27.669 115.274C27.6735 115.231 27.6859 115.189 27.7057 115.15C27.7466 115.074 27.8137 115.018 27.893 114.993C27.9723 114.968 28.0576 114.977 28.1308 115.018C29.2373 115.681 29.081 117.995 27.637 122.385C25.8242 127.875 24.2989 131.702 24.2989 131.741C24.2741 131.804 24.2311 131.858 24.1761 131.893C24.1211 131.929 24.0569 131.946 23.9926 131.94Z" fill="#263238"/>
</svg>
