<svg width="260" height="260" viewBox="0 0 260 260" fill="none" xmlns="http://www.w3.org/2000/svg">
<path d="M130 247.605C196.333 247.605 250.107 219.306 250.107 184.397C250.107 149.488 196.333 121.189 130 121.189C63.6663 121.189 9.89258 149.488 9.89258 184.397C9.89258 219.306 63.6663 247.605 130 247.605Z" fill="#F5F5F5"/>
<path d="M40.1707 259.387L36.4862 256.782C35.3249 255.957 35.3249 254.63 36.4862 253.805L165.792 162.385C166.444 161.981 167.165 161.771 167.896 161.771C168.627 161.771 169.348 161.981 170 162.385L173.71 164.99C174.872 165.808 174.872 167.135 173.71 167.953L44.3793 259.387C43.7267 259.79 43.006 260 42.275 260C41.544 260 40.8233 259.79 40.1707 259.387Z" fill="#E6E6E6"/>
<path d="M189.04 244.197C210.013 244.197 227.015 232.176 227.015 217.348C227.015 202.519 210.013 190.499 189.04 190.499C168.066 190.499 151.064 202.519 151.064 217.348C151.064 232.176 168.066 244.197 189.04 244.197Z" fill="#E0E0E0"/>
<path d="M46.6458 246.632C46.1319 237.055 46.6818 227.321 41.8051 214.107C37.6942 203.02 30.9522 194.287 23.2698 193.607C20.0838 193.324 17.7817 194.236 16.4405 197.011C14.0921 201.888 17.5915 207.117 21.3428 210.131C22.9923 211.458 36.5431 220.054 40.2892 239.113L41.913 249.967L42.4269 249.596L46.6458 246.632Z" fill="#FF441F"/>
<path opacity="0.25" d="M46.6458 246.632C46.1319 237.055 46.6818 227.321 41.8051 214.107C37.6942 203.02 30.9522 194.287 23.2698 193.607C20.0838 193.324 17.7817 194.236 16.4405 197.011C14.0921 201.888 17.5915 207.117 21.3428 210.131C22.9923 211.458 36.5431 220.054 40.2892 239.113L41.913 249.967L42.4269 249.596L46.6458 246.632Z" fill="white"/>
<path d="M44.1743 243.335C44.0995 243.322 44.0303 243.279 43.9774 243.213C43.9245 243.147 43.8907 243.062 43.8814 242.97C41.4456 219.802 34.2566 205.934 21.1272 200.478C21.085 200.457 21.0469 200.425 21.0151 200.384C20.9834 200.344 20.9586 200.296 20.9423 200.244C20.9259 200.192 20.9184 200.136 20.9202 200.08C20.9219 200.024 20.9329 199.969 20.9524 199.918C20.9916 199.817 21.0609 199.739 21.1461 199.699C21.2313 199.659 21.3257 199.661 21.4098 199.704C34.6522 204.883 42.0931 219.393 44.5597 242.888C44.5655 242.997 44.5366 243.105 44.4791 243.188C44.4216 243.271 44.34 243.324 44.2513 243.335H44.1743Z" fill="white"/>
<path d="M39.365 251.836C38.8101 248.514 37.3507 244.663 31.8266 237.244C27.0578 230.839 19.6221 227.265 18.1679 223.288C16.4207 218.506 19.5553 214.114 25.5368 215.064C32.731 216.209 40.0639 229.31 42.7309 249.401L39.365 251.836Z" fill="#FF441F"/>
<path opacity="0.65" d="M39.365 251.836C38.8101 248.514 37.3507 244.663 31.8266 237.244C27.0578 230.839 19.6221 227.265 18.1679 223.288C16.4207 218.506 19.5553 214.114 25.5368 215.064C32.731 216.209 40.0639 229.31 42.7309 249.401L39.365 251.836Z" fill="white"/>
<path d="M23.0946 219.588C23.0503 219.575 23.0044 219.574 22.9596 219.583C22.9147 219.593 22.872 219.614 22.834 219.644C22.796 219.675 22.7635 219.715 22.7385 219.761C22.7135 219.808 22.6965 219.86 22.6887 219.915C22.6789 219.97 22.6781 220.026 22.6862 220.081C22.6944 220.136 22.7114 220.188 22.7363 220.235C22.7611 220.282 22.7934 220.322 22.8311 220.354C22.8688 220.385 22.9112 220.407 22.9559 220.419C27.7914 221.677 37.8992 232.783 41.1726 250.427C41.1697 250.454 41.1697 250.481 41.1726 250.508L41.7841 250.068C38.4799 232.217 28.4337 220.953 23.0946 219.588Z" fill="white"/>
<path d="M216.963 203.385C217.384 195.885 216.932 188.284 220.75 177.933C223.952 169.256 229.239 162.429 235.257 161.894C237.749 161.674 239.548 162.385 240.596 164.555C242.435 168.375 239.697 172.465 236.762 174.824C235.473 175.863 224.856 182.583 221.937 197.477L220.668 205.965L220.247 205.676L216.963 203.385Z" fill="#FF441F"/>
<path opacity="0.25" d="M216.963 203.385C217.384 195.885 216.932 188.284 220.75 177.933C223.952 169.256 229.239 162.429 235.257 161.894C237.749 161.674 239.548 162.385 240.596 164.555C242.435 168.375 239.697 172.465 236.762 174.824C235.473 175.863 224.856 182.583 221.937 197.477L220.668 205.965L220.247 205.676L216.963 203.385Z" fill="white"/>
<path d="M218.895 200.824C218.953 200.814 219.007 200.781 219.049 200.73C219.091 200.679 219.118 200.613 219.126 200.541C221.032 182.388 226.659 171.534 236.921 167.267C236.954 167.25 236.983 167.225 237.008 167.194C237.033 167.163 237.052 167.126 237.065 167.086C237.078 167.045 237.084 167.002 237.083 166.959C237.082 166.916 237.075 166.873 237.06 166.833C237.029 166.754 236.974 166.693 236.908 166.661C236.841 166.63 236.767 166.631 236.7 166.663C226.341 170.716 220.519 182.067 218.586 200.453C218.579 200.54 218.6 200.628 218.644 200.697C218.688 200.766 218.752 200.812 218.823 200.824H218.895Z" fill="white"/>
<path d="M222.661 207.469C223.093 204.864 224.239 201.856 228.555 196.048C232.286 191.015 238.108 188.24 239.249 185.125C240.616 181.387 238.16 177.952 233.483 178.694C227.857 179.575 222.111 189.851 220.03 205.581L222.661 207.469Z" fill="#FF441F"/>
<path opacity="0.65" d="M222.661 207.469C223.093 204.864 224.239 201.856 228.555 196.048C232.286 191.015 238.108 188.24 239.249 185.125C240.616 181.387 238.16 177.952 233.483 178.694C227.857 179.575 222.111 189.851 220.03 205.581L222.661 207.469Z" fill="white"/>
<path d="M221.336 205.172C221.382 205.159 221.425 205.132 221.46 205.094C221.495 205.055 221.521 205.007 221.537 204.952C224.574 191.336 231.696 183.86 235.478 182.891C235.513 182.882 235.546 182.865 235.576 182.84C235.606 182.815 235.631 182.784 235.651 182.747C235.67 182.71 235.684 182.669 235.69 182.625C235.697 182.582 235.696 182.538 235.689 182.495C235.682 182.452 235.668 182.412 235.649 182.376C235.629 182.34 235.603 182.309 235.573 182.286C235.544 182.262 235.51 182.246 235.475 182.239C235.44 182.232 235.405 182.233 235.37 182.243C231.182 183.313 224.111 190.876 221.012 204.776C220.994 204.861 221.003 204.952 221.039 205.028C221.074 205.105 221.133 205.161 221.203 205.185C221.247 205.194 221.293 205.19 221.336 205.172Z" fill="white"/>
<path d="M113.927 18.5931L115.536 17.3976C115.53 17.2614 115.53 17.1248 115.536 16.9886V16.0133C115.577 15.0677 115.8 14.1475 116.187 13.3275C116.573 12.5074 117.113 11.8107 117.761 11.2941C117.953 11.1349 118.169 11.025 118.397 10.9709C118.625 10.9169 118.86 10.9198 119.086 10.9795C119.219 9.67596 119.58 8.42294 120.145 7.3064C120.71 6.18986 121.465 5.23623 122.36 4.51097C124.199 3.21476 125.69 4.26557 125.69 6.86429V8.3304C125.682 9.04016 125.586 9.74438 125.407 10.4194L127.694 8.80232C128.377 8.31781 128.927 8.70794 128.927 9.67695C128.904 10.2012 128.78 10.7114 128.566 11.1662C128.352 11.621 128.053 12.0076 127.694 12.2945L113.922 22.0854C113.239 22.5699 112.684 22.1735 112.684 21.2107C112.708 20.6855 112.834 20.1747 113.05 19.7199C113.266 19.2651 113.566 18.8791 113.927 18.5931Z" fill="#EBEBEB"/>
<path d="M104.056 7.00269L102.447 7.75777V3.41608C102.447 -0.0258056 100.202 -0.850096 97.771 0.867701C95.3352 2.59179 93.362 6.77617 93.362 10.2181V10.8473C93.0176 10.717 92.6536 10.6844 92.2975 10.752C91.9413 10.8196 91.6024 10.9856 91.3065 11.2374C90.3831 11.9741 89.6147 12.9672 89.0637 14.136C88.5128 15.3048 88.1949 16.6163 88.1359 17.9639V18.247L85.8903 19.839C85.2849 20.3221 84.7804 20.9721 84.4172 21.737C84.054 22.5019 83.8422 23.3604 83.7988 24.2436C83.7988 25.8733 84.7341 26.534 85.8903 25.716L104.056 12.9112C104.661 12.4281 105.166 11.778 105.529 11.0131C105.892 10.2482 106.104 9.38975 106.147 8.50655C106.147 6.84538 105.212 6.18469 104.056 7.00269Z" fill="#EBEBEB"/>
<path opacity="0.5" d="M41.9531 50.9419L64.805 34.7896L53.3816 60.4873L41.9531 50.9419Z" fill="#FF441F"/>
<path opacity="0.3" d="M41.9531 39.1941L64.805 23.0417L53.3816 48.7395L41.9531 39.1941Z" fill="#FF441F"/>
<path opacity="0.1" d="M41.9531 27.4464L64.805 11.2941L53.3816 36.9918L41.9531 27.4464Z" fill="#FF441F"/>
<path d="M49.3891 250.257C48.739 250.734 48.0032 251.008 47.2462 251.056C46.1682 251.22 45.0746 250.986 44.1065 250.382C43.3437 249.754 42.7132 248.913 42.2667 247.928C41.8201 246.944 41.5701 245.845 41.5371 244.719V115.318L46.6758 118.949V248.369C46.6758 249.885 47.2976 250.76 48.2174 250.76C48.6348 250.707 49.0362 250.535 49.3891 250.257Z" fill="#E0E0E0"/>
<path d="M171.177 160.308C171.127 161.469 170.854 162.599 170.38 163.606C169.905 164.613 169.244 165.469 168.448 166.103L49.3895 250.257C47.889 251.326 46.666 250.458 46.666 248.325V102.495L54.184 97.1838C55.6845 96.1141 129.862 43.6993 131.362 42.617L171.177 14.4464V160.308Z" fill="#FAFAFA"/>
<path d="M170.005 16.9193V160.308C169.954 161.217 169.735 162.099 169.363 162.889C168.992 163.678 168.479 164.354 167.863 164.864L48.7883 249.048C48.5992 249.2 48.3818 249.291 48.1563 249.313C47.8582 249.313 47.812 248.683 47.812 248.35V103.319L54.7493 98.4171L93.8034 70.7876L131.928 43.8692L170.005 16.9382M171.177 14.4464L131.342 42.6107C129.841 43.6741 55.6639 96.0953 54.1634 97.1775L46.6455 102.488V248.369C46.6455 249.885 47.2622 250.76 48.1563 250.76C48.5968 250.731 49.0229 250.557 49.3896 250.257L168.443 166.103C169.239 165.469 169.9 164.613 170.374 163.606C170.849 162.599 171.122 161.469 171.172 160.308V14.4464H171.177Z" fill="#EBEBEB"/>
<path d="M156.977 86.4368V152.984C156.96 153.063 156.929 153.136 156.885 153.198L66.387 217.178V150.624C66.4061 150.548 66.4376 150.478 66.4795 150.417L156.977 86.4368ZM157.712 84.4799C157.611 84.4808 157.513 84.518 157.43 84.5868L65.9348 149.265C65.7509 149.412 65.5978 149.61 65.488 149.843C65.3782 150.076 65.3147 150.337 65.3027 150.606V218.562C65.3027 218.909 65.4415 219.116 65.6522 219.116C65.7506 219.11 65.8462 219.073 65.9297 219.009L157.424 154.324C157.608 154.179 157.761 153.982 157.871 153.75C157.981 153.518 158.045 153.258 158.056 152.99V85.0336C158.056 84.6812 157.913 84.4799 157.707 84.4799H157.712Z" fill="#EBEBEB"/>
<path d="M44.0811 112.783C43.3192 112.153 42.6894 111.312 42.2429 110.327C41.7965 109.343 41.546 108.244 41.5117 107.119V91.3887C41.5633 90.226 41.8382 89.0946 42.3141 88.0866C42.7901 87.0785 43.4535 86.2222 44.2507 85.5872L163.32 1.40255C164.132 0.875771 165.035 0.590471 165.954 0.569703C166.874 0.548935 167.784 0.793281 168.613 1.283C169.374 1.91324 170.004 2.75446 170.45 3.7384C170.897 4.72234 171.147 5.82128 171.182 6.94607V22.6768C171.133 23.837 170.86 24.9665 170.386 25.9727C169.911 26.9789 169.249 27.8332 168.453 28.4657L49.3894 112.663C48.5749 113.194 47.6694 113.481 46.7469 113.502C45.8244 113.523 44.9109 113.276 44.0811 112.783Z" fill="#263238"/>
<path d="M171.147 6.41123C170.956 4.68085 169.805 4.05161 168.444 5.02063L49.3899 89.2053C48.5881 89.837 47.9261 90.7016 47.4629 91.7222L42.3242 88.0915C42.7842 87.0661 43.449 86.2002 44.2564 85.5746L163.325 1.40885C164.136 0.879748 165.036 0.592556 165.954 0.570686C166.872 0.548817 167.782 0.792888 168.608 1.283C169.308 1.8629 169.898 2.6215 170.336 3.50671C170.774 4.39192 171.051 5.38278 171.147 6.41123Z" fill="#455A64"/>
<path d="M171.177 6.95237V14.4465L131.342 42.6108C129.841 43.6742 55.6639 96.0954 54.1634 97.1776L46.6455 102.488V95.0005C46.6966 93.8407 46.9697 92.7118 47.4428 91.7051C47.9159 90.6984 48.5757 89.8421 49.369 89.2053L168.443 5.02064C169.944 3.95724 171.177 4.81928 171.177 6.95237Z" fill="#37474F"/>
<path d="M166.599 9.89085C167.483 9.26162 168.202 9.77129 168.202 11.0235C168.171 11.7031 168.01 12.3642 167.731 12.9533C167.453 13.5425 167.065 14.0432 166.599 14.415C165.72 15.0442 165.001 14.5283 165.001 13.2824C165.032 12.6033 165.192 11.9426 165.47 11.3535C165.748 10.7644 166.134 10.2634 166.599 9.89085Z" fill="white"/>
<path d="M160.842 13.9432C161.726 13.314 162.44 13.8237 162.44 15.0758C162.41 15.7543 162.25 16.4145 161.972 17.0027C161.695 17.591 161.307 18.0907 160.842 18.4611C159.958 19.0903 159.244 18.5806 159.244 17.3348C159.273 16.6552 159.433 15.9937 159.711 15.4043C159.989 14.8149 160.376 14.3143 160.842 13.9432Z" fill="white"/>
<path d="M155.087 18.0079C155.971 17.3787 156.686 17.8884 156.686 19.1343C156.656 19.8138 156.496 20.4753 156.219 21.0647C155.941 21.6541 155.553 22.1548 155.087 22.5258C154.204 23.155 153.489 22.6454 153.489 21.3995C153.518 20.7199 153.678 20.0585 153.956 19.4691C154.234 18.8797 154.622 18.379 155.087 18.0079Z" fill="white"/>
<path d="M51.2755 99.2414C52.036 98.7003 52.3032 97.8823 52.6578 96.3092L53.4954 92.7603C53.7986 91.3383 54.1172 90.363 54.8829 89.8281L88.2074 66.2635C88.9731 65.7223 89.5743 65.6342 90.155 66.8424L91.1827 69.1265C91.6195 70.0452 91.8353 70.5863 92.5959 70.0452L118.474 51.7597L171.177 14.4464V30.9322L46.6455 118.974V102.495L51.2703 99.2099" fill="#E0E0E0"/>
<path d="M46.6453 102.495V118.968L41.5117 115.343V98.8828L46.6453 102.495Z" fill="#E0E0E0"/>
<path opacity="0.15" d="M46.6453 102.495V118.968L41.5117 115.343V98.8828L46.6453 102.495Z" fill="black"/>
<path opacity="0.3" d="M53.5675 105.76L51.1729 107.453L52.0825 105.301C52.1199 105.222 52.1396 105.131 52.1396 105.04C52.1396 104.948 52.1199 104.858 52.0825 104.779C52.0105 104.672 51.8923 104.747 51.8101 104.936L50.51 108C50.4958 108.037 50.4838 108.075 50.474 108.114C50.4763 108.126 50.4763 108.139 50.474 108.151C50.469 108.206 50.469 108.261 50.474 108.315C50.4683 108.359 50.4683 108.403 50.474 108.447C50.4829 108.472 50.4951 108.496 50.51 108.516L51.8101 109.737C51.8287 109.754 51.8512 109.763 51.8743 109.763C51.8975 109.763 51.92 109.754 51.9386 109.737C52.0039 109.681 52.054 109.602 52.0825 109.51C52.1544 109.309 52.1441 109.089 52.0825 109.013L51.1729 108.151L53.5675 106.459C53.6295 106.399 53.6793 106.322 53.7132 106.235C53.747 106.148 53.764 106.052 53.7628 105.955C53.7628 105.785 53.6755 105.685 53.5675 105.76Z" fill="black"/>
<path opacity="0.3" d="M55.5557 104.345L57.9503 102.652L57.0408 101.79C56.9585 101.714 56.9483 101.488 57.0408 101.287C57.1333 101.085 57.2309 100.984 57.3131 101.06L58.6132 102.318C58.6291 102.336 58.6414 102.357 58.6492 102.381C58.6549 102.425 58.6549 102.47 58.6492 102.514C58.6542 102.566 58.6542 102.619 58.6492 102.671C58.647 102.683 58.647 102.696 58.6492 102.709C58.6394 102.747 58.6274 102.785 58.6132 102.822L57.3131 105.886C57.2842 105.958 57.2398 106.019 57.1847 106.062C57.1654 106.085 57.1396 106.098 57.1127 106.098C57.0858 106.098 57.06 106.085 57.0408 106.062C57.0034 105.982 56.9837 105.891 56.9837 105.798C56.9837 105.705 57.0034 105.614 57.0408 105.534L57.9503 103.382L55.5557 105.081C55.4478 105.156 55.3604 105.049 55.3604 104.848C55.3592 104.751 55.3762 104.656 55.4101 104.568C55.4439 104.481 55.4937 104.404 55.5557 104.345Z" fill="black"/>
<path opacity="0.3" d="M63.2281 95.8878C63.2281 95.7116 63.0894 95.7368 63.0226 95.9255L62.6988 96.9134C62.1387 96.8379 61.4604 97.5049 60.9979 98.6942C60.4069 100.236 60.4069 102.054 60.9979 102.753C61.1424 102.917 61.3288 103.015 61.5255 103.03C61.7223 103.045 61.9171 102.976 62.077 102.834C62.5573 102.442 62.9313 101.884 63.151 101.23C63.1897 101.153 63.2102 101.065 63.2102 100.975C63.2102 100.885 63.1897 100.797 63.151 100.72C63.0791 100.626 62.9558 100.72 62.8787 100.909C62.4367 102.061 61.7173 102.57 61.2703 102.048C60.8232 101.526 60.8283 100.16 61.2703 99.0151C61.5889 98.1971 62.0411 97.7126 62.4367 97.6811L62.1901 98.4236C62.1284 98.6187 62.1901 98.7948 62.2877 98.713L63.2641 97.9328C63.3021 97.8928 63.3318 97.8422 63.3506 97.7853C63.3693 97.7283 63.3767 97.6667 63.372 97.6056L63.2281 95.8878Z" fill="black"/>
<path opacity="0.3" d="M87.7189 71.4925L88.6798 68.9756C88.7369 68.8586 88.767 68.7249 88.767 68.5886C88.767 68.4524 88.7369 68.3187 88.6798 68.2016C88.5668 68.0632 88.3818 68.2017 88.2687 68.4911L87.3078 71.008L86.3469 69.8754C86.2338 69.7433 86.0488 69.8754 85.9358 70.1648C85.8787 70.2818 85.8486 70.4156 85.8486 70.5518C85.8486 70.6881 85.8787 70.8218 85.9358 70.9388L86.8967 72.0714L85.9358 74.5883C85.8787 74.7053 85.8486 74.8391 85.8486 74.9753C85.8486 75.1116 85.8787 75.2453 85.9358 75.3623C85.9645 75.392 86.0009 75.4083 86.0386 75.4083C86.0762 75.4083 86.1126 75.392 86.1413 75.3623C86.2311 75.2839 86.3021 75.1774 86.3469 75.054L87.3078 72.537L88.2687 73.6697C88.2975 73.6994 88.3339 73.7157 88.3715 73.7157C88.4091 73.7157 88.4455 73.6994 88.4743 73.6697C88.6049 73.5456 88.6966 73.3703 88.734 73.1732C88.7714 72.9761 88.7523 72.7692 88.6798 72.5874L87.7189 71.4925Z" fill="black"/>
<path d="M68.5371 97.0203V93.7672C68.5622 93.2087 68.6944 92.6653 68.923 92.181C69.1515 91.6968 69.47 91.2852 69.8526 90.9797L159.873 27.1821C160.597 26.6661 161.183 27.0814 161.183 28.1071V31.3665C161.159 31.9237 161.028 32.466 160.8 32.9493C160.572 33.4326 160.254 33.8432 159.873 34.1477L69.8526 97.983C69.1281 98.4612 68.5371 98.0459 68.5371 97.0203Z" fill="#FAFAFA"/>
<path d="M158.104 34.4309C158.064 34.438 158.025 34.438 157.985 34.4309C157.912 34.3889 157.852 34.3175 157.815 34.2284C157.779 34.1392 157.768 34.0376 157.785 33.9401L157.919 32.6187L157.405 32.172C157.359 32.1307 157.323 32.0764 157.299 32.0139C157.275 31.9513 157.263 31.8824 157.266 31.8133C157.265 31.7061 157.284 31.6 157.322 31.503C157.359 31.406 157.414 31.3207 157.482 31.2533L158.253 30.5234C158.272 30.5043 158.284 30.4775 158.289 30.4479L158.633 29.0636C158.654 28.9499 158.703 28.8467 158.772 28.7671C158.842 28.6875 158.929 28.6352 159.023 28.6168C159.085 28.5975 159.15 28.6016 159.21 28.6286C159.269 28.6556 159.321 28.7041 159.357 28.7678L159.645 29.5229L160.298 29.2146C160.357 29.1851 160.421 29.1789 160.483 29.197C160.545 29.2151 160.601 29.2564 160.642 29.3153C160.692 29.4087 160.719 29.5181 160.719 29.6299C160.719 29.7417 160.692 29.8511 160.642 29.9445L160.082 31.203C160.077 31.2298 160.077 31.2579 160.082 31.2848L160.211 32.4425C160.219 32.5479 160.209 32.6543 160.181 32.7544C160.152 32.8544 160.106 32.9455 160.046 33.0214C160.009 33.0743 159.962 33.1152 159.909 33.1404C159.856 33.1657 159.799 33.1745 159.743 33.1661L159.111 33.0718L158.433 34.1352C158.405 34.2164 158.36 34.2868 158.302 34.3389C158.244 34.391 158.175 34.4228 158.104 34.4309ZM157.728 31.7441L158.242 32.1908C158.295 32.2427 158.335 32.311 158.359 32.3886C158.382 32.4661 158.388 32.55 158.376 32.6313L158.289 33.5122L158.746 32.8012C158.784 32.7335 158.836 32.6792 158.896 32.6438C158.956 32.6085 159.023 32.5933 159.09 32.5998L159.722 32.6942C159.737 32.668 159.746 32.6377 159.748 32.6061L159.614 31.4484C159.601 31.3028 159.625 31.1558 159.681 31.0268L160.169 29.9067L159.656 30.1458C159.582 30.1805 159.5 30.1796 159.426 30.1434C159.353 30.1073 159.294 30.0384 159.26 29.9508L159.029 29.3216L158.725 30.58C158.691 30.7175 158.625 30.8399 158.535 30.9324L157.759 31.6623C157.747 31.6775 157.737 31.6944 157.728 31.7126V31.7441Z" fill="#E0E0E0"/>
<g opacity="0.2">
<path d="M163.706 25.9173C163.608 25.924 163.512 25.8901 163.433 25.8213C163.353 25.7525 163.295 25.6527 163.267 25.5382C163.24 25.4237 163.245 25.3013 163.282 25.1907C163.318 25.0802 163.384 24.9881 163.469 24.9294L166.984 22.4125C167.033 22.3778 167.088 22.3553 167.144 22.3463C167.201 22.3374 167.258 22.3421 167.313 22.3602C167.368 22.3783 167.419 22.4095 167.464 22.4519C167.509 22.4944 167.547 22.5473 167.575 22.6076C167.603 22.6679 167.622 22.7345 167.629 22.8035C167.636 22.8725 167.633 22.9426 167.618 23.0098C167.603 23.077 167.578 23.14 167.543 23.1951C167.508 23.2502 167.465 23.2965 167.416 23.3312L163.901 25.8481C163.842 25.8914 163.775 25.9152 163.706 25.9173Z" fill="black"/>
<path d="M163.705 28.4028C163.61 28.4035 163.517 28.3653 163.441 28.2944C163.365 28.2235 163.311 28.1238 163.286 28.0109C163.261 27.898 163.268 27.7783 163.305 27.6704C163.342 27.5626 163.407 27.4728 163.49 27.4149L167.004 24.9295C167.054 24.8948 167.108 24.8723 167.164 24.8633C167.221 24.8543 167.278 24.859 167.333 24.8772C167.388 24.8953 167.439 24.9264 167.484 24.9689C167.529 25.0113 167.567 25.0642 167.595 25.1245C167.624 25.1849 167.642 25.2514 167.649 25.3204C167.657 25.3895 167.653 25.4596 167.638 25.5268C167.623 25.5939 167.598 25.6569 167.563 25.7121C167.529 25.7672 167.485 25.8135 167.436 25.8482L163.921 28.3651C163.854 28.4018 163.779 28.4149 163.705 28.4028Z" fill="black"/>
<path d="M163.707 30.8946C163.61 30.8981 163.515 30.8622 163.437 30.7925C163.358 30.7228 163.301 30.6232 163.274 30.5095C163.247 30.3957 163.252 30.2742 163.287 30.1639C163.323 30.0537 163.387 29.961 163.47 29.9004L166.985 27.3835C167.034 27.3486 167.089 27.326 167.145 27.3169C167.201 27.3078 167.259 27.3125 167.314 27.3306C167.369 27.3487 167.42 27.38 167.465 27.4225C167.51 27.4651 167.548 27.5181 167.576 27.5785C167.605 27.6388 167.623 27.7054 167.63 27.7744C167.638 27.8435 167.634 27.9137 167.619 27.9809C167.604 28.0481 167.579 28.1111 167.544 28.1663C167.509 28.2214 167.466 28.2676 167.417 28.3022L163.902 30.8191C163.843 30.8643 163.776 30.8903 163.707 30.8946Z" fill="black"/>
</g>
<path d="M132.226 70.3977L157.96 52.2067C158.721 51.6655 159.338 52.106 159.338 53.182V60.2671C159.309 60.8528 159.169 61.4222 158.929 61.9301C158.689 62.438 158.356 62.8704 157.955 63.193L132.226 81.3841C131.465 81.9252 130.849 81.4847 130.849 80.4088V73.3236C130.877 72.7385 131.016 72.1695 131.255 71.6616C131.494 71.1537 131.827 70.721 132.226 70.3977Z" fill="#FF441F"/>
<path opacity="0.3" d="M132.226 70.3977L157.96 52.2067C158.721 51.6655 159.338 52.106 159.338 53.182V60.2671C159.309 60.8528 159.169 61.4222 158.929 61.9301C158.689 62.438 158.356 62.8704 157.955 63.193L132.226 81.3841C131.465 81.9252 130.849 81.4847 130.849 80.4088V73.3236C130.877 72.7385 131.016 72.1695 131.255 71.6616C131.494 71.1537 131.827 70.721 132.226 70.3977Z" fill="white"/>
<path d="M101.142 92.32L126.876 74.129C127.637 73.5941 128.254 74.0283 128.254 75.1043V82.1894C128.227 82.7758 128.088 83.3463 127.848 83.8546C127.608 84.363 127.273 84.7949 126.871 85.1153L101.142 103.332C100.381 103.866 99.7646 103.432 99.7646 102.35V95.2711C99.7898 94.6816 99.9275 94.1075 100.167 93.595C100.406 93.0825 100.74 92.6458 101.142 92.32Z" fill="#FF441F"/>
<path opacity="0.3" d="M101.142 92.32L126.876 74.129C127.637 73.5941 128.254 74.0283 128.254 75.1043V82.1894C128.227 82.7758 128.088 83.3463 127.848 83.8546C127.608 84.363 127.273 84.7949 126.871 85.1153L101.142 103.332C100.381 103.866 99.7646 103.432 99.7646 102.35V95.2711C99.7898 94.6816 99.9275 94.1075 100.167 93.595C100.406 93.0825 100.74 92.6458 101.142 92.32Z" fill="white"/>
<path d="M97.1789 100.808C97.1973 100.598 97.1694 100.385 97.098 100.193C97.0266 100 96.9143 99.8347 96.7729 99.7133L94.2036 97.876C94.0466 97.7892 93.8737 97.7546 93.7023 97.7756C93.5309 97.7966 93.3671 97.8724 93.2272 97.9955L59.7331 121.667C59.3322 121.99 58.9984 122.424 58.7585 122.933C58.5185 123.442 58.3789 124.013 58.3508 124.599V131.678C58.3333 131.887 58.3611 132.097 58.4315 132.289C58.5019 132.48 58.6123 132.645 58.7516 132.767C58.9983 132.949 61.1 134.434 61.3569 134.61C61.513 134.697 61.6851 134.732 61.8557 134.711C62.0263 134.69 62.1893 134.614 62.3281 134.491L95.8274 110.826C96.2302 110.506 96.5655 110.075 96.8057 109.566C97.046 109.057 97.1844 108.486 97.2097 107.9L97.1789 100.808Z" fill="#FF441F"/>
<path opacity="0.15" d="M97.1789 100.808C97.1973 100.598 97.1694 100.385 97.098 100.193C97.0266 100 96.9143 99.8347 96.7729 99.7133L94.2036 97.876C94.0466 97.7892 93.8737 97.7546 93.7023 97.7756C93.5309 97.7966 93.3671 97.8724 93.2272 97.9955L59.7331 121.667C59.3322 121.99 58.9984 122.424 58.7585 122.933C58.5185 123.442 58.3789 124.013 58.3508 124.599V131.678C58.3333 131.887 58.3611 132.097 58.4315 132.289C58.5019 132.48 58.6123 132.645 58.7516 132.767C58.9983 132.949 61.1 134.434 61.3569 134.61C61.513 134.697 61.6851 134.732 61.8557 134.711C62.0263 134.69 62.1893 134.614 62.3281 134.491L95.8274 110.826C96.2302 110.506 96.5655 110.075 96.8057 109.566C97.046 109.057 97.1844 108.486 97.2097 107.9L97.1789 100.808Z" fill="black"/>
<path d="M62.2868 123.505L95.7758 99.8331C95.9081 99.6911 96.0734 99.6034 96.2484 99.5823C96.4235 99.5611 96.5996 99.6075 96.752 99.7151C96.9044 99.8226 97.0255 99.9859 97.0983 100.182C97.1712 100.378 97.1921 100.597 97.1581 100.808V107.9C97.1326 108.486 96.9946 109.056 96.7553 109.564C96.516 110.073 96.1822 110.505 95.7809 110.826L62.2868 134.478C62.1545 134.62 61.9893 134.708 61.8142 134.729C61.6392 134.75 61.4631 134.704 61.3107 134.596C61.1583 134.489 61.0371 134.326 60.9643 134.13C60.8915 133.934 60.8706 133.715 60.9045 133.503V126.431C60.931 125.844 61.07 125.274 61.3101 124.765C61.5503 124.257 61.8849 123.825 62.2868 123.505Z" fill="#FF441F"/>
<path d="M96.7574 99.7134C96.6004 99.6267 96.4275 99.5921 96.2561 99.6131C96.0848 99.6341 95.9209 99.7099 95.781 99.833L62.2921 123.498C61.8854 123.813 61.5482 124.245 61.3106 124.757L58.7412 122.926C58.9741 122.411 59.3101 121.978 59.7176 121.667L93.1911 97.9831C93.331 97.86 93.4948 97.7842 93.6662 97.7632C93.8376 97.7422 94.0105 97.7768 94.1675 97.8635L96.7574 99.7134Z" fill="#FF441F"/>
<path opacity="0.3" d="M96.7574 99.7134C96.6004 99.6267 96.4275 99.5921 96.2561 99.6131C96.0848 99.6341 95.9209 99.7099 95.781 99.833L62.2921 123.498C61.8854 123.813 61.5482 124.245 61.3106 124.757L58.7412 122.926C58.9741 122.411 59.3101 121.978 59.7176 121.667L93.1911 97.9831C93.331 97.86 93.4948 97.7842 93.6662 97.7632C93.8376 97.7422 94.0105 97.7768 94.1675 97.8635L96.7574 99.7134Z" fill="white"/>
<path d="M68.6281 124.442L69.4503 121.157L69.5069 120.988C69.5337 120.912 69.5785 120.849 69.6353 120.805L69.9334 120.597C69.9447 120.585 69.9593 120.578 69.9745 120.578C69.9897 120.578 70.0043 120.585 70.0156 120.597C70.0405 120.635 70.0533 120.682 70.0516 120.73V126.015C70.0494 126.078 70.0372 126.14 70.0156 126.198C69.998 126.248 69.9696 126.291 69.9334 126.323L69.5788 126.569C69.5675 126.581 69.5529 126.588 69.5377 126.588C69.5225 126.588 69.5079 126.581 69.4966 126.569C69.4726 126.531 69.4616 126.484 69.4658 126.437V123.24L68.9159 125.48C68.8979 125.54 68.8773 125.599 68.8542 125.656C68.8328 125.715 68.7968 125.763 68.7515 125.795L68.5305 125.959C68.5153 125.971 68.4974 125.978 68.4791 125.978C68.4608 125.978 68.4429 125.971 68.4277 125.959C68.4041 125.93 68.3834 125.899 68.3661 125.864L67.7854 124.411V127.607C67.7856 127.67 67.7751 127.732 67.7546 127.79C67.737 127.84 67.7086 127.883 67.6723 127.915L67.3178 128.161C67.3065 128.173 67.2918 128.18 67.2767 128.18C67.2615 128.18 67.2469 128.173 67.2355 128.161C67.2098 128.124 67.1968 128.077 67.1996 128.029V122.743C67.2017 122.68 67.214 122.618 67.2355 122.561C67.2533 122.512 67.2817 122.471 67.3178 122.441L67.6158 122.233C67.6723 122.189 67.7135 122.189 67.7443 122.233L67.8008 122.328L68.6281 124.442Z" fill="#FAFAFA"/>
<path d="M70.5765 123.744C70.5775 123.438 70.6016 123.132 70.6484 122.831C70.6964 122.538 70.7688 122.251 70.8643 121.976C70.9517 121.723 71.0638 121.484 71.1983 121.265C71.3195 121.071 71.4694 120.906 71.6402 120.78C71.7714 120.677 71.9265 120.628 72.0821 120.642C72.2108 120.657 72.3301 120.731 72.4162 120.849C72.5199 120.998 72.5938 121.175 72.632 121.365C72.6861 121.607 72.7121 121.857 72.7091 122.108V122.473C72.7094 122.536 72.697 122.599 72.6731 122.655C72.6571 122.707 72.6283 122.751 72.5909 122.781L71.1418 123.782C71.1367 123.885 71.1508 123.988 71.1829 124.084C71.2041 124.151 71.2418 124.208 71.2908 124.247C71.3411 124.28 71.3991 124.291 71.4552 124.279C71.5203 124.265 71.5828 124.237 71.6402 124.197C71.7233 124.139 71.7995 124.067 71.8663 123.983C71.9154 123.92 71.96 123.853 71.9999 123.782C72.0233 123.732 72.049 123.683 72.077 123.637C72.0998 123.603 72.1277 123.575 72.1592 123.555L72.5087 123.31C72.5204 123.298 72.5349 123.292 72.5498 123.292C72.5647 123.292 72.5791 123.298 72.5909 123.31C72.605 123.326 72.6152 123.348 72.6206 123.371C72.626 123.394 72.6264 123.418 72.6217 123.442C72.616 123.559 72.5934 123.674 72.5549 123.782C72.5065 123.952 72.4445 124.117 72.3699 124.272C72.2784 124.454 72.1734 124.624 72.0564 124.782C71.9337 124.951 71.7898 125.096 71.6299 125.21C71.4982 125.313 71.3443 125.366 71.188 125.361C71.0586 125.344 70.9392 125.268 70.854 125.147C70.749 124.985 70.6752 124.795 70.6382 124.593C70.5903 124.314 70.5696 124.029 70.5765 123.744ZM71.6402 121.762C71.5593 121.823 71.4865 121.9 71.4244 121.988C71.3671 122.076 71.3171 122.171 71.2754 122.271C71.2347 122.372 71.2037 122.477 71.1829 122.586C71.163 122.679 71.1493 122.774 71.1418 122.869L72.1233 122.177C72.1187 122.098 72.1067 122.02 72.0873 121.944C72.0755 121.872 72.0489 121.805 72.0102 121.749C71.9714 121.703 71.9202 121.676 71.8663 121.674C71.7857 121.677 71.7074 121.707 71.6402 121.762Z" fill="#FAFAFA"/>
<path d="M75.2987 122.315C75.299 122.377 75.2867 122.438 75.2627 122.492C75.2484 122.544 75.2193 122.589 75.1805 122.617L74.8516 122.85C74.8403 122.863 74.8257 122.87 74.8105 122.87C74.7954 122.87 74.7807 122.863 74.7694 122.85C74.7446 122.813 74.7318 122.766 74.7335 122.718V120.635C74.7509 120.391 74.7098 120.147 74.6153 119.931C74.533 119.792 74.4097 119.786 74.2401 119.931C74.074 120.062 73.9477 120.257 73.8804 120.484C73.7865 120.764 73.741 121.064 73.7468 121.365V123.442C73.7447 123.505 73.7324 123.567 73.7108 123.624C73.6917 123.673 73.6636 123.717 73.6286 123.75L73.2997 123.983C73.2638 123.983 73.2381 123.983 73.2175 123.983C73.2041 123.967 73.1938 123.947 73.1876 123.925C73.1814 123.903 73.1793 123.88 73.1816 123.857V120.006C73.1812 119.945 73.1936 119.884 73.2175 119.83C73.2318 119.777 73.261 119.733 73.2997 119.704L73.6286 119.471C73.6399 119.459 73.6546 119.452 73.6697 119.452C73.6849 119.452 73.6995 119.459 73.7108 119.471C73.7357 119.508 73.7485 119.556 73.7468 119.603V119.792C73.8188 119.601 73.9066 119.42 74.0089 119.251C74.1056 119.092 74.2281 118.959 74.3686 118.861C74.4991 118.749 74.6565 118.694 74.8157 118.704C74.8727 118.712 74.9276 118.735 74.9765 118.772C75.0253 118.809 75.0669 118.859 75.0983 118.918C75.1792 119.067 75.2319 119.237 75.2525 119.415C75.2846 119.648 75.3001 119.883 75.2987 120.119V122.315Z" fill="#FAFAFA"/>
<path d="M75.8536 118.118C75.8558 118.055 75.868 117.993 75.8896 117.936C75.9073 117.887 75.9358 117.846 75.9718 117.816L76.3007 117.583C76.3367 117.583 76.3624 117.583 76.3829 117.583C76.3964 117.6 76.4066 117.619 76.4129 117.641C76.4191 117.663 76.4212 117.686 76.4189 117.709V119.792C76.4033 120.035 76.4424 120.279 76.5319 120.497C76.6039 120.641 76.7272 120.654 76.8917 120.535C77.0573 120.41 77.1826 120.218 77.2462 119.993C77.3279 119.715 77.368 119.421 77.3644 119.125V117.042C77.3666 116.981 77.3788 116.921 77.4004 116.866C77.4167 116.815 77.4454 116.771 77.4826 116.74L77.8115 116.507C77.8236 116.495 77.8391 116.488 77.8552 116.488C77.8712 116.488 77.8867 116.495 77.8988 116.507C77.9228 116.545 77.9338 116.592 77.9297 116.64V120.453C77.9289 120.515 77.9184 120.577 77.8988 120.635C77.8811 120.686 77.8505 120.728 77.8115 120.755L77.4826 120.988C77.4773 120.994 77.4709 121 77.4639 121.004C77.4568 121.007 77.4492 121.009 77.4415 121.009C77.4338 121.009 77.4262 121.007 77.4191 121.004C77.412 121 77.4057 120.994 77.4004 120.988C77.3746 120.951 77.3617 120.904 77.3644 120.855V120.635C77.295 120.816 77.2124 120.989 77.1178 121.151C77.026 121.317 76.9047 121.454 76.7632 121.554C76.6353 121.663 76.4821 121.718 76.3264 121.711C76.2694 121.7 76.2148 121.675 76.1662 121.637C76.1175 121.6 76.0758 121.55 76.0438 121.491C75.9663 121.336 75.9172 121.162 75.8999 120.981C75.8675 120.751 75.852 120.517 75.8536 120.283V118.118Z" fill="#FAFAFA"/>
<path d="M89.9536 111.304L88.042 109.536L88.3863 108.737L89.7943 110.039L91.2023 106.748L91.7059 107.214L89.9536 111.304Z" fill="#FAFAFA"/>
<path d="M129.635 129.117C129.654 128.907 129.626 128.694 129.554 128.502C129.483 128.309 129.371 128.144 129.229 128.022L126.66 126.198C126.504 126.108 126.331 126.071 126.159 126.091C125.987 126.111 125.823 126.187 125.683 126.311L103.746 141.815L102.369 142.79V195.778C102.352 195.986 102.38 196.195 102.449 196.386C102.518 196.577 102.627 196.743 102.765 196.866L105.37 198.704C105.526 198.792 105.698 198.827 105.869 198.806C106.04 198.785 106.203 198.708 106.341 198.584L128.284 183.086C128.685 182.765 129.019 182.333 129.258 181.825C129.497 181.317 129.635 180.746 129.661 180.16L129.635 129.117Z" fill="#E0E0E0"/>
<path d="M126.645 126.198C126.488 126.107 126.314 126.07 126.141 126.09C125.968 126.109 125.803 126.186 125.663 126.311L103.731 141.809L102.354 142.791L98.2429 145.685C98.1491 145.752 98.0712 145.848 98.0171 145.963C97.963 146.079 97.9346 146.21 97.9346 146.343C97.9346 146.476 97.963 146.606 98.0171 146.722C98.0712 146.837 98.1491 146.933 98.2429 147C99.1271 147.694 100.043 148.324 100.987 148.888L104.923 150.102V144.609L106.306 143.634L128.232 128.13C128.372 128.006 128.536 127.931 128.708 127.91C128.879 127.889 129.052 127.923 129.209 128.01C128.983 127.846 126.896 126.368 126.645 126.198Z" fill="#F0F0F0"/>
<path d="M129.63 129.117C129.664 128.906 129.643 128.687 129.57 128.491C129.497 128.295 129.376 128.132 129.224 128.024C129.071 127.917 128.895 127.87 128.72 127.891C128.545 127.912 128.38 128 128.247 128.142L104.943 144.622L100.832 147.516C100.739 147.582 100.66 147.678 100.606 147.792C100.552 147.907 100.523 148.038 100.523 148.17C100.523 148.303 100.552 148.433 100.606 148.548C100.66 148.663 100.739 148.759 100.832 148.825C100.882 148.86 100.936 148.886 100.992 148.9L104.928 150.115V197.609C104.892 197.82 104.911 198.04 104.983 198.237C105.055 198.434 105.176 198.598 105.329 198.706C105.481 198.814 105.658 198.861 105.833 198.839C106.008 198.817 106.174 198.728 106.305 198.584L128.247 183.086C128.649 182.766 128.984 182.334 129.224 181.826C129.464 181.317 129.603 180.747 129.63 180.16V129.117Z" fill="#FAFAFA"/>
<path d="M128.879 128.746C128.932 128.858 128.956 128.988 128.946 129.117V180.161C128.923 180.599 128.818 181.025 128.64 181.407C128.462 181.788 128.215 182.115 127.918 182.363L105.981 197.854C105.894 197.922 105.796 197.965 105.693 197.98C105.64 197.868 105.617 197.738 105.627 197.609V149.46L105.113 149.303L101.341 148.139L105.287 145.352L128.597 128.872C128.678 128.806 128.772 128.765 128.869 128.752M128.869 127.916C128.65 127.927 128.438 128.007 128.252 128.148L104.948 144.628L100.837 147.522C100.743 147.589 100.665 147.684 100.611 147.799C100.557 147.914 100.528 148.044 100.528 148.177C100.528 148.309 100.557 148.44 100.611 148.555C100.665 148.67 100.743 148.765 100.837 148.831C100.887 148.867 100.941 148.892 100.997 148.907L104.933 150.121V197.615C104.914 197.826 104.942 198.038 105.014 198.231C105.085 198.423 105.197 198.589 105.339 198.71C105.447 198.786 105.569 198.826 105.693 198.823C105.912 198.814 106.125 198.734 106.31 198.591L128.252 183.093C128.654 182.772 128.989 182.34 129.229 181.832C129.469 181.324 129.608 180.753 129.635 180.167V129.124C129.653 128.913 129.625 128.701 129.554 128.508C129.482 128.316 129.37 128.15 129.229 128.029C129.119 127.952 128.995 127.913 128.869 127.916Z" fill="#E0E0E0"/>
<path d="M104.943 177.134V178.034L129.64 160.579V159.673L104.943 177.134Z" fill="#E0E0E0"/>
<path d="M104.943 189.026L129.64 171.565V170.659L104.943 188.12V189.026Z" fill="#E0E0E0"/>
<path d="M104.943 155.161V156.061L129.635 138.606V137.7L104.943 155.161Z" fill="#E0E0E0"/>
<path d="M104.943 166.148V167.047L129.635 149.592V148.686L104.943 166.148Z" fill="#E0E0E0"/>
<path d="M105.58 166.601L129.023 150.027V160.189L105.58 176.681V166.601Z" fill="#FF441F"/>
<path opacity="0.6" d="M105.58 166.601L129.023 150.027V160.189L105.58 176.681V166.601Z" fill="white"/>
<path d="M110.124 166.569L120.484 159.245C120.941 158.924 121.311 159.182 121.311 159.83V160.371C121.296 160.723 121.213 161.065 121.069 161.371C120.926 161.676 120.725 161.935 120.484 162.127L110.124 169.451C109.667 169.778 109.297 169.514 109.297 168.866V168.325C109.313 167.973 109.397 167.631 109.54 167.327C109.684 167.022 109.884 166.762 110.124 166.569Z" fill="#FF441F"/>
<path d="M110.124 155.621L120.484 148.322C120.941 148.001 121.311 148.265 121.311 148.913V149.448C121.296 149.8 121.213 150.142 121.069 150.447C120.926 150.752 120.725 151.011 120.484 151.203L110.124 158.534C109.667 158.855 109.297 158.591 109.297 157.949V157.408C109.308 157.05 109.389 156.702 109.533 156.391C109.677 156.08 109.88 155.816 110.124 155.621Z" fill="#E0E0E0"/>
<path d="M110.124 144.622L120.484 137.297C120.941 136.97 121.311 137.235 121.311 137.883V138.424C121.295 138.775 121.212 139.117 121.068 139.422C120.924 139.727 120.724 139.986 120.484 140.179L110.124 147.504C109.667 147.825 109.297 147.567 109.297 146.918V146.377C109.312 146.026 109.395 145.683 109.539 145.378C109.682 145.073 109.883 144.814 110.124 144.622Z" fill="#E0E0E0"/>
<path d="M110.124 188.592L120.484 181.268C120.941 180.947 121.311 181.211 121.311 181.853V182.394C121.296 182.746 121.213 183.088 121.069 183.394C120.926 183.699 120.725 183.958 120.484 184.15L110.124 191.474C109.667 191.801 109.297 191.537 109.297 190.889V190.354C109.312 190.002 109.395 189.658 109.539 189.352C109.683 189.046 109.883 188.786 110.124 188.592Z" fill="#E0E0E0"/>
<path d="M110.124 177.574L120.484 170.25C120.941 169.923 121.311 170.187 121.311 170.835V171.37C121.296 171.723 121.213 172.066 121.069 172.372C120.925 172.678 120.725 172.938 120.484 173.132L110.124 180.456C109.667 180.777 109.297 180.519 109.297 179.871V179.33C109.312 178.978 109.395 178.636 109.539 178.331C109.682 178.026 109.883 177.766 110.124 177.574Z" fill="#E0E0E0"/>
<path d="M97.1782 122.775C97.1966 122.564 97.1687 122.352 97.0973 122.159C97.0259 121.967 96.9136 121.801 96.7722 121.68L94.2028 119.855C94.0458 119.766 93.872 119.729 93.6996 119.749C93.5271 119.769 93.362 119.845 93.2214 119.968L59.7272 143.634C59.327 143.956 58.9937 144.389 58.7537 144.897C58.5138 145.405 58.3738 145.974 58.3449 146.56V197.596C58.3274 197.805 58.3553 198.016 58.4257 198.207C58.4961 198.398 58.6065 198.563 58.7457 198.685C58.9924 198.868 61.0941 200.352 61.3511 200.529C61.5075 200.614 61.6793 200.647 61.8496 200.626C62.0199 200.605 62.1828 200.53 62.3223 200.409L95.8215 176.744C96.2243 176.424 96.5596 175.993 96.7999 175.484C97.0402 174.976 97.1786 174.405 97.2039 173.818L97.1782 122.775Z" fill="#E0E0E0"/>
<path d="M96.7564 121.68C96.5994 121.593 96.4265 121.559 96.2552 121.58C96.0838 121.601 95.9199 121.676 95.7801 121.799L62.2911 145.465C61.8833 145.777 61.5459 146.21 61.3096 146.723L58.7402 144.892C58.9731 144.378 59.3091 143.945 59.7166 143.634L93.2107 119.968C93.3509 119.843 93.5161 119.767 93.6888 119.747C93.8615 119.727 94.0354 119.764 94.1922 119.855L96.7564 121.68Z" fill="#F0F0F0"/>
<path d="M91.9886 124.48L90.7039 121.749C90.662 121.657 90.5997 121.58 90.5241 121.529L87.9547 119.692C87.8912 119.651 87.8215 119.627 87.75 119.621C87.6785 119.615 87.6068 119.628 87.5396 119.658C87.4723 119.689 87.411 119.736 87.3594 119.797C87.3079 119.858 87.2674 119.931 87.2404 120.012L85.7656 125.222L88.335 127.066L91.9886 124.48Z" fill="#E0E0E0"/>
<path d="M97.177 122.775C97.2109 122.563 97.19 122.344 97.1172 122.148C97.0444 121.952 96.9233 121.789 96.7708 121.681C96.6184 121.574 96.4423 121.527 96.2673 121.549C96.0922 121.57 95.927 121.657 95.7947 121.799L92.0074 124.474L90.7228 121.749C90.6708 121.658 90.6001 121.586 90.5178 121.539C90.4356 121.492 90.3447 121.473 90.2544 121.483C90.1641 121.493 90.0776 121.533 90.0038 121.597C89.9299 121.662 89.8712 121.749 89.8338 121.85L88.3641 127.047L62.2852 145.465C61.8842 145.788 61.5505 146.221 61.3105 146.731C61.0705 147.24 60.9309 147.81 60.9028 148.397V199.428C60.8846 199.639 60.9131 199.853 60.9854 200.047C61.0577 200.241 61.1712 200.407 61.3139 200.529C61.4704 200.614 61.6422 200.647 61.8125 200.626C61.9827 200.605 62.1456 200.53 62.2852 200.409L95.7895 176.744C96.1908 176.423 96.5246 175.991 96.7639 175.483C97.0032 174.974 97.1412 174.404 97.1667 173.818L97.177 122.775Z" fill="#FAFAFA"/>
<path d="M96.4062 122.403C96.4574 122.516 96.4789 122.646 96.4679 122.775V173.818C96.4425 174.256 96.3369 174.681 96.159 175.062C95.9811 175.444 95.7354 175.771 95.4401 176.02L61.9357 199.679C61.8518 199.749 61.7543 199.79 61.6531 199.799C61.6531 199.799 61.5863 199.679 61.5863 199.427V148.397C61.6098 147.958 61.7146 147.532 61.8927 147.151C62.0707 146.769 62.3174 146.442 62.614 146.195L88.6724 127.777L88.8934 127.62L88.9756 127.324L90.3065 122.624L91.3754 124.895L91.7197 125.625L92.3158 125.203L96.103 122.523C96.1896 122.455 96.2883 122.414 96.3908 122.403M90.2603 121.447C90.1582 121.445 90.0582 121.483 89.975 121.555C89.8917 121.628 89.8296 121.731 89.7978 121.85L88.3281 127.047L62.2852 145.465C61.8842 145.788 61.5505 146.221 61.3105 146.73C61.0705 147.239 60.9309 147.81 60.9028 148.397V199.427C60.8846 199.639 60.9131 199.853 60.9854 200.047C61.0577 200.241 61.1712 200.407 61.3139 200.529C61.4227 200.601 61.5448 200.638 61.6685 200.636C61.8864 200.625 62.0985 200.547 62.2852 200.409L95.7895 176.744C96.1908 176.423 96.5246 175.991 96.7639 175.482C97.0032 174.974 97.1412 174.404 97.1667 173.818V122.775C97.1852 122.564 97.1572 122.352 97.0858 122.159C97.0144 121.967 96.9022 121.801 96.7608 121.68C96.6512 121.604 96.527 121.564 96.4011 121.567C96.1824 121.577 95.9697 121.657 95.7844 121.799L91.9972 124.474L90.7125 121.749C90.6678 121.659 90.6053 121.584 90.5307 121.531C90.4562 121.479 90.372 121.45 90.286 121.447H90.2603Z" fill="#E0E0E0"/>
<path d="M60.9043 156.986V157.892L97.1682 132.257V131.351L60.9043 156.986Z" fill="#E0E0E0"/>
<path d="M60.9043 178.965V179.865L97.1682 154.23V153.33L60.9043 178.965Z" fill="#E0E0E0"/>
<path d="M60.9043 190.851L97.1682 165.216V164.317L60.9043 189.951V190.851Z" fill="#E0E0E0"/>
<path d="M60.9043 167.979V168.878L97.1682 143.244V142.344L60.9043 167.979Z" fill="#E0E0E0"/>
<path d="M61.5518 168.425L96.5412 143.684L96.531 153.777L61.5518 178.512V168.425Z" fill="#FF441F"/>
<path opacity="0.6" d="M61.5518 168.425L96.5412 143.684L96.531 153.777L61.5518 178.512V168.425Z" fill="white"/>
<path d="M66.9155 167.828L83.3902 156.181C83.8475 155.86 84.2175 156.124 84.2175 156.766V157.307C84.2024 157.659 84.1196 158.001 83.9758 158.306C83.832 158.611 83.6314 158.87 83.3902 159.062L66.9155 170.722C66.4581 171.049 66.083 170.785 66.083 170.137V169.602C66.0979 169.247 66.1811 168.901 66.3257 168.593C66.4704 168.284 66.6725 168.022 66.9155 167.828Z" fill="#FF441F"/>
<path d="M66.9155 156.873L83.3902 145.226C83.8475 144.898 84.2175 145.163 84.2175 145.811V146.346C84.202 146.698 84.119 147.041 83.9753 147.347C83.8316 147.653 83.6312 147.914 83.3902 148.107L66.9155 159.755C66.4581 160.075 66.083 159.811 66.083 159.169V158.628C66.0991 158.276 66.1828 157.933 66.3275 157.628C66.4722 157.323 66.6736 157.064 66.9155 156.873Z" fill="#E0E0E0"/>
<path d="M66.9155 145.874L83.3902 134.227C83.8475 133.906 84.2175 134.164 84.2175 134.812V135.353C84.2024 135.705 84.1196 136.047 83.9758 136.352C83.832 136.657 83.6314 136.917 83.3902 137.109L66.9155 148.756C66.4581 149.077 66.083 148.819 66.083 148.17V147.629C66.0991 147.277 66.1828 146.935 66.3275 146.629C66.4722 146.324 66.6736 146.065 66.9155 145.874Z" fill="#E0E0E0"/>
<path d="M66.9155 189.851L83.3902 178.204C83.8475 177.883 84.2175 178.147 84.2175 178.789V179.33C84.2024 179.682 84.1196 180.024 83.9758 180.329C83.832 180.634 83.6314 180.893 83.3902 181.085L66.9155 192.732C66.4581 193.06 66.083 192.795 66.083 192.147V191.612C66.0995 191.259 66.1834 190.916 66.328 190.61C66.4726 190.304 66.6738 190.044 66.9155 189.851Z" fill="#E0E0E0"/>
<path d="M66.9155 178.827L83.3902 167.198C83.8475 166.871 84.2175 167.135 84.2175 167.784V168.325C84.2012 168.676 84.1179 169.018 83.9742 169.323C83.8305 169.628 83.6305 169.887 83.3902 170.08L66.9155 181.727C66.4581 182.048 66.083 181.79 66.083 181.142V180.601C66.0967 180.245 66.1793 179.899 66.3241 179.591C66.4689 179.282 66.6716 179.02 66.9155 178.827Z" fill="#E0E0E0"/>
<path d="M136.512 168.085L128.778 156.759C128.739 156.7 128.692 156.649 128.639 156.608L126.784 155.293C126.625 155.18 126.512 155.331 126.512 155.702L126.471 178.606C126.471 178.801 126.496 178.915 126.538 178.946L128.393 180.261C128.454 180.299 128.552 180.179 128.665 179.89L129.991 176.41L130.746 179.72C130.766 179.83 130.819 179.927 130.895 179.99L132.755 181.306C132.91 181.413 133.136 181.306 133.351 181.01L134.42 179.5C134.574 179.288 134.689 179.037 134.757 178.766C134.824 178.494 134.842 178.208 134.811 177.927L133.351 171.534C133.326 171.276 133.373 171.016 133.484 170.796C133.595 170.575 133.764 170.407 133.963 170.319L136.131 169.124C136.568 168.878 136.748 168.413 136.512 168.085Z" fill="#FF441F"/>
<path d="M136.512 168.085L128.778 156.759C128.739 156.7 128.692 156.649 128.639 156.608L126.784 155.293C126.625 155.18 126.512 155.331 126.512 155.702L126.471 178.606C126.471 178.801 126.496 178.915 126.538 178.946L128.393 180.261C128.454 180.299 128.552 180.179 128.665 179.89L129.991 176.41L130.746 179.72C130.766 179.83 130.819 179.927 130.895 179.99L132.755 181.306C132.91 181.413 133.136 181.306 133.351 181.01L134.42 179.5C134.574 179.288 134.689 179.037 134.757 178.766C134.824 178.494 134.842 178.208 134.811 177.927L133.351 171.534C133.326 171.276 133.373 171.016 133.484 170.796C133.595 170.575 133.764 170.407 133.963 170.319L136.131 169.124C136.568 168.878 136.748 168.413 136.512 168.085Z" fill="#37474F"/>
<path d="M128.326 179.921L128.367 156.998C128.367 156.52 128.552 156.407 128.778 156.74L136.512 168.067C136.738 168.394 136.569 168.859 136.132 169.105L133.963 170.3C133.764 170.388 133.595 170.556 133.484 170.777C133.373 170.997 133.327 171.257 133.352 171.515L134.811 177.908C134.843 178.189 134.824 178.475 134.757 178.747C134.689 179.018 134.575 179.269 134.421 179.481L133.352 180.991C133.038 181.431 132.704 181.444 132.607 180.991L131.142 174.604C131.045 174.176 130.813 174.227 130.628 174.717L128.67 179.852C128.475 180.412 128.326 180.412 128.326 179.921Z" fill="#455A64"/>
<path d="M132.724 181.28L130.895 179.99C130.819 179.927 130.765 179.83 130.746 179.72L129.99 176.416L130.622 174.755C130.812 174.264 131.044 174.214 131.136 174.642L132.601 181.041C132.622 181.134 132.665 181.217 132.724 181.28Z" fill="#263238"/>
<path d="M173.269 224.559L169.03 214.34L160.505 220.45L171.014 235.64C171.014 235.64 176.224 235.054 177.062 231.726C177.899 228.397 174.703 225.666 173.269 224.559Z" fill="#C8856A"/>
<path d="M179.269 228.573C179.745 228.998 180.147 229.535 180.451 230.153C180.796 230.782 180.688 233.802 181.017 235.186C181.346 236.571 181.597 236.961 182.147 238.723C182.754 240.673 183.879 242.454 182.61 247.463C181.34 252.471 179.305 254.862 177.594 256.089C176.96 256.496 176.255 256.711 175.539 256.719C175.539 256.719 173.293 255.68 173.637 254.051C173.982 252.421 179.269 228.573 179.269 228.573Z" fill="#263238"/>
<path d="M169.415 234.073C169.476 234.589 170.062 235.382 170.304 235.803C171.11 237.219 171.48 239.138 171.758 240.837C173.084 248.765 170.509 252.792 173.998 255.775C175.026 256.549 177.081 256.335 180.283 251.339C181.912 248.784 182.852 243.536 182.205 241.158C181.557 238.779 180.704 237.231 180.293 235.4C179.882 233.569 180.098 230.165 179.265 228.598C178.732 227.711 178.041 226.982 177.246 226.465C176.629 226.006 175.273 225.402 174.646 224.961C174.019 224.521 173.664 224.024 173.263 224.584L173.988 225.685C175.124 227.611 174.81 227.894 174.779 228.919C174.831 230.023 174.973 231.117 175.206 232.185C174.394 230.927 174.065 229.844 173.181 230.033C172.297 230.222 172.195 230.178 170.93 231.625C169.666 233.072 169.358 233.613 169.415 234.073Z" fill="#FF441F"/>
<path opacity="0.4" d="M169.415 234.073C169.476 234.589 170.062 235.382 170.304 235.803C171.11 237.219 171.48 239.138 171.758 240.837C173.084 248.765 170.509 252.792 173.998 255.775C175.026 256.549 177.081 256.335 180.283 251.339C181.912 248.784 182.852 243.536 182.205 241.158C181.557 238.779 180.704 237.231 180.293 235.4C179.882 233.569 180.098 230.165 179.265 228.598C178.732 227.711 178.041 226.982 177.246 226.465C176.629 226.006 175.273 225.402 174.646 224.961C174.019 224.521 173.664 224.024 173.263 224.584L173.988 225.685C175.124 227.611 174.81 227.894 174.779 228.919C174.831 230.023 174.973 231.117 175.206 232.185C174.394 230.927 174.065 229.844 173.181 230.033C172.297 230.222 172.195 230.178 170.93 231.625C169.666 233.072 169.358 233.613 169.415 234.073Z" fill="black"/>
<path opacity="0.3" d="M180.283 251.314C181.912 248.759 182.852 243.511 182.205 241.133C181.991 240.349 181.743 239.58 181.46 238.83C181.485 238.987 181.526 239.157 181.542 239.289C181.583 239.597 181.614 239.918 181.639 240.22C181.785 241.434 181.674 242.674 181.316 243.82C180.951 244.807 180.103 247.287 179.013 247.337C178.397 247.368 177.878 246.632 177.636 245.789C177.539 245.43 177.374 244.468 177.374 244.468C176.373 244.75 175.415 245.228 174.538 245.883C172.96 247.142 172.996 247.444 172.996 247.444C173.092 248.003 173.109 248.577 173.047 249.143C172.955 249.753 172.755 250.33 172.462 250.835C172.34 250.988 172.204 251.121 172.056 251.232C172.122 253.063 172.513 254.498 173.978 255.75C175.005 256.549 177.102 256.31 180.283 251.314Z" fill="black"/>
<path d="M171.758 240.818C172.098 242.903 172.234 245.03 172.164 247.154C172.76 249.187 173.279 249.13 173.351 248.073C173.423 247.016 172.277 242.655 171.424 239.05C171.557 239.641 171.691 240.239 171.758 240.818Z" fill="#37474F"/>
<path d="M175.698 228.095C175.771 227.067 175.548 226.041 175.066 225.194C174.912 225.106 174.763 225.018 174.65 224.936C173.966 224.464 173.668 223.999 173.268 224.559L173.992 225.66C175.128 227.585 174.814 227.869 174.783 228.894C174.835 229.998 174.978 231.092 175.21 232.16C175.868 235.602 176.469 236.753 176.782 240.006C177.096 243.26 176.561 245.443 176.937 245.625C177.312 245.808 178.067 245.443 178.206 242.838C178.345 240.233 177.404 235.847 176.741 233.771C176.078 231.694 175.565 229.492 175.698 228.095Z" fill="#37474F"/>
<path d="M177.559 244.694C177.523 244.739 177.476 244.77 177.426 244.782C176.588 244.919 175.782 245.259 175.053 245.782C174.324 246.305 173.688 247 173.181 247.828C173.135 247.893 173.07 247.934 173 247.941C172.93 247.948 172.86 247.921 172.806 247.866C172.78 247.838 172.758 247.805 172.742 247.767C172.726 247.73 172.717 247.689 172.714 247.647C172.711 247.605 172.715 247.562 172.725 247.522C172.736 247.482 172.753 247.445 172.775 247.412C173.876 245.63 175.51 244.455 177.318 244.147C177.387 244.132 177.459 244.15 177.517 244.198C177.575 244.247 177.616 244.32 177.631 244.405C177.641 244.457 177.639 244.51 177.626 244.561C177.614 244.612 177.591 244.658 177.559 244.694Z" fill="#EBEBEB"/>
<path d="M177.225 241.982C177.187 242.027 177.141 242.059 177.091 242.077C175.31 242.447 173.711 243.635 172.621 245.399C172.598 245.433 172.569 245.462 172.537 245.482C172.505 245.503 172.47 245.515 172.434 245.519C172.398 245.522 172.362 245.517 172.328 245.503C172.294 245.489 172.262 245.466 172.235 245.437C172.181 245.378 172.147 245.296 172.142 245.208C172.136 245.12 172.158 245.033 172.204 244.965C173.373 243.094 175.073 241.83 176.968 241.422C177.026 241.405 177.086 241.411 177.141 241.44C177.195 241.469 177.241 241.519 177.27 241.583C177.299 241.646 177.31 241.72 177.302 241.792C177.294 241.864 177.267 241.931 177.225 241.982Z" fill="#EBEBEB"/>
<path d="M177.272 238.993C177.234 239.045 177.183 239.081 177.128 239.094C175.139 239.532 173.355 240.865 172.128 242.832C172.102 242.868 172.071 242.898 172.036 242.92C172.001 242.941 171.963 242.954 171.923 242.958C171.884 242.961 171.845 242.955 171.808 242.94C171.77 242.925 171.736 242.901 171.706 242.869C171.676 242.838 171.651 242.801 171.633 242.758C171.615 242.715 171.604 242.668 171.601 242.62C171.597 242.573 171.602 242.524 171.614 242.478C171.626 242.433 171.645 242.39 171.67 242.353C172.981 240.269 174.876 238.854 176.989 238.383C177.027 238.371 177.067 238.368 177.106 238.375C177.145 238.382 177.182 238.399 177.216 238.424C177.249 238.45 177.278 238.483 177.301 238.522C177.324 238.562 177.34 238.606 177.349 238.653C177.361 238.713 177.361 238.776 177.347 238.836C177.334 238.896 177.308 238.95 177.272 238.993Z" fill="#EBEBEB"/>
<path d="M176.917 236.445C176.878 236.493 176.828 236.526 176.773 236.539C174.829 236.966 173.086 238.268 171.886 240.189C171.836 240.26 171.764 240.304 171.687 240.311C171.61 240.318 171.534 240.288 171.475 240.227C171.445 240.197 171.421 240.16 171.403 240.118C171.385 240.077 171.374 240.031 171.37 239.984C171.367 239.937 171.371 239.89 171.383 239.845C171.395 239.8 171.414 239.759 171.439 239.723C172.719 237.681 174.575 236.296 176.645 235.841C176.72 235.82 176.799 235.837 176.865 235.888C176.93 235.939 176.977 236.019 176.994 236.111C177.006 236.17 177.006 236.232 176.992 236.291C176.979 236.349 176.953 236.403 176.917 236.445Z" fill="#EBEBEB"/>
<path d="M176.157 233.959C176.116 234.006 176.066 234.041 176.013 234.06C174.065 234.48 172.318 235.783 171.121 237.71C171.095 237.745 171.065 237.774 171.03 237.795C170.996 237.816 170.958 237.829 170.92 237.832C170.881 237.835 170.843 237.829 170.806 237.814C170.77 237.799 170.736 237.775 170.707 237.744C170.678 237.713 170.654 237.676 170.637 237.633C170.62 237.591 170.61 237.545 170.607 237.498C170.605 237.451 170.609 237.404 170.622 237.359C170.634 237.315 170.653 237.273 170.679 237.238C171.958 235.198 173.812 233.814 175.879 233.355C175.955 233.335 176.035 233.351 176.102 233.402C176.168 233.453 176.215 233.533 176.234 233.626C176.243 233.685 176.242 233.746 176.228 233.804C176.215 233.862 176.19 233.915 176.157 233.959Z" fill="#EBEBEB"/>
<path d="M170.966 225.377L165.447 230.901L162.322 233.299L165.889 241.548L175.93 235.665L170.966 225.377Z" fill="#C8856A"/>
<path d="M182.215 188.472C182.215 188.472 162.123 184.401 153.526 184.464C144.754 184.533 143.942 192.6 146.136 197.54C150.34 206.978 164.954 227.057 164.954 227.057C164.954 227.057 169.862 224.301 171.367 219.103L168.038 209.74L178.675 213.887L179.903 212.056L182.215 188.472Z" fill="#455A64"/>
<path d="M166.285 201.806C167.901 204.703 169.38 207.712 170.714 210.817L168.037 209.772C165.015 200.963 164.394 198.396 159.568 194.268C159.568 194.255 163.032 195.828 166.285 201.806Z" fill="#37474F"/>
<path d="M182.215 188.472L213.186 195.425C213.186 195.425 215.637 209.407 213.268 218.141C210.951 226.686 204.07 229.133 200.761 229.467C196.023 229.913 190.53 228.12 190.53 228.12C188.835 229.708 186.988 231.037 185.031 232.078C182.267 233.431 170.155 239.629 170.155 239.629C170.155 239.629 166.748 236.099 167.071 228.756L179.913 212.056L182.215 188.472Z" fill="#455A64"/>
<path d="M170.149 239.623C170.149 239.623 169.491 239.251 168.546 237.068C171.681 236.162 181.994 231.222 185.324 229.517C191.254 226.44 193.088 223.187 193.088 223.187C193.088 223.187 193.124 225.352 190.519 228.127C188.824 229.714 186.978 231.043 185.021 232.084C182.266 233.412 170.149 239.623 170.149 239.623Z" fill="#37474F"/>
<path d="M196.871 226.711C199.836 227.296 207.811 225.496 210.406 218.613C212.945 211.874 212.086 203.826 211.521 196.904L212.477 197.181L214.157 197.735C214.599 203.889 215.092 211.156 213.643 218.053C211.793 226.761 204.091 229.133 200.797 229.448C196.059 229.895 190.565 228.101 190.565 228.101L192.138 225.119C193.656 225.886 195.246 226.42 196.871 226.711Z" fill="#37474F"/>
<path d="M178.525 213.849C178.525 213.849 179.08 213.038 180.257 211.332C181.434 209.627 183.34 206.456 188.181 206.689C193.021 206.922 202.389 207.947 202.389 207.947C202.389 207.947 192.626 205.915 189.275 205.229C185.925 204.543 183.664 205.015 181.742 207.117C179.82 209.218 176.845 213.163 176.845 213.163L178.525 213.849Z" fill="#37474F"/>
<path d="M185.052 206.21C183.463 203.911 182.649 200.957 182.775 197.949C182.775 197.949 181.609 203.379 183.474 207.33L185.052 206.21Z" fill="#37474F"/>
<path d="M149.672 237.596C147.308 238.742 145.848 239.887 144.754 241.636C143.659 243.385 143.33 245.147 144.368 247.268C145.406 249.388 147.313 251.867 149.574 251.704C151.835 251.54 153.227 250.854 155.329 249.457L149.672 237.596Z" fill="#263238"/>
<path d="M168.551 240.044C168.587 240.913 165.601 242.643 162.502 244.449C159.178 246.387 158.361 247.652 155.647 249.288C152.564 251.175 151.367 251.263 148.967 250.445C146.567 249.627 143.592 245.412 145.663 241.529C147.348 238.383 149.527 237.502 152.857 236.432C155.492 235.619 158.08 234.595 160.606 233.368C163.001 232.229 164.974 230.184 165.467 230.895C165.123 231.097 162.62 232.991 163.093 233.507C163.211 233.771 163.566 233.689 164.183 233.374C164.314 233.291 164.459 233.243 164.607 233.234C164.755 233.225 164.903 233.256 165.041 233.324C165.318 233.546 165.534 233.863 165.663 234.236C165.945 234.994 166.196 235.769 166.413 236.558C166.598 237.093 166.521 236.785 166.69 237.326C166.86 237.867 167.256 238.849 167.204 239.402C167.173 239.736 166.978 239.843 166.767 240.032C166.557 240.22 166.254 240.39 166.063 240.579C165.981 240.655 165.842 240.906 165.884 241.032C165.925 241.158 166.397 241.145 166.572 241.032C166.747 240.919 167.055 240.85 167.271 240.749C167.487 240.648 168.006 240.359 168.551 240.044Z" fill="#FF441F"/>
<path opacity="0.4" d="M168.551 240.044C168.587 240.913 165.601 242.643 162.502 244.449C159.178 246.387 158.361 247.652 155.647 249.288C152.564 251.175 151.367 251.263 148.967 250.445C146.567 249.627 143.592 245.412 145.663 241.529C147.348 238.383 149.527 237.502 152.857 236.432C155.492 235.619 158.08 234.595 160.606 233.368C163.001 232.229 164.974 230.184 165.467 230.895C165.123 231.097 162.62 232.991 163.093 233.507C163.211 233.771 163.566 233.689 164.183 233.374C164.314 233.291 164.459 233.243 164.607 233.234C164.755 233.225 164.903 233.256 165.041 233.324C165.318 233.546 165.534 233.863 165.663 234.236C165.945 234.994 166.196 235.769 166.413 236.558C166.598 237.093 166.521 236.785 166.69 237.326C166.86 237.867 167.256 238.849 167.204 239.402C167.173 239.736 166.978 239.843 166.767 240.032C166.557 240.22 166.254 240.39 166.063 240.579C165.981 240.655 165.842 240.906 165.884 241.032C165.925 241.158 166.397 241.145 166.572 241.032C166.747 240.919 167.055 240.85 167.271 240.749C167.487 240.648 168.006 240.359 168.551 240.044Z" fill="black"/>
<path opacity="0.3" d="M156.711 248.665C156.264 248.941 153.448 250.552 152.57 249.583C151.609 248.539 153.87 246.884 153.87 246.884C153.87 246.884 154.214 244.285 151.65 240.459C151.208 240.881 149.358 240.862 149.384 239.528C149.409 238.194 152.508 236.558 152.554 236.533C149.378 237.571 147.292 238.471 145.658 241.535C143.603 245.418 146.557 249.634 148.962 250.452C151.367 251.27 152.559 251.163 155.643 249.294C155.956 249.105 156.439 248.86 156.711 248.665Z" fill="black"/>
<path d="M153.566 246.626C152.389 247.104 153.196 248.407 154.918 247.985C157.487 247.356 159.635 245.563 162.502 244.455C165.586 242.643 168.756 240.957 168.556 239.994C168.001 240.252 166.814 240.856 166.814 240.856C166.583 240.975 165.981 241.252 165.981 241.252C163.633 242.511 161.033 244.493 158.489 245.336C156.274 246.079 154.733 246.141 153.566 246.626Z" fill="#37474F"/>
<path d="M151.82 240.95C152.894 240.189 153.084 239.541 155.191 238.358C157.298 237.175 160.843 234.639 163.058 233.066C163.885 232.397 164.683 231.674 165.448 230.902C165.083 230.392 163.742 230.864 162.395 231.902C161.049 232.94 160.237 233.595 158.906 234.419C156.337 236.307 153.372 237.603 151.897 238.767C150.422 239.931 150.746 241.712 151.82 240.95Z" fill="#37474F"/>
<path d="M151.649 240.604C151.664 240.646 151.685 240.685 151.711 240.717C152.902 242.546 153.608 244.777 153.735 247.11C153.739 247.204 153.771 247.293 153.825 247.359C153.88 247.425 153.952 247.465 154.028 247.469C154.064 247.465 154.099 247.453 154.131 247.431C154.163 247.41 154.191 247.382 154.213 247.347C154.235 247.312 154.251 247.272 154.26 247.229C154.269 247.186 154.271 247.141 154.265 247.098C154.131 244.593 153.369 242.199 152.081 240.246C152.057 240.212 152.028 240.185 151.995 240.167C151.962 240.149 151.927 240.139 151.891 240.139C151.855 240.139 151.819 240.149 151.786 240.167C151.753 240.185 151.724 240.212 151.701 240.246C151.669 240.296 151.648 240.355 151.639 240.417C151.63 240.48 151.633 240.544 151.649 240.604Z" fill="#F0F0F0"/>
<path d="M153.747 238.742C153.761 238.779 153.778 238.815 153.798 238.849C155.147 241.044 156.001 243.635 156.275 246.362C156.281 246.455 156.316 246.542 156.372 246.606C156.428 246.67 156.501 246.706 156.578 246.708C156.614 246.702 156.648 246.688 156.679 246.666C156.71 246.644 156.737 246.614 156.758 246.579C156.779 246.543 156.794 246.503 156.802 246.46C156.81 246.418 156.811 246.373 156.804 246.33C156.522 243.433 155.606 240.683 154.153 238.37C154.131 238.335 154.104 238.306 154.073 238.285C154.041 238.264 154.007 238.251 153.971 238.248C153.935 238.245 153.899 238.252 153.866 238.268C153.833 238.283 153.802 238.308 153.777 238.339C153.74 238.394 153.717 238.463 153.711 238.534C153.706 238.606 153.718 238.679 153.747 238.742Z" fill="#F0F0F0"/>
<path d="M158.33 246.097C158.35 246.159 158.384 246.213 158.427 246.253C158.471 246.293 158.522 246.317 158.576 246.324C158.612 246.325 158.648 246.317 158.681 246.3C158.714 246.283 158.744 246.257 158.769 246.225C158.794 246.193 158.813 246.155 158.825 246.114C158.836 246.072 158.841 246.028 158.838 245.984C158.715 241.372 156.269 237.049 156.176 236.898C156.153 236.865 156.124 236.838 156.091 236.82C156.058 236.801 156.022 236.792 155.986 236.792C155.95 236.792 155.915 236.801 155.882 236.82C155.849 236.838 155.82 236.865 155.796 236.898C155.751 236.973 155.728 237.065 155.733 237.159C155.738 237.252 155.769 237.34 155.822 237.408C155.848 237.439 158.191 241.668 158.299 245.953C158.304 246.002 158.315 246.051 158.33 246.097Z" fill="#F0F0F0"/>
<path d="M160.262 244.594C160.282 244.654 160.315 244.707 160.358 244.747C160.4 244.787 160.451 244.812 160.504 244.82C160.54 244.823 160.576 244.816 160.61 244.8C160.644 244.785 160.674 244.76 160.7 244.728C160.725 244.697 160.745 244.659 160.757 244.617C160.769 244.575 160.774 244.531 160.771 244.487C160.691 241.298 159.696 238.245 157.96 235.866C157.936 235.834 157.908 235.808 157.875 235.79C157.843 235.773 157.808 235.763 157.773 235.763C157.737 235.763 157.702 235.773 157.67 235.79C157.637 235.808 157.609 235.834 157.585 235.866C157.543 235.944 157.525 236.038 157.533 236.131C157.542 236.224 157.576 236.311 157.631 236.376C159.222 238.614 160.14 241.452 160.231 244.417C160.235 244.478 160.245 244.537 160.262 244.594Z" fill="#F0F0F0"/>
<path d="M162.76 243.297C162.78 243.358 162.813 243.411 162.856 243.45C162.898 243.49 162.949 243.515 163.002 243.524C163.037 243.527 163.073 243.52 163.106 243.505C163.139 243.489 163.169 243.465 163.194 243.434C163.219 243.403 163.238 243.366 163.25 243.325C163.262 243.284 163.267 243.24 163.264 243.197C163.264 238.402 160.499 234.689 160.376 234.538C160.352 234.505 160.323 234.478 160.29 234.46C160.257 234.442 160.222 234.432 160.185 234.432C160.149 234.432 160.114 234.442 160.081 234.46C160.048 234.478 160.019 234.505 159.995 234.538C159.951 234.615 159.931 234.709 159.938 234.803C159.946 234.896 159.981 234.983 160.036 235.048C160.062 235.086 162.719 238.672 162.729 243.127C162.728 243.186 162.739 243.244 162.76 243.297Z" fill="#EBEBEB"/>
<path d="M148.434 156.023L167.123 158.729C167.123 158.729 172.293 155.891 175.51 154.186C186.655 148.265 188.382 147.176 191.984 147.233L185.905 162.875C185.905 162.875 178.67 166.651 172.005 169.703C168.531 171.301 168.572 171.59 164.739 170.376C161.887 169.482 160.412 169.01 156.27 167.632C151.193 165.946 147.766 164.952 147.766 164.952L148.434 156.023Z" fill="#C8856A"/>
<path d="M150.571 156.533C147.159 155.69 145.834 155.721 144.919 153.122C144.004 150.524 143.614 150.033 143.228 149.542C142.843 149.051 140.345 147.314 139.318 146.622C138.537 146.113 137.822 146.169 136.404 145.792C135.7 145.603 134.888 145.326 134.189 145.074C133.63 144.773 133.038 144.572 132.432 144.477C131.646 144.477 131.825 145.861 132.365 146.509C133.014 147.174 133.76 147.68 134.564 148C135.13 148.284 136.481 148.925 136.481 148.925C136.276 149.492 135.751 150.524 135.762 151.222C135.772 151.92 135.859 152.197 136.877 153.399C136.756 153.555 136.664 153.741 136.605 153.943C136.547 154.146 136.524 154.362 136.538 154.576C136.694 155.135 136.965 155.635 137.324 156.029C137.148 156.3 137.049 156.634 137.041 156.979C137.041 157.533 137.817 158.59 138.583 159.408C139.39 160.478 140.068 162.114 140.808 162.957C141.548 163.8 142.617 164.052 144.374 164.216C146.132 164.379 150.659 165.764 150.659 165.764C150.659 165.764 153.881 157.344 150.571 156.533Z" fill="#C8856A"/>
<path d="M142.016 150.914C141.076 150.689 140.223 150.089 139.59 149.208C138.989 148.315 138.372 147.277 138.095 147.415C137.627 147.648 137.144 149.215 138.013 150.775C138.881 152.336 140.161 153.814 140.376 154.261C140.607 155.145 140.714 156.071 140.695 156.998C140.78 157.995 141.112 158.935 141.647 159.694C142.181 160.452 142.893 160.991 143.686 161.239C142.736 161.204 141.834 160.722 141.168 159.893C139.883 158.439 140.104 156.149 139.971 155.186C139.837 154.223 139.811 154.028 138.835 152.782C137.859 151.537 136.805 150.196 137.221 148.239C137.638 146.282 138.316 146.742 138.655 147.132C138.994 147.522 140.402 150.467 142.016 150.914Z" fill="#AF6152"/>
<path d="M136.466 148.951L137.396 149.221L137.222 149.643C136.97 149.608 136.715 149.658 136.484 149.786C136.253 149.915 136.055 150.117 135.911 150.373C136.034 149.976 136.302 149.347 136.466 148.951Z" fill="#AF6152"/>
<path d="M136.862 153.399C137.191 153.808 138.26 154.997 138.476 155.243C138.692 155.488 139.123 155.136 139.19 154.412C139.274 153.823 139.173 153.216 138.908 152.713C139.246 153.184 139.43 153.792 139.421 154.419C139.365 155.35 138.959 155.677 138.651 155.734C138.342 155.79 137.566 154.268 136.862 153.399Z" fill="#AF6152"/>
<path d="M137.31 156.029C137.551 156.344 137.936 156.696 138.615 157.54C139.01 158.03 139.247 158.358 139.524 158.169C139.713 157.91 139.831 157.586 139.864 157.242C139.897 156.897 139.843 156.549 139.709 156.243C139.521 155.851 139.295 155.488 139.036 155.161L139.226 154.909C139.653 155.406 139.976 156.021 140.167 156.703C140.357 157.628 139.925 158.666 139.535 158.59C139.144 158.515 138.939 158.251 138.399 157.527C137.859 156.803 137.31 156.029 137.31 156.029Z" fill="#AF6152"/>
<path d="M139.317 158.389C139.456 158.609 139.554 159.226 139.225 159.427C139.122 159.484 139.011 159.513 138.899 159.513C138.786 159.513 138.675 159.484 138.572 159.427C138.669 159.553 138.795 159.638 138.933 159.672C139.071 159.706 139.214 159.686 139.343 159.616C139.744 159.371 139.749 158.754 139.657 158.288L139.317 158.389Z" fill="#AF6152"/>
<path d="M213.35 172.679C212.657 160.27 212.682 154.909 211.68 150.845C210.139 150.291 206.824 149.158 206.824 149.158C206.824 149.158 198.839 148.743 195.987 147.271L191.984 147.082C189.815 149.636 184.101 155.086 182.246 160.252C181.007 163.706 181.038 168.784 184.425 172.207C184.445 174.999 184.616 177.786 184.938 180.551C184.938 180.551 183.911 184.508 182.616 188.397C183.099 194.501 190.37 199.094 199.245 202.02C208.772 205.166 214.599 200.459 214.599 200.459C214.599 200.459 214.039 184.974 213.35 172.679Z" fill="#FF441F"/>
<path opacity="0.6" d="M213.35 172.679C212.657 160.27 212.682 154.909 211.68 150.845C210.139 150.291 206.824 149.158 206.824 149.158C206.824 149.158 198.839 148.743 195.987 147.271L191.984 147.082C189.815 149.636 184.101 155.086 182.246 160.252C181.007 163.706 181.038 168.784 184.425 172.207C184.445 174.999 184.616 177.786 184.938 180.551C184.938 180.551 183.911 184.508 182.616 188.397C183.099 194.501 190.37 199.094 199.245 202.02C208.772 205.166 214.599 200.459 214.599 200.459C214.599 200.459 214.039 184.974 213.35 172.679Z" fill="white"/>
<path opacity="0.3" d="M192.437 174.415C192.437 174.415 194.836 178.367 199.888 177.933C205.098 177.486 206.29 172.27 206.29 172.27C206.29 172.27 206.29 179.191 200.047 179.714C198.485 179.92 196.909 179.519 195.543 178.568C194.178 177.618 193.091 176.165 192.437 174.415Z" fill="#FF441F"/>
<path d="M198.413 208.815V209.533C198.414 209.89 198.338 210.241 198.192 210.55C198.047 210.859 197.838 211.116 197.585 211.295L181.768 222.445C181.517 222.622 181.231 222.715 180.941 222.715C180.651 222.715 180.365 222.622 180.114 222.445L151.09 201.925C150.837 201.747 150.627 201.491 150.481 201.181C150.335 200.872 150.258 200.521 150.258 200.164V199.673L180.941 221.362L198.413 208.815Z" fill="#EBEBEB"/>
<path d="M150.258 199.673L167.467 187.503C167.618 187.398 167.788 187.343 167.961 187.343C168.134 187.343 168.304 187.398 168.454 187.503L198.31 208.614C198.344 208.637 198.373 208.67 198.393 208.711C198.413 208.752 198.424 208.799 198.424 208.847C198.424 208.895 198.413 208.942 198.393 208.983C198.373 209.024 198.344 209.057 198.31 209.08L180.941 221.362L150.258 199.673Z" fill="#FAFAFA"/>
<path d="M181.101 219.575L190.382 213.019L163.239 193.833L153.912 200.352L181.101 219.575Z" fill="#E0E0E0"/>
<path d="M185.659 201.34L185.489 201.46L180.942 204.675L172.848 198.955L172.684 198.836L177.401 195.501L185.659 201.34Z" fill="#E0E0E0"/>
<path d="M185.489 201.46L180.941 204.675L172.848 198.955L177.401 195.74L185.489 201.46Z" fill="#E6E6E6"/>
<path d="M180.941 221.362V222.715C180.65 222.717 180.365 222.624 180.114 222.445L151.09 201.925C150.837 201.747 150.627 201.491 150.481 201.181C150.335 200.872 150.258 200.521 150.258 200.164V199.673L180.941 221.362Z" fill="#EBEBEB"/>
<g style="mix-blend-mode:multiply" opacity="0.5">
<path d="M180.941 221.362V222.715C180.65 222.717 180.365 222.624 180.114 222.445L151.09 201.925C150.837 201.747 150.627 201.491 150.481 201.181C150.335 200.872 150.258 200.521 150.258 200.164V199.673L180.941 221.362Z" fill="#E0E0E0"/>
</g>
<path d="M180.474 221.664C180.199 221.794 179.904 221.847 179.611 221.818C179.317 221.79 179.033 221.682 178.778 221.501L149.883 201.076C149.632 200.899 149.416 200.656 149.251 200.364C149.086 200.072 148.975 199.74 148.927 199.39L145.762 176.291C145.746 176.159 145.737 176.027 145.736 175.894C145.737 175.252 145.946 174.636 146.317 174.183L176.348 195.419C176.534 195.552 176.694 195.733 176.816 195.951C176.937 196.169 177.018 196.417 177.052 196.678L180.474 221.664Z" fill="#FF441F"/>
<g opacity="0.7">
<path d="M180.475 221.664C180.2 221.794 179.905 221.847 179.612 221.818C179.318 221.79 179.034 221.682 178.779 221.501L149.884 201.076C149.633 200.899 149.417 200.656 149.252 200.364C149.087 200.072 148.976 199.74 148.928 199.39L145.763 176.291C145.747 176.159 145.738 176.027 145.737 175.894C145.738 175.252 145.947 174.636 146.318 174.183L176.349 195.419C176.535 195.552 176.695 195.733 176.817 195.951C176.938 196.169 177.019 196.417 177.053 196.678L180.475 221.664Z" fill="white"/>
</g>
<path d="M180.941 221.362L180.741 221.501C180.654 221.561 180.565 221.616 180.473 221.664L177.051 196.665C177.017 196.404 176.937 196.156 176.815 195.938C176.693 195.721 176.533 195.539 176.347 195.406L146.316 174.183C146.439 174.042 146.573 173.917 146.717 173.811L176.83 195.086C177.017 195.218 177.177 195.399 177.299 195.617C177.42 195.835 177.501 196.083 177.534 196.344L180.941 221.362Z" fill="#FAFAFA"/>
<path d="M164.199 200.34C163.983 198.792 162.683 196.734 161.285 195.746C159.888 194.758 158.927 195.218 159.137 196.759C159.348 198.301 160.653 200.365 162.051 201.353C163.449 202.341 164.41 201.881 164.199 200.34Z" fill="#FF441F"/>
<path d="M222.215 186.075C221.906 183.558 218.905 160.466 218.011 157.345C217.045 153.972 215.992 152.392 211.716 150.857C207.729 154.198 208.515 165.204 209.029 167.733L212.143 185.899C212.143 185.899 207.703 188.485 204.121 190.511C201.038 192.235 198.911 194.205 195.324 194.639C191.737 195.073 191.059 194.834 187.986 196.47C186.914 197.081 185.883 197.794 184.903 198.603C183.818 200 182.482 201.07 181.305 202.379C180.427 203.096 181.223 203.637 181.912 203.681C183.818 203.763 185.36 201.957 187.076 201.221C186.87 201.968 186.758 202.748 186.742 203.536C186.742 204.166 186.603 204.927 187.045 205.424C187.376 205.681 187.736 205.874 188.114 205.997C188.115 206.231 188.188 206.456 188.32 206.626C188.579 206.87 188.904 206.983 189.229 206.94C189.402 206.925 189.573 206.897 189.743 206.859C189.763 207.059 189.826 207.249 189.925 207.411C190.025 207.572 190.157 207.698 190.308 207.777C191.016 208.068 191.774 208.118 192.503 207.922C192.611 207.872 193.433 207.356 193.674 207.205C193.984 207.075 194.266 206.86 194.496 206.575C194.676 206.248 194.188 205.481 193.767 205.386C193.301 205.322 192.829 205.347 192.369 205.462C192.565 205 192.71 204.51 192.801 204.002C193.196 203.266 195.93 204.09 198.381 203.631C200.226 203.285 201.336 201.611 202.169 201.17C207.698 198.232 215.015 196.451 218.612 195.142C223.109 193.487 222.79 190.706 222.215 186.075Z" fill="#C8856A"/>
<path d="M187.108 201.177C187.241 200.087 187.594 199.055 188.136 198.175C187.18 198.572 186.486 201.485 186.486 201.485L187.108 201.177Z" fill="#AF6152"/>
<path d="M188.134 205.946C188.066 205.32 188.066 204.685 188.134 204.058C188.179 203.441 188.255 202.827 188.361 202.221C188.449 201.605 188.595 201.003 188.797 200.428C188.991 199.844 189.315 199.338 189.733 198.968C189.555 199.182 189.411 199.434 189.306 199.71C189.187 199.974 189.087 200.25 189.008 200.535C188.852 201.11 188.73 201.699 188.643 202.297C188.54 202.894 188.448 203.498 188.355 204.096C188.25 204.707 188.176 205.324 188.134 205.946Z" fill="#AF6152"/>
<path d="M189.769 206.789C189.725 206.179 189.735 205.566 189.8 204.958C189.85 204.352 189.935 203.751 190.051 203.159C190.16 202.563 190.304 201.979 190.483 201.409C190.631 200.82 190.902 200.289 191.269 199.868C191.115 200.099 190.998 200.364 190.925 200.648C190.836 200.925 190.759 201.208 190.694 201.498C190.565 202.076 190.442 202.655 190.334 203.241C190.113 204.411 189.902 205.581 189.769 206.789Z" fill="#AF6152"/>
<path d="M193.788 205.348C193.58 205.349 193.373 205.381 193.171 205.443C192.971 205.493 192.832 205.613 192.58 205.707L192.683 205.512C192.693 205.634 192.677 205.758 192.637 205.871C192.604 205.974 192.555 206.068 192.493 206.147C192.379 206.304 192.231 206.418 192.066 206.475C192.167 206.332 192.255 206.176 192.328 206.009C192.356 205.934 192.377 205.856 192.39 205.776C192.397 205.707 192.397 205.638 192.39 205.569V205.424L192.508 205.374C192.696 205.288 192.894 205.241 193.094 205.235C193.329 205.19 193.57 205.23 193.788 205.348Z" fill="#AF6152"/>
<path d="M207.447 115.255C211.235 113.814 214.986 119.389 214.534 123.882C216.173 125.417 217.103 130.86 214.965 133.56C216.209 136.36 214.395 141.84 211.27 142.369C211.723 144.798 209.128 148.378 205.972 148.542C201.743 148.762 202.792 146.925 203.634 141.23C204.066 138.443 207.447 115.255 207.447 115.255Z" fill="#263238"/>
<path d="M194.034 155.872C190.36 155.148 192.092 152.323 194.712 149.051L200.509 147.063L205.236 146.465C205.206 148.441 206.177 148.856 207.107 149.29C204.604 152.468 198.412 156.715 194.034 155.872Z" fill="#C8856A"/>
<path d="M195.756 148.667C194.215 153.015 191.311 152.877 190.186 152.613C189.729 155.337 187.858 156.677 185.921 157.646C186.358 160.346 184.754 162.114 183.167 163.561C183.437 164.057 183.612 164.621 183.68 165.212C183.748 165.802 183.706 166.404 183.557 166.972C183.259 168.476 181.358 171.106 181.717 172.886C179.554 170.067 179.564 166.242 181.419 163.228C181.06 160.585 180.803 157.955 182.807 156.306C182.293 152.908 183.629 150.41 186.43 149.838C186.491 147.226 187.884 145.679 190.232 145.225C189.718 140.682 193.516 138.877 195.885 138.788C195.854 140.764 196.101 144.999 196.029 146.968L195.756 148.667Z" fill="#263238"/>
<path d="M191.933 111.996C196.584 109.284 204.137 110.454 205.268 114.513C207.287 114.123 208.865 115.608 210.186 118.729C210.997 120.772 211.444 123.003 211.496 125.273C211.548 127.544 211.205 129.803 210.489 131.898C209.366 135.542 207.592 138.833 205.299 141.532L205.165 134.831C204.702 134.792 204.244 134.682 203.803 134.503C201.378 133.478 193.398 129.325 191.532 125.342C191.532 125.342 187.868 127.745 187.863 127.739C184.025 123.309 185.566 115.702 191.933 111.996Z" fill="#37474F"/>
<path d="M188.479 122.214C188.232 123.328 187.451 125.776 187.58 133.402C187.703 140.67 189.486 142.998 190.843 143.954C191.87 144.684 194.08 144.955 195.766 144.76V150.958C195.766 150.958 195.416 152.04 199.059 152.405C204.589 152.965 205.226 149.41 205.226 149.41L205.37 138.398C205.37 138.398 206.855 139.562 208.566 137.807C209.594 136.762 210.437 133.616 209.157 131.949C207.877 130.281 206.5 130.747 205.37 133.094C205.254 133.288 205.096 133.437 204.913 133.525C204.73 133.612 204.531 133.633 204.339 133.586C204.146 133.539 203.969 133.426 203.827 133.259C203.686 133.093 203.586 132.881 203.54 132.647C203.027 129.885 203.731 127.022 200.637 125.398C198.12 124.226 195.964 122.121 194.471 119.377C192.395 121.346 189.676 122.441 188.479 122.214Z" fill="#C8856A"/>
<path d="M198.104 130.376C198.086 130.702 197.972 131.01 197.783 131.241C197.594 131.472 197.343 131.612 197.076 131.634C196.952 131.634 196.829 131.604 196.715 131.546C196.6 131.488 196.496 131.403 196.408 131.295C196.32 131.187 196.25 131.06 196.203 130.919C196.155 130.779 196.131 130.628 196.131 130.476C196.131 130.324 196.155 130.174 196.203 130.033C196.25 129.893 196.32 129.765 196.408 129.658C196.496 129.55 196.6 129.465 196.715 129.407C196.829 129.348 196.952 129.319 197.076 129.319C197.327 129.294 197.575 129.391 197.767 129.589C197.96 129.787 198.081 130.069 198.104 130.376Z" fill="#263238"/>
<path d="M191.1 130.023C191.1 130.33 191 130.625 190.823 130.842C190.646 131.059 190.405 131.181 190.154 131.181C189.881 131.155 189.624 131.01 189.429 130.773C189.235 130.535 189.117 130.22 189.096 129.885C189.096 129.256 189.635 128.872 190.154 128.872C190.278 128.871 190.401 128.9 190.516 128.958C190.63 129.015 190.735 129.1 190.823 129.207C190.91 129.314 190.98 129.441 191.028 129.581C191.075 129.721 191.1 129.872 191.1 130.023Z" fill="#263238"/>
<path d="M196.548 137.347L193.665 138.254C193.706 138.489 193.784 138.712 193.897 138.909C194.009 139.107 194.153 139.274 194.319 139.402C194.485 139.53 194.671 139.616 194.865 139.654C195.059 139.693 195.257 139.683 195.448 139.625C195.839 139.498 196.173 139.188 196.378 138.762C196.584 138.336 196.645 137.828 196.548 137.347Z" fill="#AF6152"/>
<path d="M196.357 138.065C195.973 138.008 195.586 138.138 195.28 138.428C194.974 138.718 194.774 139.143 194.723 139.613C194.963 139.691 195.217 139.691 195.457 139.613C195.739 139.518 195.994 139.326 196.19 139.061C196.387 138.796 196.517 138.468 196.567 138.115C196.498 138.092 196.428 138.075 196.357 138.065Z" fill="#FFA8A7"/>
<path d="M188.741 127.928L190.694 127.104C190.656 126.945 190.592 126.798 190.506 126.671C190.421 126.544 190.315 126.439 190.195 126.363C190.076 126.287 189.945 126.242 189.811 126.23C189.676 126.217 189.541 126.239 189.414 126.292C189.152 126.408 188.937 126.642 188.812 126.946C188.687 127.25 188.661 127.602 188.741 127.928Z" fill="#263238"/>
<path d="M197.062 127.123L198.793 128.501C198.873 128.368 198.929 128.216 198.959 128.055C198.989 127.895 198.992 127.728 198.968 127.566C198.943 127.404 198.892 127.25 198.817 127.113C198.742 126.976 198.644 126.859 198.531 126.77C198.296 126.586 198.012 126.52 197.739 126.586C197.465 126.651 197.222 126.844 197.062 127.123Z" fill="#263238"/>
<path d="M194.209 128.601L193.567 136.108L190.36 134.793C191.368 132.691 192.642 130.074 194.209 128.601Z" fill="#AF6152"/>
<path d="M195.767 144.76C198.115 144.225 202.503 142.922 203.269 138.795C203.269 138.795 203.475 141.003 201.614 143.231C199.672 145.565 195.767 146.434 195.767 146.434V144.76Z" fill="#AF6152"/>
<path d="M199.304 100.796L200.979 96.9386L199.633 92.169V89.2494L203.744 92.169V95.0886L201.966 98.864C201.938 98.9218 201.897 98.9679 201.847 98.9962L199.304 100.796Z" fill="#FF441F"/>
<path opacity="0.2" d="M199.304 100.796L200.979 96.9386L199.633 92.169V89.2494L203.744 92.169V95.0886L201.966 98.864C201.938 98.9218 201.897 98.9679 201.847 98.9962L199.304 100.796Z" fill="black"/>
<path d="M190.064 60.6257C190.087 60.099 190.211 59.5865 190.427 59.1296C190.642 58.6726 190.942 58.2841 191.302 57.9955L192.33 57.2845C192.713 57.0487 193.137 56.9259 193.566 56.9259C193.995 56.9259 194.418 57.0487 194.802 57.2845L210.228 68.2268C210.588 68.5148 210.887 68.9023 211.103 69.358C211.318 69.8138 211.442 70.3251 211.467 70.8507V97.5237C211.442 98.0493 211.318 98.5606 211.103 99.0163C210.887 99.4721 210.588 99.8596 210.228 100.148L209.2 100.859C208.817 101.097 208.392 101.222 207.962 101.222C207.532 101.222 207.107 101.097 206.723 100.859L201.138 96.9259L199.37 100.701C199.344 100.754 199.306 100.796 199.261 100.823C199.217 100.85 199.166 100.862 199.117 100.856C199.067 100.85 199.019 100.827 198.98 100.79C198.94 100.752 198.91 100.702 198.892 100.645L197.022 94.0315L191.277 89.9352C190.916 89.6479 190.616 89.2606 190.401 88.8047C190.186 88.3488 190.061 87.8371 190.038 87.3113L190.064 60.6257Z" fill="#FF441F"/>
<path opacity="0.2" d="M211.472 97.5236C211.448 98.0492 211.323 98.5604 211.108 99.0162C210.893 99.472 210.593 99.8595 210.233 100.147L209.206 100.858C208.856 101.072 208.473 101.194 208.083 101.214C207.692 101.235 207.303 101.154 206.939 100.978C207.525 101.249 207.967 100.846 207.967 99.9839V73.3108C207.951 72.7847 207.827 72.272 207.607 71.8195L211.086 69.3593C211.311 69.8094 211.437 70.3232 211.451 70.8505L211.472 97.5236Z" fill="black"/>
<path opacity="0.3" d="M190.104 60.1915C190.248 59.5622 190.726 59.342 191.297 59.7447L206.749 70.6933C207.116 70.9677 207.418 71.3563 207.622 71.8196L211.101 69.3593C210.897 68.8977 210.597 68.5094 210.233 68.233L194.812 57.2844C194.427 57.0486 194.003 56.9258 193.573 56.9258C193.143 56.9258 192.719 57.0486 192.335 57.2844L191.307 58.0017C190.996 58.2482 190.729 58.5693 190.522 58.9457C190.316 59.3221 190.174 59.7459 190.104 60.1915Z" fill="white"/>
<path d="M203.461 82.743L200.295 85.2788V71.4798L198.235 70.02V84.1525L195.527 78.7663L194.072 80.1066L198.954 89.4569L204.458 85.0397L203.461 82.743Z" fill="#FAFAFA"/>
</svg>
