<svg width="260" height="260" viewBox="0 0 260 260" fill="none" xmlns="http://www.w3.org/2000/svg">
<path d="M130 256.499C193.393 256.499 244.783 252.749 244.783 248.123C244.783 243.496 193.393 239.746 130 239.746C66.6068 239.746 15.2168 243.496 15.2168 248.123C15.2168 252.749 66.6068 256.499 130 256.499Z" fill="#F5F5F5"/>
<path d="M206.835 64.2419L206.609 68.5988L207.2 68.6465L207.426 64.2896L206.835 64.2419Z" fill="#FF441F"/>
<path d="M207.733 46.5465L206.994 60.8654L207.585 60.913L208.324 46.5941L207.733 46.5465Z" fill="#FF441F"/>
<path d="M200.708 25.7525H131.118C129.331 25.7917 127.62 26.6617 126.319 28.1927C125.017 29.7237 124.219 31.806 124.079 34.0331L115.087 207.563C115.021 208.627 115.133 209.696 115.415 210.703C115.698 211.709 116.145 212.632 116.728 213.411C117.31 214.19 118.016 214.81 118.801 215.23C119.586 215.65 120.431 215.861 121.285 215.851H190.863C192.653 215.814 194.368 214.944 195.672 213.412C196.977 211.879 197.778 209.794 197.919 207.563L206.906 34.0331C206.972 32.9698 206.86 31.901 206.577 30.8946C206.295 29.8883 205.848 28.9664 205.265 28.1876C204.682 27.4089 203.976 26.7902 203.191 26.371C202.406 25.9517 201.561 25.7411 200.708 25.7525Z" fill="#FF441F"/>
<path opacity="0.7" d="M198.499 25.7525H131.118C129.331 25.7917 127.62 26.6617 126.319 28.1927C125.017 29.7237 124.219 31.806 124.079 34.0331L115.087 207.563C115.021 208.627 115.133 209.696 115.415 210.703C115.698 211.709 116.145 212.632 116.728 213.411C117.31 214.19 118.016 214.81 118.801 215.23C119.586 215.65 120.431 215.861 121.285 215.851H188.654C190.445 215.814 192.159 214.944 193.464 213.412C194.769 211.879 195.57 209.794 195.711 207.563L204.698 34.0331C204.763 32.9698 204.651 31.901 204.369 30.8946C204.086 29.8883 203.639 28.9664 203.056 28.1876C202.474 27.4089 201.767 26.7902 200.983 26.371C200.198 25.9517 199.353 25.7411 198.499 25.7525Z" fill="white"/>
<path d="M192.817 203.027H118.699C118.422 203.028 118.147 202.957 117.893 202.82C117.638 202.683 117.409 202.482 117.219 202.229C117.029 201.976 116.883 201.678 116.789 201.352C116.695 201.026 116.656 200.679 116.674 200.333L124.808 43.3053C124.841 42.6639 125.068 42.0624 125.443 41.6226C125.818 41.1828 126.313 40.9378 126.827 40.9373H200.951C201.229 40.9376 201.503 41.0089 201.758 41.147C202.012 41.2851 202.242 41.4869 202.431 41.74C202.621 41.9931 202.767 42.2921 202.861 42.6186C202.955 42.9451 202.994 43.2921 202.976 43.6383L194.842 200.659C194.809 201.301 194.581 201.904 194.205 202.344C193.828 202.784 193.332 203.028 192.817 203.027Z" fill="white"/>
<path d="M176.346 35.8017H149.404C149.265 35.8032 149.128 35.7687 149.001 35.7004C148.873 35.6321 148.759 35.5314 148.664 35.4048C148.569 35.2782 148.497 35.1284 148.451 34.9648C148.405 34.8013 148.387 34.6277 148.397 34.4549C148.425 34.096 148.556 33.7619 148.766 33.5153C148.977 33.2687 149.252 33.1265 149.54 33.1155H176.482C176.62 33.1129 176.758 33.1464 176.885 33.2139C177.012 33.2814 177.127 33.3814 177.222 33.5074C177.316 33.6335 177.389 33.7829 177.435 33.946C177.481 34.1092 177.499 34.2825 177.488 34.4549C177.462 34.8151 177.332 35.151 177.121 35.3992C176.911 35.6473 176.635 35.7905 176.346 35.8017Z" fill="white"/>
<path d="M155.319 209.62C155.275 210.507 154.965 211.341 154.45 211.953C153.935 212.565 153.253 212.911 152.542 212.921C152.201 212.925 151.862 212.84 151.548 212.674C151.234 212.507 150.95 212.261 150.716 211.952C150.481 211.642 150.299 211.275 150.183 210.874C150.066 210.473 150.017 210.046 150.038 209.62C150.083 208.735 150.394 207.903 150.909 207.292C151.424 206.681 152.105 206.337 152.814 206.327C153.156 206.322 153.494 206.405 153.808 206.571C154.122 206.737 154.406 206.982 154.641 207.291C154.876 207.601 155.057 207.967 155.174 208.368C155.291 208.768 155.34 209.195 155.319 209.62Z" fill="white"/>
<path opacity="0.2" d="M184.742 84.4049H121.451L117.426 162.031H184.742C186.499 162.027 188.182 161.154 189.425 159.602C190.668 158.05 191.368 155.946 191.373 153.75V92.7151C191.374 90.5143 190.677 88.4028 189.433 86.8446C188.19 85.2863 186.503 84.4088 184.742 84.4049Z" fill="#FF441F"/>
<path d="M178.845 77.5303H101.281C97.6189 77.5303 94.6504 81.2409 94.6504 85.8183V146.876C94.6504 151.453 97.6189 155.164 101.281 155.164H178.845C182.507 155.164 185.475 151.453 185.475 146.876V85.8183C185.475 81.2409 182.507 77.5303 178.845 77.5303Z" fill="#FF441F"/>
<path d="M92.5311 76.6349C92.3758 76.6341 92.2269 76.557 92.1167 76.4203L91.0511 75.0957C90.9396 74.9564 90.877 74.7674 90.877 74.5703C90.877 74.3732 90.9396 74.1842 91.0511 74.0449C91.1625 73.9056 91.3137 73.8273 91.4714 73.8273C91.629 73.8273 91.7802 73.9056 91.8917 74.0449L92.9514 75.3769C93.0616 75.5156 93.1235 75.7031 93.1235 75.8986C93.1235 76.0941 93.0616 76.2817 92.9514 76.4203C92.8961 76.4889 92.8305 76.5431 92.7583 76.58C92.6862 76.6168 92.609 76.6355 92.5311 76.6349Z" fill="#FF441F"/>
<path d="M90.9276 81.282H89.4299C89.2729 81.282 89.1223 81.204 89.0113 81.0653C88.9003 80.9265 88.8379 80.7383 88.8379 80.542C88.8379 80.3457 88.9003 80.1575 89.0113 80.0187C89.1223 79.88 89.2729 79.802 89.4299 79.802H90.9276C91.0847 79.802 91.2352 79.88 91.3463 80.0187C91.4573 80.1575 91.5196 80.3457 91.5196 80.542C91.5196 80.7383 91.4573 80.9265 91.3463 81.0653C91.2352 81.204 91.0847 81.282 90.9276 81.282Z" fill="#FF441F"/>
<path d="M96.3036 74.6368C96.1535 74.6373 96.0089 74.5665 95.899 74.4387C95.7891 74.311 95.7221 74.1358 95.7116 73.9486L95.6051 72.0764C95.5994 71.9792 95.6092 71.8816 95.6339 71.7891C95.6585 71.6966 95.6975 71.6111 95.7487 71.5375C95.7999 71.4639 95.8622 71.4037 95.932 71.3603C96.0018 71.3169 96.0778 71.2912 96.1556 71.2846C96.3117 71.2725 96.4654 71.338 96.583 71.4669C96.7005 71.5959 96.7725 71.7778 96.7831 71.9728L96.8956 73.845C96.9013 73.9423 96.8915 74.0399 96.8668 74.1324C96.8422 74.2249 96.8032 74.3104 96.752 74.384C96.7008 74.4575 96.6385 74.5178 96.5687 74.5612C96.4989 74.6046 96.4229 74.6303 96.3451 74.6368H96.3036Z" fill="#FF441F"/>
<path d="M146.688 147.179L170.504 176.942V147.179H146.688Z" fill="#FF441F"/>
<path d="M153.219 134.14L152.035 127.858C151.736 126.206 151.736 124.492 152.035 122.84L153.681 113.894C154.354 110.079 153.989 106.092 152.645 102.565C151.3 99.0382 149.052 96.1733 146.257 94.4245C146.309 94.2598 146.355 94.0919 146.393 93.9213C146.49 93.3785 146.501 92.8172 146.425 92.2693C146.348 91.7213 146.186 91.1976 145.948 90.7279C145.71 90.2583 145.4 89.8519 145.036 89.5319C144.672 89.212 144.261 88.9848 143.827 88.8634C143.393 88.7419 142.943 88.7285 142.505 88.824C142.067 88.9194 141.648 89.1219 141.272 89.4198C140.896 89.7177 140.571 90.1051 140.315 90.5601C140.059 91.015 139.878 91.5285 139.78 92.0713C139.751 92.2442 139.733 92.42 139.727 92.5967C136.603 92.6883 133.592 94.0801 131.172 96.5517C128.752 99.0234 127.06 102.434 126.366 106.242L124.761 115.196C124.467 116.845 123.88 118.39 123.045 119.718L119.854 124.787C119.542 125.284 119.335 125.872 119.254 126.496C119.173 127.119 119.219 127.759 119.388 128.354C119.558 128.949 119.845 129.481 120.224 129.901C120.602 130.32 121.059 130.612 121.553 130.751L149.673 138.625C150.164 138.757 150.675 138.733 151.157 138.554C151.639 138.375 152.077 138.046 152.43 137.599C152.784 137.152 153.042 136.601 153.179 135.996C153.317 135.391 153.331 134.753 153.219 134.14Z" fill="white"/>
<path d="M131.982 136.079C131.768 136.02 131.546 136.028 131.335 136.102C131.124 136.176 130.931 136.314 130.773 136.503C130.615 136.693 130.497 136.928 130.429 137.189C130.361 137.449 130.345 137.726 130.384 137.996C130.545 139.185 130.986 140.287 131.65 141.162C132.315 142.036 133.172 142.644 134.114 142.908C135.055 143.171 136.038 143.078 136.937 142.641C137.837 142.204 138.611 141.442 139.163 140.453C139.289 140.229 139.369 139.971 139.397 139.7C139.424 139.429 139.398 139.154 139.32 138.899C139.242 138.644 139.115 138.417 138.951 138.237C138.786 138.058 138.589 137.932 138.376 137.87L131.982 136.079Z" fill="white"/>
<path d="M110.387 123.625C110.24 123.626 110.095 123.582 109.966 123.495C109.837 123.408 109.727 123.283 109.647 123.129C106.851 117.893 105.833 111.483 106.818 105.308C107.803 99.1344 110.709 93.7021 114.898 90.2065C115.094 90.0436 115.334 89.9848 115.565 90.0431C115.796 90.1014 115.999 90.2719 116.129 90.5173C116.259 90.7626 116.306 91.0626 116.26 91.3512C116.213 91.6399 116.077 91.8936 115.88 92.0565C112.088 95.2312 109.46 100.158 108.572 105.753C107.684 111.349 108.609 117.157 111.144 121.901C111.275 122.145 111.323 122.444 111.278 122.733C111.232 123.022 111.097 123.276 110.902 123.44C110.749 123.565 110.569 123.63 110.387 123.625Z" fill="white"/>
<path d="M114.145 120.472C113.999 120.471 113.856 120.426 113.728 120.339C113.6 120.253 113.491 120.128 113.411 119.977C111.283 115.988 110.508 111.106 111.257 106.404C112.007 101.702 114.218 97.5633 117.407 94.8981C117.504 94.8169 117.613 94.7605 117.728 94.732C117.842 94.7036 117.96 94.7036 118.075 94.7321C118.19 94.7606 118.299 94.8171 118.396 94.8982C118.493 94.9794 118.576 95.0837 118.641 95.2052C118.706 95.3267 118.751 95.4629 118.774 95.6062C118.797 95.7495 118.797 95.897 118.774 96.0402C118.751 96.1835 118.706 96.3198 118.641 96.4412C118.576 96.5627 118.493 96.6669 118.395 96.7481C115.597 99.0827 113.655 102.711 112.996 106.836C112.338 110.96 113.017 115.243 114.885 118.741C115.016 118.985 115.064 119.285 115.018 119.573C114.973 119.862 114.838 120.116 114.642 120.28C114.495 120.403 114.322 120.47 114.145 120.472Z" fill="white"/>
<path d="M117.911 117.327C117.766 117.328 117.623 117.284 117.494 117.199C117.366 117.114 117.257 116.99 117.177 116.839C116.451 115.481 115.947 113.958 115.693 112.357C115.44 110.756 115.441 109.107 115.697 107.507C115.953 105.906 116.459 104.384 117.187 103.028C117.914 101.672 118.848 100.509 119.935 99.6045C120.131 99.4527 120.366 99.4017 120.591 99.4623C120.816 99.5228 121.013 99.6902 121.141 99.9291C121.27 100.168 121.319 100.46 121.278 100.743C121.238 101.026 121.111 101.279 120.924 101.447C120.032 102.191 119.266 103.148 118.67 104.262C118.074 105.376 117.66 106.626 117.45 107.941C117.241 109.256 117.241 110.609 117.45 111.924C117.659 113.238 118.073 114.489 118.669 115.603C118.798 115.848 118.845 116.147 118.8 116.435C118.754 116.723 118.62 116.977 118.426 117.142C118.273 117.268 118.094 117.333 117.911 117.327Z" fill="white"/>
<path d="M161.583 139.231C161.385 139.231 161.192 139.147 161.036 138.994C160.88 138.84 160.77 138.625 160.723 138.384C160.676 138.143 160.694 137.889 160.776 137.663C160.858 137.437 160.999 137.252 161.175 137.137C165.231 134.518 168.288 129.992 169.676 124.555C171.064 119.119 170.668 113.216 168.575 108.144C168.511 108.014 168.47 107.869 168.453 107.718C168.436 107.566 168.444 107.413 168.477 107.266C168.51 107.119 168.567 106.982 168.644 106.864C168.722 106.746 168.817 106.648 168.926 106.579C169.034 106.509 169.153 106.468 169.275 106.458C169.397 106.448 169.519 106.47 169.634 106.521C169.749 106.573 169.854 106.654 169.942 106.759C170.031 106.863 170.102 106.99 170.149 107.13C171.293 109.902 171.988 112.927 172.195 116.035C172.403 119.142 172.119 122.27 171.359 125.24C170.599 128.21 169.379 130.964 167.768 133.344C166.156 135.725 164.185 137.685 161.968 139.113C161.848 139.186 161.717 139.227 161.583 139.231Z" fill="white"/>
<path d="M159.505 134.207C159.306 134.206 159.114 134.122 158.958 133.969C158.802 133.815 158.691 133.601 158.644 133.36C158.597 133.119 158.616 132.865 158.698 132.639C158.78 132.413 158.92 132.227 159.097 132.113C160.578 131.158 161.894 129.848 162.97 128.256C164.046 126.665 164.861 124.825 165.367 122.84C165.873 120.855 166.062 118.765 165.921 116.689C165.781 114.613 165.315 112.592 164.549 110.741C164.441 110.479 164.42 110.174 164.491 109.893C164.563 109.612 164.721 109.378 164.931 109.243C165.14 109.108 165.384 109.082 165.609 109.171C165.834 109.261 166.021 109.458 166.129 109.72C167.002 111.83 167.533 114.133 167.693 116.5C167.853 118.866 167.638 121.249 167.061 123.511C166.484 125.774 165.555 127.872 164.329 129.685C163.102 131.499 161.602 132.993 159.913 134.081C159.788 134.165 159.647 134.208 159.505 134.207Z" fill="white"/>
<path d="M157.426 129.182C157.228 129.178 157.037 129.092 156.883 128.938C156.728 128.783 156.619 128.569 156.572 128.329C156.525 128.088 156.544 127.836 156.624 127.61C156.705 127.384 156.843 127.198 157.018 127.081C157.971 126.468 158.818 125.625 159.51 124.603C160.203 123.58 160.727 122.396 161.053 121.12C161.379 119.843 161.501 118.499 161.411 117.164C161.321 115.829 161.021 114.529 160.528 113.339C160.42 113.077 160.399 112.772 160.471 112.491C160.543 112.21 160.701 111.976 160.91 111.84C161.12 111.705 161.364 111.679 161.589 111.769C161.813 111.858 162.001 112.056 162.109 112.318C163.314 115.248 163.539 118.657 162.736 121.795C161.932 124.933 160.165 127.545 157.823 129.056C157.7 129.136 157.564 129.179 157.426 129.182Z" fill="white"/>
<path d="M105.347 33.2338H100.824C100.707 33.2375 100.594 33.2931 100.506 33.3906C100.419 33.4881 100.361 33.6213 100.345 33.7666L99.3975 45.0442C99.3907 45.1121 99.3957 45.1811 99.4119 45.2465C99.4282 45.3118 99.4555 45.3721 99.4919 45.4233C99.5284 45.4744 99.5731 45.5152 99.6232 45.543C99.6732 45.5708 99.7275 45.5849 99.7823 45.5844H104.305C104.423 45.5804 104.537 45.5238 104.625 45.4248C104.712 45.3257 104.769 45.1908 104.785 45.0442L105.732 33.7666C105.739 33.699 105.734 33.6303 105.717 33.5653C105.701 33.5003 105.674 33.4405 105.637 33.3899C105.601 33.3393 105.556 33.2992 105.506 33.2722C105.456 33.2453 105.402 33.2322 105.347 33.2338Z" fill="#FF441F"/>
<path opacity="0.4" d="M104.939 33.2338H100.824C100.707 33.2376 100.594 33.2931 100.506 33.3907C100.419 33.4882 100.361 33.6214 100.345 33.7666L99.3975 45.0442C99.3907 45.1122 99.3957 45.1812 99.4119 45.2465C99.4282 45.3119 99.4555 45.3722 99.4919 45.4233C99.5284 45.4745 99.5731 45.5153 99.6232 45.5431C99.6732 45.5709 99.7275 45.585 99.7823 45.5844H103.926C104.044 45.5802 104.156 45.5233 104.243 45.4242C104.33 45.3251 104.386 45.1902 104.4 45.0442L105.347 33.7666C105.356 33.6962 105.351 33.6242 105.334 33.5563C105.316 33.4884 105.287 33.4263 105.248 33.3748C105.208 33.3234 105.16 33.2839 105.106 33.2595C105.053 33.235 104.995 33.2263 104.939 33.2338Z" fill="white"/>
<path d="M82.6802 241.766C83.2722 241.766 83.8642 241.655 84.0714 241.314C84.1218 241.223 84.1488 241.115 84.1488 241.004C84.1488 240.893 84.1218 240.784 84.0714 240.693C83.9852 240.527 83.8519 240.408 83.6985 240.36C82.8934 240.086 81.2594 241.285 81.1884 241.337C81.1699 241.351 81.1555 241.372 81.147 241.398C81.1386 241.423 81.1365 241.451 81.141 241.477C81.1454 241.507 81.1568 241.534 81.1737 241.555C81.1906 241.576 81.2123 241.59 81.2358 241.596C81.7126 241.703 82.1958 241.76 82.6802 241.766ZM83.4025 240.604C83.4752 240.592 83.5488 240.592 83.6215 240.604C83.7156 240.633 83.7979 240.704 83.8524 240.804C83.9353 240.981 83.9116 241.07 83.8524 241.115C83.6452 241.507 82.4316 241.514 81.5377 241.359C82.1118 240.952 82.7463 240.695 83.4025 240.604Z" fill="#FF441F"/>
<path d="M81.2239 241.596H81.2713C81.8633 241.27 82.9408 239.975 82.8283 239.294C82.8283 239.139 82.7039 238.939 82.3902 238.902C82.2791 238.887 82.1668 238.9 82.0599 238.94C81.953 238.981 81.8539 239.049 81.7686 239.139C81.1766 239.768 81.1115 241.359 81.1055 241.448C81.1048 241.474 81.1093 241.499 81.1186 241.523C81.1279 241.546 81.1417 241.566 81.1588 241.581C81.179 241.593 81.2016 241.598 81.2239 241.596ZM82.3132 239.168H82.3783C82.5855 239.168 82.6033 239.294 82.6033 239.324C82.6743 239.731 81.9284 240.752 81.3542 241.196C81.3904 240.517 81.5976 239.869 81.9462 239.346C82.0488 239.236 82.1783 239.174 82.3132 239.168Z" fill="#FF441F"/>
<path d="M80.7386 227.58H75.9434V241.455H80.7386V227.58Z" fill="#FF8B7B"/>
<path d="M41.168 234.839L45.9573 235.491L49.0771 222.023L44.2878 221.371L41.168 234.839Z" fill="#FF8B7B"/>
<path d="M48.1832 236.845C48.7752 237.037 49.3672 237.119 49.6336 236.845C49.6987 236.769 49.7429 236.67 49.7599 236.561C49.7769 236.452 49.7659 236.339 49.7283 236.238C49.7039 236.146 49.6653 236.06 49.6145 235.987C49.5637 235.913 49.5018 235.853 49.4323 235.809C48.6923 235.298 46.8571 235.942 46.7801 235.964C46.7576 235.972 46.7375 235.988 46.7226 236.011C46.7078 236.033 46.6989 236.061 46.6973 236.09C46.6972 236.119 46.7039 236.148 46.7165 236.173C46.7291 236.198 46.747 236.218 46.7683 236.231C47.2251 236.485 47.6984 236.691 48.1832 236.845ZM49.1185 235.957C49.1904 235.979 49.2599 236.011 49.3257 236.053C49.4135 236.105 49.4814 236.198 49.5152 236.312C49.5625 236.512 49.5152 236.586 49.5152 236.63C49.231 236.934 48.0411 236.571 47.1945 236.142C47.8205 235.927 48.4741 235.866 49.1185 235.964V235.957Z" fill="#FF441F"/>
<path d="M46.7933 236.245H46.8407C47.4327 236.105 48.7943 235.202 48.818 234.521C48.818 234.358 48.7706 234.136 48.4687 234.003C48.3623 233.955 48.2494 233.935 48.1365 233.942C48.0237 233.95 47.9132 233.986 47.8116 234.048C47.113 234.469 46.7223 235.994 46.7045 236.053C46.6947 236.074 46.6895 236.099 46.6895 236.123C46.6895 236.148 46.6947 236.172 46.7045 236.194C46.7146 236.211 46.728 236.225 46.7435 236.234C46.7591 236.243 46.7762 236.247 46.7933 236.245ZM48.3325 234.255H48.4036C48.5989 234.344 48.593 234.447 48.593 234.477C48.593 234.891 47.6458 235.639 46.9946 235.883C47.1585 235.243 47.4822 234.685 47.9181 234.292C48.0481 234.217 48.1954 234.204 48.3325 234.255Z" fill="#FF441F"/>
<path d="M46.2125 234.936L40.9733 233.056C40.8833 233.022 40.7867 233.029 40.7002 233.075C40.6137 233.121 40.5428 233.203 40.4997 233.308L38.5698 238.095C38.5247 238.217 38.5016 238.349 38.502 238.482C38.5023 238.616 38.5263 238.748 38.5721 238.869C38.6178 238.99 38.6843 239.096 38.7668 239.181C38.8493 239.266 38.9458 239.328 39.0493 239.361C40.8845 239.975 41.8021 240.167 44.105 240.989C45.5199 241.499 48.4029 242.728 50.3625 243.431C52.322 244.134 53.0442 241.832 52.2865 241.329C48.8884 239.072 47.7991 237.252 46.8993 235.565C46.7378 235.259 46.4942 235.036 46.2125 234.936Z" fill="#263238"/>
<path d="M80.6843 240.759H75.451C75.3569 240.758 75.2655 240.799 75.1937 240.875C75.122 240.952 75.0746 241.058 75.0603 241.174L74.2966 246.465C74.2795 246.597 74.2855 246.732 74.3142 246.861C74.3429 246.99 74.3936 247.109 74.4628 247.211C74.532 247.313 74.6181 247.395 74.7151 247.452C74.8122 247.508 74.9178 247.537 75.0248 247.538C76.9133 247.493 79.6365 247.353 82.0104 247.353C84.7869 247.353 86.3024 247.545 89.5584 247.545C91.5238 247.545 91.9856 245.059 91.1509 244.829C87.368 243.808 85.1835 243.697 81.8565 241.196C81.5031 240.925 81.0989 240.774 80.6843 240.759Z" fill="#263238"/>
<path opacity="0.2" d="M80.7386 227.58H75.9434V234.736H80.7386V227.58Z" fill="black"/>
<path opacity="0.2" d="M44.288 221.379L49.0773 222.023L47.3427 229.497L42.6777 228.32L44.288 221.379Z" fill="black"/>
<path d="M72.8521 89.5848C72.8521 89.5848 70.2058 134.828 67.8378 151.982C65.2271 170.77 50.0364 228.298 50.0364 228.298L41.334 226.307C41.334 226.307 52.3037 172.287 53.5173 153.684C54.8375 133.496 56.4241 91.8862 56.4241 91.8862L72.8521 89.5848Z" fill="#FF441F"/>
<path opacity="0.3" d="M68.395 108.381C68.8686 105.894 69.9578 109.025 71.2247 114.449C70.2657 127.872 69.0166 143.42 67.8207 151.989C67.5543 153.906 67.1518 156.229 66.6367 158.864C67.0926 139.712 67.1103 115.107 68.395 108.381Z" fill="black"/>
<path d="M81.8923 88.3564C81.8923 88.3564 85.3674 133.837 85.4858 152.107C85.6101 171.118 82.4784 233.352 82.4784 233.352H74.3503C74.3503 233.352 71.9112 172.228 70.8989 153.558C69.7919 133.208 65.1328 90.6578 65.1328 90.6578L81.8923 88.3564Z" fill="#FF441F"/>
<path d="M51.8545 224.635C51.89 224.635 50.487 228.579 50.487 228.579L40.6953 226.359L41.2873 222.696L51.8545 224.635Z" fill="#263238"/>
<path d="M83.8995 229.304C83.935 229.304 83.5857 233.522 83.5857 233.522H73.7111L73.3086 229.763L83.8995 229.304Z" fill="#263238"/>
<path d="M56.6621 47.8192C56.0109 49.3954 55.2946 51.053 54.6434 52.6884L52.6543 57.6168C52.009 59.2596 51.3756 60.9098 50.7658 62.56C50.1561 64.2102 49.5818 65.853 49.0905 67.4958L49.0431 64.9058C49.3892 66.2358 49.8044 67.536 50.2863 68.7982C50.5172 69.4494 50.8132 70.071 51.0677 70.7148C51.3223 71.3586 51.6597 71.9728 51.9617 72.5796C52.5898 73.8339 53.2695 75.0467 53.9981 76.213C54.3652 76.7976 54.7322 77.397 55.1229 77.9594C55.5137 78.5218 55.9399 79.1064 56.3069 79.5874L56.4253 79.7502C56.6981 80.1246 56.8553 80.6081 56.8688 81.1141C56.8823 81.6202 56.7512 82.1157 56.499 82.5119C56.2469 82.9082 55.8901 83.1793 55.4926 83.2766C55.0951 83.374 54.6828 83.2912 54.3297 83.0432C53.7177 82.6124 53.1249 82.1406 52.5537 81.6298C51.9617 81.1414 51.4407 80.6308 50.9079 80.0906C49.8413 78.997 48.8401 77.8074 47.9124 76.5312C46.9653 75.2344 46.1041 73.8436 45.3372 72.3724C44.5492 70.8737 43.864 69.2943 43.2889 67.6512C43.0355 66.9539 42.9914 66.1659 43.1645 65.4312L43.2474 65.0834C43.6973 63.152 44.2005 61.2798 44.757 59.4446C45.3135 57.6094 45.9055 55.8112 46.533 54.0426C47.1605 52.274 47.8177 50.5276 48.5103 48.8034C49.2029 47.0792 49.9015 45.392 50.7007 43.6678C51.1424 42.681 51.8777 41.952 52.747 41.6391C53.6162 41.3262 54.5492 41.4546 55.343 41.9966C56.1369 42.5386 56.7276 43.4503 56.9868 44.5337C57.246 45.617 57.1527 46.7844 56.7273 47.7822L56.6621 47.8192Z" fill="#FF8B7B"/>
<path d="M60.0586 45.1848C60.2954 50.831 55.1686 61.1984 55.1686 61.1984L44.6133 54.605C45.896 49.9284 47.8812 45.6008 50.4622 41.8548C56.0448 34.144 59.8395 40.0048 60.0586 45.1848Z" fill="#263238"/>
<path d="M52.9082 81.985L55.0335 86.425L59.4557 82.8878C58.6834 81.1576 57.4737 79.7965 56.0162 79.0176C55.6792 78.8831 55.3147 78.9039 54.9889 79.0763C54.6631 79.2487 54.3975 79.5613 54.2402 79.9575L52.9082 81.985Z" fill="#FF8B7B"/>
<path d="M56.8033 88.3194L58.8575 87.8384C59.0304 87.7984 59.1953 87.7161 59.3427 87.5961C59.49 87.476 59.6169 87.3207 59.7159 87.1391C59.815 86.9575 59.8843 86.7531 59.9199 86.5378C59.9554 86.3226 59.9565 86.1006 59.9231 85.8848L59.4554 82.9248L55.0332 86.462L55.3292 87.3574C55.4503 87.7039 55.6625 87.9881 55.9306 88.1631C56.1987 88.3381 56.5066 88.3932 56.8033 88.3194Z" fill="#FF8B7B"/>
<path d="M69.2776 16.8133C69.3191 17.2943 69.5618 17.6717 69.8104 17.6421C70.0591 17.6125 70.2248 17.2055 70.1775 16.7245C70.1301 16.2435 69.8933 15.8661 69.6447 15.8883C69.396 15.9105 69.2303 16.3249 69.2776 16.8133Z" fill="#263238"/>
<path d="M69.5254 17.6716C70.1242 19.1089 70.8705 20.4423 71.7454 21.638C71.1534 22.5038 69.9694 22.2522 69.9694 22.2522L69.5254 17.6716Z" fill="#FF5652"/>
<path d="M67.6199 14.2602C67.6507 14.2659 67.6821 14.2629 67.7118 14.2514C67.7416 14.2399 67.7688 14.2201 67.7916 14.1936C67.9969 13.9533 68.2462 13.7798 68.5177 13.6882C68.7891 13.5965 69.0745 13.5897 69.3486 13.6682C69.3765 13.6794 69.4061 13.6832 69.4353 13.6795C69.4645 13.6757 69.4928 13.6645 69.5184 13.6464C69.5439 13.6283 69.5662 13.6038 69.5839 13.5745C69.6015 13.5451 69.6141 13.5115 69.6209 13.4758C69.6357 13.4023 69.6274 13.3244 69.5977 13.2583C69.5679 13.1923 69.519 13.1429 69.461 13.1206C69.1149 13.0174 68.7539 13.0214 68.4093 13.1323C68.0647 13.2432 67.747 13.4576 67.4838 13.757C67.4617 13.7833 67.4442 13.8148 67.4322 13.8498C67.4202 13.8848 67.4141 13.9225 67.4141 13.9605C67.4141 13.9986 67.4202 14.0362 67.4322 14.0712C67.4442 14.1062 67.4617 14.1377 67.4838 14.164C67.5002 14.1906 67.5207 14.2128 67.5441 14.2293C67.5675 14.2458 67.5932 14.2563 67.6199 14.2602Z" fill="#263238"/>
<path d="M57.3418 22.1708C58.4725 26.4554 59.9762 34.3512 57.8332 37.5184C57.8332 37.5184 59.2421 41.8326 65.7304 41.1444C72.8759 40.4044 68.6904 36.3714 68.6904 36.3714C64.6767 35.6314 64.4044 32.0128 64.7359 28.557L57.3418 22.1708Z" fill="#FF8B7B"/>
<path d="M56.3008 39.0797C55.6318 37.7403 54.8859 36.2085 56.1528 35.6387C57.544 35.0097 65.3583 33.9885 68.1407 34.8469C70.9231 35.7053 70.3548 38.5469 70.3548 38.5469L56.3008 39.0797Z" fill="#FF441F"/>
<path d="M79.1819 40.8854C80.2002 42.0546 81.3013 43.3496 82.3965 44.5336C83.4917 45.7176 84.5987 46.9312 85.7117 48.1004C86.8247 49.2696 87.9613 50.3722 89.1039 51.4452C90.2464 52.5182 91.4067 53.495 92.5671 54.4052L90.1991 54.124C91.1831 53.7958 92.1145 53.2576 92.9519 52.533C93.9304 51.6781 94.8386 50.7039 95.6632 49.6248C96.5519 48.488 97.3842 47.2845 98.1556 46.021C98.5522 45.3772 98.9488 44.726 99.3396 44.0526C99.7303 43.3792 100.085 42.6688 100.411 42.0472L100.476 41.9288C100.701 41.4995 101.042 41.1856 101.436 41.0443C101.831 40.903 102.253 40.9437 102.626 41.1591C102.998 41.3744 103.296 41.75 103.466 42.2174C103.635 42.6847 103.665 43.2126 103.549 43.7048C103.324 44.6668 103.087 45.4882 102.815 46.3466C102.542 47.205 102.258 48.0486 101.938 48.8774C101.29 50.568 100.532 52.1891 99.6711 53.7244C98.7674 55.3524 97.7144 56.8425 96.5335 58.1644C95.2264 59.6229 93.7097 60.7579 92.0639 61.5092C91.7106 61.6648 91.3361 61.7312 90.9621 61.7045C90.5882 61.6778 90.2221 61.5586 89.8853 61.3538L89.6899 61.228C88.22 60.3249 86.7929 59.3169 85.4157 58.2088C84.0719 57.121 82.7695 55.9888 81.5144 54.7752C80.2594 53.5616 79.0458 52.3332 77.8618 51.0752C76.6778 49.8172 75.5411 48.5 74.3867 47.0274C73.7725 46.2265 73.4302 45.1593 73.4316 44.0498C73.4331 42.9403 73.7783 41.8746 74.3947 41.0763C75.0112 40.278 75.851 39.8091 76.738 39.768C77.625 39.7269 78.4903 40.1167 79.1523 40.8558L79.1819 40.8854Z" fill="#FF8B7B"/>
<path d="M75.5646 37.0448C75.5646 37.0448 81.5319 44.282 82.2246 89.0446C72.6815 91.938 63.4996 93.0036 56.4075 91.8788C56.07 86.2622 55.5668 66.7706 51.0084 46.2208C50.8126 45.3552 50.7629 44.4483 50.8624 43.5574C50.9619 42.6666 51.2084 41.8113 51.5864 41.046C51.9644 40.2806 52.4655 39.6217 53.058 39.1113C53.6505 38.6008 54.3213 38.2499 55.0281 38.0808C55.9339 37.8588 56.887 37.659 57.8342 37.5036C61.4326 36.8602 65.0577 36.4772 68.6915 36.3566C70.9927 36.38 73.2897 36.61 75.5646 37.0448Z" fill="#263238"/>
<path d="M70.935 44.8444C71.527 50.4462 79.223 61.2132 79.223 61.2132L88.3575 49.3732C85.6441 45.8122 82.7105 42.5239 79.5841 39.5386C72.8886 33.2856 70.4022 39.6496 70.935 44.8444Z" fill="#263238"/>
<path d="M102.956 45.6732L106.011 42.173L102.352 37.474C101.142 38.7621 100.309 40.5167 99.984 42.4616C99.9482 42.9062 100.042 43.352 100.249 43.7166C100.456 44.0811 100.761 44.3398 101.109 44.4448L102.956 45.6732Z" fill="#FF8B7B"/>
<path d="M107.135 39.6274L106.348 37.2076C106.281 37 106.182 36.8112 106.056 36.6524C105.93 36.4936 105.779 36.3681 105.614 36.2832C105.448 36.1983 105.271 36.1559 105.092 36.1583C104.913 36.1607 104.736 36.208 104.572 36.2974L102.328 37.474L105.987 42.173L106.626 41.6328C106.883 41.4229 107.073 41.1087 107.166 40.7434C107.259 40.378 107.248 39.9838 107.135 39.6274Z" fill="#FF8B7B"/>
<path d="M56.4313 17.0648C57.2897 22.9848 57.5501 26.4924 60.2141 29.3118C64.222 33.552 69.7513 30.2516 70.2781 24.2058C70.7754 18.7594 69.2895 9.9904 64.4706 8.0812C59.6517 6.172 55.5729 11.1448 56.4313 17.0648Z" fill="#FF8B7B"/>
<path d="M65.7654 19.196C67.4289 19.6696 68.7254 17.2646 68.903 16.5838C68.0919 16.68 66.6534 16.162 66.3692 15.7032C67.2572 15.7994 68.1156 14.4304 68.2222 13.905C67.28 13.6776 66.4456 13.0008 65.8956 12.018C67.3342 11.981 69.0628 8.81381 67.4822 5.97961C65.9015 3.14541 59.2948 5.52081 58.3654 3.50061C56.9801 4.50701 58.2115 5.84641 58.2115 5.84641C58.2115 5.84641 48.8638 8.06641 53.1735 12.573C50.0123 12.9282 49.5683 17.5976 52.2027 19.973C54.8371 22.3484 54.9732 23.9172 53.9254 23.7248C54.3457 24.7312 56.2223 24.8644 56.3289 23.8876C56.7729 25.9374 58.0516 28.7124 60.9998 28.261C63.9479 27.8096 66.8369 22.6518 65.7654 19.196Z" fill="#263238"/>
<path d="M53.9921 11.8848C51.7662 12.2696 50.7539 10.7008 51.3104 9.31702C48.5517 11.0782 51.5649 14.9706 53.9921 11.8848Z" fill="#263238"/>
<path d="M63.4632 18.2932C63.8463 19.5334 64.5239 20.5973 65.405 21.342C66.589 22.3188 67.6605 21.342 67.4592 19.862C67.2757 18.5004 66.441 16.347 65.2096 15.9622C64.9546 15.8576 64.681 15.8462 64.421 15.9294C64.161 16.0125 63.9254 16.1868 63.7419 16.4317C63.5584 16.6766 63.4347 16.9819 63.3854 17.3117C63.336 17.6414 63.363 17.982 63.4632 18.2932Z" fill="#FF8B7B"/>
<path d="M213.934 226.87C209.553 213.949 207.783 198.75 212.797 199.379C217.942 200 217.338 222.911 218.172 225.427C216.568 227.151 213.934 226.87 213.934 226.87Z" fill="#FF441F"/>
<path d="M215.354 202.354C214.276 207.282 213.134 214.897 212.264 221.349C212.761 223.199 213.323 225.049 213.933 226.87C213.933 226.87 216.562 227.151 218.178 225.427C217.515 223.444 217.752 208.762 215.354 202.354Z" fill="#263238"/>
<path d="M215.378 224.502C214.004 197.048 217.746 171.599 227.597 172.746C236.05 173.738 223.725 219.958 223.962 225.286C220.09 227.166 215.378 224.502 215.378 224.502Z" fill="#FF441F"/>
<path d="M221.76 224.324C223.305 204.588 231.634 181.559 235.21 189.255C239.751 199.023 228.106 222.289 227.792 226.115C224.88 226.899 221.76 224.324 221.76 224.324Z" fill="#FF441F"/>
<path d="M220.202 180.08C219.202 179.872 218.645 179.095 218.71 177.993C218.781 176.749 219.598 175.514 220.356 175.499C220.723 175.499 221.339 175.736 221.493 177.445L220.901 177.534C220.83 176.72 220.634 176.239 220.374 176.239C219.971 176.239 219.355 177.157 219.308 178.045C219.267 178.785 219.598 179.199 220.303 179.347L220.202 180.08Z" fill="#FF441F"/>
<path d="M230.835 185.045C230.404 185.001 229.993 184.803 229.651 184.475L229.97 183.861C230.521 184.305 230.947 184.423 231.113 184.172C231.362 183.772 231.19 182.603 230.675 181.989C230.261 181.493 229.775 181.53 229.236 182.122L228.852 181.559C228.99 181.364 229.159 181.206 229.348 181.095C229.536 180.984 229.741 180.921 229.95 180.912C230.158 180.902 230.366 180.945 230.561 181.039C230.756 181.132 230.934 181.274 231.083 181.456C231.806 182.314 232.048 183.883 231.575 184.63C231.487 184.769 231.374 184.879 231.245 184.951C231.117 185.023 230.976 185.055 230.835 185.045Z" fill="#FF441F"/>
<path d="M216.325 196.219C215.967 196.251 215.612 196.118 215.326 195.846C215.04 195.573 214.844 195.18 214.774 194.739C214.538 193.533 215.011 192.045 215.733 191.735C216.071 191.594 216.722 191.579 217.29 193.155L216.746 193.466C216.479 192.726 216.154 192.326 215.923 192.437C215.544 192.6 215.183 193.703 215.331 194.561C215.467 195.301 215.923 195.553 216.598 195.42L216.687 196.16C216.568 196.192 216.447 196.212 216.325 196.219Z" fill="#FF441F"/>
<path d="M210.021 211.544C209.732 211.553 209.449 211.452 209.207 211.255C208.965 211.058 208.776 210.775 208.665 210.442C208.251 209.309 208.494 207.733 209.151 207.26C209.465 207.038 210.104 206.875 210.897 208.296L210.412 208.717C210.033 208.044 209.672 207.741 209.447 207.903C209.097 208.155 208.908 209.324 209.204 210.123C209.447 210.782 209.908 210.96 210.577 210.664L210.773 211.367C210.532 211.48 210.278 211.54 210.021 211.544Z" fill="#FF441F"/>
<path d="M220.511 189.204C220.45 189.203 220.39 189.18 220.339 189.137C219.972 188.883 219.69 188.471 219.546 187.977C219.403 187.483 219.407 186.941 219.558 186.451C219.729 185.959 220.023 185.55 220.395 185.283C220.767 185.017 221.198 184.907 221.624 184.971C221.991 185.052 222.849 185.459 222.909 187.428C222.909 187.526 222.877 187.62 222.822 187.689C222.766 187.759 222.691 187.798 222.613 187.798C222.534 187.798 222.459 187.759 222.403 187.689C222.348 187.62 222.317 187.526 222.317 187.428C222.281 186.399 222.003 185.777 221.517 185.666C221.223 185.637 220.928 185.723 220.675 185.913C220.421 186.102 220.221 186.386 220.103 186.725C219.889 187.354 220.103 187.99 220.695 188.515C220.746 188.561 220.785 188.625 220.805 188.7C220.826 188.775 220.826 188.856 220.807 188.931C220.788 189.006 220.75 189.072 220.699 189.118C220.648 189.165 220.586 189.189 220.523 189.189L220.511 189.204Z" fill="white"/>
<path d="M227.526 209.176C227.458 209.177 227.393 209.148 227.34 209.094C227.288 209.04 227.253 208.964 227.242 208.88C227.233 208.833 227.232 208.784 227.239 208.737C227.246 208.689 227.26 208.643 227.281 208.603C227.302 208.562 227.329 208.527 227.361 208.5C227.393 208.472 227.429 208.453 227.467 208.444C228.272 208.236 228.716 207.785 228.728 207.171C228.701 206.803 228.584 206.454 228.392 206.173C228.2 205.892 227.943 205.693 227.657 205.602C227.124 205.439 226.65 205.802 226.336 206.616C226.319 206.66 226.295 206.699 226.266 206.731C226.237 206.763 226.203 206.788 226.166 206.804C226.129 206.819 226.09 206.826 226.052 206.823C226.013 206.82 225.975 206.807 225.94 206.786C225.905 206.765 225.873 206.735 225.848 206.698C225.822 206.662 225.802 206.619 225.79 206.573C225.777 206.527 225.772 206.479 225.774 206.43C225.776 206.382 225.786 206.334 225.804 206.29C225.949 205.799 226.228 205.388 226.592 205.13C226.956 204.871 227.381 204.782 227.793 204.877C228.211 205.006 228.585 205.299 228.86 205.713C229.134 206.127 229.296 206.641 229.32 207.178C229.32 207.644 229.131 208.769 227.591 209.169L227.526 209.176Z" fill="white"/>
<path d="M235.849 202.938C235.506 202.938 235.05 202.686 234.541 201.732L235.032 201.317C235.399 201.998 235.749 202.309 235.98 202.154C236.335 201.917 236.572 200.748 236.258 199.934C236.033 199.275 235.571 199.083 234.896 199.356L234.713 198.653C235.672 198.261 236.453 198.653 236.802 199.645C237.199 200.785 236.933 202.353 236.264 202.805C236.137 202.894 235.994 202.94 235.849 202.938Z" fill="#FF441F"/>
<path d="M234.085 231.569C234.089 227.62 232.957 223.801 230.894 220.809C231.097 220.772 231.282 220.646 231.417 220.453C231.551 220.26 231.626 220.014 231.628 219.758C231.627 219.469 231.534 219.192 231.37 218.989C231.205 218.785 230.983 218.67 230.752 218.67H210.932C210.716 218.674 210.509 218.779 210.352 218.963C210.195 219.148 210.098 219.4 210.082 219.669C210.066 219.938 210.13 220.205 210.264 220.417C210.397 220.63 210.589 220.772 210.802 220.816C209.505 222.698 208.565 224.922 208.051 227.321C207.537 229.719 207.463 232.232 207.833 234.672C208.204 237.112 209.009 239.416 210.191 241.413C211.372 243.41 212.898 245.048 214.656 246.206C214.464 246.329 214.311 246.53 214.222 246.775C214.133 247.02 214.112 247.295 214.164 247.557C214.215 247.818 214.335 248.051 214.505 248.216C214.675 248.382 214.884 248.472 215.1 248.47H226.579C226.832 248.468 227.075 248.341 227.255 248.117C227.434 247.893 227.536 247.589 227.538 247.271C227.537 247.052 227.488 246.837 227.398 246.65C227.307 246.462 227.177 246.309 227.023 246.206C229.154 244.801 230.938 242.695 232.183 240.116C233.428 237.536 234.085 234.581 234.085 231.569Z" fill="#263238"/>
</svg>
