<svg width="260" height="260" viewBox="0 0 260 260" fill="none" xmlns="http://www.w3.org/2000/svg">
<path d="M130 240.492C201.797 240.492 260 236.887 260 232.44C260 227.993 201.797 224.388 130 224.388C58.203 224.388 0 227.993 0 232.44C0 236.887 58.203 240.492 130 240.492Z" fill="#F5F5F5"/>
<path d="M26.6463 216.94C26.6463 216.94 23.4615 209.564 27.1022 202.294C30.7429 195.025 31.7956 193.318 29.4757 191.831C27.1558 190.344 26.1233 197.642 26.1233 197.642C24.9708 194.344 24.8509 190.74 25.7813 187.364C27.3972 182.1 28.4096 173.543 26.2038 172.618C23.9979 171.694 25.7813 183.288 23.8705 187.257C22.8949 184.482 22.2661 181.584 21.9998 178.636C21.7316 174.411 22.1473 167.668 20.4041 165.939C18.6608 164.211 17.5478 165.406 19.2575 174.724C20.2892 180.291 20.8591 185.944 20.9606 191.617C20.9606 191.617 17.179 179.397 14.6446 179.034C12.1102 178.672 12.1102 182.641 14.2826 186.076C16.4549 189.512 20.6052 195.658 21.2958 198.837C21.2958 198.837 17.1455 189.64 13.4109 192.435C9.67634 195.231 16.6628 200.815 19.7738 202.821C22.8849 204.827 25.0438 217.417 25.0438 217.417L26.6463 216.94Z" fill="#FF441F"/>
<path opacity="0.2" d="M26.6463 216.94C26.6463 216.94 23.4615 209.564 27.1022 202.294C30.7429 195.025 31.7956 193.318 29.4757 191.831C27.1558 190.344 26.1233 197.642 26.1233 197.642C24.9708 194.344 24.8509 190.74 25.7813 187.364C27.3972 182.1 28.4096 173.543 26.2038 172.618C23.9979 171.694 25.7813 183.288 23.8705 187.257C22.8949 184.482 22.2661 181.584 21.9998 178.636C21.7316 174.411 22.1473 167.668 20.4041 165.939C18.6608 164.211 17.5478 165.406 19.2575 174.724C20.2892 180.291 20.8591 185.944 20.9606 191.617C20.9606 191.617 17.179 179.397 14.6446 179.034C12.1102 178.672 12.1102 182.641 14.2826 186.076C16.4549 189.512 20.6052 195.658 21.2958 198.837C21.2958 198.837 17.1455 189.64 13.4109 192.435C9.67634 195.231 16.6628 200.815 19.7738 202.821C22.8849 204.827 25.0438 217.417 25.0438 217.417L26.6463 216.94Z" fill="black"/>
<path d="M24.1312 219.963C24.1312 219.963 27.2288 212.537 23.5076 205.332C19.7865 198.126 18.7003 196.426 21.0202 194.897C23.34 193.367 24.4664 200.658 24.4664 200.658C25.5778 197.344 25.6578 193.739 24.6944 190.373C23.0182 185.137 21.9119 176.594 24.1044 175.641C26.2969 174.688 24.6475 186.311 26.6053 190.237C27.5475 187.448 28.1426 184.54 28.3754 181.588C28.5966 177.356 28.1072 170.619 29.8236 168.862C31.54 167.106 32.6731 168.286 31.0707 177.633C30.1064 183.221 29.6017 188.888 29.5621 194.569C29.5621 194.569 33.2028 182.285 35.7373 181.887C38.2717 181.488 38.3119 185.443 36.1798 188.914C34.0476 192.386 29.9309 198.603 29.2805 201.782C29.2805 201.782 33.3034 192.535 37.0849 195.274C40.8665 198.012 33.9337 203.703 30.8427 205.758C27.7518 207.814 25.7404 220.433 25.7404 220.433L24.1312 219.963Z" fill="#FF441F"/>
<path d="M38.4336 214.671H12.8145L14.8862 234.118H36.3618L38.4336 214.671Z" fill="#263238"/>
<path d="M238.136 19.5081H139.139C135.417 19.5081 132.4 22.7086 132.4 26.6568V226.97C132.4 230.918 135.417 234.119 139.139 234.119H238.136C241.857 234.119 244.874 230.918 244.874 226.97V26.6568C244.874 22.7086 241.857 19.5081 238.136 19.5081Z" fill="#263238"/>
<path d="M241.078 26.6994V226.579C241.077 226.967 241.004 227.35 240.862 227.708C240.721 228.065 240.513 228.39 240.253 228.662C239.992 228.933 239.683 229.148 239.344 229.292C239.004 229.436 238.641 229.508 238.276 229.502H138.716C138.384 229.507 138.054 229.441 137.747 229.307C137.44 229.174 137.161 228.976 136.927 228.726C136.694 228.475 136.51 228.178 136.388 227.85C136.265 227.523 136.207 227.173 136.215 226.82V26.4576C136.203 26.1474 136.249 25.8378 136.35 25.5465C136.451 25.2553 136.606 24.988 136.805 24.7601C137.003 24.5322 137.242 24.348 137.508 24.2182C137.774 24.0884 138.061 24.0154 138.354 24.0035H163.249C163.597 24.0104 163.937 24.1269 164.223 24.3384C164.51 24.5499 164.73 24.8467 164.858 25.1914L165.884 27.8802C166.01 28.2228 166.23 28.5174 166.516 28.7265C166.801 28.9356 167.139 29.0496 167.486 29.0539H209.854C210.199 29.0542 210.536 28.9445 210.822 28.739C211.108 28.5336 211.329 28.2418 211.456 27.9015L212.489 25.1914C212.615 24.8473 212.835 24.5507 213.12 24.3392C213.405 24.1277 213.743 24.0109 214.091 24.0035H238.618C239.279 24.0203 239.908 24.3124 240.368 24.8168C240.829 25.3212 241.084 25.9974 241.078 26.6994Z" fill="#FF441F"/>
<path opacity="0.1" d="M235.648 24.0035C226.362 51.2682 196.177 126.17 136.195 156.713V26.4576C136.183 26.1474 136.23 25.8378 136.331 25.5465C136.432 25.2553 136.586 24.988 136.785 24.7601C136.984 24.5322 137.223 24.348 137.488 24.2182C137.754 24.0884 138.042 24.0154 138.334 24.0035H163.229C163.578 24.0104 163.917 24.1269 164.204 24.3384C164.49 24.5499 164.711 24.8467 164.838 25.1914L165.864 27.8802C165.991 28.2228 166.211 28.5174 166.496 28.7265C166.782 28.9356 167.12 29.0496 167.466 29.0539H209.854C210.2 29.0542 210.537 28.9445 210.823 28.739C211.108 28.5336 211.329 28.2418 211.457 27.9015L212.489 25.1914C212.616 24.8473 212.835 24.5507 213.121 24.3392C213.406 24.1277 213.744 24.0109 214.092 24.0035H235.648Z" fill="white"/>
<path opacity="0.1" d="M241.079 122.015V226.579C241.078 226.966 241.005 227.35 240.863 227.708C240.721 228.065 240.514 228.389 240.254 228.661C239.993 228.933 239.684 229.148 239.344 229.292C239.005 229.436 238.642 229.508 238.277 229.502H138.716C138.385 229.507 138.055 229.441 137.748 229.307C137.44 229.174 137.162 228.976 136.928 228.726C136.695 228.475 136.511 228.178 136.389 227.85C136.266 227.523 136.207 227.172 136.216 226.82V179.262C163.9 140.566 211.524 126.852 241.079 122.015Z" fill="white"/>
<path opacity="0.6" d="M188.619 24.2668C188.619 24.5692 188.535 24.8649 188.376 25.1164C188.218 25.3679 187.993 25.5639 187.73 25.6797C187.466 25.7954 187.176 25.8257 186.897 25.7667C186.617 25.7077 186.36 25.562 186.159 25.3481C185.957 25.1343 185.82 24.8618 185.764 24.5651C185.708 24.2684 185.737 23.961 185.846 23.6815C185.955 23.4021 186.14 23.1632 186.377 22.9952C186.614 22.8271 186.893 22.7374 187.178 22.7374C187.56 22.7393 187.925 22.901 188.195 23.1874C188.465 23.4738 188.618 23.8617 188.619 24.2668Z" fill="white"/>
<path opacity="0.6" d="M191.529 24.2668C191.509 24.5118 191.403 24.74 191.233 24.9063C191.062 25.0726 190.839 25.1649 190.607 25.1649C190.375 25.1649 190.152 25.0726 189.981 24.9063C189.81 24.74 189.705 24.5118 189.685 24.2668C189.674 24.1313 189.69 23.9949 189.731 23.8663C189.773 23.7376 189.839 23.6195 189.925 23.5193C190.012 23.4192 190.117 23.3393 190.235 23.2846C190.352 23.2299 190.479 23.2017 190.607 23.2017C190.735 23.2017 190.862 23.2299 190.979 23.2846C191.096 23.3393 191.202 23.4192 191.288 23.5193C191.375 23.6195 191.441 23.7376 191.483 23.8663C191.524 23.9949 191.54 24.1313 191.529 24.2668Z" fill="white"/>
<path opacity="0.5" d="M239.035 36.793H137.182V220.141H239.035V36.793Z" fill="white"/>
<path d="M236.266 58.5948H139.938V84.9135H236.266V58.5948Z" fill="white"/>
<path d="M236.266 86.3502H139.938V112.669H236.266V86.3502Z" fill="white"/>
<path d="M236.266 40.6838H139.938V56.4394H236.266V40.6838Z" fill="#FF441F"/>
<g opacity="0.5">
<path d="M172.396 74.5993L171.29 73.0202L170.183 74.5993H169.07L170.747 72.2875L169.144 70.0469H170.264L171.316 71.5406L172.369 70.0469H173.455L171.846 72.2733L173.529 74.5993H172.396Z" fill="black"/>
<path d="M178.081 73.6461V74.5851H173.931V73.8738L176.17 71.6189C176.713 71.0641 176.84 70.7155 176.84 70.3883C176.84 69.8406 176.485 69.5205 175.794 69.5205C175.54 69.5036 175.286 69.5517 175.052 69.6606C174.819 69.7695 174.614 69.9361 174.453 70.1465L173.723 69.549C173.982 69.2185 174.31 68.9569 174.681 68.7852C175.053 68.6135 175.457 68.5365 175.861 68.5602C177.082 68.5602 177.873 69.2146 177.873 70.2745C177.864 70.6435 177.776 71.0055 177.614 71.3324C177.453 71.6593 177.222 71.9423 176.941 72.1595L175.426 73.6461H178.081Z" fill="black"/>
</g>
<path d="M216.25 72.1027C216.252 73.0444 215.99 73.9655 215.497 74.7491C215.005 75.5328 214.304 76.1438 213.484 76.5049C212.665 76.8659 211.762 76.9608 210.891 76.7774C210.021 76.594 209.221 76.1406 208.593 75.4747C207.965 74.8087 207.538 73.9602 207.365 73.0364C207.192 72.1126 207.282 71.1552 207.622 70.2854C207.962 69.4156 208.538 68.6725 209.277 68.1501C210.016 67.6278 210.884 67.3497 211.772 67.3511C212.959 67.353 214.097 67.8542 214.937 68.7449C215.776 69.6356 216.249 70.843 216.25 72.1027Z" fill="#FF441F"/>
<path d="M212.106 69.4493H211.436V74.7629H212.106V69.4493Z" fill="white"/>
<path d="M214.272 71.7469H209.264V72.4583H214.272V71.7469Z" fill="white"/>
<path d="M229.669 72.1027C229.669 73.0424 229.406 73.9611 228.914 74.7425C228.422 75.5239 227.722 76.1329 226.904 76.4925C226.085 76.8522 225.185 76.9463 224.316 76.7629C223.447 76.5796 222.649 76.127 222.023 75.4625C221.396 74.798 220.97 73.9514 220.797 73.0296C220.624 72.1079 220.713 71.1525 221.052 70.2843C221.391 69.4161 221.965 68.674 222.701 68.1519C223.438 67.6298 224.304 67.3511 225.19 67.3511C226.377 67.353 227.515 67.8542 228.355 68.7449C229.194 69.6355 229.667 70.843 229.669 72.1027Z" fill="#FF441F"/>
<path d="M227.69 71.7469H222.682V72.4583H227.69V71.7469Z" fill="white"/>
<path d="M148.036 76.4914C147.75 76.5977 147.477 76.7411 147.224 76.9182C147.112 77.2406 147.067 77.585 147.093 77.9276C147.118 78.2703 147.214 78.6029 147.372 78.9027C147.707 79.1801 151.308 79.8346 153.185 79.6852C155.062 79.5358 156.906 79.6852 158.924 79.6852C160.943 79.6852 164.778 79.358 165.019 78.9027C165.144 78.6099 165.208 78.2923 165.208 77.9709C165.208 77.6496 165.144 77.3319 165.019 77.0391C164.174 76.3197 163.111 75.9528 162.029 76.0077C160.795 76.1855 148.036 76.4914 148.036 76.4914Z" fill="#FF441F"/>
<path opacity="0.3" d="M148.036 76.4914C147.75 76.5977 147.477 76.7411 147.224 76.9182C147.112 77.2406 147.067 77.585 147.093 77.9276C147.118 78.2703 147.214 78.6029 147.372 78.9027C147.707 79.1801 151.308 79.8346 153.185 79.6852C155.062 79.5358 156.906 79.6852 158.924 79.6852C160.943 79.6852 164.778 79.358 165.019 78.9027C165.144 78.6099 165.208 78.2923 165.208 77.9709C165.208 77.6496 165.144 77.3319 165.019 77.0391C164.174 76.3197 163.111 75.9528 162.029 76.0077C160.795 76.1855 148.036 76.4914 148.036 76.4914Z" fill="white"/>
<path d="M147.875 75.204C147.815 75.5881 147.68 76.4416 147.875 76.6266C148.963 77.1552 150.173 77.3309 151.355 77.1316C152.67 76.9764 153.995 76.9265 155.317 76.9822C157.543 76.9822 158.469 77.0818 158.924 76.9822C159.38 76.8827 159.991 76.8329 160.795 76.7831C161.6 76.7333 162.74 76.6337 163.048 76.6337C163.356 76.6337 163.524 76.8613 163.926 76.6337C164.192 76.4719 164.465 76.3247 164.744 76.1927C164.744 76.1927 164.711 75.6805 164.563 75.6023C164.416 75.524 164.329 75.6023 164.302 75.4316C164.275 75.2609 164.302 75.3035 164.208 75.1399C164.114 74.9763 163.926 74.7629 163.926 74.7629L147.875 75.204Z" fill="#263238"/>
<path opacity="0.2" d="M147.875 75.204C147.815 75.5881 147.68 76.4416 147.875 76.6266C148.963 77.1552 150.173 77.3309 151.355 77.1316C152.67 76.9764 153.995 76.9265 155.317 76.9822C157.543 76.9822 158.469 77.0818 158.924 76.9822C159.38 76.8827 159.991 76.8329 160.795 76.7831C161.6 76.7333 162.74 76.6337 163.048 76.6337C163.356 76.6337 163.524 76.8613 163.926 76.6337C164.192 76.4719 164.465 76.3247 164.744 76.1927C164.744 76.1927 164.711 75.6805 164.563 75.6023C164.416 75.524 164.329 75.6023 164.302 75.4316C164.275 75.2609 164.302 75.3035 164.208 75.1399C164.114 74.9763 163.926 74.7629 163.926 74.7629L147.875 75.204Z" fill="white"/>
<path d="M154.298 75.4813C155 75.7723 155.752 75.9032 156.504 75.8654C157.056 75.8297 157.609 75.8297 158.16 75.8654C158.73 75.9152 158.516 75.6521 159.159 76.0077C159.803 76.3634 159.776 76.719 160.795 76.1855C161.814 75.6521 161.935 75.588 162.357 75.588C162.674 75.632 162.996 75.5954 163.296 75.4813C163.665 75.332 164.744 74.955 164.744 74.955C164.744 74.955 164.778 74.4286 163.853 74.4001C162.927 74.3717 153.125 74.706 152.85 74.955C152.575 75.2039 154.298 75.4813 154.298 75.4813Z" fill="#FF441F"/>
<path opacity="0.2" d="M154.298 75.4813C155 75.7723 155.752 75.9032 156.504 75.8654C157.056 75.8297 157.609 75.8297 158.16 75.8654C158.73 75.9152 158.516 75.6521 159.159 76.0077C159.803 76.3634 159.776 76.719 160.795 76.1855C161.814 75.6521 161.935 75.588 162.357 75.588C162.674 75.632 162.996 75.5954 163.296 75.4813C163.665 75.332 164.744 74.955 164.744 74.955C164.744 74.955 164.778 74.4286 163.853 74.4001C162.927 74.3717 153.125 74.706 152.85 74.955C152.575 75.2039 154.298 75.4813 154.298 75.4813Z" fill="black"/>
<path d="M148.847 74.4001C148.847 74.4001 147.278 74.6562 147.231 74.955C147.184 75.2537 147.493 75.2822 147.714 75.4813C147.852 75.6062 147.961 75.7616 148.036 75.9366C148.201 75.807 148.393 75.7213 148.596 75.6866C148.799 75.652 149.007 75.6694 149.203 75.7374C149.746 76.0148 150.007 76.0362 150.148 75.9366C150.289 75.837 150.604 76.0717 151.073 75.9935C151.348 75.9374 151.63 75.9374 151.905 75.9935C152.213 75.9935 152.662 75.4173 152.924 75.4671C153.433 75.3608 153.927 75.1839 154.392 74.9408L148.847 74.4001Z" fill="#FF441F"/>
<path d="M147.8 72.0599C147.676 72.423 147.676 72.8207 147.8 73.1838C147.906 73.7329 147.906 74.2992 147.8 74.8483C148.646 74.6706 149.516 74.6706 150.361 74.8483C151.642 75.1541 151.923 75.6947 153.157 75.396C153.733 75.1675 154.346 75.0635 154.961 75.0901C155.906 75.0901 157.187 74.6633 158.313 74.8483C159.44 75.0332 160.888 74.6633 160.928 74.8483C160.968 75.0332 163.154 74.8483 163.154 74.8483C163.154 74.8483 164.193 74.6064 164.193 74.3646C164.193 74.1227 164.053 71.5905 164.053 71.5905L147.8 72.0599Z" fill="#263238"/>
<path d="M151.074 74.2508C151.074 74.2508 155.861 74.0516 156.505 74.0516C157.149 74.0516 157.692 74.1512 158.778 74.1512C159.558 74.2335 160.341 74.2668 161.125 74.2508C162.198 74.1512 163.136 74.2508 163.284 74.1654C162.832 74.2109 162.384 74.2894 161.943 74.4002C161.535 74.5213 161.112 74.5741 160.689 74.5567C160.382 74.4496 160.06 74.3968 159.737 74.4002C159.67 74.45 159.066 74.4002 158.932 74.5851C158.798 74.7701 158.745 75.5098 158.671 75.4814C158.456 75.1726 158.169 74.9277 157.839 74.7701C157.276 74.5282 156.384 74.1797 156.257 74.4002C156.13 74.6207 155.332 74.4784 155.07 74.7701C154.825 75.004 154.519 75.155 154.192 75.204C154.078 75.2111 151.074 74.2508 151.074 74.2508Z" fill="#FF441F"/>
<path d="M147.653 71.9959C147.6 72.38 147.466 73.2265 147.653 73.4185C147.841 73.6106 149.216 74.1299 151.14 73.9165C152.453 73.7611 153.775 73.7112 155.096 73.7671C157.328 73.7671 158.254 73.8667 158.703 73.7671C159.323 73.6643 159.947 73.5954 160.574 73.5608C161.385 73.511 162.518 73.4114 162.826 73.4114C163.135 73.4114 163.302 73.6391 163.705 73.4114C163.969 73.2457 164.242 73.0961 164.523 72.9633C164.523 72.9633 164.489 72.4512 164.348 72.38C164.208 72.3089 164.107 72.38 164.087 72.2022C164.067 72.0244 164.087 72.0742 163.993 71.9106L163.705 71.5336L147.653 71.9959Z" fill="#263238"/>
<path opacity="0.2" d="M147.653 71.9959C147.6 72.38 147.466 73.2265 147.653 73.4185C147.841 73.6106 149.216 74.1299 151.14 73.9165C152.453 73.7611 153.775 73.7112 155.096 73.7671C157.328 73.7671 158.254 73.8667 158.703 73.7671C159.323 73.6643 159.947 73.5954 160.574 73.5608C161.385 73.511 162.518 73.4114 162.826 73.4114C163.135 73.4114 163.302 73.6391 163.705 73.4114C163.969 73.2457 164.242 73.0961 164.523 72.9633C164.523 72.9633 164.489 72.4512 164.348 72.38C164.208 72.3089 164.107 72.38 164.087 72.2022C164.067 72.0244 164.087 72.0742 163.993 71.9106L163.705 71.5336L147.653 71.9959Z" fill="white"/>
<path d="M152.641 71.1068L158.709 74.955L163.925 70.929L152.641 71.1068Z" fill="#FF441F"/>
<path opacity="0.6" d="M152.641 71.1068L158.709 74.955L163.925 70.929L152.641 71.1068Z" fill="white"/>
<path d="M147.225 71.0072L149.203 74.5282L157.309 71.185L147.225 71.0072Z" fill="#FF441F"/>
<path opacity="0.6" d="M147.225 71.0072L149.203 74.5282L157.309 71.185L147.225 71.0072Z" fill="white"/>
<path d="M147.661 71.2348C147.661 71.2348 146.615 72.2876 146.95 72.5934C147.285 72.8993 146.883 73.3474 146.883 73.3474C147.52 73.1208 148.21 73.1208 148.847 73.3474C149.774 73.6471 150.764 73.6471 151.69 73.3474C152.307 73.1483 153.702 73.0914 154.158 72.7428C154.7 72.1888 155.192 71.5815 155.626 70.929L147.661 71.2348Z" fill="#FF441F"/>
<path d="M157.141 70.9289C157.141 70.9289 158.83 72.7926 160.037 72.9348C161.244 73.0771 161.412 72.7854 162.833 72.9348C164.254 73.0842 164.402 73.5252 164.637 72.9775C164.758 72.2146 164.758 71.4357 164.637 70.6729L157.141 70.9289Z" fill="#FF441F"/>
<path opacity="0.2" d="M147.661 71.2348C147.661 71.2348 146.615 72.2876 146.95 72.5934C147.285 72.8993 146.883 73.3474 146.883 73.3474C147.52 73.1208 148.21 73.1208 148.847 73.3474C149.774 73.6471 150.764 73.6471 151.69 73.3474C152.307 73.1483 153.702 73.0914 154.158 72.7428C154.7 72.1888 155.192 71.5815 155.626 70.929L147.661 71.2348Z" fill="black"/>
<path opacity="0.2" d="M157.141 70.9289C157.141 70.9289 158.83 72.7926 160.037 72.9348C161.244 73.0771 161.412 72.7854 162.833 72.9348C164.254 73.0842 164.402 73.5252 164.637 72.9775C164.758 72.2146 164.758 71.4357 164.637 70.6729L157.141 70.9289Z" fill="black"/>
<path d="M147.467 76.4913C147.855 76.3389 148.266 76.2618 148.68 76.2637C148.942 76.3633 151.972 76.6621 152.267 76.6621C152.743 76.5601 153.233 76.5601 153.709 76.6621C154.299 76.8612 154.225 77.0177 155.083 76.8399C155.578 76.6939 156.086 76.6056 156.599 76.5767C157.048 76.5767 157.142 76.4415 157.477 76.5767C157.952 76.7381 158.447 76.8173 158.945 76.8114C159.489 76.8114 159.455 77.1457 160.253 76.8826C160.699 76.6584 161.182 76.5256 161.674 76.4913C162.124 76.4913 162.693 76.4415 162.908 76.4913C163.123 76.5411 162.988 76.3917 163.525 76.4913C163.803 76.5559 164.093 76.5286 164.356 76.4131C164.478 76.532 164.608 76.6414 164.745 76.7403C164.899 76.8399 164.021 76.9252 163.713 76.9821C163.404 77.039 163.806 77.0319 163.042 77.2098C162.278 77.3876 162.499 77.5156 161.909 77.4943C161.319 77.4729 161.373 77.5512 160.964 77.4943C160.555 77.4374 160.695 77.7148 159.938 77.4943C159.403 77.3347 158.855 77.2323 158.302 77.1884C158.181 77.1884 158.684 77.1173 157.946 77.3236C157.209 77.5299 157.732 77.3591 156.807 77.5654C155.881 77.7717 156.049 77.9993 155.466 77.7504C154.882 77.5014 154.795 77.4445 154.52 77.5227C154.245 77.601 154.473 77.601 154.071 77.6223C153.669 77.6437 153.83 77.6223 153.401 77.6223C152.798 77.7332 152.188 77.8021 151.577 77.8286C151.128 77.8286 150.511 77.5441 150.202 77.5441C149.826 77.4899 149.452 77.4139 149.083 77.3165C148.613 77.2453 148.278 77.3165 148.137 77.16C147.996 77.0035 147.467 76.4913 147.467 76.4913Z" fill="#FF441F"/>
<path opacity="0.2" d="M147.467 76.4913C147.855 76.3389 148.266 76.2618 148.68 76.2637C148.942 76.3633 151.972 76.6621 152.267 76.6621C152.743 76.5601 153.233 76.5601 153.709 76.6621C154.299 76.8612 154.225 77.0177 155.083 76.8399C155.578 76.6939 156.086 76.6056 156.599 76.5767C157.048 76.5767 157.142 76.4415 157.477 76.5767C157.952 76.7381 158.447 76.8173 158.945 76.8114C159.489 76.8114 159.455 77.1457 160.253 76.8826C160.699 76.6584 161.182 76.5256 161.674 76.4913C162.124 76.4913 162.693 76.4415 162.908 76.4913C163.123 76.5411 162.988 76.3917 163.525 76.4913C163.803 76.5559 164.093 76.5286 164.356 76.4131C164.478 76.532 164.608 76.6414 164.745 76.7403C164.899 76.8399 164.021 76.9252 163.713 76.9821C163.404 77.039 163.806 77.0319 163.042 77.2098C162.278 77.3876 162.499 77.5156 161.909 77.4943C161.319 77.4729 161.373 77.5512 160.964 77.4943C160.555 77.4374 160.695 77.7148 159.938 77.4943C159.403 77.3347 158.855 77.2323 158.302 77.1884C158.181 77.1884 158.684 77.1173 157.946 77.3236C157.209 77.5299 157.732 77.3591 156.807 77.5654C155.881 77.7717 156.049 77.9993 155.466 77.7504C154.882 77.5014 154.795 77.4445 154.52 77.5227C154.245 77.601 154.473 77.601 154.071 77.6223C153.669 77.6437 153.83 77.6223 153.401 77.6223C152.798 77.7332 152.188 77.8021 151.577 77.8286C151.128 77.8286 150.511 77.5441 150.202 77.5441C149.826 77.4899 149.452 77.4139 149.083 77.3165C148.613 77.2453 148.278 77.3165 148.137 77.16C147.996 77.0035 147.467 76.4913 147.467 76.4913Z" fill="black"/>
<path d="M165.381 71.7398C165.636 71.6047 165.488 71.1423 165.488 70.8365C165.488 67.351 161.251 64.5271 156.028 64.5271C150.805 64.5271 146.567 67.3724 146.567 70.8365C146.567 71.1423 146.467 71.5478 146.675 71.7398C147.385 72.4511 151.629 71.6474 156.061 71.5833C160.111 71.5122 164.355 72.2662 165.381 71.7398Z" fill="#FF441F"/>
<path opacity="0.3" d="M165.381 71.7398C165.636 71.6047 165.488 71.1423 165.488 70.8365C165.488 67.351 161.251 64.5271 156.028 64.5271C150.805 64.5271 146.567 67.3724 146.567 70.8365C146.567 71.1423 146.467 71.5478 146.675 71.7398C147.385 72.4511 151.629 71.6474 156.061 71.5833C160.111 71.5122 164.355 72.2662 165.381 71.7398Z" fill="white"/>
<path d="M156.041 65.7007C156.041 65.7007 156.262 66.2271 156.041 66.2271C155.821 66.2271 156.041 65.7007 156.041 65.7007Z" fill="#FF441F"/>
<path d="M158.785 65.7007C158.785 65.7007 159.731 65.8501 159.59 65.9639C159.449 66.0777 158.785 65.7007 158.785 65.7007Z" fill="#FF441F"/>
<path d="M153.668 65.7007C153.668 65.7007 153.112 66.0777 152.998 65.9852C152.884 65.8927 153.668 65.7007 153.668 65.7007Z" fill="#FF441F"/>
<g opacity="0.5">
<path d="M170.746 102.149L169.639 100.569L168.533 102.149H167.42L169.096 99.8367L167.494 97.589H168.613L169.666 99.0827L170.719 97.589H171.805L170.196 99.8154L171.879 102.149H170.746Z" fill="black"/>
<path d="M174.338 96.1735V102.149H173.292V97.1195H172.105V96.1877L174.338 96.1735Z" fill="black"/>
</g>
<path d="M214.6 99.6518C214.601 100.593 214.339 101.514 213.847 102.298C213.355 103.081 212.655 103.692 211.836 104.053C211.016 104.415 210.114 104.51 209.243 104.327C208.373 104.144 207.573 103.692 206.945 103.026C206.317 102.361 205.889 101.513 205.716 100.59C205.542 99.6667 205.63 98.7095 205.97 97.8395C206.309 96.9696 206.884 96.226 207.622 95.7027C208.359 95.1795 209.227 94.9003 210.114 94.9003C211.303 94.9003 212.443 95.4007 213.284 96.2915C214.125 97.1824 214.598 98.391 214.6 99.6518Z" fill="#FF441F"/>
<path d="M210.452 96.9915H209.781V102.305H210.452V96.9915Z" fill="white"/>
<path d="M212.624 99.2961H207.615V100.007H212.624V99.2961Z" fill="white"/>
<path d="M228.018 99.6518C228.019 100.594 227.757 101.515 227.265 102.298C226.772 103.082 226.072 103.693 225.252 104.054C224.432 104.415 223.53 104.51 222.659 104.327C221.788 104.143 220.988 103.69 220.361 103.024C219.733 102.358 219.306 101.509 219.133 100.586C218.96 99.6618 219.049 98.7044 219.39 97.8346C219.73 96.9648 220.306 96.2216 221.045 95.6993C221.783 95.1769 222.651 94.8989 223.539 94.9003C224.127 94.9003 224.71 95.0232 225.253 95.262C225.796 95.5008 226.29 95.8508 226.706 96.292C227.122 96.7332 227.452 97.257 227.677 97.8335C227.902 98.41 228.018 99.0279 228.018 99.6518Z" fill="#FF441F"/>
<path d="M226.04 99.2961H221.031V100.007H226.04V99.2961Z" fill="white"/>
<path d="M156.264 91.3507H152.516C151.468 91.7538 150.559 92.4838 149.909 93.4448C149.259 94.4058 148.899 95.5529 148.875 96.7354H159.898C159.875 95.5535 159.516 94.4066 158.867 93.4455C158.219 92.4843 157.311 91.7541 156.264 91.3507Z" fill="#FF441F"/>
<path opacity="0.6" d="M156.264 91.3507H152.516C151.468 91.7538 150.559 92.4838 149.909 93.4448C149.259 94.4058 148.899 95.5529 148.875 96.7354H159.898C159.875 95.5535 159.516 94.4066 158.867 93.4455C158.219 92.4843 157.311 91.7541 156.264 91.3507Z" fill="white"/>
<path opacity="0.2" d="M153.655 88.1259L152.883 88.2736L155.018 100.839L155.79 100.691L153.655 88.1259Z" fill="black"/>
<path d="M159.066 109.738L160.065 96.8492H148.707L149.713 109.738H159.066Z" fill="#FF441F"/>
<path d="M160.581 97.71H148.197L148.405 95.8179H160.373L160.581 97.71Z" fill="#FF441F"/>
<path opacity="0.4" d="M160.581 97.71H148.197L148.405 95.8179H160.373L160.581 97.71Z" fill="white"/>
<path d="M236.266 115.422H139.938V131.177H236.266V115.422Z" fill="#FF441F"/>
<path d="M174.768 121.909C174.768 123.225 173.85 124.043 172.368 124.043H171.101V125.764H170.055V119.796H172.368C173.85 119.789 174.768 120.593 174.768 121.909ZM173.716 121.909C173.716 121.162 173.239 120.728 172.321 120.728H171.101V123.097H172.321C173.239 123.097 173.716 122.663 173.716 121.909Z" fill="white"/>
<path d="M179.274 123.09V125.757H178.322V125.202C178.167 125.418 177.962 125.588 177.728 125.696C177.493 125.805 177.236 125.848 176.981 125.821C176.002 125.821 175.379 125.245 175.379 124.455C175.379 123.666 175.862 123.097 177.169 123.097H178.275V123.026C178.275 122.407 177.92 122.037 177.203 122.037C176.733 122.032 176.276 122.192 175.902 122.492L175.506 121.717C176.039 121.328 176.676 121.131 177.323 121.155C178.557 121.155 179.274 121.774 179.274 123.09ZM178.269 124.334V123.808H177.229C176.559 123.808 176.365 124.078 176.365 124.413C176.365 124.747 176.666 125.046 177.183 125.046C177.412 125.063 177.641 125.004 177.837 124.877C178.033 124.749 178.186 124.559 178.275 124.334H178.269Z" fill="white"/>
<path d="M184.502 121.205L182.491 126.127C182.401 126.518 182.187 126.864 181.886 127.109C181.585 127.353 181.214 127.481 180.835 127.471C180.417 127.481 180.009 127.335 179.682 127.059L180.084 126.269C180.285 126.472 180.551 126.587 180.828 126.589C181.184 126.589 181.391 126.404 181.586 125.956L181.653 125.778L179.782 121.205H180.828L182.169 124.576L183.51 121.205H184.502Z" fill="white"/>
<path d="M192.316 123.147V125.757H191.31V123.289C191.31 122.478 190.955 122.08 190.344 122.08C189.734 122.08 189.225 122.542 189.225 123.445V125.757H188.219V123.289C188.219 122.478 187.87 122.08 187.253 122.08C186.637 122.08 186.14 122.542 186.14 123.445V125.757H185.135V121.205H186.094V121.781C186.269 121.573 186.486 121.41 186.728 121.302C186.97 121.193 187.232 121.143 187.495 121.155C187.778 121.133 188.061 121.192 188.315 121.324C188.569 121.457 188.786 121.659 188.943 121.909C189.14 121.662 189.387 121.466 189.666 121.335C189.945 121.205 190.248 121.143 190.552 121.155C190.799 121.134 191.047 121.172 191.277 121.267C191.508 121.362 191.716 121.51 191.885 121.701C192.054 121.892 192.181 122.122 192.255 122.372C192.33 122.622 192.351 122.887 192.316 123.147Z" fill="white"/>
<path d="M197.666 123.822H194.313C194.376 124.154 194.553 124.45 194.809 124.652C195.066 124.854 195.383 124.949 195.701 124.918C195.918 124.926 196.133 124.886 196.335 124.801C196.536 124.715 196.717 124.585 196.868 124.42L197.404 125.074C197.187 125.328 196.919 125.527 196.619 125.656C196.32 125.786 195.997 125.842 195.674 125.821C195.371 125.849 195.065 125.809 194.776 125.704C194.488 125.598 194.224 125.43 194.001 125.209C193.778 124.989 193.601 124.721 193.481 124.423C193.362 124.125 193.303 123.804 193.308 123.481C193.299 123.171 193.351 122.862 193.46 122.573C193.569 122.285 193.732 122.024 193.94 121.806C194.149 121.588 194.397 121.417 194.67 121.305C194.943 121.193 195.234 121.142 195.527 121.155C195.819 121.142 196.11 121.195 196.382 121.31C196.654 121.424 196.9 121.598 197.104 121.82C197.308 122.042 197.466 122.307 197.568 122.598C197.669 122.889 197.712 123.2 197.692 123.509C197.679 123.595 197.672 123.723 197.666 123.822ZM194.313 123.111H196.754C196.722 122.798 196.578 122.51 196.353 122.305C196.127 122.1 195.837 121.994 195.54 122.008C195.238 121.988 194.94 122.091 194.707 122.296C194.474 122.501 194.323 122.792 194.286 123.111H194.313Z" fill="white"/>
<path d="M202.883 123.146V125.757H201.877V123.289C201.877 122.478 201.495 122.079 200.852 122.079C200.684 122.069 200.515 122.099 200.359 122.166C200.203 122.233 200.063 122.336 199.949 122.467C199.835 122.598 199.75 122.755 199.7 122.925C199.649 123.095 199.635 123.275 199.658 123.452V125.757H198.652V121.204H199.604V121.795C199.792 121.579 200.022 121.41 200.278 121.299C200.534 121.188 200.81 121.139 201.086 121.155C201.334 121.134 201.584 121.171 201.816 121.265C202.049 121.359 202.259 121.507 202.431 121.698C202.603 121.888 202.732 122.117 202.811 122.368C202.889 122.618 202.914 122.884 202.883 123.146Z" fill="white"/>
<path d="M206.743 125.515C206.46 125.724 206.122 125.831 205.778 125.821C205.581 125.844 205.381 125.82 205.194 125.751C205.007 125.683 204.836 125.571 204.695 125.424C204.553 125.277 204.444 125.099 204.375 124.902C204.306 124.705 204.279 124.494 204.296 124.285V122.094H203.592V121.24H204.296V120.194H205.302V121.24H206.435V122.094H205.281V124.228C205.281 124.676 205.489 124.939 205.878 124.939C206.08 124.946 206.278 124.881 206.441 124.754L206.743 125.515Z" fill="white"/>
<path d="M236.266 133.325H139.938V162.568H236.266V133.325Z" fill="white"/>
<g opacity="0.5">
<path d="M188.828 148.057L189.747 148.597L189.432 149.173L188.5 148.597V149.693H187.89V148.604L186.964 149.173L186.643 148.597L187.568 148.057L186.643 147.516L186.991 146.911L187.916 147.488V146.399H188.527V147.495L189.459 146.911L189.774 147.495L188.828 148.057Z" fill="black"/>
<path d="M192.356 148.057L193.274 148.597L192.959 149.174L192.027 148.597V149.693H191.417V148.605L190.492 149.174L190.17 148.597L191.095 148.057L190.17 147.516L190.492 146.933L191.417 147.509V146.421H192.027V147.516L192.959 146.933L193.274 147.516L192.356 148.057Z" fill="black"/>
<path d="M195.85 148.057L196.761 148.597L196.453 149.174L195.514 148.597V149.693H194.897V148.605L193.972 149.174L193.65 148.597L194.576 148.057L193.65 147.516L193.972 146.933L194.897 147.509V146.421H195.514V147.516L196.453 146.933L196.761 147.516L195.85 148.057Z" fill="black"/>
<path d="M199.356 148.057L200.268 148.597L199.959 149.174L199.027 148.597V149.693H198.417V148.605L197.492 149.174L197.17 148.597L198.095 148.057L197.17 147.516L197.492 146.933L198.417 147.509V146.421H199.061V147.516L199.993 146.933L200.301 147.516L199.356 148.057Z" fill="black"/>
<path d="M204.92 148.057L205.839 148.597L205.524 149.173L204.592 148.597V149.693H203.981V148.604L203.056 149.173L202.734 148.597L203.66 148.057L202.734 147.516L203.083 146.911L204.008 147.488V146.399H204.618V147.495L205.55 146.911L205.866 147.495L204.92 148.057Z" fill="black"/>
<path d="M208.446 148.057L209.364 148.597L209.049 149.174L208.117 148.597V149.693H207.507V148.605L206.582 149.174L206.26 148.597L207.185 148.057L206.26 147.516L206.582 146.933L207.507 147.509V146.421H208.117V147.516L209.049 146.933L209.364 147.516L208.446 148.057Z" fill="black"/>
<path d="M211.934 148.057L212.852 148.597L212.537 149.174L211.605 148.597V149.693H210.995V148.605L210.07 149.174L209.748 148.597L210.673 148.057L209.748 147.516L210.07 146.933L210.995 147.509V146.421H211.605V147.516L212.537 146.933L212.852 147.516L211.934 148.057Z" fill="black"/>
<path d="M215.446 148.057L216.358 148.597L216.05 149.174L215.111 148.597V149.693H214.501V148.605L213.576 149.174L213.254 148.597L214.179 148.057L213.254 147.516L213.576 146.933L214.501 147.509V146.421H215.151V147.516L216.09 146.933L216.398 147.516L215.446 148.057Z" fill="black"/>
<path d="M221.01 148.057L221.929 148.597L221.613 149.173L220.681 148.597V149.693H220.071V148.604L219.146 149.173L218.824 148.597L219.749 148.057L218.824 147.516L219.173 146.911L220.098 147.488V146.399H220.708V147.495L221.64 146.911L221.955 147.495L221.01 148.057Z" fill="black"/>
<path d="M224.539 148.057L225.458 148.597L225.143 149.174L224.211 148.597V149.693H223.601V148.605L222.675 149.174L222.354 148.597L223.279 148.057L222.354 147.516L222.675 146.933L223.601 147.509V146.421H224.211V147.516L225.143 146.933L225.458 147.516L224.539 148.057Z" fill="black"/>
<path d="M228.025 148.057L228.943 148.597L228.628 149.174L227.696 148.597V149.693H227.086V148.605L226.161 149.174L225.846 148.597L226.764 148.057L225.846 147.516L226.161 146.933L227.086 147.509V146.421H227.696V147.516L228.628 146.933L228.943 147.516L228.025 148.057Z" fill="black"/>
</g>
<path d="M162.632 142.025H148.967C147.956 142.025 147.137 142.894 147.137 143.967V152.268C147.137 153.34 147.956 154.209 148.967 154.209H162.632C163.643 154.209 164.462 153.34 164.462 152.268V143.967C164.462 142.894 163.643 142.025 162.632 142.025Z" fill="#FF441F"/>
<g opacity="0.5">
<path d="M164.462 148.59H147.137V151.627H164.462V148.59Z" fill="black"/>
</g>
<g opacity="0.5">
<path d="M163.068 146.421C163.065 146.601 163.012 146.776 162.917 146.924C162.821 147.073 162.686 147.188 162.529 147.256C162.372 147.324 162.199 147.341 162.033 147.306C161.867 147.271 161.714 147.184 161.594 147.058C161.473 146.931 161.391 146.769 161.356 146.593C161.321 146.417 161.337 146.234 161.399 146.067C161.462 145.899 161.57 145.756 161.709 145.653C161.848 145.55 162.013 145.493 162.183 145.489C162.299 145.485 162.415 145.506 162.524 145.552C162.633 145.597 162.731 145.665 162.814 145.753C162.897 145.84 162.962 145.944 163.006 146.059C163.049 146.174 163.07 146.297 163.068 146.421Z" fill="black"/>
</g>
<path d="M161.941 146.421C161.942 146.603 161.892 146.781 161.798 146.933C161.703 147.085 161.568 147.204 161.41 147.274C161.252 147.344 161.077 147.363 160.909 147.328C160.74 147.293 160.586 147.205 160.464 147.077C160.343 146.948 160.26 146.784 160.227 146.605C160.194 146.426 160.212 146.241 160.278 146.073C160.344 145.905 160.456 145.762 160.6 145.662C160.743 145.562 160.911 145.509 161.083 145.51C161.31 145.51 161.528 145.606 161.689 145.777C161.85 145.948 161.941 146.179 161.941 146.421Z" fill="white"/>
<path d="M209.787 178.914H166.427C160.998 178.914 156.598 183.582 156.598 189.341C156.598 195.101 160.998 199.769 166.427 199.769H209.787C215.216 199.769 219.616 195.101 219.616 189.341C219.616 183.582 215.216 178.914 209.787 178.914Z" fill="#FF441F"/>
<path d="M168.612 188.701C168.574 187.861 168.775 187.028 169.188 186.309C169.601 185.591 170.208 185.02 170.929 184.671C171.651 184.322 172.454 184.21 173.236 184.35C174.019 184.489 174.743 184.875 175.317 185.456C175.891 186.037 176.287 186.786 176.456 187.609C176.624 188.431 176.556 189.288 176.261 190.069C175.966 190.85 175.457 191.519 174.8 191.991C174.143 192.462 173.368 192.713 172.574 192.713C172.062 192.741 171.55 192.658 171.069 192.469C170.589 192.28 170.149 191.988 169.778 191.613C169.408 191.237 169.113 190.785 168.912 190.285C168.712 189.784 168.609 189.245 168.612 188.701ZM175.156 188.701C175.157 188.158 175.006 187.626 174.722 187.173C174.439 186.72 174.034 186.367 173.561 186.159C173.088 185.95 172.567 185.895 172.064 186.001C171.562 186.107 171.1 186.368 170.738 186.753C170.375 187.137 170.129 187.627 170.029 188.16C169.929 188.693 169.981 189.246 170.178 189.748C170.375 190.25 170.707 190.679 171.134 190.98C171.561 191.281 172.062 191.441 172.574 191.44C172.916 191.452 173.257 191.389 173.575 191.255C173.894 191.122 174.183 190.921 174.425 190.664C174.667 190.407 174.856 190.101 174.982 189.763C175.108 189.425 175.167 189.064 175.156 188.701Z" fill="white"/>
<path d="M182.795 192.599L181.293 190.302H179.349V192.578H178.008V184.753H181.038C182.969 184.753 184.17 185.799 184.17 187.527C184.191 188.062 184.05 188.59 183.768 189.033C183.485 189.476 183.076 189.811 182.601 189.989L184.29 192.556L182.795 192.599ZM180.958 186.034H179.349V189.149H180.958C182.158 189.149 182.775 188.566 182.775 187.584C182.775 186.603 182.145 186.034 180.958 186.034Z" fill="white"/>
<path d="M185.65 184.796H188.869C191.256 184.796 192.892 186.354 192.892 188.701C192.892 191.049 191.269 192.599 188.869 192.599H185.65V184.796ZM188.802 191.376C190.444 191.376 191.484 190.316 191.484 188.701C191.484 187.087 190.424 186.02 188.802 186.02H187.018V191.376H188.802Z" fill="white"/>
<path d="M199.852 191.383V192.599H194.367V184.775H199.731V186.034H195.708V188.061H199.262V189.256H195.708V191.39L199.852 191.383Z" fill="white"/>
<path d="M206.18 192.599L204.678 190.302H202.734V192.578H201.393V184.753H204.423C206.354 184.753 207.554 185.799 207.554 187.527C207.576 188.062 207.435 188.59 207.152 189.033C206.87 189.476 206.461 189.811 205.985 189.989L207.682 192.556L206.18 192.599ZM204.336 186.034H202.734V189.149H204.336C205.529 189.149 206.153 188.566 206.153 187.584C206.153 186.603 205.529 186.034 204.336 186.034Z" fill="white"/>
<path d="M174.493 45.0514H176.933C178.757 45.0514 180.004 46.2464 180.004 48.0389C180.004 49.8314 178.757 51.0264 176.933 51.0264H174.473L174.493 45.0514ZM176.907 50.0875C177.174 50.1111 177.442 50.0757 177.696 49.9835C177.95 49.8913 178.182 49.7442 178.38 49.5517C178.577 49.3592 178.734 49.1253 178.842 48.8649C178.95 48.6045 179.005 48.3233 179.005 48.0389C179.005 47.7545 178.95 47.4733 178.842 47.2129C178.734 46.9525 178.577 46.7186 178.38 46.5261C178.182 46.3336 177.95 46.1865 177.696 46.0943C177.442 46.0021 177.174 45.9667 176.907 45.9903H175.566V50.0875H176.907Z" fill="white"/>
<path d="M185.06 49.0844H181.708C181.772 49.4157 181.949 49.7104 182.205 49.9123C182.461 50.1143 182.778 50.2095 183.095 50.1798C183.312 50.1893 183.528 50.1498 183.729 50.064C183.93 49.9781 184.112 49.8479 184.262 49.6819L184.798 50.3434C184.474 50.6908 184.063 50.9322 183.613 51.0389C183.164 51.1457 182.694 51.1132 182.262 50.9454C181.829 50.7776 181.451 50.4816 181.172 50.0924C180.893 49.7033 180.725 49.2374 180.688 48.75C180.68 48.4397 180.732 48.1308 180.841 47.8427C180.949 47.5545 181.113 47.2931 181.321 47.075C181.529 46.8568 181.778 46.6864 182.051 46.5744C182.324 46.4624 182.615 46.4112 182.908 46.424C183.2 46.4126 183.491 46.4661 183.763 46.581C184.034 46.696 184.28 46.8699 184.485 47.0916C184.689 47.3132 184.848 47.5778 184.95 47.8683C185.053 48.1588 185.097 48.4688 185.08 48.7785C185.08 48.8567 185.067 48.9848 185.06 49.0844ZM181.708 48.3731H184.141C184.093 48.0674 183.945 47.7898 183.722 47.5895C183.499 47.3892 183.217 47.2793 182.924 47.2793C182.632 47.2793 182.35 47.3892 182.127 47.5895C181.904 47.7898 181.756 48.0674 181.708 48.3731Z" fill="white"/>
<path d="M188.628 50.7774C188.346 50.9892 188.007 51.0967 187.662 51.0833C187.465 51.1061 187.266 51.0824 187.079 51.0138C186.892 50.9452 186.721 50.8334 186.579 50.6865C186.438 50.5395 186.328 50.3611 186.259 50.1641C186.19 49.967 186.164 49.7562 186.181 49.5468V47.3275H185.477V46.4739H186.181V45.4354H187.186V46.4739H188.333V47.3275H187.18V49.497C187.163 49.5875 187.166 49.6809 187.189 49.7699C187.212 49.8589 187.254 49.941 187.311 50.0099C187.369 50.0788 187.441 50.1326 187.522 50.167C187.603 50.2014 187.69 50.2156 187.776 50.2083C187.979 50.2125 188.177 50.1449 188.34 50.0163L188.628 50.7774Z" fill="white"/>
<path d="M193.026 48.3518V51.0264H192.074V50.4715C191.917 50.685 191.712 50.853 191.478 50.96C191.243 51.0669 190.987 51.1093 190.733 51.0833C189.754 51.0833 189.131 50.5142 189.131 49.7175C189.131 48.9209 189.614 48.3589 190.921 48.3589H192.027V48.2949C192.027 47.669 191.672 47.3062 190.955 47.3062C190.487 47.3021 190.03 47.4593 189.654 47.7543L189.258 46.979C189.791 46.5898 190.428 46.3928 191.075 46.417C192.356 46.417 193.026 47.043 193.026 48.3518ZM192.021 49.5966V49.0702H191.015C190.344 49.0702 190.15 49.3405 190.15 49.6749C190.15 50.0092 190.452 50.3079 190.968 50.3079C191.195 50.3225 191.421 50.2619 191.614 50.1345C191.808 50.007 191.959 49.8191 192.047 49.5966H192.021Z" fill="white"/>
<path d="M194.205 45.0799C194.206 44.9898 194.224 44.9008 194.259 44.8187C194.293 44.7365 194.344 44.6629 194.407 44.6027C194.47 44.5424 194.544 44.4968 194.625 44.4687C194.706 44.4407 194.791 44.4308 194.876 44.4397C194.958 44.4287 195.042 44.4363 195.122 44.4618C195.202 44.4873 195.275 44.5303 195.339 44.5879C195.402 44.6455 195.453 44.7165 195.489 44.7964C195.524 44.8762 195.544 44.9631 195.546 45.0514C195.505 45.1992 195.421 45.329 195.305 45.4213C195.189 45.5137 195.047 45.5636 194.902 45.5636C194.757 45.5636 194.616 45.5137 194.5 45.4213C194.384 45.329 194.299 45.1992 194.259 45.0514L194.205 45.0799ZM194.339 46.4669H195.345V51.0265H194.366L194.339 46.4669Z" fill="white"/>
<path d="M196.666 44.6957H197.672V51.0264H196.666V44.6957Z" fill="white"/>
<path d="M198.502 50.5711L198.884 49.7602C199.334 50.0528 199.851 50.2101 200.379 50.2154C201.016 50.2154 201.284 50.0234 201.284 49.7104C201.284 48.8426 198.603 49.6606 198.603 47.8397C198.603 46.979 199.333 46.417 200.493 46.417C201.052 46.4058 201.604 46.5401 202.102 46.8083L201.714 47.6192C201.34 47.3867 200.913 47.2686 200.48 47.2777C199.87 47.2777 199.581 47.4911 199.581 47.7899C199.581 48.7146 202.263 47.8966 202.263 49.6749C202.263 50.5284 201.526 51.0975 200.319 51.0975C199.678 51.1098 199.048 50.9272 198.502 50.5711Z" fill="white"/>
<path opacity="0.6" d="M147.755 32.0627H149.049V30.2276H147.755V32.0627Z" fill="white"/>
<path opacity="0.6" d="M145.643 32.0555H146.938V29.6086H145.643V32.0555Z" fill="white"/>
<path opacity="0.6" d="M143.53 32.0555H144.824V29.004H143.53V32.0555Z" fill="white"/>
<path opacity="0.6" d="M141.425 32.0555H142.719V28.3923H141.425V32.0555Z" fill="white"/>
<path opacity="0.6" d="M229.211 29.5588H228.439V31.394H229.211V29.5588Z" fill="white"/>
<path opacity="0.6" d="M229.735 32.0627H235.85V28.8903H229.735V32.0627Z" fill="white"/>
<path d="M129.752 161.977L129.142 167.084L117.871 167.063L118.475 161.956L129.752 161.977Z" fill="#B55B52"/>
<path d="M128.948 167.966C129.116 168.791 129.317 170.264 128.855 170.812C128.79 170.898 128.705 170.965 128.609 171.007C128.513 171.05 128.408 171.066 128.305 171.053C128.242 171.053 128.18 171.035 128.126 171.002C128.072 170.968 128.027 170.919 127.996 170.861C127.654 170.243 128.627 168.151 128.734 167.917C128.744 167.893 128.762 167.874 128.784 167.862C128.806 167.85 128.831 167.847 128.855 167.853C128.868 167.853 128.881 167.857 128.893 167.863C128.904 167.87 128.915 167.878 128.924 167.889C128.933 167.899 128.939 167.912 128.943 167.925C128.948 167.938 128.949 167.952 128.948 167.966ZM128.184 170.733V170.776C128.196 170.798 128.214 170.817 128.235 170.829C128.256 170.842 128.28 170.848 128.305 170.847C128.374 170.854 128.443 170.843 128.507 170.816C128.571 170.789 128.628 170.746 128.674 170.691C128.928 170.371 128.969 169.524 128.774 168.393C128.439 169.211 128.05 170.342 128.184 170.733Z" fill="#FF441F"/>
<path d="M128.948 167.966C128.954 167.98 128.958 167.994 128.958 168.009C128.958 168.024 128.954 168.038 128.948 168.052C128.693 168.678 127.66 169.937 127.117 169.851C126.983 169.851 126.829 169.737 126.789 169.403C126.776 169.283 126.786 169.161 126.818 169.045C126.85 168.929 126.904 168.821 126.976 168.727C127.497 168.246 128.146 167.95 128.834 167.881C128.853 167.88 128.872 167.884 128.89 167.893C128.907 167.902 128.922 167.915 128.934 167.931C128.934 167.931 128.948 167.952 128.948 167.966ZM127.044 169.503C127.044 169.602 127.131 169.609 127.151 169.609C127.479 169.659 128.291 168.806 128.639 168.187C128.088 168.256 127.57 168.504 127.157 168.898C127.102 168.966 127.062 169.045 127.037 169.131C127.013 169.217 127.006 169.307 127.017 169.396C127.022 169.432 127.031 169.468 127.044 169.503Z" fill="#FF441F"/>
<path d="M128.277 167.468L128.217 161.849C128.214 161.747 128.245 161.648 128.304 161.568C128.362 161.487 128.445 161.431 128.539 161.408L132.823 160.291C132.926 160.258 133.034 160.252 133.14 160.272C133.245 160.293 133.344 160.34 133.429 160.41C133.514 160.479 133.581 160.57 133.627 160.673C133.672 160.776 133.693 160.889 133.688 161.003C133.688 163.03 133.601 165.982 133.628 168.507C133.661 171.487 133.5 173.379 133.534 176.872C133.534 179.006 131.563 179.618 131.368 178.736C130.497 174.731 130.698 172.12 128.686 168.692C128.448 168.331 128.306 167.908 128.277 167.468Z" fill="#263238"/>
<path opacity="0.5" d="M128.277 167.468L128.217 161.849C128.214 161.747 128.245 161.648 128.304 161.568C128.362 161.487 128.445 161.431 128.539 161.408L132.823 160.291C132.926 160.258 133.034 160.252 133.14 160.272C133.245 160.293 133.344 160.34 133.429 160.41C133.514 160.479 133.581 160.57 133.627 160.673C133.672 160.776 133.693 160.889 133.688 161.003C133.688 163.03 133.601 165.982 133.628 168.507C133.661 171.487 133.5 173.379 133.534 176.872C133.534 179.006 131.563 179.618 131.368 178.736C130.497 174.731 130.698 172.12 128.686 168.692C128.448 168.331 128.306 167.908 128.277 167.468Z" fill="white"/>
<path opacity="0.2" d="M117.871 167.063L123.684 167.07L124.294 161.963L118.481 161.956L117.871 167.063Z" fill="black"/>
<path d="M122.477 169.944L123.564 159.616L120.432 159.274L119.078 170.605L122.477 169.944Z" fill="#263238"/>
<path d="M111.019 82.7439C109.376 85.7385 107.666 88.6193 105.856 91.493C104.02 94.438 102.023 97.2667 99.8753 99.9648C99.5803 100.32 99.2719 100.676 98.9232 101.053C98.5239 101.483 98.0983 101.885 97.6493 102.255C97.4884 102.383 97.3476 102.49 97.133 102.632L96.9788 102.732L96.7777 102.846L96.5765 102.952C96.4809 103.002 96.3824 103.045 96.2815 103.08C95.4431 103.418 94.5253 103.465 93.6599 103.216C93.0508 103.032 92.4829 102.72 91.9904 102.298C91.6682 102.028 91.3738 101.723 91.1121 101.387C90.4479 100.485 89.9041 99.4888 89.4962 98.4284C89.1496 97.5571 88.8474 96.6667 88.5911 95.7609C87.6421 92.3711 87.011 88.8901 86.707 85.3686L90.2405 84.4795C91.4406 87.5452 92.6475 90.6893 93.955 93.5345C94.2835 94.2458 94.6254 94.9145 94.9741 95.5262C95.2217 96.0174 95.5383 96.4659 95.9128 96.8564C95.953 96.8564 95.9865 96.8919 95.9128 96.8137C95.7354 96.6569 95.5268 96.545 95.3026 96.4865C94.8237 96.3461 94.3156 96.366 93.8477 96.5434L93.7002 96.6145L93.6264 96.6501H93.5594C93.5594 96.6501 93.8276 96.3513 94.0153 96.1024C94.203 95.8534 94.431 95.5689 94.6388 95.2701C95.5038 94.0751 96.3754 92.7236 97.2202 91.3508C98.065 89.9779 98.9232 88.5838 99.7479 87.1754L104.75 78.6752L111.019 82.7439Z" fill="#B65B52"/>
<path d="M113.573 79.3367C114.947 84.0385 105.963 96.9488 105.963 96.9488L96.5762 90.6893C98.2564 86.5968 100.349 82.7093 102.818 79.0948C106.533 73.9449 112.058 74.1868 113.573 79.3367Z" fill="#FF441F"/>
<path opacity="0.7" d="M113.573 79.3367C114.947 84.0385 105.963 96.9488 105.963 96.9488L96.5762 90.6893C98.2564 86.5968 100.349 82.7093 102.818 79.0948C106.533 73.9449 112.058 74.1868 113.573 79.3367Z" fill="white"/>
<path opacity="0.2" d="M107.659 85.8524C105.312 87.019 102.838 91.2797 102.496 94.6371L105.962 96.956C108.108 93.8279 110.03 90.5349 111.715 87.1043C110.984 85.9164 110.347 84.5222 107.659 85.8524Z" fill="black"/>
<path d="M133.83 72.2804C132.761 78.0945 132.115 83.9874 131.899 89.9067C131.738 93.9185 131.752 97.6956 131.852 101.089C132.08 108.97 132.751 114.874 132.684 116.887L107.205 117.47C101.285 91.3863 106.119 76.1357 106.119 76.1357C108.045 75.346 110.013 74.6762 112.013 74.1298C112.435 74.016 112.871 73.9093 113.32 73.8026C117.031 73.0871 120.775 72.5885 124.537 72.3088C125.268 72.2519 126.013 72.2092 126.737 72.1808C130.458 72.0314 133.83 72.2804 133.83 72.2804Z" fill="#FF441F"/>
<path opacity="0.7" d="M131.852 101.089C132.087 108.97 132.751 114.874 132.684 116.887L107.205 117.47C101.285 91.3863 106.119 76.1357 106.119 76.1357C108.045 75.346 110.013 74.6762 112.013 74.1298C112.435 74.016 112.871 73.9093 113.32 73.8026C117.031 73.0876 120.776 72.5889 124.537 72.3088C125.268 72.2519 126.013 72.2092 126.737 72.1808C130.471 72.0314 133.844 72.2804 133.844 72.2804C132.996 76.8249 132.423 81.4222 132.127 86.0443C132.033 87.3531 131.966 88.6406 131.913 89.9067C131.832 91.7988 131.799 93.6482 131.792 95.4194C131.772 97.404 131.806 99.2961 131.852 101.089Z" fill="white"/>
<path d="M118.127 60.6718C118.341 64.4844 119.286 71.3415 122.284 73.1197C121.507 74.5644 120.446 75.8147 119.174 76.7856C117.901 77.7565 116.446 78.4252 114.908 78.7462C111.931 79.4576 111.254 77.3236 111.616 75.901C115.217 73.9235 114.385 70.9218 113.031 68.2899L118.127 60.6718Z" fill="#B55B52"/>
<path opacity="0.2" d="M116.041 63.7944L113.004 68.3184C113.333 68.9276 113.606 69.5682 113.822 70.2318C115.237 69.6272 116.832 67.3866 116.598 65.7363C116.523 65.0589 116.335 64.4011 116.041 63.7944Z" fill="black"/>
<path d="M103.047 53.9427C102.805 55.9984 103.804 59.932 106.144 58.1324C108.484 56.3328 103.463 50.4075 103.047 53.9427Z" fill="#263238"/>
<path d="M116.706 54.0068C117.853 58.986 118.758 61.7886 117.169 65.0179C114.775 69.8762 108.452 69.4636 105.931 64.9681C103.665 60.9208 102.177 53.516 106.106 50.1515C106.977 49.4051 108.012 48.9054 109.115 48.6991C110.217 48.4928 111.351 48.5866 112.41 48.9718C113.469 49.357 114.419 50.021 115.17 50.9015C115.921 51.7821 116.45 52.8505 116.706 54.0068Z" fill="#B55B52"/>
<path d="M118.715 48.3873H113.352V51.6451C113.445 51.574 113.559 51.51 113.653 51.446C113.747 51.382 114.196 56.1691 116.811 57.6629C120.177 54.7038 120.988 50.0803 118.715 48.3873Z" fill="#263238"/>
<path d="M119.661 57.4709C119.653 58.7431 119.171 59.9603 118.32 60.8567C117.167 62.0233 115.826 61.1199 115.504 59.5479C115.223 58.1253 115.471 55.8206 116.939 55.28C117.258 55.1676 117.599 55.1393 117.93 55.1977C118.262 55.256 118.576 55.3992 118.844 55.615C119.112 55.8307 119.326 56.1124 119.469 56.4357C119.611 56.7591 119.677 57.1144 119.661 57.4709Z" fill="#B55B52"/>
<path d="M110.134 57.5847C110.248 57.983 110.134 58.3672 109.9 58.4454C109.665 58.5237 109.363 58.2676 109.229 57.8692C109.095 57.4709 109.229 57.0939 109.464 57.0157C109.698 56.9374 110.02 57.1935 110.134 57.5847Z" fill="#263238"/>
<path d="M105.904 58.9362C106.018 59.3345 105.904 59.7186 105.669 59.7968C105.434 59.8751 105.133 59.6119 104.999 59.2207C104.864 58.8295 104.999 58.4382 105.233 58.36C105.468 58.2817 105.79 58.5449 105.904 58.9362Z" fill="#263238"/>
<path d="M107.304 58.7085C107.186 60.0248 106.897 61.3174 106.445 62.5496C106.756 62.6507 107.083 62.6807 107.406 62.6378C107.728 62.5949 108.038 62.48 108.316 62.3006L107.304 58.7085Z" fill="#A02724"/>
<path d="M110.764 63.1684C110.609 63.2433 110.45 63.3075 110.288 63.3605C110.273 63.3648 110.258 63.366 110.243 63.364C110.228 63.362 110.214 63.3569 110.201 63.349C110.188 63.3411 110.176 63.3305 110.167 63.3178C110.158 63.3051 110.151 63.2906 110.147 63.2751C110.142 63.2602 110.14 63.2443 110.141 63.2285C110.142 63.2126 110.146 63.1972 110.153 63.1831C110.16 63.169 110.169 63.1567 110.181 63.1468C110.193 63.1369 110.206 63.1297 110.221 63.1258C110.689 62.9898 111.12 62.7376 111.478 62.39C111.836 62.0424 112.11 61.6095 112.279 61.127C112.283 61.1116 112.29 61.0972 112.299 61.0848C112.308 61.0723 112.32 61.0621 112.333 61.0547C112.347 61.0474 112.361 61.043 112.376 61.042C112.391 61.041 112.406 61.0432 112.42 61.0487C112.435 61.0528 112.448 61.06 112.46 61.0697C112.472 61.0795 112.482 61.0917 112.49 61.1056C112.497 61.1195 112.502 61.1348 112.504 61.1507C112.506 61.1666 112.505 61.1827 112.501 61.1981C112.355 61.6361 112.126 62.0373 111.827 62.3764C111.528 62.7156 111.166 62.9852 110.764 63.1684Z" fill="#263238"/>
<path d="M111.013 55.7281C110.978 55.7487 110.939 55.7595 110.899 55.7595C110.859 55.7595 110.82 55.7487 110.785 55.7281C110.556 55.5398 110.288 55.4118 110.004 55.3549C109.719 55.298 109.426 55.3138 109.149 55.4009C109.091 55.4223 109.027 55.4195 108.971 55.3931C108.915 55.3667 108.871 55.3186 108.847 55.2587C108.836 55.2288 108.831 55.1969 108.832 55.165C108.833 55.133 108.84 55.1016 108.852 55.0725C108.865 55.0434 108.883 55.0172 108.905 54.9954C108.927 54.9737 108.953 54.9568 108.981 54.9457C109.331 54.8313 109.701 54.8071 110.062 54.8752C110.422 54.9432 110.762 55.1015 111.053 55.3369C111.101 55.374 111.134 55.4299 111.144 55.4924C111.154 55.555 111.141 55.6192 111.106 55.6712C111.081 55.6989 111.048 55.7186 111.013 55.7281Z" fill="#263238"/>
<path d="M103.631 57.9972C103.586 58.0081 103.541 58.0081 103.496 57.9972C103.437 57.9851 103.384 57.9499 103.348 57.8986C103.312 57.8472 103.296 57.7835 103.302 57.7198C103.35 57.3384 103.484 56.975 103.693 56.6604C103.902 56.3459 104.18 56.0895 104.502 55.9131C104.529 55.9 104.559 55.8927 104.589 55.8917C104.619 55.8907 104.649 55.896 104.677 55.9072C104.705 55.9184 104.73 55.9354 104.752 55.9572C104.774 55.9789 104.792 56.005 104.804 56.034C104.817 56.0628 104.825 56.0942 104.826 56.1262C104.828 56.1582 104.823 56.1902 104.812 56.2202C104.802 56.2502 104.785 56.2775 104.764 56.3006C104.743 56.3236 104.718 56.3418 104.69 56.3541C104.437 56.493 104.22 56.6951 104.058 56.943C103.896 57.1909 103.793 57.4771 103.758 57.7767C103.76 57.8228 103.749 57.8686 103.727 57.908C103.704 57.9474 103.67 57.9785 103.631 57.9972Z" fill="#263238"/>
<path d="M115.377 52.5841C115.28 52.6803 115.174 52.7661 115.062 52.8402C114.762 53.0529 114.417 53.1815 114.058 53.2139C113.699 53.2462 113.339 53.1813 113.01 53.0251C111.669 52.3992 111.065 48.4229 107.378 50.6422C106.966 50.5639 106.541 50.612 106.154 50.7809C105.767 50.9497 105.433 51.2323 105.192 51.5954C104.273 52.9042 105.145 57.478 103.04 56.9374C100.934 56.3968 101.276 55.7068 101.276 55.7068C101.276 55.7068 101.873 56.0696 102.202 55.7424C101.884 55.4825 101.65 55.1255 101.53 54.7197C101.41 54.3139 101.411 53.8788 101.531 53.4733C101.531 53.4733 102.061 54.085 102.396 53.9427C101.967 52.0966 102.082 50.1551 102.725 48.3803C103.791 45.1509 111.173 45.4994 111.173 45.4994C111.173 45.4994 112.031 43.8136 115.403 44.7881C118.776 45.7626 120.472 49.9452 120.03 51.823" fill="#263238"/>
<path d="M125.112 170.797C118.756 172.156 113.312 173.116 108.672 173.721C87.4178 176.481 82.9524 171.701 84.6956 162.71C87.1093 150.226 106.654 124.441 106.654 124.441V114.191H111.059L117.864 113.651L118.012 128.652L118.159 143.163C118.159 143.163 112.997 148.014 108.451 152.737C104.515 156.827 101.042 160.811 101.746 161.465C102.276 161.934 104.904 162.006 108.169 161.899C114.68 161.686 123.724 160.739 123.724 160.739L125.112 170.797Z" fill="#FF441F"/>
<path opacity="0.2" d="M118.158 143.163C118.158 143.163 112.995 148.014 108.449 152.737C108.543 142.729 115.677 126.283 115.677 126.283L118.01 128.652L118.158 143.163Z" fill="black"/>
<path opacity="0.2" d="M125.114 170.797C118.758 172.156 113.313 173.116 108.674 173.721C107.95 169.829 107.792 165.842 108.204 161.899C114.715 161.685 123.759 160.739 123.759 160.739L125.114 170.797Z" fill="black"/>
<path d="M132.402 139.976C131.175 152.019 119.119 218.648 119.119 218.648H110.289L113.963 138.034L111.06 114.191L132.911 112.455C132.911 112.455 133.065 114.71 133.146 118.317C133.146 119.355 133.186 120.5 133.193 121.745C133.251 127.833 132.987 133.92 132.402 139.976Z" fill="#FF441F"/>
<path d="M110.852 228.876H115.692L117.067 216.983H112.226L110.852 228.876Z" fill="#B55B52"/>
<path opacity="0.2" d="M112.226 216.983H117.067L116.357 223.114H111.516L112.226 216.983Z" fill="black"/>
<path d="M119.756 220.141H109.316L109.35 216.834L120.252 216.165L119.756 220.141Z" fill="#263238"/>
<path d="M108.932 229.175C108.601 229.201 108.271 229.111 107.993 228.919C107.907 228.839 107.84 228.739 107.798 228.627C107.756 228.514 107.74 228.392 107.752 228.272C107.752 228.201 107.771 228.133 107.805 228.073C107.839 228.012 107.888 227.963 107.946 227.93C108.476 227.638 110.052 228.641 110.226 228.769C110.246 228.783 110.261 228.802 110.271 228.825C110.28 228.848 110.283 228.873 110.28 228.898C110.275 228.92 110.266 228.941 110.251 228.958C110.237 228.976 110.219 228.989 110.199 228.997C109.784 229.106 109.359 229.166 108.932 229.175ZM108.201 228.115C108.153 228.103 108.102 228.103 108.054 228.115C108.03 228.129 108.011 228.15 107.998 228.175C107.985 228.2 107.979 228.229 107.98 228.257C107.971 228.339 107.981 228.422 108.009 228.499C108.037 228.576 108.082 228.644 108.141 228.698C108.682 228.965 109.3 228.998 109.864 228.791C109.355 228.455 108.791 228.226 108.201 228.115Z" fill="#FF441F"/>
<path d="M110.167 228.997H110.113C109.61 228.705 108.631 227.574 108.732 227.012C108.746 226.922 108.791 226.84 108.857 226.781C108.923 226.723 109.007 226.691 109.094 226.692C109.27 226.674 109.446 226.73 109.583 226.849C110.147 227.333 110.254 228.819 110.254 228.883C110.257 228.904 110.254 228.925 110.245 228.944C110.237 228.963 110.224 228.979 110.207 228.99C110.194 228.995 110.18 228.997 110.167 228.997ZM109.174 226.913H109.121C108.973 226.913 108.96 227.005 108.953 227.034C108.899 227.375 109.523 228.222 110.026 228.62C109.982 228.034 109.777 227.475 109.436 227.012C109.363 226.947 109.27 226.912 109.174 226.913Z" fill="#FF441F"/>
<path d="M110.555 228.279H116.462C116.559 228.281 116.652 228.317 116.727 228.381C116.803 228.445 116.856 228.535 116.878 228.634L117.877 233.194C117.9 233.305 117.9 233.42 117.875 233.531C117.85 233.642 117.802 233.745 117.734 233.834C117.667 233.922 117.581 233.993 117.484 234.041C117.387 234.089 117.28 234.113 117.173 234.111C115.276 234.111 113.888 233.955 111.494 233.955C110.026 233.955 105.587 234.119 103.555 234.119C101.524 234.119 101.242 231.985 102.067 231.793C105.795 230.932 108.591 229.737 109.778 228.599C109.989 228.392 110.267 228.277 110.555 228.279Z" fill="#263238"/>
<path opacity="0.5" d="M110.555 228.279H116.462C116.559 228.281 116.652 228.317 116.727 228.381C116.803 228.445 116.856 228.535 116.878 228.634L117.877 233.194C117.9 233.305 117.9 233.42 117.875 233.531C117.85 233.642 117.802 233.745 117.734 233.834C117.667 233.922 117.581 233.993 117.484 234.041C117.387 234.089 117.28 234.113 117.173 234.111C115.276 234.111 113.888 233.955 111.494 233.955C110.026 233.955 105.587 234.119 103.555 234.119C101.524 234.119 101.242 231.985 102.067 231.793C105.795 230.932 108.591 229.737 109.778 228.599C109.989 228.392 110.267 228.277 110.555 228.279Z" fill="white"/>
<path d="M114.807 78.7675C114.807 78.7675 116.282 79.991 117.945 81.1504C119.641 79.5571 123.543 75.4599 122.752 72.7853C122.358 72.2889 121.816 71.9501 121.216 71.8251C119.446 74.4902 117.282 76.8345 114.807 78.7675Z" fill="white"/>
<path d="M114.806 78.7676C114.027 79.8833 113.4 81.1092 112.942 82.4096C111.306 81.6982 110.964 76.4559 111.366 75.7659C111.822 75.1926 112.437 74.7868 113.123 74.6064C113.123 74.6064 112.433 78.7463 114.806 78.7676Z" fill="white"/>
<path opacity="0.2" d="M133.192 121.745C132.496 122.221 131.743 122.594 130.953 122.855L128.385 116.773C130.083 116.757 131.746 117.295 133.145 118.317C133.172 119.355 133.185 120.5 133.192 121.745Z" fill="black"/>
<path opacity="0.2" d="M132.113 86.0444C132.02 87.3532 131.953 88.6407 131.899 89.9068C131.818 91.7989 131.785 93.6483 131.778 95.4195C129.452 92.1474 130.129 85.5749 130.129 85.5749C130.819 85.5221 131.509 85.6853 132.113 86.0444Z" fill="black"/>
<path d="M136.933 76.1001C138.646 79.5995 140.153 83.208 141.445 86.905C142.11 88.8005 142.682 90.7307 143.162 92.6879C143.396 93.698 143.611 94.7294 143.772 95.8248C143.955 97.0236 144.018 98.2397 143.96 99.4525C143.937 99.8197 143.897 100.185 143.839 100.548C143.799 100.754 143.772 100.939 143.718 101.153L143.638 101.466L143.564 101.679C143.376 102.241 143.189 102.831 142.981 103.301C142.572 104.304 142.129 105.193 141.68 106.089C140.795 107.86 139.823 109.518 138.844 111.154C136.879 114.412 134.76 117.562 132.494 120.593L129.41 118.544L133.936 108.301C134.687 106.608 135.398 104.908 136.055 103.244C136.376 102.419 136.678 101.579 136.913 100.811C137.06 100.406 137.121 100.1 137.215 99.7442L137.248 99.6161V99.1609C137.213 98.4731 137.121 97.79 136.973 97.1194C136.819 96.3441 136.604 95.5332 136.363 94.7081C135.867 93.0578 135.277 91.372 134.633 89.6862C133.353 86.3359 131.878 82.9074 130.396 79.6638L136.933 76.1001Z" fill="#B65B52"/>
<path d="M135.245 72.629C139.516 74.5638 143.612 88.5838 143.612 88.5838L132.382 92.6738C130.683 88.7343 129.326 84.6393 128.325 80.4392C126.824 73.696 130.069 70.2888 135.245 72.629Z" fill="#FF441F"/>
<path opacity="0.7" d="M135.245 72.629C139.516 74.5638 143.612 88.5838 143.612 88.5838L132.382 92.6738C130.683 88.7343 129.326 84.6393 128.325 80.4392C126.824 73.696 130.069 70.2888 135.245 72.629Z" fill="white"/>
<path d="M127.867 116.417C127.867 116.417 132.561 119.59 133.687 121.454C133.687 121.454 132.929 129.861 129.751 129.278C126.573 128.695 125.453 123.033 127.867 116.417Z" fill="#FF441F"/>
<path d="M119.66 86.7343L125.775 85.838V93.5629C125.775 93.5629 122.463 95.583 120.009 94.1746L119.66 86.7343Z" fill="white"/>
<path d="M95.9873 84.1167C96.0086 84.1835 96.0161 84.2544 96.0093 84.3245C96.0025 84.3946 95.9815 84.4624 95.9478 84.5231C95.914 84.5839 95.8684 84.6362 95.8139 84.6765C95.7594 84.7169 95.6974 84.7443 95.632 84.7569L90.543 85.831C90.4028 85.8535 90.2596 85.824 90.1375 85.7476C90.0154 85.6711 89.9218 85.5524 89.8725 85.4113L86.7414 74.9906C86.7185 74.9201 86.7093 74.8455 86.7142 74.7712C86.7191 74.6968 86.7381 74.6243 86.77 74.5579C86.8019 74.4915 86.8461 74.4326 86.8999 74.3848C86.9538 74.3369 87.0161 74.301 87.0833 74.2793L92.1723 73.2052C92.3193 73.1976 92.4647 73.2415 92.5858 73.3302C92.707 73.4189 92.7973 73.5474 92.8428 73.696L95.9873 84.1167Z" fill="#263238"/>
<path opacity="0.3" d="M92.2715 73.7457L95.4429 84.266C95.47 84.325 95.4835 84.3901 95.4822 84.4558C95.4809 84.5215 95.4648 84.5858 95.4353 84.6436C95.4057 84.7013 95.3637 84.7508 95.3125 84.7878C95.2613 84.8248 95.2026 84.8483 95.1411 84.8564L90.8232 85.7384C90.5349 85.8024 89.9717 85.7384 89.8846 85.4468L86.7065 74.898C86.6193 74.5992 87.0618 74.2507 87.377 74.1867L91.6882 73.2691C91.8244 73.2546 91.9606 73.2958 92.0691 73.3844C92.1775 73.473 92.2499 73.6023 92.2715 73.7457Z" fill="white"/>
<path d="M86.9155 87.6803L86.6406 82.4521L91.7028 84.6572C91.7028 84.6572 91.7028 89.3377 89.4164 89.2238L86.9155 87.6803Z" fill="#B55B52"/>
<path d="M88.9404 77.8784L92.6884 81.3425L91.7028 84.6572L86.6406 82.4522L88.9404 77.8784Z" fill="#B55B52"/>
</svg>
