<svg width="260" height="260" viewBox="0 0 260 260" fill="none" xmlns="http://www.w3.org/2000/svg">
<path d="M207.937 232.587H187.428V232.757H207.937V232.587Z" fill="#E0E0E0"/>
<path d="M232.064 232.104H220.521V232.274H232.064V232.104Z" fill="#E0E0E0"/>
<path d="M129.246 232.505H113.936V232.676H129.246V232.505Z" fill="#E0E0E0"/>
<path d="M140.305 234.921H129.848V235.092H140.305V234.921Z" fill="#E0E0E0"/>
<path d="M68.0355 230.784H36.4434V230.954H68.0355V230.784Z" fill="#E0E0E0"/>
<path d="M123.081 195.961H7.96274C7.06091 195.959 6.19656 195.549 5.55943 194.82C4.92229 194.091 4.56445 193.104 4.56445 192.075V7.35696C4.5723 6.33345 4.93361 5.35481 5.56989 4.6336C6.20618 3.9124 7.06605 3.50688 7.96274 3.50513H123.081C123.984 3.50513 124.85 3.91453 125.488 4.64327C126.127 5.37201 126.485 6.36039 126.485 7.39098V192.075C126.485 193.105 126.127 194.094 125.488 194.822C124.85 195.551 123.984 195.961 123.081 195.961ZM7.96274 3.64123C7.10044 3.64304 6.274 4.03531 5.66482 4.73195C5.05564 5.42858 4.7135 6.37266 4.7135 7.35696V192.075C4.7135 193.059 5.05564 194.003 5.66482 194.7C6.274 195.396 7.10044 195.789 7.96274 195.79H123.081C123.944 195.789 124.771 195.397 125.381 194.7C125.991 194.004 126.335 193.06 126.336 192.075V7.35696C126.335 6.37204 125.991 5.42797 125.381 4.73153C124.771 4.03509 123.944 3.64303 123.081 3.64123H7.96274Z" fill="#E0E0E0"/>
<path d="M252.042 195.961H136.918C136.016 195.959 135.151 195.549 134.513 194.82C133.874 194.092 133.515 193.105 133.514 192.075V7.35696C133.523 6.33283 133.886 5.35419 134.523 4.63318C135.16 3.91216 136.021 3.50686 136.918 3.50513H252.042C252.938 3.50867 253.796 3.91498 254.431 4.63599C255.066 5.357 255.427 6.33462 255.435 7.35696V192.075C255.435 193.103 255.078 194.089 254.442 194.818C253.806 195.546 252.943 195.957 252.042 195.961ZM136.918 3.64123C136.055 3.64303 135.228 4.03509 134.618 4.73153C134.008 5.42797 133.664 6.37204 133.663 7.35696V192.075C133.664 193.06 134.008 194.004 134.618 194.7C135.228 195.397 136.055 195.789 136.918 195.79H252.042C252.905 195.789 253.732 195.397 254.342 194.7C254.952 194.004 255.296 193.06 255.297 192.075V7.35696C255.296 6.37204 254.952 5.42797 254.342 4.73153C253.732 4.03509 252.905 3.64303 252.042 3.64123H136.918Z" fill="#E0E0E0"/>
<path d="M240.549 20.0216H150.703V108.192H240.549V20.0216Z" fill="#E0E0E0"/>
<path d="M242.545 20.0216H152.699V108.192H242.545V20.0216Z" fill="#F0F0F0"/>
<path d="M238.961 104.054V24.1593L156.281 24.1593V104.054H238.961Z" fill="#FAFAFA"/>
<path d="M212.539 104.054V24.1593H207.138V104.054H212.539Z" fill="#E0E0E0"/>
<path d="M184.125 104.054V24.1593H178.724V104.054H184.125Z" fill="#E0E0E0"/>
<path d="M214.441 106.674V21.0765H209.04V106.674H214.441Z" fill="#F0F0F0"/>
<path d="M186.021 106.681V21.0835H180.62V106.681H186.021Z" fill="#F0F0F0"/>
<path d="M238.961 104.047V24.1526H237.453V104.047H238.961Z" fill="#E0E0E0"/>
<path d="M87.5122 89.6541C87.5122 89.6541 76.5781 68.156 91.7511 51.0133C91.7511 51.0133 95.7098 53.96 95.6502 57.9207C95.5906 61.8815 91.4053 62.8818 92.3056 66.1892C93.2058 69.4967 97.1466 72.7292 94.5592 75.4649C91.9717 78.2007 94.9765 80.6234 94.8036 83.9716C94.6307 87.3199 87.5122 89.6541 87.5122 89.6541Z" fill="#E0E0E0"/>
<path d="M89.2283 93.1724C89.2283 93.1724 93.664 68.8228 74.5382 58.0295C74.5382 58.0295 71.593 62.2489 72.7496 65.985C73.9062 69.7211 78.1452 69.1631 78.2048 72.627C78.2644 76.091 75.4206 80.5825 78.6281 82.243C81.8356 83.9035 79.6595 87.2926 80.7505 90.4094C81.8415 93.5263 89.2283 93.1724 89.2283 93.1724Z" fill="#E6E6E6"/>
<path d="M79.4941 86.9863C79.4941 86.9863 79.6849 108.008 87.0479 108.008C94.4108 108.008 94.5956 86.9863 94.5956 86.9863H79.4941Z" fill="#F0F0F0"/>
<path d="M35.2559 100.1C35.2559 100.1 35.6672 108.008 51.3888 108.008C67.1103 108.008 67.5277 100.1 67.5277 100.1H35.2559Z" fill="#E6E6E6"/>
<path d="M201.001 147.779H192.702C191.668 147.779 190.83 148.735 190.83 149.915V165.581C190.83 166.762 191.668 167.718 192.702 167.718H201.001C202.035 167.718 202.873 166.762 202.873 165.581V149.915C202.873 148.735 202.035 147.779 201.001 147.779Z" fill="#F0F0F0"/>
<path d="M223.014 154.298H217.428C216.733 154.298 216.17 154.941 216.17 155.734V166.282C216.17 167.075 216.733 167.718 217.428 167.718H223.014C223.709 167.718 224.272 167.075 224.272 166.282V155.734C224.272 154.941 223.709 154.298 223.014 154.298Z" fill="#E6E6E6"/>
<path d="M223.849 152.998H216.593C216.359 152.998 216.17 153.215 216.17 153.482V154.026C216.17 154.293 216.359 154.509 216.593 154.509H223.849C224.083 154.509 224.272 154.293 224.272 154.026V153.482C224.272 153.215 224.083 152.998 223.849 152.998Z" fill="#F0F0F0"/>
<path d="M171.621 156.625C171.621 156.625 171.919 167.718 183.3 167.718C194.682 167.718 194.986 156.625 194.986 156.625H171.621Z" fill="#E6E6E6"/>
<path d="M143.315 141.974H160.539V138.095H143.315V141.974Z" fill="#E0E0E0"/>
<path d="M246.17 138.101H160.539V141.98H246.17V138.101Z" fill="#F0F0F0"/>
<path d="M143.315 171.597H160.539V167.718H143.315V171.597Z" fill="#E0E0E0"/>
<path d="M246.17 167.718H160.539V171.597H246.17V167.718Z" fill="#F0F0F0"/>
<path d="M149.521 141.974H146.344V226.306H149.521V141.974Z" fill="#E0E0E0"/>
<path d="M163.717 141.974H160.539V226.306H163.717V141.974Z" fill="#F0F0F0"/>
<path d="M235.152 141.974H231.975V226.306H235.152V141.974Z" fill="#E0E0E0"/>
<path d="M246.17 141.974H242.992V226.306H246.17V141.974Z" fill="#F0F0F0"/>
<path d="M35.2547 112.942H18.9668V221.208H35.2547V112.942Z" fill="#E6E6E6"/>
<path d="M102.416 221.202H22.0977V226.312H102.416V221.202Z" fill="#E6E6E6"/>
<path d="M35.2561 221.202H105.541L105.541 112.935L35.2561 112.935L35.2561 221.202Z" fill="#F0F0F0"/>
<path d="M41.66 180.295H99.1387V153.849H41.66V180.295Z" fill="#E6E6E6"/>
<path d="M41.66 211.558H99.1387V185.113H41.66V211.558Z" fill="#E6E6E6"/>
<path d="M76.8508 156.748H63.9433C63.5232 156.746 63.1207 156.555 62.8237 156.216C62.5266 155.877 62.359 155.417 62.3574 154.938C62.3574 154.457 62.5243 153.996 62.8215 153.655C63.1188 153.315 63.5221 153.123 63.9433 153.121H76.8508C77.272 153.123 77.6753 153.315 77.9726 153.655C78.2698 153.996 78.4367 154.457 78.4367 154.938C78.4351 155.417 78.2675 155.877 77.9705 156.216C77.6734 156.555 77.2709 156.746 76.8508 156.748Z" fill="#F0F0F0"/>
<path d="M41.66 149.024H99.1387V122.578H41.66V149.024Z" fill="#E6E6E6"/>
<path d="M76.8508 125.484H63.9433C63.5221 125.483 63.1188 125.29 62.8215 124.95C62.5243 124.609 62.3574 124.148 62.3574 123.667C62.359 123.188 62.5266 122.728 62.8237 122.389C63.1207 122.05 63.5232 121.859 63.9433 121.857H76.8508C77.2709 121.859 77.6734 122.05 77.9705 122.389C78.2675 122.728 78.4351 123.188 78.4367 123.667C78.4367 124.148 78.2698 124.609 77.9726 124.95C77.6753 125.29 77.272 125.483 76.8508 125.484Z" fill="#F0F0F0"/>
<path d="M76.8508 188.012H63.9433C63.5232 188.01 63.1207 187.819 62.8237 187.48C62.5266 187.141 62.359 186.681 62.3574 186.202C62.3574 185.721 62.5243 185.26 62.8215 184.919C63.1188 184.579 63.5221 184.386 63.9433 184.385H76.8508C77.272 184.386 77.6753 184.579 77.9726 184.919C78.2698 185.26 78.4367 185.721 78.4367 186.202C78.4351 186.681 78.2675 187.141 77.9705 187.48C77.6734 187.819 77.2709 188.01 76.8508 188.012Z" fill="#F0F0F0"/>
<path d="M107.711 108.008H35.2559V112.942H107.711V108.008Z" fill="#E6E6E6"/>
<path d="M16.6905 112.935H35.2559V108.001H16.6905V112.935Z" fill="#E0E0E0"/>
<path d="M53.4102 24.1593H27.0586V57.1925H53.4102V24.1593Z" fill="#E6E6E6"/>
<path d="M56.265 24.1593H29.043V57.1925H56.265V24.1593Z" fill="#F0F0F0"/>
<path d="M53.9824 54.5861V26.759H31.3212V54.5861H53.9824Z" fill="#FAFAFA"/>
<path d="M48.4902 47.8419V33.5031H36.8168V47.8419H48.4902Z" fill="#F0F0F0"/>
<path d="M81.1933 14.4073H61.209V38.9134H81.1933V14.4073Z" fill="#E6E6E6"/>
<path d="M83.3141 14.4073H63.1211V38.9134H83.3141V14.4073Z" fill="#F0F0F0"/>
<path d="M81.6211 36.9807V16.3401H64.8145V36.9807H81.6211Z" fill="#FAFAFA"/>
<path d="M73.2158 21.4371L68.6191 30.5291H77.8124L73.2158 21.4371Z" fill="#F0F0F0"/>
<path d="M130.832 256.495C194.673 256.495 246.427 253.132 246.427 248.984C246.427 244.836 194.673 241.474 130.832 241.474C66.9901 241.474 15.2363 244.836 15.2363 248.984C15.2363 253.132 66.9901 256.495 130.832 256.495Z" fill="#F5F5F5"/>
<path d="M232.063 69.5693H173.577C170.491 69.5693 167.99 72.3526 167.99 75.786V93.4873C167.99 96.9207 170.491 99.704 173.577 99.704H232.063C235.148 99.704 237.649 96.9207 237.649 93.4873V75.786C237.649 72.3526 235.148 69.5693 232.063 69.5693Z" fill="#FF441F"/>
<path d="M220.461 74.6515H174.775C174.235 74.6515 173.797 75.1386 173.797 75.7396V76.9338C173.797 77.5348 174.235 78.0219 174.775 78.0219H220.461C221.001 78.0219 221.438 77.5348 221.438 76.9338V75.7396C221.438 75.1386 221.001 74.6515 220.461 74.6515Z" fill="#FF441F"/>
<path d="M205.991 82.7725H174.775C174.235 82.7725 173.797 83.2596 173.797 83.8605V85.0548C173.797 85.6557 174.235 86.1429 174.775 86.1429H205.991C206.531 86.1429 206.969 85.6557 206.969 85.0548V83.8605C206.969 83.2596 206.531 82.7725 205.991 82.7725Z" fill="#FF441F"/>
<path d="M197.621 90.8933H174.775C174.235 90.8933 173.797 91.3805 173.797 91.9814V93.1756C173.797 93.7766 174.235 94.2637 174.775 94.2637H197.621C198.161 94.2637 198.598 93.7766 198.598 93.1756V91.9814C198.598 91.3805 198.161 90.8933 197.621 90.8933Z" fill="#FF441F"/>
<path d="M225.935 90.8933H203.089C202.549 90.8933 202.111 91.3805 202.111 91.9814V93.1756C202.111 93.7766 202.549 94.2637 203.089 94.2637H225.935C226.475 94.2637 226.913 93.7766 226.913 93.1756V91.9814C226.913 91.3805 226.475 90.8933 225.935 90.8933Z" fill="#FF441F"/>
<g opacity="0.5">
<path d="M220.461 74.6515H174.775C174.235 74.6515 173.797 75.1386 173.797 75.7396V76.9338C173.797 77.5348 174.235 78.0219 174.775 78.0219H220.461C221.001 78.0219 221.438 77.5348 221.438 76.9338V75.7396C221.438 75.1386 221.001 74.6515 220.461 74.6515Z" fill="white"/>
<path d="M205.991 82.7723H174.775C174.235 82.7723 173.797 83.2595 173.797 83.8604V85.0547C173.797 85.6556 174.235 86.1428 174.775 86.1428H205.991C206.531 86.1428 206.969 85.6556 206.969 85.0547V83.8604C206.969 83.2595 206.531 82.7723 205.991 82.7723Z" fill="white"/>
<path d="M197.621 90.8932H174.775C174.235 90.8932 173.797 91.3803 173.797 91.9813V93.1755C173.797 93.7764 174.235 94.2636 174.775 94.2636H197.621C198.161 94.2636 198.598 93.7764 198.598 93.1755V91.9813C198.598 91.3803 198.161 90.8932 197.621 90.8932Z" fill="white"/>
<path d="M225.933 90.8932H203.087C202.547 90.8932 202.109 91.3803 202.109 91.9813V93.1755C202.109 93.7764 202.547 94.2636 203.087 94.2636H225.933C226.473 94.2636 226.911 93.7764 226.911 93.1755V91.9813C226.911 91.3803 226.473 90.8932 225.933 90.8932Z" fill="white"/>
</g>
<path d="M185.214 62.5432H118.828C114.304 62.5432 110.637 66.6246 110.637 71.6593V97.6141C110.637 102.649 114.304 106.73 118.828 106.73H185.214C189.738 106.73 193.406 102.649 193.406 97.6141V71.6593C193.406 66.6246 189.738 62.5432 185.214 62.5432Z" fill="#FF441F"/>
<path d="M187.563 69.994H120.587C119.794 69.994 119.15 70.7099 119.15 71.593V73.3379C119.15 74.221 119.794 74.9369 120.587 74.9369H187.563C188.357 74.9369 189 74.221 189 73.3379V71.593C189 70.7099 188.357 69.994 187.563 69.994Z" fill="#FF441F"/>
<path d="M166.345 81.9031H120.587C119.794 81.9031 119.15 82.619 119.15 83.502V85.2469C119.15 86.13 119.794 86.8459 120.587 86.8459H166.345C167.138 86.8459 167.782 86.13 167.782 85.2469V83.502C167.782 82.619 167.138 81.9031 166.345 81.9031Z" fill="#FF441F"/>
<path d="M154.075 93.8125H120.587C119.794 93.8125 119.15 94.5284 119.15 95.4115V97.1564C119.15 98.0395 119.794 98.7553 120.587 98.7553H154.075C154.869 98.7553 155.512 98.0395 155.512 97.1564V95.4115C155.512 94.5284 154.869 93.8125 154.075 93.8125Z" fill="#FF441F"/>
<path d="M190.003 93.8125H162.101C161.307 93.8125 160.664 94.5284 160.664 95.4115V97.1564C160.664 98.0395 161.307 98.7553 162.101 98.7553H190.003C190.796 98.7553 191.439 98.0395 191.439 97.1564V95.4115C191.439 94.5284 190.796 93.8125 190.003 93.8125Z" fill="#FF441F"/>
<g opacity="0.5">
<path d="M187.563 69.994H120.587C119.794 69.994 119.15 70.7099 119.15 71.593V73.3379C119.15 74.221 119.794 74.9369 120.587 74.9369H187.563C188.357 74.9369 189 74.221 189 73.3379V71.593C189 70.7099 188.357 69.994 187.563 69.994Z" fill="white"/>
<path d="M166.345 81.9033H120.587C119.794 81.9033 119.15 82.6192 119.15 83.5023V85.2472C119.15 86.1303 119.794 86.8462 120.587 86.8462H166.345C167.138 86.8462 167.782 86.1303 167.782 85.2472V83.5023C167.782 82.6192 167.138 81.9033 166.345 81.9033Z" fill="white"/>
<path d="M154.075 93.8125H120.587C119.794 93.8125 119.15 94.5284 119.15 95.4115V97.1564C119.15 98.0395 119.794 98.7553 120.587 98.7553H154.075C154.869 98.7553 155.512 98.0395 155.512 97.1564V95.4115C155.512 94.5284 154.869 93.8125 154.075 93.8125Z" fill="white"/>
<path d="M190.001 93.8125H162.099C161.305 93.8125 160.662 94.5284 160.662 95.4115V97.1564C160.662 98.0395 161.305 98.7553 162.099 98.7553H190.001C190.794 98.7553 191.437 98.0395 191.437 97.1564V95.4115C191.437 94.5284 190.794 93.8125 190.001 93.8125Z" fill="white"/>
</g>
<path d="M143.94 114.738H111.966C109.852 114.738 108.139 116.645 108.139 118.998V172.301C108.139 174.653 109.852 176.56 111.966 176.56H143.94C146.054 176.56 147.767 174.653 147.767 172.301V118.998C147.767 116.645 146.054 114.738 143.94 114.738Z" fill="#FF441F"/>
<path opacity="0.4" d="M143.94 114.738H111.966C109.852 114.738 108.139 116.645 108.139 118.998V172.301C108.139 174.653 109.852 176.56 111.966 176.56H143.94C146.054 176.56 147.767 174.653 147.767 172.301V118.998C147.767 116.645 146.054 114.738 143.94 114.738Z" fill="black"/>
<path d="M142.475 121.187H113.428C113.04 121.187 112.725 121.538 112.725 121.97V123.144C112.725 123.577 113.04 123.927 113.428 123.927H142.475C142.863 123.927 143.178 123.577 143.178 123.144V121.97C143.178 121.538 142.863 121.187 142.475 121.187Z" fill="#FAFAFA"/>
<path d="M133.228 127.782H113.428C113.04 127.782 112.725 128.133 112.725 128.565V129.739C112.725 130.172 113.04 130.522 113.428 130.522H133.228C133.616 130.522 133.931 130.172 133.931 129.739V128.565C133.931 128.133 133.616 127.782 133.228 127.782Z" fill="#FAFAFA"/>
<path d="M142.475 134.384H113.428C113.04 134.384 112.725 134.734 112.725 135.166V136.341C112.725 136.773 113.04 137.124 113.428 137.124H142.475C142.863 137.124 143.178 136.773 143.178 136.341V135.166C143.178 134.734 142.863 134.384 142.475 134.384Z" fill="#FAFAFA"/>
<path d="M124.225 140.978H113.428C113.04 140.978 112.725 141.329 112.725 141.761V142.936C112.725 143.368 113.04 143.719 113.428 143.719H124.225C124.614 143.719 124.929 143.368 124.929 142.936V141.761C124.929 141.329 124.614 140.978 124.225 140.978Z" fill="#FAFAFA"/>
<path d="M139.331 140.978H128.534C128.145 140.978 127.83 141.329 127.83 141.761V142.936C127.83 143.368 128.145 143.719 128.534 143.719H139.331C139.719 143.719 140.034 143.368 140.034 142.936V141.761C140.034 141.329 139.719 140.978 139.331 140.978Z" fill="#FAFAFA"/>
<path d="M142.475 147.58H113.428C113.04 147.58 112.725 147.93 112.725 148.363V149.537C112.725 149.969 113.04 150.32 113.428 150.32H142.475C142.863 150.32 143.178 149.969 143.178 149.537V148.363C143.178 147.93 142.863 147.58 142.475 147.58Z" fill="#FAFAFA"/>
<path d="M142.475 154.175H113.428C113.04 154.175 112.725 154.525 112.725 154.958V156.132C112.725 156.564 113.04 156.915 113.428 156.915H142.475C142.863 156.915 143.178 156.564 143.178 156.132V154.958C143.178 154.525 142.863 154.175 142.475 154.175Z" fill="#FAFAFA"/>
<path d="M137.323 160.776H113.428C113.04 160.776 112.725 161.127 112.725 161.559V162.734C112.725 163.166 113.04 163.516 113.428 163.516H137.323C137.712 163.516 138.027 163.166 138.027 162.734V161.559C138.027 161.127 137.712 160.776 137.323 160.776Z" fill="#FAFAFA"/>
<path d="M124.577 167.371H113.428C113.04 167.371 112.725 167.722 112.725 168.154V169.328C112.725 169.761 113.04 170.111 113.428 170.111H124.577C124.965 170.111 125.28 169.761 125.28 169.328V168.154C125.28 167.722 124.965 167.371 124.577 167.371Z" fill="#FAFAFA"/>
<path d="M152.591 114.36H108.24L127.849 131.723L157.915 144.329V120.272C157.912 118.703 157.349 117.199 156.351 116.091C155.353 114.982 154.001 114.36 152.591 114.36Z" fill="#FF441F"/>
<path opacity="0.4" d="M152.591 114.36H108.24L127.849 131.723L157.915 144.329V120.272C157.912 118.703 157.349 117.199 156.351 116.091C155.353 114.982 154.001 114.36 152.591 114.36Z" fill="black"/>
<path d="M150.653 123.304H118.203C117.715 123.304 117.32 123.743 117.32 124.286V126.117C117.32 126.659 117.715 127.099 118.203 127.099H150.653C151.141 127.099 151.536 126.659 151.536 126.117V124.286C151.536 123.743 151.141 123.304 150.653 123.304Z" fill="#FAFAFA"/>
<path d="M229.291 161.36V126.647C229.291 123.987 227.353 121.831 224.963 121.831H170.799C168.408 121.831 166.47 123.987 166.47 126.647V161.36C166.47 164.02 168.408 166.177 170.799 166.177H224.963C227.353 166.177 229.291 164.02 229.291 161.36Z" fill="#FF441F"/>
<path d="M239.182 150.36V115.647C239.182 112.987 237.244 110.831 234.853 110.831H180.689C178.299 110.831 176.361 112.987 176.361 115.647V150.36C176.361 153.02 178.299 155.177 180.689 155.177H234.853C237.244 155.177 239.182 153.02 239.182 150.36Z" fill="#FF441F"/>
<path opacity="0.5" d="M239.182 150.36V115.647C239.182 112.987 237.244 110.831 234.853 110.831H180.689C178.299 110.831 176.361 112.987 176.361 115.647V150.36C176.361 153.02 178.299 155.177 180.689 155.177H234.853C237.244 155.177 239.182 153.02 239.182 150.36Z" fill="white"/>
<path d="M233.684 138.464V117.094C233.684 115.91 232.821 114.951 231.758 114.951H214.057C212.993 114.951 212.131 115.91 212.131 117.094V138.464C212.131 139.647 212.993 140.607 214.057 140.607H231.758C232.821 140.607 233.684 139.647 233.684 138.464Z" fill="#FF441F"/>
<path opacity="0.7" d="M233.684 138.464V117.094C233.684 115.91 232.821 114.951 231.758 114.951H214.057C212.993 114.951 212.131 115.91 212.131 117.094V138.464C212.131 139.647 212.993 140.607 214.057 140.607H231.758C232.821 140.607 233.684 139.647 233.684 138.464Z" fill="white"/>
<path d="M208.758 148.801V132.426C208.758 131.518 208.096 130.781 207.279 130.781H193.716C192.899 130.781 192.237 131.518 192.237 132.426V148.801C192.237 149.709 192.899 150.446 193.716 150.446H207.279C208.096 150.446 208.758 149.709 208.758 148.801Z" fill="#FF441F"/>
<path opacity="0.3" d="M208.758 148.801V132.426C208.758 131.518 208.096 130.781 207.279 130.781H193.716C192.899 130.781 192.237 131.518 192.237 132.426V148.801C192.237 149.709 192.899 150.446 193.716 150.446H207.279C208.096 150.446 208.758 149.709 208.758 148.801Z" fill="white"/>
<path d="M200.494 44.9813V36.1372C200.494 33.433 198.524 31.2408 196.094 31.2408L50.5463 31.2408C48.1163 31.2408 46.1464 33.433 46.1464 36.1372V44.9813C46.1464 47.6855 48.1163 49.8777 50.5463 49.8777L196.094 49.8777C198.524 49.8777 200.494 47.6855 200.494 44.9813Z" fill="#FF441F"/>
<path opacity="0.5" d="M200.494 44.9813V36.1372C200.494 33.433 198.524 31.2408 196.094 31.2408L50.5463 31.2408C48.1163 31.2408 46.1464 33.433 46.1464 36.1372V44.9813C46.1464 47.6855 48.1163 49.8777 50.5463 49.8777L196.094 49.8777C198.524 49.8777 200.494 47.6855 200.494 44.9813Z" fill="white"/>
<path d="M172.957 52.9959V46.5802H131.075V52.9959H172.957Z" fill="#FF441F"/>
<path opacity="0.5" d="M172.957 52.9959V46.5802H131.075V52.9959H172.957Z" fill="white"/>
<path d="M215.514 17.4473V8.60331C215.514 5.8991 213.544 3.70691 211.114 3.70691L65.5658 3.70691C63.1358 3.70691 61.1659 5.8991 61.1659 8.60331V17.4473C61.1659 20.1515 63.1358 22.3437 65.5658 22.3437L211.114 22.3437C213.544 22.3437 215.514 20.1515 215.514 17.4473Z" fill="#FF441F"/>
<path d="M59.5024 101.708C58.9777 103.035 58.3994 104.468 57.8927 105.868C57.3859 107.268 56.8612 108.707 56.4022 110.141C55.4603 112.934 54.705 115.802 54.1426 118.719L53.9697 119.781L53.9101 120.179C53.9101 120.292 53.9101 120.438 53.8743 120.57C53.8517 121.216 53.8636 121.863 53.9101 122.508C54.0234 123.907 54.2261 125.407 54.5063 126.906C55.0071 129.912 55.645 133.01 56.2949 136.062L53.2364 137.389C51.8107 134.497 50.5965 131.482 49.6056 128.373C49.0836 126.754 48.6613 125.099 48.3417 123.416C48.1626 122.486 48.051 121.541 48.0078 120.59C48.0078 120.325 48.0078 120.073 48.0078 119.787C48.0078 119.502 48.0078 119.184 48.0495 118.998L48.1688 117.671C48.3469 115.962 48.6197 114.267 48.9856 112.595C49.3194 110.937 49.7487 109.324 50.1779 107.732C50.6072 106.14 51.1438 104.574 51.7102 103.035C51.9904 102.265 52.3063 101.502 52.5806 100.739C52.8548 99.9762 53.1768 99.2464 53.5583 98.4303L59.5024 101.708Z" fill="#E4897B"/>
<path d="M56.1342 135.167L58.4594 137.694L53.3858 140.348C53.3858 140.348 52.1576 137.953 53.0102 135.79L56.1342 135.167Z" fill="#E4897B"/>
<path d="M60.3382 141.456L56.0516 143.407L53.3926 140.321L58.4602 137.694L60.3382 141.456Z" fill="#E4897B"/>
<path opacity="0.4" d="M147.171 138.736C138.736 137.682 130.77 133.868 124.282 127.777C117.794 121.686 113.074 113.591 110.72 104.515C108.365 95.4394 108.481 85.7906 111.054 76.7883C113.626 67.7861 118.539 59.8347 125.172 53.9393C131.804 48.0439 139.859 44.4693 148.316 43.6673C156.774 42.8652 165.256 44.8719 172.689 49.4335C180.123 53.9951 186.174 60.9068 190.078 69.2949C193.981 77.6831 195.563 87.171 194.622 96.5592C193.997 102.797 192.273 108.836 189.55 114.332C186.827 119.828 183.157 124.673 178.75 128.59C174.343 132.507 169.286 135.419 163.868 137.16C158.449 138.901 152.776 139.436 147.171 138.736Z" fill="#FAFAFA"/>
<path opacity="0.4" d="M178.401 53.6261L113.118 111.673C112.844 111.009 112.575 110.346 112.325 109.683C110.688 105.35 109.641 100.771 109.219 96.0947L165.606 45.9564C170.236 47.6749 174.564 50.2696 178.401 53.6261Z" fill="#FAFAFA"/>
<path opacity="0.4" d="M193.466 79.0569L132.088 133.627C126.257 130.245 121.204 125.414 117.32 119.509L184.338 59.9159C188.658 65.4339 191.781 71.9827 193.466 79.0569Z" fill="#FAFAFA"/>
<path d="M103.639 73.0061L103.072 72.7938C104.053 69.5726 105.286 66.4535 106.757 63.4721L107.275 63.7905C105.824 66.7386 104.607 69.8222 103.639 73.0061ZM110.876 57.5208L110.393 57.1293C115.293 49.7568 121.705 43.7945 129.096 39.7398L129.364 40.3369C122.058 44.3498 115.719 50.2483 110.876 57.5407V57.5208ZM176.213 41.2459C174.265 40.083 172.249 39.0656 170.179 38.2006L170.394 37.5769C172.484 38.4623 174.519 39.4995 176.487 40.6819L176.213 41.2459Z" fill="#FF441F"/>
<path opacity="0.3" d="M103.639 73.0061L103.072 72.7938C104.053 69.5726 105.286 66.4535 106.757 63.4721L107.275 63.7905C105.824 66.7386 104.607 69.8222 103.639 73.0061ZM110.876 57.5208L110.393 57.1293C115.293 49.7568 121.705 43.7945 129.096 39.7398L129.364 40.3369C122.058 44.3498 115.719 50.2483 110.876 57.5407V57.5208ZM176.213 41.2459C174.265 40.083 172.249 39.0656 170.179 38.2006L170.394 37.5769C172.484 38.4623 174.519 39.4995 176.487 40.6819L176.213 41.2459Z" fill="black"/>
<path d="M196.333 66.8624C190.813 54.1207 181.098 44.2318 169.203 39.2456C157.307 34.2594 144.144 34.5585 132.442 40.0808C120.739 45.6031 111.395 55.925 106.347 68.9069C101.298 81.8887 100.932 96.5347 105.325 109.809C101.342 111.361 97.4072 113.026 93.4962 114.745C87.8562 117.235 82.2679 119.836 76.7313 122.547C71.1987 125.274 65.6899 128.054 60.2347 130.96C57.4982 132.386 54.7975 133.893 52.0729 135.352C50.6555 136.03 49.3713 137.01 48.293 138.238C47.7095 138.918 47.1956 139.668 46.7608 140.474C46.2303 141.428 45.8285 142.463 45.5684 143.546C45.1198 145.498 45.3138 147.565 46.1153 149.372C46.9169 151.179 48.273 152.607 49.9385 153.399C50.8634 153.83 51.8392 154.112 52.836 154.234C53.6779 154.341 54.5279 154.341 55.3698 154.234C56.8998 154.028 58.3784 153.489 59.722 152.649C62.4227 151.129 65.1414 149.663 67.8242 148.104C73.1899 145.059 78.5557 141.881 83.8558 138.656C89.1559 135.432 94.462 132.055 99.6369 128.591C103.214 126.183 106.827 123.722 110.368 121.147C117.169 133.094 127.838 141.672 140.167 145.102C152.495 148.533 165.537 146.554 176.59 139.575C187.643 132.596 195.86 121.153 199.537 107.616C203.215 94.0794 202.072 79.4869 196.345 66.8624H196.333ZM169.23 130.243C162.302 134.049 154.515 135.483 146.854 134.364C139.193 133.245 132.002 129.624 126.191 123.957C120.38 118.29 116.209 110.833 114.205 102.529C112.202 94.2243 112.457 85.4453 114.937 77.3018C117.417 69.1583 122.011 62.016 128.139 56.778C134.266 51.5401 141.652 48.4417 149.362 47.8747C157.071 47.3077 164.759 49.2975 171.453 53.5925C178.146 57.8875 183.545 64.2948 186.967 72.0043C189.239 77.1242 190.583 82.6921 190.921 88.3901C191.26 94.088 190.586 99.8043 188.939 105.212C187.292 110.621 184.704 115.615 181.322 119.91C177.94 124.205 173.832 127.716 169.23 130.243Z" fill="#FF441F"/>
<path opacity="0.3" d="M196.333 66.8624C190.813 54.1207 181.098 44.2318 169.203 39.2456C157.307 34.2594 144.144 34.5585 132.442 40.0808C120.739 45.6031 111.395 55.925 106.347 68.9069C101.298 81.8887 100.932 96.5347 105.325 109.809C101.342 111.361 97.4072 113.026 93.4962 114.745C87.8562 117.235 82.2679 119.836 76.7313 122.547C71.1987 125.274 65.6899 128.054 60.2347 130.96C57.4982 132.386 54.7975 133.893 52.0729 135.352C50.6555 136.03 49.3713 137.01 48.293 138.238C47.7095 138.918 47.1956 139.668 46.7608 140.474C46.2303 141.428 45.8285 142.463 45.5684 143.546C45.1198 145.498 45.3138 147.565 46.1153 149.372C46.9169 151.179 48.273 152.607 49.9385 153.399C50.8634 153.83 51.8392 154.112 52.836 154.234C53.6779 154.341 54.5279 154.341 55.3698 154.234C56.8998 154.028 58.3784 153.489 59.722 152.649C62.4227 151.129 65.1414 149.663 67.8242 148.104C73.1899 145.059 78.5557 141.881 83.8558 138.656C89.1559 135.432 94.462 132.055 99.6369 128.591C103.214 126.183 106.827 123.722 110.368 121.147C117.169 133.094 127.838 141.672 140.167 145.102C152.495 148.533 165.537 146.554 176.59 139.575C187.643 132.596 195.86 121.153 199.537 107.616C203.215 94.0794 202.072 79.4869 196.345 66.8624H196.333ZM169.23 130.243C162.302 134.049 154.515 135.483 146.854 134.364C139.193 133.245 132.002 129.624 126.191 123.957C120.38 118.29 116.209 110.833 114.205 102.529C112.202 94.2243 112.457 85.4453 114.937 77.3018C117.417 69.1583 122.011 62.016 128.139 56.778C134.266 51.5401 141.652 48.4417 149.362 47.8747C157.071 47.3077 164.759 49.2975 171.453 53.5925C178.146 57.8875 183.545 64.2948 186.967 72.0043C189.239 77.1242 190.583 82.6921 190.921 88.3901C191.26 94.088 190.586 99.8043 188.939 105.212C187.292 110.621 184.704 115.615 181.322 119.91C177.94 124.205 173.832 127.716 169.23 130.243Z" fill="black"/>
<path d="M75.9805 78.0153C75.9805 78.4068 76.1653 78.7252 76.3978 78.7252C76.6303 78.7252 76.8151 78.4068 76.8151 78.0153C76.8151 77.6239 76.6303 77.3054 76.3978 77.3054C76.1653 77.3054 75.9805 77.6504 75.9805 78.0153Z" fill="#263238"/>
<path d="M76.1465 78.7251C76.5685 79.9267 77.1361 81.0584 77.8337 82.0889C77.5925 82.2809 77.3165 82.4118 77.0251 82.4726C76.7336 82.5333 76.4337 82.5224 76.1465 82.4405V78.7251Z" fill="#DE5753"/>
<path d="M74.7454 75.8324C74.7122 75.8324 74.6794 75.824 74.6494 75.8079C74.6195 75.7919 74.5932 75.7684 74.5725 75.7395C74.5415 75.6888 74.5291 75.6268 74.538 75.5663C74.5468 75.5058 74.5763 75.4514 74.6202 75.4144C74.8828 75.1928 75.1896 75.0451 75.5145 74.9838C75.8394 74.9226 76.1728 74.9497 76.4863 75.0627C76.5145 75.0713 76.5407 75.0863 76.5633 75.1068C76.5859 75.1273 76.6044 75.1529 76.6176 75.1819C76.6308 75.2108 76.6384 75.2425 76.6398 75.275C76.6413 75.3074 76.6367 75.3398 76.6262 75.3701C76.6157 75.4005 76.5997 75.428 76.579 75.4509C76.5584 75.4739 76.5337 75.4918 76.5064 75.5035C76.4792 75.5152 76.4501 75.5203 76.4209 75.5187C76.3918 75.5171 76.3633 75.5086 76.3373 75.494C76.0882 75.409 75.8245 75.3917 75.5683 75.4437C75.312 75.4957 75.0707 75.6153 74.8647 75.7925C74.8293 75.8186 74.7878 75.8325 74.7454 75.8324Z" fill="#263238"/>
<path d="M63.9369 80.9677C64.5331 84.5305 65.1889 91.0656 62.9473 93.4475C62.9473 93.4475 63.8237 97.0634 69.7796 97.0634C76.3377 97.0634 72.9036 93.4475 72.9036 93.4475C69.3265 92.4921 69.4279 89.5463 70.0479 86.773L63.9369 80.9677Z" fill="#E4897B"/>
<path d="M60.272 95.3252C60.9814 94.0978 59.7891 91.1189 59.7891 91.1189C59.7891 91.1189 70.3297 88.1664 74.6402 92.6979C75.5345 93.6334 74.5448 95.0134 74.5448 95.0134L60.272 95.3252Z" fill="#FF441F"/>
<path opacity="0.1" d="M60.272 95.3252C60.9814 94.0978 59.7891 91.1189 59.7891 91.1189C59.7891 91.1189 70.3297 88.1664 74.6402 92.6979C75.5345 93.6334 74.5448 95.0134 74.5448 95.0134L60.272 95.3252Z" fill="black"/>
<path d="M42.8318 230.692C42.2773 230.692 41.389 229.664 41.1267 229.279C41.1154 229.261 41.1094 229.239 41.1094 229.216C41.1094 229.194 41.1154 229.172 41.1267 229.153C41.1363 229.135 41.1502 229.119 41.167 229.109C41.1838 229.098 41.2028 229.093 41.2221 229.094C41.2876 229.094 42.7483 229.239 43.1478 229.817C43.1912 229.878 43.2222 229.948 43.2387 230.024C43.2552 230.1 43.2567 230.178 43.2432 230.255C43.238 230.353 43.2054 230.448 43.1498 230.525C43.0943 230.602 43.0186 230.659 42.9331 230.686L42.8318 230.692ZM41.4486 229.366C41.8838 229.923 42.5814 230.553 42.8795 230.474C42.8795 230.474 42.9987 230.44 43.0345 230.228C43.0423 230.184 43.041 230.138 43.0307 230.094C43.0204 230.051 43.0013 230.01 42.9749 229.976C42.5332 229.604 42.0018 229.387 41.4486 229.352V229.366Z" fill="#FF441F"/>
<path d="M41.5158 229.352C41.4088 229.364 41.3009 229.364 41.1939 229.352C41.175 229.351 41.157 229.343 41.1422 229.33C41.1273 229.317 41.1163 229.299 41.1104 229.279C41.102 229.261 41.0977 229.24 41.0977 229.22C41.0977 229.199 41.102 229.178 41.1104 229.16C41.1521 229.12 42.0285 228.105 42.6903 228.105C42.7695 228.103 42.8482 228.12 42.9211 228.154C42.9941 228.188 43.0597 228.239 43.1136 228.304C43.173 228.359 43.2136 228.435 43.2288 228.52C43.2439 228.604 43.2328 228.692 43.1971 228.768C43.0242 229.14 42.112 229.352 41.5158 229.352ZM41.4383 229.12C42.0345 229.12 42.899 228.914 43.0421 228.622C43.0421 228.622 43.0838 228.536 42.9884 228.43C42.9537 228.388 42.9112 228.355 42.8638 228.333C42.8164 228.311 42.7654 228.301 42.7142 228.304C42.2254 228.429 41.7812 228.713 41.4383 229.12Z" fill="#FF441F"/>
<path d="M82.1763 245.753C81.7244 245.75 81.2736 245.703 80.8289 245.614C80.8068 245.609 80.7869 245.596 80.7727 245.577C80.7585 245.557 80.751 245.533 80.7514 245.508C80.748 245.485 80.7508 245.461 80.7593 245.44C80.7677 245.419 80.7816 245.401 80.7991 245.388C80.8647 245.348 82.3909 244.373 83.1242 244.599C83.1922 244.616 83.2564 244.648 83.3127 244.694C83.3691 244.739 83.4166 244.797 83.4521 244.864C83.4988 244.938 83.5239 245.026 83.5239 245.116C83.5239 245.207 83.4988 245.295 83.4521 245.368C83.2792 245.667 82.7367 245.753 82.1763 245.753ZM81.1687 245.441C81.9795 245.574 83.0884 245.567 83.2912 245.249C83.321 245.209 83.3448 245.136 83.2912 244.997C83.2456 244.914 83.1729 244.855 83.0884 244.831C82.6234 244.698 81.6993 245.136 81.1687 245.441Z" fill="#FF441F"/>
<path d="M80.8517 245.62C80.8323 245.627 80.8116 245.627 80.7921 245.62C80.7756 245.609 80.7627 245.592 80.7552 245.571C80.7478 245.551 80.7461 245.529 80.7504 245.508C80.7908 244.817 81.029 244.159 81.43 243.63C81.5111 243.552 81.6064 243.495 81.7093 243.461C81.8122 243.428 81.9203 243.42 82.0262 243.438C82.3124 243.438 82.3959 243.63 82.4137 243.756C82.4912 244.307 81.4479 245.362 80.9173 245.627L80.8517 245.62ZM81.9189 243.63C81.7877 243.629 81.6607 243.681 81.5612 243.776C81.2241 244.195 81.0153 244.722 80.965 245.282C81.5016 244.917 82.217 244.094 82.1574 243.763C82.1574 243.763 82.1574 243.65 81.9547 243.63H81.9189Z" fill="#FF441F"/>
<path d="M76.0352 245.501H80.4172L80.8524 234.215H76.4704L76.0352 245.501Z" fill="#E4897B"/>
<path d="M37.0137 226.128L40.6743 228.795L48.7586 221.198L45.0921 218.525L37.0137 226.128Z" fill="#E4897B"/>
<path d="M41.2767 228.543L37.473 225.073C37.4058 225.012 37.3215 224.978 37.2345 224.978C37.1475 224.978 37.0632 225.012 36.996 225.073L33.8601 227.813C33.7843 227.88 33.7231 227.965 33.6811 228.063C33.639 228.16 33.6172 228.266 33.6172 228.374C33.6172 228.481 33.639 228.588 33.6811 228.685C33.7231 228.782 33.7843 228.867 33.8601 228.934C35.2075 230.122 35.9169 230.626 37.5922 232.152C38.6236 233.088 41.1694 235.954 42.6062 237.248C44.043 238.541 45.3606 237.148 44.8836 236.478C42.7433 233.459 41.9027 230.878 41.6583 229.279C41.616 228.99 41.4803 228.728 41.2767 228.543Z" fill="#263238"/>
<path d="M80.3872 244.937H75.6177C75.5307 244.937 75.4464 244.97 75.3782 245.031C75.3101 245.091 75.2621 245.175 75.2421 245.269L74.3776 249.601C74.3559 249.706 74.3559 249.815 74.3777 249.92C74.3995 250.025 74.4424 250.123 74.5033 250.207C74.5642 250.291 74.6415 250.358 74.7292 250.404C74.8169 250.449 74.9128 250.472 75.0096 250.47C76.7326 250.437 79.2246 250.324 81.3948 250.324C83.9286 250.324 86.1226 250.477 89.0916 250.477C90.8802 250.477 91.3929 248.454 90.6357 248.274C87.2136 247.438 84.4115 247.352 81.4544 245.315C81.1371 245.081 80.7676 244.951 80.3872 244.937Z" fill="#263238"/>
<path d="M54.3154 94.9005C50.5177 96.8909 48.3535 110.227 48.3535 110.227L57.6362 114.347C58.995 110.655 60.0933 106.85 60.9212 102.968C62.1971 96.8246 58.2026 92.8438 54.3154 94.9005Z" fill="#263238"/>
<path d="M59.2392 102.418C56.9439 105.005 55.8946 110.074 55.4355 113.371L57.6593 114.36C58.9795 110.773 60.0556 107.08 60.8788 103.313C60.682 101.907 60.1931 101.343 59.2392 102.418Z" fill="#203048"/>
<path d="M79.6426 94.8077C79.6426 94.8077 84.3048 100.673 79.9049 136.938H56.4806C56.3196 132.957 58.5792 113.418 55.1094 94.5622C57.6981 94.0036 60.3171 93.6357 62.9493 93.4608C66.2652 93.2417 69.5898 93.2417 72.9057 93.4608C75.1792 93.7155 77.4316 94.1658 79.6426 94.8077Z" fill="#263238"/>
<path d="M81.7821 108.886L77.8353 101.316C77.0734 104.848 76.7623 108.482 76.9112 112.111C77.0185 114.712 79.1588 124.345 81.0845 125.752C81.5955 120.149 81.8284 114.518 81.7821 108.886Z" fill="#203048"/>
<path d="M82.3307 99.9893C82.9269 103.214 83.5231 106.518 84.161 109.756C84.7989 112.993 85.4607 116.244 86.2298 119.382C86.4265 120.159 86.6114 120.955 86.826 121.698L86.987 122.269L87.0645 122.554V122.521C87.0227 122.461 86.975 122.454 87.0108 122.521C87.2558 122.818 87.5691 123.036 87.917 123.151C88.4806 123.384 89.061 123.564 89.6519 123.688C92.4707 124.185 95.3246 124.392 98.1775 124.305L98.7438 127.915C97.9449 128.2 97.1997 128.406 96.4127 128.611C95.6258 128.817 94.8507 128.989 94.0578 129.122C92.4172 129.426 90.7539 129.551 89.0915 129.494C88.1675 129.466 87.2485 129.333 86.349 129.096C85.2053 128.817 84.1306 128.262 83.2012 127.47C82.5941 126.925 82.0931 126.247 81.7286 125.48C81.6332 125.281 81.5497 125.055 81.4722 124.863L81.3649 124.551L81.1443 123.887C80.8402 123.045 80.5898 122.215 80.3156 121.386C79.308 118.069 78.4674 114.718 77.7281 111.374C76.9888 108.03 76.3509 104.693 75.8203 101.263L82.3307 99.9893Z" fill="#E4897B"/>
<path d="M73.7935 98.3637C72.5594 102.816 77.5614 116.092 77.5614 116.092L87.5238 113.305C87.5238 113.305 87.1422 106.405 84.8707 100.931C81.4486 92.6778 75.2721 93.0228 73.7935 98.3637Z" fill="#263238"/>
<path d="M98.092 124.305L103.052 124.166L100.668 129.912C100.668 129.912 98.6464 130.21 96.989 127.178L95.2422 124.856L97.2513 124.412C97.5279 124.347 97.8094 124.311 98.092 124.305Z" fill="#E4897B"/>
<path d="M106.183 125.234L103.345 129.998L100.668 129.912L103.053 124.166L106.183 125.234Z" fill="#E4897B"/>
<path d="M80.8527 234.215L80.6261 240.034H76.2441L76.4707 234.215H80.8527Z" fill="#CE6F64"/>
<path d="M45.0932 218.524L48.7597 221.198L44.5864 225.113L40.9258 222.446L45.0932 218.524Z" fill="#CE6F64"/>
<path d="M64.2109 77.1726C64.4733 81.9961 64.4077 84.8423 66.5957 87.3171C69.8867 91.0524 75.2464 88.843 76.2838 83.9997C77.2198 79.6607 76.6356 72.4952 72.3907 70.5711C71.454 70.1504 70.4367 70.0014 69.4342 70.1381C68.4316 70.2748 67.4767 70.6927 66.659 71.3526C65.8414 72.0125 65.1878 72.8928 64.7596 73.9108C64.3314 74.9288 64.1426 76.0512 64.2109 77.1726Z" fill="#E4897B"/>
<path d="M59.1093 76.3234C60.1884 80.7222 62.7282 85.7911 66.0132 86.1162C70.0912 86.5143 71.9334 81.8236 72.47 76.9803C74.9143 75.1159 73.6325 73.0658 76.0829 72.807C79.2308 72.4753 78.2232 66.0662 74.0797 65.0378C74.0797 65.0378 75.4688 67.9239 72.5534 66.4643C69.7809 64.998 66.7006 64.4037 63.6463 64.7459C63.6463 64.7459 67.3666 66.8159 63.7298 67.7382C60.0931 68.6604 59.008 71.155 60.6833 72.6611C60.6833 72.6677 58.3999 73.4307 59.1093 76.3234Z" fill="#263238"/>
<path d="M69.983 77.9755C70.0631 79.1744 70.497 80.3104 71.2171 81.2066C72.171 82.3809 73.1667 81.6511 73.3336 80.2246C73.4886 78.9441 73.1727 76.7879 72.0041 76.1377C70.8356 75.4875 69.9055 76.5291 69.983 77.9755Z" fill="#E4897B"/>
<path d="M71.5942 136.938C71.5942 136.938 75.8629 171.339 72.5004 185.126C67.1705 206.954 46.7927 225.378 46.7927 225.378L39.8828 220.336C39.8828 220.336 57.2379 204.777 59.3604 186.499C61.2682 170.091 56.4808 150.247 56.4808 136.931L71.5942 136.938Z" fill="#FF441F"/>
<path opacity="0.1" d="M71.5942 136.938C71.5942 136.938 75.8629 171.339 72.5004 185.126C67.1705 206.954 46.7927 225.378 46.7927 225.378L39.8828 220.336C39.8828 220.336 57.2379 204.777 59.3604 186.499C61.2682 170.091 56.4808 150.247 56.4808 136.931L71.5942 136.938Z" fill="black"/>
<path d="M73.3573 156.603C72.2208 155.154 70.9698 153.822 69.6191 152.622C70.3465 163.788 70.9427 180.329 70.2809 192.079C71.1707 189.826 71.9119 187.505 72.4987 185.132C74.1383 178.398 73.9654 166.767 73.3573 156.603Z" fill="#FF441F"/>
<path opacity="0.3" d="M73.3573 156.603C72.2208 155.154 70.9698 153.822 69.6191 152.622C70.3465 163.788 70.9427 180.329 70.2809 192.079C71.1707 189.826 71.9119 187.505 72.4987 185.132C74.1383 178.398 73.9654 166.767 73.3573 156.603Z" fill="black"/>
<path d="M49.5743 223.66C49.6041 223.66 46.8974 225.65 46.8974 225.65L39.3496 220.143L41.7344 217.947L49.5743 223.66Z" fill="#FF441F"/>
<path opacity="0.3" d="M49.5743 223.66C49.6041 223.66 46.8974 225.65 46.8974 225.65L39.3496 220.143L41.7344 217.947L49.5743 223.66Z" fill="black"/>
<path d="M79.9035 136.938C79.9035 136.938 86.4974 168.055 86.9624 182.923C87.487 199.589 82.2585 238.906 82.2585 238.906H74.8359C74.8359 238.906 73.9237 199.284 73.5958 184.104C73.2321 167.55 64.5039 136.938 64.5039 136.938H79.9035Z" fill="#FF441F"/>
<path opacity="0.1" d="M80.0402 137.272C80.0402 137.272 86.6341 168.388 87.0991 183.257C87.6238 199.923 82.3952 239.24 82.3952 239.24H74.9726C74.9726 239.24 74.0604 199.618 73.7325 184.438C73.3689 167.884 64.6406 137.272 64.6406 137.272H80.0402Z" fill="black"/>
<path d="M83.6822 235.622C83.718 235.622 83.2649 239.046 83.2649 239.046H74.2386L73.9941 235.987L83.6822 235.622Z" fill="#FF441F"/>
<path opacity="0.3" d="M83.6822 235.622C83.718 235.622 83.2649 239.046 83.2649 239.046H74.2386L73.9941 235.987L83.6822 235.622Z" fill="black"/>
<path d="M194.028 107.035C194.535 107.566 194.935 108.017 195.352 108.521C195.769 109.026 196.163 109.517 196.544 110.028C197.319 111.043 198.047 112.111 198.75 113.186C200.155 115.342 201.405 117.618 202.488 119.993L202.709 120.477C202.817 120.712 202.906 120.956 202.977 121.207C203.121 121.692 203.209 122.196 203.239 122.706C203.278 123.606 203.167 124.506 202.912 125.36C202.476 126.78 201.829 128.107 200.998 129.288C199.5 131.429 197.733 133.319 195.751 134.901L194.267 133.003C194.964 132.094 195.692 131.119 196.342 130.144C197.003 129.199 197.601 128.201 198.13 127.158C198.625 126.248 198.991 125.259 199.215 124.226C199.292 123.856 199.306 123.473 199.257 123.098C199.236 122.972 199.2 122.849 199.15 122.733C199.127 122.682 199.101 122.633 199.072 122.587L198.881 122.229C197.732 120.142 196.484 118.125 195.143 116.185C194.481 115.209 193.772 114.274 193.057 113.351C192.705 112.887 192.341 112.436 191.977 111.985C191.614 111.534 191.22 111.082 190.904 110.731L194.028 107.035Z" fill="#E4897B"/>
<path d="M194.838 132.446L190.385 131.637L192.716 135.976C192.716 135.976 195.584 135.863 196.4 133.985L194.838 132.446Z" fill="#E4897B"/>
<path d="M187.094 133.64L189.216 137.163L192.716 135.976L190.385 131.637L187.094 133.64Z" fill="#E4897B"/>
<path d="M194.623 245.693C194.32 245.722 194.018 245.631 193.771 245.435C193.696 245.356 193.641 245.257 193.61 245.148C193.58 245.039 193.576 244.923 193.598 244.811C193.602 244.74 193.624 244.671 193.66 244.613C193.697 244.554 193.748 244.508 193.806 244.479C194.325 244.221 195.684 245.189 195.839 245.302C195.857 245.314 195.871 245.332 195.878 245.354C195.886 245.375 195.887 245.399 195.881 245.421C195.879 245.444 195.87 245.465 195.856 245.482C195.842 245.499 195.824 245.51 195.804 245.514C195.417 245.623 195.021 245.684 194.623 245.693ZM194.027 244.665C193.984 244.658 193.939 244.658 193.896 244.665C193.87 244.679 193.847 244.7 193.832 244.727C193.816 244.754 193.807 244.785 193.806 244.818C193.791 244.892 193.792 244.969 193.811 245.042C193.83 245.115 193.865 245.182 193.914 245.236C194.14 245.461 194.725 245.494 195.506 245.322C195.058 244.993 194.555 244.769 194.027 244.665Z" fill="#FF441F"/>
<path d="M195.816 245.508H195.763C195.339 245.236 194.523 244.181 194.624 243.604C194.643 243.513 194.688 243.431 194.753 243.371C194.817 243.311 194.898 243.277 194.982 243.272C195.062 243.259 195.144 243.267 195.222 243.294C195.299 243.322 195.37 243.369 195.429 243.431C195.918 243.909 195.924 245.342 195.924 245.421C195.922 245.442 195.917 245.461 195.908 245.479C195.898 245.496 195.885 245.51 195.87 245.521L195.816 245.508ZM195.053 243.517H195.005C194.874 243.517 194.844 243.597 194.833 243.657C194.773 243.995 195.28 244.804 195.703 245.183C195.713 244.626 195.57 244.079 195.292 243.617C195.256 243.58 195.213 243.552 195.167 243.535C195.121 243.517 195.072 243.512 195.023 243.517H195.053Z" fill="#FF441F"/>
<path d="M174.305 245.693C173.924 245.734 173.543 245.626 173.226 245.388C173.154 245.318 173.099 245.229 173.065 245.13C173.031 245.03 173.018 244.923 173.029 244.818C173.033 244.753 173.051 244.691 173.083 244.636C173.114 244.582 173.157 244.537 173.208 244.506C173.762 244.161 175.539 245.169 175.742 245.295C175.76 245.309 175.775 245.328 175.785 245.35C175.794 245.372 175.798 245.397 175.795 245.421C175.792 245.445 175.782 245.466 175.767 245.483C175.752 245.499 175.733 245.51 175.712 245.514C175.249 245.624 174.778 245.684 174.305 245.693ZM173.512 244.665C173.444 244.66 173.376 244.676 173.315 244.712C173.294 244.723 173.276 244.741 173.263 244.763C173.25 244.785 173.244 244.811 173.244 244.838C173.235 244.907 173.241 244.977 173.262 245.043C173.282 245.109 173.317 245.168 173.363 245.216C173.637 245.488 174.371 245.534 175.36 245.348C174.783 245.006 174.158 244.775 173.512 244.665Z" fill="#FF441F"/>
<path d="M175.695 245.508H175.648C175.117 245.242 174.062 244.181 174.145 243.604C174.145 243.471 174.253 243.305 174.545 243.272C174.651 243.259 174.759 243.271 174.862 243.306C174.964 243.341 175.059 243.4 175.141 243.477C175.701 243.995 175.809 245.335 175.809 245.395C175.811 245.415 175.808 245.436 175.801 245.454C175.794 245.473 175.782 245.489 175.767 245.501C175.744 245.512 175.719 245.514 175.695 245.508ZM174.628 243.517H174.563C174.372 243.517 174.36 243.623 174.354 243.65C174.306 243.988 175.022 244.831 175.546 245.196C175.495 244.629 175.286 244.093 174.95 243.663C174.86 243.577 174.747 243.526 174.628 243.517Z" fill="#FF441F"/>
<path d="M182.743 91.7823C182.57 94.7812 182.105 100.872 184.174 102.557C184.174 102.557 183.798 105.629 178.915 106.345C173.549 107.122 176 103.751 176 103.751C178.844 102.544 178.48 100.135 177.705 97.9327L182.743 91.7823Z" fill="#E4897B"/>
<path d="M171.634 86.481C171.605 86.4811 171.575 86.474 171.549 86.4603C171.522 86.4465 171.498 86.4264 171.479 86.4014C171.309 86.1764 171.093 85.9991 170.85 85.8838C170.606 85.7686 170.342 85.7186 170.078 85.738C170.05 85.7436 170.021 85.7429 169.994 85.7358C169.966 85.7288 169.94 85.7155 169.917 85.6969C169.894 85.6783 169.875 85.6547 169.861 85.6275C169.846 85.6003 169.837 85.5702 169.834 85.5389C169.827 85.4765 169.842 85.4137 169.877 85.364C169.912 85.3143 169.962 85.2818 170.018 85.2735C170.355 85.2419 170.694 85.3014 171.005 85.4469C171.316 85.5925 171.592 85.8198 171.807 86.1095C171.833 86.1441 171.849 86.1861 171.855 86.2307C171.86 86.2753 171.854 86.3206 171.837 86.3615C171.82 86.4024 171.793 86.4372 171.76 86.4619C171.726 86.4865 171.686 86.5001 171.646 86.5009L171.634 86.481Z" fill="#263238"/>
<path d="M170.704 89.4202C170.493 90.3718 170.166 91.2869 169.732 92.1404C169.931 92.2596 170.152 92.3285 170.377 92.3423C170.603 92.356 170.829 92.3143 171.038 92.22L170.704 89.4202Z" fill="#DE5753"/>
<path d="M170.944 88.6905C170.991 89.0886 170.842 89.4336 170.61 89.4734C170.377 89.5132 170.145 89.208 170.103 88.8099C170.061 88.4119 170.204 88.0668 170.437 88.0337C170.669 88.0005 170.902 88.2659 170.944 88.6905Z" fill="#263238"/>
<path d="M170.545 88.0402L169.656 87.8876C169.656 87.8876 170.181 88.571 170.545 88.0402Z" fill="#263238"/>
<path d="M180.607 245.401H176.136L175.838 233.89H180.309L180.607 245.401Z" fill="#E4897B"/>
<path d="M200.908 245.402H196.437L195 233.89H199.471L200.908 245.402Z" fill="#E4897B"/>
<path d="M196.162 244.844H201.182C201.267 244.843 201.35 244.877 201.415 244.94C201.48 245.002 201.522 245.088 201.533 245.183L202.129 249.608C202.14 249.72 202.13 249.832 202.099 249.939C202.068 250.046 202.017 250.144 201.949 250.228C201.882 250.311 201.799 250.377 201.707 250.423C201.615 250.468 201.515 250.491 201.414 250.49C199.667 250.457 198.821 250.344 196.615 250.344C195.255 250.344 193.27 250.497 191.398 250.497C189.526 250.497 189.425 248.434 190.206 248.248C193.705 247.412 194.26 246.257 195.434 245.149C195.639 244.96 195.895 244.853 196.162 244.844Z" fill="#263238"/>
<path d="M175.986 244.844H181C181.087 244.843 181.17 244.877 181.236 244.939C181.302 245.001 181.345 245.088 181.358 245.183L181.954 249.608C181.965 249.719 181.955 249.832 181.924 249.939C181.893 250.046 181.842 250.144 181.774 250.227C181.707 250.311 181.624 250.377 181.532 250.423C181.44 250.468 181.34 250.491 181.239 250.49C179.492 250.457 178.645 250.344 176.44 250.344C175.08 250.344 172.266 250.497 170.394 250.497C168.522 250.497 168.421 248.434 169.202 248.248C172.701 247.412 174.079 246.257 175.259 245.149C175.464 244.96 175.72 244.853 175.986 244.844Z" fill="#263238"/>
<path d="M175.838 233.89L175.993 239.828H180.464L180.309 233.89H175.838Z" fill="#CE6F64"/>
<path d="M199.471 233.89H195L195.745 239.828H200.211L199.471 233.89Z" fill="#CE6F64"/>
<path d="M182.802 85.5723C183.106 90.4952 183.327 92.5718 181.407 95.4049C178.515 99.6577 173.019 99.0009 171.397 94.277C169.936 90.0241 169.686 82.6928 173.752 80.1186C174.646 79.5481 175.657 79.2414 176.688 79.2275C177.719 79.2137 178.736 79.4932 179.642 80.0395C180.549 80.5858 181.315 81.3808 181.868 82.3491C182.421 83.3174 182.742 84.4269 182.802 85.5723Z" fill="#E4897B"/>
<path d="M185.378 90.1434C187.858 91.6827 189.701 87.8876 189.701 87.8876C189.701 87.8876 185.253 88.4251 185.653 85.4793C186.177 81.5714 183.661 76.821 177.354 77.4314C177.002 77.4646 176.668 77.511 176.34 77.5707C175.68 77.2224 174.933 77.1325 174.221 77.3155C173.509 77.4986 172.873 77.9438 172.417 78.5792C170.629 78.7451 168.214 81.1203 169.854 84.2585C169.969 83.8979 170.147 83.5664 170.378 83.2832C170.515 85.121 171.958 88.0402 173.759 88.2326C174.146 90.7472 172.644 93.6598 173.162 96.2871C173.931 100.076 179.673 100.931 179.673 100.931C179.475 100.458 179.401 99.9326 179.46 99.4148C179.519 98.8971 179.709 98.4085 180.007 98.0055C183.906 99.9959 186.475 98.052 186.475 98.052C183.816 96.9506 184.621 94.9868 184.621 94.9868C185.539 95.4404 186.58 95.4802 187.524 95.0979C188.468 94.7156 189.242 93.9409 189.683 92.9366C188.8 92.9833 187.923 92.7444 187.159 92.2487C186.395 91.753 185.777 91.0218 185.378 90.1434Z" fill="#263238"/>
<path d="M175.312 88.9891C175.323 89.4615 175.249 89.9316 175.096 90.3723C174.942 90.813 174.712 91.2155 174.418 91.5567C173.631 92.4656 172.665 91.8287 172.403 90.6676C172.171 89.6194 172.302 87.8877 173.327 87.41C173.553 87.3113 173.797 87.277 174.038 87.3101C174.278 87.3432 174.508 87.4428 174.705 87.5997C174.902 87.7566 175.061 87.9659 175.167 88.2085C175.273 88.4512 175.323 88.7195 175.312 88.9891Z" fill="#E4897B"/>
<path d="M179.027 134.855C179.027 134.855 180.16 167.603 182.855 186.831C185.025 202.369 194.665 238.674 194.665 238.674H200.758C200.758 238.674 195.733 203.61 194.63 188.25C191.839 149.378 199.083 141.031 192.245 132.937L179.027 134.855Z" fill="#263238"/>
<path d="M184.118 145.211C184.118 145.211 181.364 144.681 179.754 150.519C180.35 161.579 181.37 176.255 182.854 186.831C183.182 189.186 183.683 192.026 184.297 195.137C183.134 176.454 184.118 145.211 184.118 145.211Z" fill="#161F33"/>
<path d="M174.275 135.545C174.275 135.545 169.255 171.777 169.547 186.937C169.851 202.708 175.044 238.687 175.044 238.687H181.084C181.084 238.687 180.13 203.643 180.66 188.158C181.257 171.272 187.451 133.641 187.451 133.641L174.275 135.545Z" fill="#263238"/>
<path d="M201.642 238.992H193.54L192.908 235.967L201.583 236.033L201.642 238.992Z" fill="#FF441F"/>
<path opacity="0.2" d="M201.642 238.992H193.54L192.908 235.967L201.583 236.033L201.642 238.992Z" fill="black"/>
<path d="M191.942 102.563C194.273 102.816 197.815 110.187 197.815 110.187L191.93 115.209C191.93 115.209 187.059 110.452 187.638 107.778C188.24 104.998 189.706 102.331 191.942 102.563Z" fill="#FF441F"/>
<path opacity="0.1" d="M191.942 102.563C194.273 102.816 197.815 110.187 197.815 110.187L191.93 115.209C191.93 115.209 187.059 110.452 187.638 107.778C188.24 104.998 189.706 102.331 191.942 102.563Z" fill="black"/>
<path d="M190.182 105.735C189.588 105.557 188.973 105.481 188.358 105.509C188.045 106.235 187.803 106.995 187.636 107.778C187.04 110.432 191.929 115.209 191.929 115.209L192.364 114.838L190.182 105.735Z" fill="#FF441F"/>
<path opacity="0.3" d="M190.182 105.735C189.588 105.557 188.973 105.481 188.358 105.509C188.045 106.235 187.803 106.995 187.636 107.778C187.04 110.432 191.929 115.209 191.929 115.209L192.364 114.838L190.182 105.735Z" fill="black"/>
<path d="M172.279 112.814C170.579 117.598 168.791 122.461 167.366 127.258C167.271 127.563 167.193 127.855 167.11 128.154L166.907 128.89C166.852 129.107 166.852 129.337 166.907 129.553C167.243 130.383 167.777 131.094 168.451 131.61C170.234 133.033 172.176 134.191 174.228 135.054L173.692 137.495C171.167 137.125 168.725 136.238 166.49 134.881C165.114 134.063 163.993 132.8 163.276 131.259C162.864 130.273 162.721 129.175 162.865 128.1C162.878 127.969 162.898 127.838 162.924 127.709L162.984 127.43L163.085 126.926C163.157 126.588 163.228 126.263 163.306 125.931C163.902 123.277 164.665 120.756 165.47 118.255C166.275 115.753 167.116 113.285 168.063 110.824L172.279 112.814Z" fill="#E4897B"/>
<path d="M168.661 106.1C168.661 106.1 166.645 107.234 174.277 135.545L192.27 132.93C191.006 124.823 190.41 119.8 191.942 102.564C189.362 102.358 186.772 102.358 184.191 102.564C181.444 102.741 178.713 103.14 176.018 103.758C172.566 104.614 168.661 106.1 168.661 106.1Z" fill="#FF441F"/>
<path opacity="0.1" d="M168.661 106.1C168.661 106.1 166.645 107.234 174.277 135.545L192.27 132.93C191.006 124.823 190.41 119.8 191.942 102.564C189.362 102.358 186.772 102.358 184.191 102.564C181.444 102.741 178.713 103.14 176.018 103.758C172.566 104.614 168.661 106.1 168.661 106.1Z" fill="black"/>
<path d="M192.4 131.716L193.431 133.382C193.509 133.514 193.378 133.674 193.175 133.707L174.305 136.453C174.144 136.453 173.995 136.407 173.972 136.294L173.602 134.523C173.572 134.403 173.703 134.277 173.882 134.251L192.102 131.597C192.156 131.587 192.212 131.593 192.265 131.614C192.317 131.635 192.363 131.67 192.4 131.716Z" fill="#FF441F"/>
<path opacity="0.2" d="M192.4 131.716L193.431 133.382C193.509 133.514 193.378 133.674 193.175 133.707L174.305 136.453C174.144 136.453 173.995 136.407 173.972 136.294L173.602 134.523C173.572 134.403 173.703 134.277 173.882 134.251L192.102 131.597C192.156 131.587 192.212 131.593 192.265 131.614C192.317 131.635 192.363 131.67 192.4 131.716Z" fill="black"/>
<path d="M190.216 134.337L190.705 134.264C190.8 134.264 190.866 134.185 190.854 134.118L190.353 131.823C190.334 131.783 190.304 131.753 190.267 131.736C190.23 131.719 190.189 131.717 190.151 131.73L189.662 131.796C189.56 131.796 189.495 131.876 189.513 131.949L190.013 134.238C190.025 134.311 190.121 134.35 190.216 134.337Z" fill="#263238"/>
<path d="M178.39 136.036L178.879 135.963C178.974 135.963 179.046 135.883 179.028 135.817L178.527 133.521C178.507 133.482 178.477 133.452 178.441 133.434C178.404 133.416 178.363 133.412 178.324 133.422L177.835 133.495C177.74 133.495 177.668 133.574 177.686 133.641L178.187 135.936C178.199 136.036 178.294 136.076 178.39 136.036Z" fill="#263238"/>
<path d="M169.5 115.707C169.995 118.268 170.692 121.512 171.712 125.619L171.932 115.209L169.5 115.707Z" fill="#FF441F"/>
<path opacity="0.3" d="M169.5 115.707C169.995 118.268 170.692 121.512 171.712 125.619L171.932 115.209L169.5 115.707Z" fill="black"/>
<path d="M168.66 106.1C166.424 107.102 164.486 115.614 164.486 115.614L172.177 119.781C172.177 119.781 175.891 109.371 174.228 107.34C172.565 105.31 171.235 104.952 168.66 106.1Z" fill="#FF441F"/>
<path opacity="0.1" d="M168.66 106.1C166.424 107.102 164.486 115.614 164.486 115.614L172.177 119.781C172.177 119.781 175.891 109.371 174.228 107.34C172.565 105.31 171.235 104.952 168.66 106.1Z" fill="black"/>
<path d="M182.115 238.992H174.013L173.381 235.967L182.401 236.033L182.115 238.992Z" fill="#FF441F"/>
<path opacity="0.2" d="M182.115 238.992H174.013L173.381 235.967L182.401 236.033L182.115 238.992Z" fill="black"/>
<path d="M174.353 134.231L173.703 133.932C173.544 133.86 173.37 133.836 173.199 133.863C173.028 133.889 172.867 133.966 172.731 134.085C172.595 134.203 172.49 134.36 172.427 134.538C172.363 134.716 172.343 134.91 172.368 135.1L172.839 138.557C172.862 138.73 172.918 138.895 173.005 139.04C173.092 139.186 173.207 139.308 173.342 139.398C173.477 139.489 173.628 139.544 173.784 139.562C173.94 139.579 174.098 139.557 174.246 139.499C174.482 139.403 174.704 139.267 174.902 139.094C175.117 138.895 175.288 138.642 175.4 138.357C175.512 138.071 175.562 137.76 175.546 137.449L175.48 136.015C175.469 135.628 175.356 135.253 175.156 134.936C174.956 134.619 174.677 134.374 174.353 134.231Z" fill="#E4897B"/>
</svg>
