<svg width="120" height="120" viewBox="0 0 120 120" fill="none" xmlns="http://www.w3.org/2000/svg">
<path d="M11.25 78.75L108.75 78.75C110.821 78.75 112.5 77.0711 112.5 75V22.5C112.5 20.4289 110.821 18.75 108.75 18.75L11.25 18.75C9.17893 18.75 7.5 20.4289 7.5 22.5V75C7.5 77.0711 9.17893 78.75 11.25 78.75Z" stroke="#FF441F" stroke-width="6.5" stroke-linejoin="round"/>
<path d="M15 90H105M22.5 101.25H97.5" stroke="#FF441F" stroke-width="6.5" stroke-linecap="round" stroke-linejoin="round"/>
<path d="M60 67.5C70.3553 67.5 78.75 59.1053 78.75 48.75C78.75 38.3947 70.3553 30 60 30C49.6447 30 41.25 38.3947 41.25 48.75C41.25 59.1053 49.6447 67.5 60 67.5Z" stroke="#FF441F" stroke-width="6.5" stroke-linecap="round" stroke-linejoin="round"/>
<path d="M112.5 37.5C107.527 37.5 102.758 35.5246 99.2417 32.0083C95.7254 28.4919 93.75 23.7228 93.75 18.75M7.5 37.5C9.96229 37.5 12.4005 37.015 14.6753 36.0727C16.9502 35.1305 19.0172 33.7494 20.7583 32.0083C22.4994 30.2672 23.8805 28.2002 24.8227 25.9253C25.765 23.6505 26.25 21.2123 26.25 18.75M112.5 60C107.527 60 102.758 61.9754 99.2417 65.4917C95.7254 69.0081 93.75 73.7772 93.75 78.75M7.5 60C9.96229 60 12.4005 60.485 14.6753 61.4273C16.9502 62.3695 19.0172 63.7506 20.7583 65.4917C22.4994 67.2328 23.8805 69.2998 24.8227 71.5747C25.765 73.8495 26.25 76.2877 26.25 78.75" stroke="#FF441F" stroke-width="6.5" stroke-linecap="round" stroke-linejoin="round"/>
</svg>
