<svg width="704" height="552" viewBox="0 0 704 552" fill="none" xmlns="http://www.w3.org/2000/svg">
<path fill-rule="evenodd" clip-rule="evenodd" d="M265.573 545.467C382.572 580.539 439.5 445.952 539.746 456.191C594.622 461.796 704.001 490.206 703.757 283.264C703.145 149.661 587.619 116.206 468.487 184.722C433.431 199.336 405.754 194.807 375.704 180.287C345.654 165.768 307.007 100.948 234.167 87.6125C14.9688 47.4837 -172.584 414.128 265.573 545.467Z" fill="#FF9770"/>
<path fill-rule="evenodd" clip-rule="evenodd" d="M543.607 209.348C545.803 208.21 549.741 210.416 547.456 213.966C542.398 221.828 561.962 237.532 555.682 223.694C555.011 222.214 551.566 211.981 556.439 217.265C561.312 222.547 568.105 245.892 563.711 253.935C559.855 260.994 549.651 264.352 535.722 264.75L535.094 264.764L534.798 264.783C526.587 265.191 520.361 259.774 516.341 249.224L516.149 248.71C512.08 237.668 513.196 228.817 519.775 222.849C519.895 222.74 520.022 222.643 520.157 222.557L520.364 222.438L543.607 209.348Z" fill="white"/>
<path fill-rule="evenodd" clip-rule="evenodd" d="M122.849 5.34082L122.791 5.82179C121.995 11.9768 119.767 20.5473 115.735 27.013C110.773 34.9728 103.769 41.06 96.7301 44.9839C86.5754 50.6424 75.5238 51.6782 64.6409 44.3267L64.1607 43.997C58.4422 40.0099 54.102 38.0908 48.1479 39.6742C42.1927 41.2588 39.3011 45.8816 36.7307 50.171L36.6129 50.352C36.2009 50.9389 35.5981 51.3448 34.9188 51.4877L23.6289 53.3937L27.7403 58.838C28.9777 60.4892 29.8573 61.6785 30.379 62.4071L34.8979 68.7526C48.3657 87.5819 62.8595 105.559 91.1233 99.3358L92.0816 99.1168C99.5692 97.3417 105.847 102.107 113.723 109.13L115.407 110.641C117.49 112.521 123.789 118.439 126.367 121.289L127.209 122.231L127.986 123.122C128.148 123.311 128.302 123.491 128.448 123.664L129.253 124.63L129.746 124.009C135.077 117.167 138.417 106.747 140.146 98.1513C140.798 94.9035 141.173 91.7939 141.329 88.9248L141.348 88.5509C141.389 87.7116 141.406 86.9794 141.41 86.3687V85.9139L140.605 86.1663C131.283 88.9843 120.794 89.2641 110.56 88.0057C108.089 87.7009 135.208 64.2882 129.641 33.9669C128.372 27.0571 127.567 17.8175 125.351 11.5458C124.652 9.56716 123.928 7.75876 123.21 6.14204L122.849 5.34082Z" fill="white"/>
<path fill-rule="evenodd" clip-rule="evenodd" d="M544.786 213.092L521.583 225.115C516.022 230.16 515.076 237.662 518.746 247.622C520.034 251.118 523.255 259.442 523.255 256.173C523.255 255.151 544.786 240.149 548.916 241.617C552.736 242.974 545.875 230.741 543.951 225.115L544.786 212.785L545.424 211.557" fill="#E7EAEE"/>
<path fill-rule="evenodd" clip-rule="evenodd" d="M513.83 222.115C515.372 222.115 506.634 226.496 507.084 234.575C507.534 242.653 513.457 257.543 512.016 258.13C510.577 258.717 507.846 254.376 507.295 252.84C503.87 243.286 503.221 239.388 503.344 233.816C503.505 226.521 507.103 222.115 513.83 222.115Z" fill="#E7EAEE"/>
<path d="M552.714 244.641C556.045 244.641 558.745 238.139 558.745 230.118C558.745 222.097 556.045 215.595 552.714 215.595C549.383 215.595 546.683 222.097 546.683 230.118C546.683 238.139 549.383 244.641 552.714 244.641Z" fill="#E7EAEE"/>
<path fill-rule="evenodd" clip-rule="evenodd" d="M131.43 383.245C131.43 358.046 134.057 347.089 162.263 333.336C220.073 308.43 220.073 307.469 330.823 261.828C360.112 249.819 421.859 278.584 448.71 266.529C466.61 258.493 483.35 252.525 498.139 244.555C499.571 254.523 508.829 271.4 512.09 274.301C494.772 278.175 478.019 284.166 461.832 292.274C426.842 309.801 447.577 305.025 392.154 360.736C387.457 365.458 370.197 376.222 345.24 387.436C345.24 387.436 294.98 380.242 274.823 371.304C254.308 362.209 223.224 333.336 223.224 333.336C223.224 333.336 186.969 358.548 166.127 369.881C156.372 375.184 131.43 383.245 131.43 383.245Z" fill="white"/>
<path fill-rule="evenodd" clip-rule="evenodd" d="M131.429 370.15C131.429 364.235 130.842 360.106 131.429 355.541C133.341 340.655 140.83 333.039 162.416 322.513C220.226 297.607 220.072 294.373 330.822 248.732C360.11 236.723 421.858 265.489 448.709 253.434C466.609 245.398 483.349 239.43 498.138 231.459C498.18 231.745 496.641 245.367 496.641 245.367C496.641 245.367 460.131 265.917 435.981 270.275C410.322 274.905 375.078 253.434 339.885 263.993C286.292 280.075 162.791 330.62 148.18 343.287C136.7 353.24 131.429 370.15 131.429 370.15Z" fill="#E7EAEE"/>
<path fill-rule="evenodd" clip-rule="evenodd" d="M126.646 2.62625L126.928 3.16317L127.272 3.85129C127.479 4.27512 127.712 4.7668 127.965 5.32277C128.843 7.24784 129.729 9.42649 130.578 11.829C132.968 18.5911 134.638 25.889 135.208 33.4928C135.982 43.811 134.585 53.5483 131.046 62.407L130.743 63.151C127.868 70.0715 123.68 76.4122 118.243 82.1005L117.703 82.6565L118.161 82.6803C125.992 83.0315 133.735 82.2839 140.541 79.9707C142.001 79.4742 143.593 79.7302 144.85 80.6624C146.106 81.5934 146.885 83.091 146.963 84.7185L146.981 85.2233L146.992 85.8911V86.1483C146.992 87.0793 146.967 88.1245 146.904 89.2686C146.733 92.4295 146.322 95.8391 145.606 99.3988C143.584 109.455 139.541 118.873 132.932 126.809C132.054 127.863 130.821 128.494 129.509 128.569L129.206 128.576C127.806 128.549 126.526 127.931 125.616 126.877L124.951 126.052L124.625 125.657L123.931 124.837L123.172 123.962C122.907 123.663 122.632 123.354 122.347 123.04C119.922 120.358 117.243 117.699 114.399 115.253C106.516 108.472 98.9107 104.643 92.4161 105.058C81.7934 105.738 72.9957 105.21 64.8335 102.768C54.2824 99.6131 45.9962 93.4212 40.5134 83.5637L40.2061 83.0017C37.3674 77.7254 33.1749 71.6466 28.2294 65.3202C26.7011 63.3641 25.1936 61.5045 23.7567 59.7854L23.1454 59.0568C22.1665 57.8961 21.3645 56.971 21.0283 56.5948C19.7872 55.2007 19.3559 53.2007 19.8981 51.372L19.9778 51.1244C20.5734 49.416 21.9587 48.1493 23.6471 47.7933L32.7008 45.8861L32.8063 45.7242C36.0459 40.8157 40.6714 36.6584 46.816 34.9833C53.2247 33.2369 59.9684 34.756 66.7602 39.349L67.2337 39.674C76.4067 46.0695 85.4981 45.7159 94.1428 40.899C100.317 37.4573 106.203 31.613 110.661 24.4615C114.808 17.8113 117.272 10.7027 117.449 5.09181C117.521 2.74768 119.039 0.734515 121.172 0.160685C123.308 -0.415526 125.542 0.592842 126.646 2.62625ZM122.85 5.34063L122.792 5.8216C121.997 11.9766 119.767 20.5471 115.737 27.0128C110.773 34.9726 103.769 41.0598 96.7306 44.9837C86.577 50.6423 75.5243 51.678 64.6414 44.3265L64.1612 43.9968C58.4427 40.0097 54.1025 38.0906 48.1484 39.674C42.1943 41.2586 39.3017 45.8814 36.7313 50.1708L36.6135 50.3518C36.2015 50.9387 35.5988 51.3447 34.9194 51.4875L23.6295 53.3935L27.7409 58.8378C28.9784 60.489 29.8579 61.6784 30.3796 62.407L34.8987 68.7536C48.3662 87.5817 62.86 105.558 91.1238 99.3357L92.0821 99.1166C99.5697 97.3415 105.848 102.107 113.724 109.13L115.407 110.641C117.49 112.521 123.789 118.439 126.367 121.289L127.209 122.231L127.987 123.122C128.148 123.31 128.303 123.491 128.45 123.664L129.253 124.629L129.747 124.009C135.078 117.167 138.417 106.747 140.146 98.1511C140.799 94.9034 141.174 91.7937 141.33 88.9246L141.349 88.5508C141.389 87.7114 141.407 86.9793 141.41 86.3685V85.9137L140.605 86.1661C131.284 88.9841 120.795 89.2639 110.561 88.0055C108.089 87.7019 135.208 64.288 129.642 33.9667C128.373 27.0569 127.568 17.8173 125.352 11.5456C124.654 9.56697 123.929 7.75857 123.211 6.14184L122.85 5.34063Z" fill="#E7EAEE"/>
<path fill-rule="evenodd" clip-rule="evenodd" d="M52.0575 58.9303C54.2131 58.9303 55.9666 57.0612 55.9666 54.7635C55.9666 52.4658 54.2131 50.5967 52.0575 50.5967C49.9019 50.5967 48.1484 52.4658 48.1484 54.7635C48.1484 57.0612 49.9019 58.9303 52.0575 58.9303Z" fill="#00160A"/>
<path d="M55.4075 75.5975C58.8001 75.5975 61.5504 73.1989 61.5504 70.2401C61.5504 67.2814 58.8001 64.8828 55.4075 64.8828C52.0149 64.8828 49.2646 67.2814 49.2646 70.2401C49.2646 73.1989 52.0149 75.5975 55.4075 75.5975Z" fill="#FFB61D"/>
<path d="M55.4075 75.5975C58.8001 75.5975 61.5504 73.1989 61.5504 70.2401C61.5504 67.2814 58.8001 64.8828 55.4075 64.8828C52.0149 64.8828 49.2646 67.2814 49.2646 70.2401C49.2646 73.1989 52.0149 75.5975 55.4075 75.5975Z" fill="#FFB61D"/>
<path fill-rule="evenodd" clip-rule="evenodd" d="M126.647 2.62625L126.929 3.16317L127.273 3.85129C127.48 4.27512 127.713 4.7668 127.966 5.32277C128.844 7.24784 129.73 9.42649 130.579 11.829C132.969 18.5911 134.639 25.889 135.209 33.4928C135.983 43.811 134.586 53.5483 131.047 62.407L130.744 63.151C127.869 70.0715 123.681 76.4122 118.243 82.1005L117.705 82.6565L118.162 82.6803C125.993 83.0315 133.735 82.2839 140.543 79.9707C142.002 79.4742 143.594 79.7302 144.851 80.6624C146.107 81.5934 146.886 83.091 146.965 84.7185L146.983 85.2233L146.994 85.8911V86.1483C146.994 87.0793 146.968 88.1245 146.905 89.2686C146.733 92.4295 146.322 95.8391 145.608 99.3988C143.585 109.455 139.542 118.873 132.933 126.809C132.055 127.863 130.821 128.494 129.51 128.569L129.207 128.576C127.806 128.549 126.527 127.931 125.618 126.877L124.952 126.052L124.626 125.657L123.932 124.837L123.172 123.962C122.908 123.663 122.633 123.354 122.349 123.04C119.922 120.358 117.244 117.699 114.4 115.253C106.516 108.472 98.9119 104.643 92.4172 105.058C81.7935 105.738 72.9969 105.21 64.8347 102.768C54.2824 99.6131 45.9974 93.4212 40.5144 83.5637L40.207 83.0017C37.3684 77.7254 33.1758 71.6466 28.2304 65.3202C26.702 63.3641 25.1946 61.5045 23.7577 59.7854L23.1463 59.0568C22.1675 57.8961 21.3654 56.971 21.0294 56.5948C19.7882 55.2007 19.3568 53.2007 19.8991 51.372L19.9787 51.1244C20.5744 49.416 21.9597 48.1493 23.6481 47.7933L32.7018 45.8861L32.8073 45.7242C36.0469 40.8157 40.6723 36.6584 46.8161 34.9833C52.864 33.3345 59.2112 34.5953 65.6143 38.6025C72.7065 36.0679 78.7969 30.2856 83.8954 22.1603C86.3872 18.1899 88.4746 13.9219 90.1701 9.64673C90.7665 8.14192 91.2713 6.74425 91.6879 5.4835C91.8342 5.043 91.9582 4.65012 92.0632 4.30725L92.2006 3.84295C92.7166 2.10718 94.1361 0.848801 95.8338 0.629746C97.4912 0.413072 99.0437 1.24763 100.001 2.69649C100.532 3.4989 101.036 4.3144 101.513 5.14062C105.971 12.8623 107.868 20.7781 108.126 28.1855C109.013 26.9914 109.861 25.7473 110.663 24.4615C114.808 17.8113 117.273 10.7027 117.449 5.09181C117.523 2.74768 119.04 0.734515 121.174 0.160685C123.309 -0.415526 125.543 0.592842 126.647 2.62625ZM94.1439 40.899C85.7472 45.5778 76.9283 46.0457 68.0234 40.2073C74.0188 37.2525 83.6385 31.1344 87.6091 24.808C90.2706 20.5662 92.4865 16.0363 94.2847 11.5004C94.8275 10.1325 95.2999 8.84314 95.7053 7.65262L95.9019 7.06688C96.0594 6.5871 96.1957 6.15732 96.3118 5.77874C96.3408 5.5073 96.3676 5.41682 96.3933 5.50611C104.9 11.7099 105.528 24.0222 105.355 31.6142C101.936 35.5036 98.0999 38.6942 94.1439 40.899ZM96.7317 44.9837C100.138 43.0837 103.538 40.6776 106.702 37.7966C106.945 37.6465 107.16 37.4465 107.334 37.2108C110.462 34.2714 113.338 30.8606 115.737 27.0128C119.769 20.5471 121.997 11.9766 122.793 5.8216L122.851 5.34063L123.212 6.14184C123.93 7.75857 124.654 9.56697 125.353 11.5456C126.895 15.9101 127.754 21.7114 128.562 27.1652V27.1664C128.914 29.5486 129.256 31.8654 129.643 33.9667C133.909 57.2068 118.974 76.3884 112.879 84.2173C111.021 86.6031 109.985 87.9341 110.562 88.0055C120.796 89.2639 131.284 88.9841 140.606 86.1661L141.412 85.9137V86.3685C141.408 86.9793 141.39 87.7114 141.35 88.5508L141.331 88.9246C141.175 91.7937 140.799 94.9034 140.147 98.1511C138.418 106.747 135.079 117.167 129.748 124.009L129.254 124.629L128.45 123.664C128.304 123.491 128.15 123.31 127.988 123.122L127.21 122.231L126.368 121.289C123.79 118.439 117.491 112.521 115.408 110.641L113.725 109.13C105.849 102.107 99.5709 97.3415 92.0833 99.1166L91.125 99.3357C62.8612 105.558 48.3674 87.5817 34.8996 68.7536L30.3807 62.407C29.8589 61.6784 28.9793 60.489 27.7419 58.8378L23.6305 53.3935L34.9204 51.4875C35.5998 51.3447 36.2024 50.9387 36.6146 50.3518L36.7323 50.1708C39.3028 45.8814 42.1944 41.2586 48.1496 39.674C54.1037 38.0906 58.4439 40.0097 64.1624 43.9968L64.6426 44.3265C75.5255 51.678 86.5771 50.6423 96.7317 44.9837ZM543.607 209.348C545.803 208.21 549.741 210.416 547.456 213.967C543.998 219.342 547.84 231.824 550.181 239.425V239.426V239.428C551.264 242.943 552.025 245.415 551.593 245.656C550.226 246.417 548.54 245.854 547.825 244.397C543.957 236.508 541.736 230.244 541.182 225.482C540.907 223.113 540.845 220.821 541.001 218.609L541.022 218.354L523.141 227.619L522.914 227.84C518.877 231.876 517.102 236.562 520.056 244.862L520.23 245.344C523.437 254.047 528.865 260.289 534.513 260.029L534.954 260.006C547.504 259.737 555.005 255.711 557.682 250.809C561.049 244.646 561.962 237.533 555.682 223.694C555.011 222.215 551.566 211.983 556.439 217.265C561.312 222.547 568.105 245.892 563.711 253.935C560.043 260.65 550.632 264.017 537.733 264.67C537.807 265.02 537.824 265.392 537.773 265.768C536.551 274.606 532.766 280.166 526.438 281.774C521.598 283.004 516.397 281.376 511.632 277.449C494.893 281.28 478.691 287.12 463.022 294.969L460.701 296.14C452.707 300.211 448.123 302.939 444.776 305.592C442.812 307.147 441.19 308.741 439.447 310.791L439.166 311.133C438.319 312.178 436.476 314.577 434.38 317.308L434.375 317.312L434.373 317.316L434.372 317.317L434.371 317.32L434.364 317.328L434.361 317.333C431.57 320.965 428.335 325.177 426.403 327.562L425.469 328.708C417.605 338.312 407.694 349.209 394.071 362.903L393.689 363.276C388.582 368.14 375.01 376.366 358.084 384.66C404.794 382.891 438.475 363.888 459.45 327.618C460.373 326.021 462.434 325.721 463.725 326.995C499.792 362.601 541.583 379.079 589.258 376.506C637.059 373.925 672.138 360.682 694.602 336.906C695.696 335.748 697.463 335.755 698.55 336.922C699.637 338.087 699.63 339.972 698.537 341.13C674.972 366.073 624.941 384.789 575.878 387.436C528.163 390.012 499.693 369.056 463.29 334.612L462.401 333.764L462.083 334.286C439.027 371.529 388.938 398.693 338.952 399.077L337.385 399.083C286.258 399.083 256.771 372.694 222.277 336.626L222.008 336.344L221.885 336.456L220.984 337.264L219.674 338.438L218.872 339.159C186.55 368.151 162.433 389.785 126.155 395.312L124.998 395.484C84.0942 404.305 22.0577 380.808 12.5244 369.289C3.78962 358.737 13.9779 365.296 16.7749 367.098H16.7752C17.0307 367.262 17.2245 367.387 17.3365 367.455C44.4092 383.977 75.6238 390.269 113.075 384.824C118.243 384.072 123.379 383.078 128.482 381.84L128.423 381.253C126.788 364.699 126.778 357.463 129.135 349.158C132.339 337.862 140.12 329.278 154.117 322.454L157.972 320.638C175.261 312.516 188.992 306.418 203.234 300.493L204.277 300.059C205.875 299.398 207.493 298.731 209.145 298.056L210.763 297.397C211.347 297.177 218.959 293.96 230.532 289.07L230.536 289.069L230.567 289.056L230.572 289.053L230.574 289.052C257.327 277.747 305.193 257.52 336.419 244.65C343.174 241.881 351.353 240.961 361.385 241.513L362.249 241.565C369.765 242.036 377.156 243.123 389.273 245.358L399.921 247.346C411.809 249.539 417.57 250.404 424.295 250.915C426.41 251.076 428.419 251.274 430.328 251.464H430.329C437.401 252.164 443.093 252.728 447.628 250.692C451.662 248.881 455.616 247.133 459.491 245.419H459.492C472.165 239.816 483.986 234.589 494.956 228.776C495.709 223.576 497.631 219.736 500.643 217.208C505.289 213.308 511.867 213.242 517.572 215.606C519.009 216.203 519.721 217.928 519.162 219.459C518.981 219.955 517.82 219.727 516.176 219.404C512.738 218.728 507.193 217.638 504.098 221.884C500.656 226.609 499.512 233.846 502.561 248.097C504.77 258.425 519.093 275.985 525.142 275.985C531.887 275.985 533.464 269.005 534.359 265.046L534.414 264.799C526.393 265.02 520.298 259.609 516.342 249.226L516.149 248.711C512.08 237.668 513.196 228.816 519.775 222.848C519.895 222.74 520.023 222.642 520.157 222.558L520.365 222.439L543.607 209.348ZM506.48 272.068C506.197 271.704 505.918 271.33 505.642 270.948C505.536 270.829 505.437 270.708 505.35 270.597C505.095 270.267 504.835 269.932 504.568 269.592C502.405 266.821 499.897 263.611 497.934 258.982L497.649 258.307C494.499 250.786 494.124 242.338 494.317 235.373L494.346 234.564L494.18 234.654C481.167 241.518 467.012 248.405 451.714 255.314L449.796 256.178C443.246 259.119 435.065 261.196 424.7 260.482L423.899 260.424C416.817 259.885 410.86 258.983 398.37 256.672L389.045 254.929C362.757 250.078 349.603 249.321 338.763 253.641C338.763 253.641 177.114 318.459 156.41 327.881C143.82 334.02 139.547 339.798 134.341 349.158C131.647 354 131.919 367.356 132.109 376.632V376.635C132.14 378.19 132.169 379.63 132.183 380.897C162.747 372.749 192.128 355.809 220.344 330.043C221.456 329.027 223.116 329.1 224.146 330.209C226.429 332.67 228.749 335.046 231.108 337.339L347.514 285.501C347.834 285.358 348.163 285.284 348.489 285.271C349.366 284.83 350.312 284.466 351.326 284.178C361.476 281.302 369.583 285.982 375.183 297.501L385.33 289.612C386.826 288.448 388.952 289.132 389.594 290.983C398.853 317.657 396.156 335.933 380.909 344.753C365.533 353.646 352.162 346.312 341.737 324.084C341.208 322.957 341.416 321.653 342.148 320.775C339.663 310.013 339.201 301.439 340.892 295.231L238.905 344.497C254.155 357.694 270.901 367.648 289.154 374.361C289.572 373.935 290.024 373.568 290.468 373.31C305.843 364.332 343.724 353.846 353.081 351.255C353.89 351.032 354.486 350.866 354.835 350.766C359.226 349.512 354.728 353.885 353.402 354.538L353.234 354.614L297.946 377.307C314.393 382.302 332.004 384.797 350.788 384.797C351.857 384.797 352.918 384.789 353.973 384.771L355.21 383.914H355.211L355.212 383.913L355.214 383.911C367.037 375.719 386.807 362.022 390.239 358.572L391.841 356.958C403.224 345.184 411.696 333.889 419.092 324.029C427.205 313.211 434.022 304.123 441.967 298.025C448.143 293.284 450.381 292.201 455.643 289.656C457.05 288.975 458.673 288.189 460.647 287.201C474.601 280.21 490.448 276.163 505.324 272.363L506.48 272.068ZM352.761 289.931C360.804 287.652 366.828 291.678 371.42 302.92L359.556 312.946L359.544 312.95L347.286 318.107L346.98 316.672C343.623 300.452 345.81 291.901 352.761 289.931ZM371.42 302.92L359.566 312.942C359.804 312.842 360.049 312.779 360.294 312.75C360.518 312.725 360.743 312.729 360.961 312.761C361.482 312.835 361.977 313.066 362.383 313.428C362.65 313.666 362.878 313.959 363.05 314.3C365.848 319.671 368.011 320.95 370.207 319.636C372.532 318.247 373.263 313.022 371.564 303.687L371.42 302.92ZM217.623 425.128C218.921 424.238 227.872 419.583 219.9 428.333C211.929 437.082 149.848 474.203 116.337 476.259C84.0384 478.24 55.3613 463.862 30.4105 445.043L29.5837 444.415L29.4188 444.641C28.3143 446.134 27.1794 447.489 26.0131 448.704L25.5114 449.217C23.3981 451.332 19.7404 453.726 14.4557 456.508C13.0732 457.235 8.18768 457.906 10.7156 455.157C13.2437 452.409 18.7767 448.453 21.999 446.184C24.1049 444.702 24.77 442.968 25.4299 441.248C25.7797 440.336 26.1281 439.428 26.6888 438.562C27.5896 437.174 29.3928 436.861 30.6604 437.873C55.2575 457.523 83.9904 467.999 116.337 466.014C148.818 464.021 182.363 449.311 217.623 425.128ZM408.665 444.104C409.797 442.99 409.797 435.037 408.665 436.151C396.119 448.491 369.853 459.345 337.442 461.333C304.99 463.324 279.476 457.885 260.85 445.118C259.553 444.229 253.132 441.878 256.991 446.012C260.85 450.146 304.223 471.714 337.763 469.656L338.767 469.593C371.815 467.443 395.115 457.432 408.665 444.104ZM385.755 297.312L385.588 296.777L377.181 303.316L377.335 304.239C379.026 314.779 377.872 321.667 373.185 324.677L372.939 324.829C368.051 327.75 363.451 325.687 359.604 319.684L359.436 319.417L348.132 324.284L348.393 324.79C357.033 341.41 366.611 346.033 377.881 339.728L378.245 339.52C389.564 332.974 392.353 319.613 386.147 298.607L385.755 297.312ZM55.9678 54.7638C55.9678 57.0615 54.2143 58.9306 52.0587 58.9306C49.9031 58.9306 48.1496 57.0615 48.1496 54.7638C48.1496 52.4661 49.9031 50.597 52.0587 50.597C54.2143 50.597 55.9678 52.4661 55.9678 54.7638Z" fill="#00160A"/>
</svg>
