<svg width="28" height="22" viewBox="0 0 28 22" fill="none" xmlns="http://www.w3.org/2000/svg">
<path d="M3.99881 21.8218C2.88803 21.8218 1.94387 21.4474 1.16632 20.6986C0.388774 19.9499 0 19.0406 0 17.9709V12.8364C0 12.4727 0.12774 12.1678 0.38322 11.9218C0.6387 11.6757 0.955272 11.5527 1.33294 11.5527H18.6945C18.8055 10.8253 19.1054 10.1889 19.5942 9.64332C20.0829 9.09778 20.6828 8.70734 21.3937 8.472L26.2922 6.89955C26.6477 6.79258 26.992 6.81397 27.3252 6.96373C27.6585 7.11349 27.8806 7.35952 27.9917 7.70182C28.1028 8.04412 28.075 8.37573 27.9084 8.69664C27.7418 9.01755 27.4807 9.23149 27.1253 9.33846L22.2267 10.9109C21.9602 10.9965 21.7436 11.1516 21.5769 11.3762C21.4103 11.6009 21.327 11.8522 21.327 12.1304V17.9709C21.327 19.0406 20.9382 19.9499 20.1607 20.6986C19.3831 21.4474 18.439 21.8218 17.3282 21.8218H3.99881ZM2.29932 5.13455C1.72171 4.47133 1.30517 3.84021 1.04969 3.24118C0.794209 2.64215 0.655361 1.98964 0.633146 1.28364C0.633146 0.91994 0.771993 0.615076 1.04969 0.369046C1.32738 0.123015 1.65507 0 2.03273 0C2.36597 0 2.63811 0.128364 2.84916 0.385091C3.0602 0.641818 3.16573 0.941334 3.16573 1.28364C3.16573 1.71152 3.24348 2.1073 3.39899 2.471C3.5545 2.8347 3.82109 3.23049 4.19876 3.65836C4.86522 4.42855 5.33731 5.1185 5.615 5.72823C5.8927 6.33796 6.02044 6.99582 5.99822 7.70182C5.97601 8.06552 5.8205 8.37038 5.53169 8.61641C5.24289 8.86244 4.90966 8.98546 4.53199 8.98546C4.22097 8.98546 3.97105 8.85709 3.78221 8.60037C3.59338 8.34364 3.49896 8.05482 3.49896 7.73391C3.49896 7.24185 3.39344 6.79258 3.18239 6.38609C2.97134 5.97961 2.67698 5.56243 2.29932 5.13455ZM7.66439 5.13455C7.08679 4.47133 6.66469 3.84021 6.3981 3.24118C6.13152 2.64215 5.98711 1.98964 5.9649 1.28364C5.9649 0.91994 6.10375 0.615076 6.38144 0.369046C6.65914 0.123015 6.98682 0 7.36448 0C7.69772 0 7.96986 0.128364 8.18091 0.385091C8.39196 0.641818 8.49748 0.941334 8.49748 1.28364C8.49748 1.71152 8.57524 2.1073 8.73075 2.471C8.88625 2.8347 9.15284 3.23049 9.53051 3.65836C10.197 4.42855 10.6691 5.1185 10.9468 5.72823C11.2245 6.33796 11.3522 6.99582 11.33 7.70182C11.3078 8.06552 11.1522 8.37038 10.8634 8.61641C10.5746 8.86244 10.2414 8.98546 9.86374 8.98546C9.55272 8.98546 9.3028 8.85709 9.11397 8.60037C8.92513 8.34364 8.83072 8.05482 8.83072 7.73391C8.85293 7.24185 8.75851 6.79258 8.54747 6.38609C8.33642 5.97961 8.04206 5.56243 7.66439 5.13455ZM12.9961 5.13455C12.4185 4.47133 11.9964 3.84021 11.7299 3.24118C11.4633 2.64215 11.3189 1.98964 11.2967 1.28364C11.2967 0.91994 11.4355 0.615076 11.7132 0.369046C11.9909 0.123015 12.3186 0 12.6962 0C13.0295 0 13.3016 0.128364 13.5127 0.385091C13.7237 0.641818 13.8292 0.941334 13.8292 1.28364C13.8292 1.71152 13.907 2.1073 14.0625 2.471C14.218 2.8347 14.4846 3.23049 14.8623 3.65836C15.5287 4.42855 16.0008 5.1185 16.2785 5.72823C16.5562 6.33796 16.6839 6.99582 16.6617 7.70182C16.6395 8.06552 16.484 8.37038 16.1952 8.61641C15.9064 8.86244 15.5732 8.98546 15.1955 8.98546C14.8845 8.98546 14.6346 8.85709 14.4457 8.60037C14.2569 8.34364 14.1625 8.05482 14.1625 7.73391C14.1847 7.24185 14.0903 6.79258 13.8792 6.38609C13.6682 5.97961 13.3738 5.56243 12.9961 5.13455Z" fill="#FF441F"/>
</svg>
