<svg width="24" height="16" viewBox="0 0 24 16" fill="none" xmlns="http://www.w3.org/2000/svg">
<path d="M1.33333 16C0.955556 16 0.638889 15.8722 0.383333 15.6167C0.127778 15.3611 0 15.0444 0 14.6667C0 14.2889 0.127778 13.9722 0.383333 13.7167C0.638889 13.4611 0.955556 13.3333 1.33333 13.3333H16C16.3778 13.3333 16.6944 13.4611 16.95 13.7167C17.2056 13.9722 17.3333 14.2889 17.3333 14.6667C17.3333 15.0444 17.2056 15.3611 16.95 15.6167C16.6944 15.8722 16.3778 16 16 16H1.33333ZM21.2 13.7333L16.4 8.93333C16.1333 8.66667 16 8.35556 16 8C16 7.64444 16.1333 7.33333 16.4 7.06667L21.2 2.26667C21.4444 2.02222 21.7556 1.9 22.1333 1.9C22.5111 1.9 22.8222 2.02222 23.0667 2.26667C23.3111 2.51111 23.4333 2.82222 23.4333 3.2C23.4333 3.57778 23.3111 3.88889 23.0667 4.13333L19.2 8L23.0667 11.8667C23.3111 12.1111 23.4333 12.4222 23.4333 12.8C23.4333 13.1778 23.3111 13.4889 23.0667 13.7333C22.8222 13.9778 22.5111 14.1 22.1333 14.1C21.7556 14.1 21.4444 13.9778 21.2 13.7333ZM1.33333 9.33333C0.955556 9.33333 0.638889 9.20556 0.383333 8.95C0.127778 8.69444 0 8.37778 0 8C0 7.62222 0.127778 7.30556 0.383333 7.05C0.638889 6.79444 0.955556 6.66667 1.33333 6.66667H12C12.3778 6.66667 12.6944 6.79444 12.95 7.05C13.2056 7.30556 13.3333 7.62222 13.3333 8C13.3333 8.37778 13.2056 8.69444 12.95 8.95C12.6944 9.20556 12.3778 9.33333 12 9.33333H1.33333ZM1.33333 2.66667C0.955556 2.66667 0.638889 2.53889 0.383333 2.28333C0.127778 2.02778 0 1.71111 0 1.33333C0 0.955556 0.127778 0.638889 0.383333 0.383333C0.638889 0.127778 0.955556 0 1.33333 0H16C16.3778 0 16.6944 0.127778 16.95 0.383333C17.2056 0.638889 17.3333 0.955556 17.3333 1.33333C17.3333 1.71111 17.2056 2.02778 16.95 2.28333C16.6944 2.53889 16.3778 2.66667 16 2.66667H1.33333Z" fill="#FF441F"/>
</svg>
