<svg width="259" height="259" viewBox="0 0 259 259" fill="none" xmlns="http://www.w3.org/2000/svg">
<g clip-path="url(#clip0_770_365)">
<path d="M217.704 259C240.511 259 259 256.941 259 254.402C259 251.863 240.511 249.805 217.704 249.805C194.897 249.805 176.408 251.863 176.408 254.402C176.408 256.941 194.897 259 217.704 259Z" fill="#E6E6E6"/>
<path d="M42.0623 71.3332C42.0756 66.6538 39.3799 62.8262 36.2157 62.8262H6.85396C3.73977 62.8262 1.04913 66.5905 1.01267 71.1957C1.00138 72.5045 1.19578 73.7994 1.58057 74.9782C1.96536 76.157 2.53001 77.1875 3.23003 77.9885C3.40947 78.1862 3.55068 78.4502 3.63954 78.7539C3.7284 79.0576 3.76181 79.3905 3.73642 79.7193C3.70236 80.0925 3.68528 80.4686 3.6853 80.8452V110.88C3.6853 111.986 3.83255 113.08 4.11863 114.102C4.40471 115.123 4.82402 116.051 5.35262 116.833C5.88123 117.615 6.50878 118.235 7.19944 118.658C7.8901 119.081 8.63034 119.299 9.3779 119.299H33.5058C35.0156 119.299 36.4635 118.412 37.5311 116.833C38.5987 115.254 39.1984 113.113 39.1984 110.88V80.8452C39.1985 80.5157 39.1855 80.1864 39.1595 79.8592C39.1366 79.5351 39.1727 79.2079 39.264 78.9115C39.3553 78.615 39.4986 78.3601 39.679 78.1731C40.4137 77.393 41.0128 76.3662 41.4271 75.1772C41.8414 73.9882 42.0591 72.6708 42.0623 71.3332Z" fill="#3F3D56"/>
<path d="M40.7912 70.5092C40.6447 68.88 40.1006 67.3861 39.2611 66.3091C38.4217 65.232 37.3449 64.646 36.2336 64.6614H6.84557C5.80667 64.6477 4.79568 65.1583 3.97955 66.1091C3.16343 67.0599 2.59099 68.3939 2.35678 69.8908C2.15624 71.2665 2.25618 72.7009 2.6422 73.9873C3.02822 75.2737 3.68038 76.3456 4.50475 77.0487C4.74273 77.25 4.92871 77.5625 5.03344 77.9372C5.13817 78.3119 5.15571 78.7274 5.08328 79.1184C4.97899 79.6815 4.92633 80.2627 4.92671 80.8465V110.879C4.92685 112.413 5.28939 113.9 5.95172 115.082C6.61405 116.263 7.5346 117.066 8.5544 117.35C8.82641 117.425 9.10252 117.463 9.37922 117.463H33.5071C33.9145 117.464 34.3199 117.382 34.7119 117.218C35.646 116.829 36.4685 116 37.0545 114.856C37.6404 113.712 37.9576 112.316 37.9577 110.881V80.8437C37.9578 80.2971 37.9116 79.7526 37.8203 79.2229C37.7954 79.0761 37.7826 78.9253 37.7821 78.774C37.7823 78.442 37.8435 78.1163 37.9592 77.8318C38.0749 77.5473 38.2407 77.3147 38.4389 77.1588L38.4408 77.156C39.2404 76.5283 39.8928 75.5575 40.3123 74.3711C40.7318 73.1848 40.8988 71.8385 40.7912 70.5092V70.5092Z" fill="#FF441F"/>
<path opacity="0.2" d="M37.9573 83.7211V80.8975H34.7115V64.6616H32.8022V80.8975H22.5874V64.6616H20.6781V80.8975H10.4633V64.6616H8.55396V80.8975H4.92627V83.7211H8.55396V92.192H4.92627V95.0157H8.55396V103.487H4.92627V106.31H8.55396V117.351C8.82597 117.426 9.10207 117.463 9.37877 117.464H10.4633V106.31H20.6781V117.464H22.5874V106.31H32.8022V117.464H33.5067C33.914 117.464 34.3195 117.382 34.7115 117.218V106.31H37.9573V103.487H34.7115V95.0156H37.9573V92.192H34.7115V83.7211H37.9573ZM10.4633 83.7211H20.6781V92.192H10.4633V83.7211ZM10.4633 103.487V95.0156H20.6781V103.487H10.4633ZM32.8022 103.487H22.5874V95.0156H32.8022V103.487ZM32.8022 92.192H22.5874V83.7211H32.8022V92.192Z" fill="black"/>
<path d="M41.929 0C41.929 3.96016 41.4015 7.88154 40.3768 11.5403C39.352 15.199 37.85 18.5234 35.9565 21.3236C34.063 24.1239 31.8151 26.3452 29.3411 27.8607C26.8671 29.3761 24.2155 30.1562 21.5377 30.1562C18.8599 30.1562 16.2083 29.3761 13.7343 27.8607C11.2603 26.3452 9.01244 24.1239 7.11894 21.3236C5.22544 18.5234 3.72343 15.199 2.69868 11.5403C1.67392 7.88154 1.14648 3.96016 1.14648 0H41.929Z" fill="#FF441F"/>
<path d="M8.62684 5.3533C8.62684 6.14169 8.43776 6.78081 8.20453 6.78081C7.97129 6.78081 7.78223 6.14169 7.78223 5.3533C7.80786 4.81982 7.95699 4.31569 8.20453 3.92578C8.45206 4.31569 8.6012 4.81982 8.62684 5.3533V5.3533Z" fill="#3F3D56"/>
<path d="M29.9838 10.3494C29.9838 11.1378 29.7947 11.7769 29.5615 11.7769C29.3282 11.7769 29.1392 11.1378 29.1392 10.3494C29.1648 9.81592 29.3139 9.31178 29.5615 8.92188C29.809 9.31178 29.9581 9.81592 29.9838 10.3494Z" fill="#3F3D56"/>
<path d="M14.2977 7.4944C14.2977 8.28279 14.1087 8.92192 13.8754 8.92192C13.6422 8.92192 13.4531 8.28279 13.4531 7.4944C13.4788 6.96093 13.6279 6.4568 13.8754 6.06689C14.123 6.4568 14.2721 6.96093 14.2977 7.4944Z" fill="#3F3D56"/>
<path d="M22.744 18.7361C22.744 19.5245 22.5549 20.1636 22.3217 20.1636C22.0885 20.1636 21.8994 19.5245 21.8994 18.7361C21.925 18.2026 22.0742 17.6985 22.3217 17.3086C22.5692 17.6985 22.7184 18.2026 22.744 18.7361V18.7361Z" fill="#3F3D56"/>
<path d="M13.6947 17.3084C13.6947 18.0968 13.5056 18.7359 13.2724 18.7359C13.0392 18.7359 12.8501 18.0968 12.8501 17.3084C12.8757 16.7749 13.0249 16.2708 13.2724 15.8809C13.5199 16.2708 13.6691 16.7749 13.6947 17.3084V17.3084Z" fill="#3F3D56"/>
<path d="M34.8099 3.92556C34.8099 4.71395 34.6209 5.35307 34.3876 5.35307C34.1544 5.35307 33.9653 4.71395 33.9653 3.92556C33.991 3.39208 34.1401 2.88795 34.3876 2.49805C34.6352 2.88795 34.7843 3.39208 34.8099 3.92556Z" fill="#3F3D56"/>
<path d="M27.0878 21.5911C27.0878 22.3795 26.8987 23.0186 26.6655 23.0186C26.4322 23.0186 26.2432 22.3795 26.2432 21.5911C26.2688 21.0576 26.4179 20.5535 26.6655 20.1636C26.913 20.5535 27.0621 21.0576 27.0878 21.5911V21.5911Z" fill="#3F3D56"/>
<path d="M21.5375 31.8513C15.8274 31.8418 10.353 28.4829 6.31532 22.5117C2.27766 16.5405 0.00646333 8.44456 0 0H2.29249C2.29249 3.73755 2.79028 7.4385 3.75743 10.8915C4.72458 14.3446 6.14215 17.4821 7.92922 20.125C9.71628 22.7678 11.8378 24.8642 14.1727 26.2945C16.5076 27.7248 19.0102 28.461 21.5375 28.461C24.0648 28.461 26.5673 27.7248 28.9022 26.2945C31.2371 24.8642 33.3587 22.7678 35.1457 20.125C36.9328 17.4821 38.3504 14.3446 39.3175 10.8915C40.2847 7.4385 40.7825 3.73755 40.7825 0H43.075C43.0685 8.44455 40.7973 16.5405 36.7596 22.5117C32.722 28.4829 27.2476 31.8418 21.5375 31.8513Z" fill="#3F3D56"/>
<path d="M71.147 10.9346H64.3975V20.9164H71.147V10.9346Z" fill="#3F3D56"/>
<path d="M137.293 15.4268H82.9585V16.4249H137.293V15.4268Z" fill="#3F3D56"/>
<path d="M71.147 86.0718H64.3975V96.0536H71.147V86.0718Z" fill="#3F3D56"/>
<path d="M137.293 90.5635H82.9585V91.5617H137.293V90.5635Z" fill="#3F3D56"/>
<path d="M71.147 160.687H64.3975V170.668H71.147V160.687Z" fill="#3F3D56"/>
<path d="M137.293 165.178H82.9585V166.176H137.293V165.178Z" fill="#3F3D56"/>
<path d="M213.396 68.547L204.774 78.5973L186.504 69.1017C186.504 69.1017 180.293 58.7689 176.78 66.4649C175.577 69.1006 183.457 73.9701 184.2 74.4226C186.058 75.554 203.861 89.9978 205.605 88.1028C207.35 86.2079 217.165 76.6234 217.165 76.6234L213.396 68.547Z" fill="#A0616A"/>
<path d="M242.827 51.4027C234.656 46.8871 226.882 44.7506 220.58 51.4027V29.9334C220.58 27.7731 220.868 25.6339 221.427 23.6381C221.986 21.6422 222.805 19.8287 223.838 18.3011C224.871 16.7736 226.097 15.5618 227.447 14.7351C228.796 13.9084 230.243 13.4829 231.704 13.4829H231.704C233.165 13.4829 234.611 13.9084 235.961 14.7351C237.31 15.5618 238.536 16.7736 239.569 18.3012C240.602 19.8287 241.422 21.6422 241.981 23.6381C242.54 25.634 242.827 27.7731 242.827 29.9334L242.827 51.4027Z" fill="#2F2E41"/>
<path d="M222.295 98.3029L221.627 105.215C221.627 105.215 219.958 112.621 221.627 126.446L194.751 234.823L214.616 243.217L224.465 183.968L238.32 138.79L236.985 190.139L229.974 244.945L250.673 243.711L256.705 149.735C257.68 134.883 255.938 119.917 251.661 106.402C249.988 101.147 248.189 97.0047 246.556 96.4035C241.659 94.5998 222.295 98.3029 222.295 98.3029Z" fill="#2F2E41"/>
<path d="M197.255 234.083L190.41 244.945C190.41 244.945 177.223 255.067 186.571 256.301C195.919 257.535 199.091 252.104 199.091 252.104C199.091 252.104 210.776 250.87 210.609 248.401C210.442 245.932 209.608 237.786 209.608 237.786L197.255 234.083Z" fill="#2F2E41"/>
<path d="M234.397 236.702V244.355C234.397 244.355 234.564 247.564 234.397 248.305C234.23 249.045 231.726 258.18 240.073 256.205C248.419 254.23 245.081 246.577 245.081 246.577L243.077 235.467L234.397 236.702Z" fill="#2F2E41"/>
<path d="M231.601 44.9781C236.234 44.9781 239.99 39.4241 239.99 32.5728C239.99 25.7215 236.234 20.1675 231.601 20.1675C226.968 20.1675 223.213 25.7215 223.213 32.5728C223.213 39.4241 226.968 44.9781 231.601 44.9781Z" fill="#A0616A"/>
<path d="M237.402 39.4236C237.402 39.4236 236.233 55.7171 237.402 58.6796C238.571 61.6421 225.55 55.7171 225.55 55.7171C225.55 55.7171 228.388 44.6079 227.386 40.1642C226.384 35.7205 237.402 39.4236 237.402 39.4236Z" fill="#A0616A"/>
<path d="M244.079 86.3294L246.75 97.1918L221.877 101.389C221.877 101.389 219.206 100.648 219.206 97.4386C219.206 94.2293 216.368 82.8732 216.368 82.8732C216.368 82.8732 209.418 74.5422 206.08 72.3203C204.869 71.5155 206.68 71.8479 207.698 68.4312C208.003 67.4042 208.369 66.3204 208.768 65.2218C209.093 64.3207 209.444 63.4073 209.803 62.5062C210.239 61.4077 210.688 60.3264 211.123 59.2969C212.442 56.1839 213.646 53.567 214.031 52.5079C215.2 49.2986 226.186 49.0122 226.186 49.0122C229.327 51.9352 238.403 52.5079 238.403 52.5079C238.403 52.5079 244.647 56.3715 247.247 59.2969C247.436 59.5067 244.079 86.3294 244.079 86.3294Z" fill="#E6E6E6"/>
<path d="M238.68 17.681V17.3864L238.443 17.4059C237.098 15.8913 235.538 14.8496 233.88 14.3597C232.222 13.8698 230.511 13.9447 228.876 14.5786C230.443 15.1912 231.901 16.3049 233.146 17.8411L225.105 18.5017L221.711 29.6546H224.008L225.859 24.6358V29.6546H233.627L234.155 25.7511L235.621 29.6546H237.147C237.157 29.9329 237.171 30.2092 237.171 30.491L235.663 51.9604L242.827 47.4992V30.491C242.829 28.0328 242.457 25.6054 241.739 23.3883C241.021 21.1711 239.976 19.2207 238.68 17.681V17.681Z" fill="#2F2E41"/>
<path d="M249.922 74.4795L249.421 93.9824L248.085 131.754C248.085 131.754 249.922 148.047 245.248 147.8C240.574 147.554 244.079 128.544 244.079 128.544L242.744 98.673L244.079 77.6888L249.922 74.4795Z" fill="#A0616A"/>
<path d="M251.257 85.095C251.257 87.3168 242.827 86.6996 242.827 86.6996L238.403 52.5078C238.403 52.5078 244.647 56.3714 247.247 59.2968C247.86 60.2358 248.36 61.3208 248.728 62.5061C248.927 63.2986 249.115 64.217 249.294 65.2217C249.471 66.2191 249.636 67.3029 249.791 68.4311C250.52 73.9337 251.01 79.4998 251.257 85.095V85.095Z" fill="#E6E6E6"/>
<path d="M21.3106 164.412L8.53299 162.455C8.63117 161.452 8.55579 160.428 8.31389 159.479C8.07198 158.531 7.67145 157.688 7.14969 157.031C6.62793 156.373 6.00196 155.921 5.33027 155.719C4.65857 155.516 3.96306 155.568 3.30869 155.87C2.65431 156.172 2.06242 156.715 1.58831 157.447C1.1142 158.18 0.77333 159.078 0.597537 160.058C0.421744 161.038 0.416768 162.068 0.583067 163.051C0.749366 164.035 1.08152 164.94 1.5485 165.682C1.07404 166.44 0.739848 167.366 0.578257 168.371C0.416666 169.376 0.43314 170.425 0.626086 171.418C0.819033 172.411 1.18192 173.313 1.67965 174.037C2.17738 174.762 2.79311 175.284 3.46729 175.554C4.14146 175.823 4.85126 175.831 5.52804 175.576C6.20481 175.321 6.82566 174.812 7.33053 174.099C7.83539 173.385 8.2072 172.491 8.40997 171.503C8.61275 170.514 8.63964 169.465 8.48803 168.457L21.3106 166.714V164.412Z" fill="#CCCCCC"/>
<path d="M34.3037 177.399C39.3269 179.226 44.3871 173.957 44.649 166.317C44.6563 166.105 44.6599 165.892 44.6599 165.677C44.66 165.463 44.6563 165.249 44.649 165.038C44.3871 157.398 39.3269 152.129 34.3037 153.955L17.263 160.152C16.772 160.152 16.2858 160.294 15.8322 160.571C15.3785 160.849 14.9662 161.256 14.6189 161.769C14.2716 162.282 13.9961 162.891 13.8082 163.562C13.6202 164.232 13.5234 164.951 13.5234 165.677C13.5234 166.403 13.6202 167.122 13.8082 167.793C13.9961 168.464 14.2716 169.073 14.6189 169.586C14.9662 170.099 15.3785 170.506 15.8322 170.783C16.2858 171.061 16.772 171.203 17.263 171.202L34.3037 177.399Z" fill="#FF441F"/>
</g>
<defs>
<clipPath id="clip0_770_365">
<rect width="259" height="259" fill="white"/>
</clipPath>
</defs>
</svg>
